<?xml version="1.0" encoding="UTF-8"?>
<svg width="120px" height="43px" viewBox="0 0 120 43" version="1.1" xmlns="http://www.w3.org/2000/svg" xmlns:xlink="http://www.w3.org/1999/xlink">
    <title>10-1</title>
    <defs>
        <polygon id="path-1" points="0 42.8571429 120 42.8571429 120 0 0 0"></polygon>
    </defs>
    <g id="10-1" stroke="none" stroke-width="1" fill="none" fill-rule="evenodd">
        <g id="Group-62">
            <polygon id="Fill-1" fill="#D70C18" points="0 43 120 43 120 0 0 0"></polygon>
            <g id="Group-61">
                <path d="M11.2973143,11.0143714 C12.0816,11.9906571 13.3433143,12.4500857 14.5716,12.2058 C17.8373143,11.4000857 20.9916,10.2429429 24.3516,9.59151429 C26.0658857,8.63151429 27.9516,8.07437143 29.7087429,7.20865714 C30.3610286,6.70722857 30.6430286,5.8578 30.4201714,5.0658 C30.1544571,4.26008571 29.2887429,4.05437143 28.7058857,3.63437143 C27.4287429,3.46294286 26.0916,3.30865714 25.0801714,4.14008571 C24.3858857,5.03151429 23.2030286,5.3058 22.2858857,6.00008571 C21.9001714,6.30008571 21.3344571,6.24008571 21.0087429,6.71151429 C18.9430286,7.00294286 17.1430286,7.17437143 15.4287429,8.51151429 C13.9904571,8.56808571 12.5581714,8.72922857 11.1430286,8.99151429 C10.3801714,9.67722857 11.4773143,10.2858 11.2973143,11.0143714" id="Fill-2" fill="#FFFFFF"></path>
                <path d="M61.2087429,34.5686571 C61.0973143,33.4972286 60.7373143,32.4858 60.5573143,31.5686571 C60.1407429,28.8515143 59.9316,26.1060857 59.9316,23.3572286 C59.8767429,21.4398 59.6581714,19.5300857 59.2801714,17.6486571 C58.7401714,16.4572286 59.4858857,15.2658 58.9201714,14.0743714 C58.7658857,13.3740857 58.7170286,12.6549429 58.7744571,11.9400857 C59.0144571,11.2543714 59.7258857,11.2543714 60.1458857,10.7743714 C61.6887429,10.3286571 63.5058857,9.76294286 64.9887429,10.7143714 C66.2401714,11.7258 68.2621714,11.2800857 69.4793143,10.5686571 C69.8401714,9.82294286 70.4316,9.07722857 70.3364571,8.22008571 C69.7116,6.90865714 68.0478857,6.90865714 66.7716,6.58294286 L66.0001714,6.58294286 C64.1316,5.57151429 62.3144571,6.84865714 60.6516,7.35437143 C59.5201714,7.86008571 58.0287429,7.47437143 57.0773143,8.4258 C55.8001714,8.34008571 54.8744571,9.13722857 53.6487429,9.13722857 C53.0573143,9.73722857 52.1316,9.43722857 51.5058857,9.94294286 C50.7533143,9.99008571 50.0067429,10.1109429 49.2773143,10.3029429 C48.9516,10.9543714 48.0601714,10.6886571 47.6401714,11.1600857 C46.5430286,11.5458 45.3516,11.8115143 44.2116,12.1115143 C42.2144571,12.7972286 39.9858857,12.4972286 37.9373143,12.8829429 C37.3081714,12.9463714 36.7116,13.1940857 36.2230286,13.5943714 C35.9916,14.7258 37.2944571,14.7258 37.7401714,15.5315143 C38.4601714,16.6629429 39.7973143,16.6629429 40.8087429,17.3143714 C41.2201714,17.6743714 41.9058857,17.3743714 42.2316,17.9400857 C43.5816,18.4526571 45.0576,18.5366571 46.4573143,18.1800857 C47.5287429,17.4686571 48.8058857,17.0486571 49.6716,15.9515143 C50.8030286,15.6772286 51.4887429,14.4943714 52.4401714,14.0143714 C53.1516,13.8943714 53.8030286,13.0886571 54.5230286,13.5943714 C54.9087429,13.7743714 54.6687429,14.0743714 54.7287429,14.4515143 C55.0347429,15.0678 55.0810286,15.7809429 54.8573143,16.4315143 L54.8573143,16.9972286 C55.2087429,23.8020857 54.6173143,30.2915143 54.0001714,37.1315143 C53.6144571,38.3143714 54.3516,39.3000857 54.3516,40.3363714 C54.8916,40.7915143 55.0973143,41.6486571 55.9030286,41.9143714 C57.0601714,42.3000857 58.8430286,42.4792286 59.7687429,41.4686571 C61.5850286,40.6715143 60.9858857,38.4078 61.6116,36.8315143 C61.2773143,36.0858 61.7744571,35.2286571 61.2087429,34.5686571" id="Fill-4" fill="#FFFFFF"></path>
                <path d="M45.3000857,36.8571429 C45.0600857,36.4714286 44.4943714,36.2314286 44.0829429,35.9314286 C42.4458,35.5285714 40.9149429,34.7802857 39.5915143,33.7371429 C38.7858,34.0028571 38.4858,33.0171429 37.8000857,32.9314286 C37.4743714,32.5457143 36.8486571,32.4257143 36.5229429,32.0742857 C35.0058,31.6885714 34.0543714,30.3171429 32.8629429,29.6314286 C30.6686571,28.62 29.1515143,26.0314286 27.5143714,24.3428571 C26.4429429,23.3571429 25.0715143,21.9942857 25.1058,20.2971429 C25.5772286,19.2257143 26.8200857,18.8657143 27.8058,18.36 C28.9972286,17.5028571 30.6943714,16.9628571 31.3800857,15.5657143 C31.6209429,15.0377143 31.5858,14.4257143 31.2858,13.9285714 C30.9000857,13.1228571 29.9229429,13.1571429 29.1515143,12.8571429 C27.2400857,12.6771429 25.8772286,14.1085714 24.8058,15.2057143 C24.1543714,15.2657143 23.4343714,16.0628571 22.8086571,15.36 C22.5283714,14.5628571 22.1169429,13.8188571 21.5915143,13.1571429 C21.3000857,12.9171429 20.8200857,13.0971429 20.5800857,12.7114286 C19.9286571,13.0114286 19.2172286,12.7114286 18.5915143,12.9171429 C18.0369429,13.1434286 17.5955143,13.5814286 17.3658,14.1342857 C17.5458,15.3857143 16.7400857,16.3971429 17.2543714,17.5628571 C17.4258,18.9942857 16.0286571,19.8857143 15.0172286,20.5114286 C13.3029429,20.7514286 12.3429429,22.2257143 10.6800857,22.56 C10.0200857,22.8942857 9.24865714,22.9542857 8.59722857,23.22 C7.9458,23.4857143 6.63437143,23.1 6.30008571,23.9914286 C6.4278,24.7791429 6.80322857,25.5051429 7.37151429,26.0657143 C7.75722857,26.9228571 8.88865714,27.2228571 9.66865714,27.78 C10.8258,28.1657143 11.9829429,27.6 13.0972286,27.6942857 C13.6123714,29.1608571 13.3166571,30.7894286 12.3172286,31.98 C11.9940857,32.9794286 11.4009429,33.8691429 10.6029429,34.5514286 C10.6029429,35.0314286 9.95151429,35.0914286 9.89151429,35.5371429 C9.65151429,35.6571429 9.4458,35.9228571 9.12008571,35.8285714 C8.46608571,35.2148571 7.53351429,34.9988571 6.67722857,35.2628571 C6.28208571,35.424 5.99322857,35.7711429 5.9058,36.1885714 C4.95437143,36.6342857 5.9058,37.32 5.6058,38.0314286 C5.6058,38.4771429 6.29151429,38.6571429 6.05151429,39.1971429 C6.45608571,40.1965714 7.38608571,40.8848571 8.46008571,40.98 C10.2515143,41.9571429 11.7343714,40.7142857 13.3972286,40.38 C15.4158,38.826 17.0546571,36.8331429 18.1886571,34.5514286 C18.1886571,33.96 18.6686571,33.78 18.6943714,33.1885714 C19.1400857,32.7085714 18.9600857,31.9628571 19.4058,31.4742857 C19.8258,30.7371429 19.7058,29.6914286 20.0315143,28.98 C20.0075143,28.0697143 20.2586571,27.174 20.7515143,26.4085714 C22.0886571,26.52 22.4658,27.7457143 23.4515143,28.3971429 C23.7172286,29.0828571 24.5829429,29.3228571 24.8229429,29.9142857 C26.8715143,32.4857143 28.4486571,35.3228571 30.5315143,37.8857143 L33.8058,40.38 C36.7200857,40.98 40.0200857,40.2085714 42.9686571,40.1142857 C43.8858,39.5828571 45.1972286,39.9085714 46.0286571,39.1028571 C46.1486571,38.7171429 46.5343714,38.3314286 46.3886571,37.8857143 C46.0715143,37.5171429 45.8315143,36.9514286 45.3000857,36.8571429" id="Fill-6" fill="#FFFFFF"></path>
                <path d="M72.6939429,21.2142857 C70.7310857,21.0942857 68.3490857,19.8171429 66.6262286,21.2142857 C65.8548,23.3914286 67.1910857,25.56 68.9148,27.1371429 C69.3596571,27.4371429 69.7719429,27.6085714 69.7719429,28.1485714 C71.2230857,28.6105714 72.7668,28.7022857 74.2625143,28.4142857 C74.3225143,27.6085714 75.3939429,27.8828571 75.4796571,27.1371429 C76.4053714,24.9342857 74.9148,23.1171429 73.5510857,21.6342857 C73.2313714,21.5785714 72.9339429,21.4328571 72.6939429,21.2142857" id="Fill-8" fill="#FFFFFF"></path>
                <path d="M99.3516,28.2003429 L99.5230286,28.3889143 C99.6327429,28.4197714 99.7441714,28.4420571 99.8573143,28.4574857 L105.299314,28.4146286 C105.444171,28.3880571 105.574457,28.3126286 105.668743,28.2003429 C105.736457,28.1969143 105.803314,28.2183429 105.857314,28.2594857 L109.388743,28.2594857 L109.525886,28.3709143 L109.525886,30.1289143 C109.423029,30.3517714 109.645886,30.7803429 109.328743,30.8994857 L106.465886,30.8994857 C106.336457,30.9106286 106.2216,30.9843429 106.156457,31.0974857 C106.097314,31.2774857 106.2516,31.3546286 106.354457,31.4394857 L110.957314,31.4394857 L114.043029,31.4394857 L114.188743,31.2860571 C114.283029,31.1223429 114.128743,31.0109143 114.043029,30.9174857 L110.983029,30.8574857 L110.888743,30.7537714 L110.888743,28.3803429 L110.957314,28.2689143 C110.957314,28.2689143 111.050743,28.2689143 111.077314,28.2252 C112.285886,28.1746286 113.554457,28.2252 114.720171,28.1660571 C114.865886,28.1660571 114.8916,27.9766286 114.8736,27.8403429 C114.857314,27.7032 114.754457,27.7374857 114.703029,27.6937714 C113.485886,27.6003429 112.260171,27.6937714 110.974457,27.6260571 L110.905029,27.5394857 L110.905029,25.7832 C110.743029,25.3966286 110.280171,25.4317714 109.945029,25.4737714 C109.268743,25.6194857 109.645886,26.4603429 109.543029,26.9317714 C109.457314,27.1717714 109.628743,27.5317714 109.388743,27.6774857 L106.474457,27.6774857 C106.183029,27.7280571 105.840171,27.6774857 105.617314,27.8232 C103.380171,27.8232 101.854457,27.8232 99.6173143,27.8917714 C99.5058857,27.9517714 99.4287429,28.1060571 99.3516,28.2003429" id="Fill-10" fill="#FFFFFF"></path>
                <path d="M84.4201714,27.3172286 C83.4687429,27.3686571 82.4316,27.3172286 81.5230286,27.3686571 C81.3858857,27.3686571 81.3678857,27.5400857 81.3601714,27.6592286 C81.3516,27.7800857 81.4630286,27.8315143 81.5658857,27.8572286 L83.4944571,27.8572286 L88.2944571,27.8572286 C88.4058857,27.8649429 88.5104571,27.8032286 88.5601714,27.7029429 C88.5601714,27.5829429 88.5601714,27.4886571 88.4830286,27.4029429 C87.7278857,27.2486571 86.9230286,27.4029429 86.1344571,27.3343714 L85.9887429,27.2306571 C86.0187429,26.7378 86.0187429,26.2423714 85.9887429,25.7486571 C85.8173143,25.4315143 85.4487429,25.4915143 85.1316,25.4572286 C84.2744571,25.5686571 84.7544571,26.6058 84.6258857,27.1715143 C84.5856,27.2512286 84.5093143,27.3060857 84.4201714,27.3172286" id="Fill-12" fill="#FFFFFF"></path>
                <path d="M104.6568,26.6400857 L105.111086,26.5878 C105.2448,26.5226571 105.301371,26.3640857 105.240514,26.2286571 C105.2088,26.1592286 105.143657,26.1112286 105.068229,26.1000857 C104.031943,26.0572286 102.899657,26.1000857 101.8968,26.1000857 C101.325086,26.0555143 100.749943,26.0769429 100.182514,26.1592286 C100.0908,26.2260857 100.047086,26.3400857 100.071086,26.4515143 C100.139657,26.5286571 100.191086,26.6058 100.285371,26.6315143 L104.6568,26.6400857 Z" id="Fill-14" fill="#FFFFFF"></path>
                <path d="M84.3516,28.0881429 C84.0816,27.9227143 83.7344571,27.9501429 83.4944571,28.1567143 C82.9613143,29.4072857 82.3004571,30.5995714 81.5230286,31.7138571 L81.5230286,31.9281429 C81.6070286,32.0627143 81.7510286,32.1484286 81.9078857,32.1595714 C82.4916,31.9118571 82.8516,31.2432857 83.2544571,30.7538571 C83.3033143,30.6261429 83.4121714,30.5301429 83.5458857,30.4975714 C83.8973143,30.7804286 84.1630286,31.1661429 84.5230286,31.4575714 C84.7098857,31.5235714 84.9173143,31.461 85.0373143,31.3024286 C85.0373143,31.2432857 85.1144571,31.1661429 85.0373143,31.1061429 C84.9001714,30.7032857 84.3858857,30.3252857 84.1801714,29.8967143 C83.7001714,29.4424286 84.4116,29.0395714 84.4716,28.611 C84.5496,28.4292857 84.5016,28.2175714 84.3516,28.0881429" id="Fill-16" fill="#FFFFFF"></path>
                <path d="M87.0342857,28.1568 C86.85,28.1902286 86.6888571,28.2990857 86.5877143,28.4576571 C86.3562857,29.4236571 85.9714286,30.3468 85.4485714,31.1910857 C85.3885714,31.3419429 85.4425714,31.5133714 85.5771429,31.6033714 C86.2285714,31.9282286 86.2885714,31.0710857 86.6914286,30.8490857 C87.0162857,31.1568 87.2742857,31.6453714 87.6085714,31.9025143 C87.7808571,31.9402286 87.9617143,31.9025143 88.1057143,31.7996571 C88.1571429,31.6976571 88.2257143,31.6033714 88.1657143,31.4919429 C87.8048571,30.9450857 87.5168571,30.3545143 87.3085714,29.7348 C87.48,29.3405143 87.8657143,28.9968 87.8228571,28.5425143 C87.6857143,28.2168 87.3342857,28.1825143 87.0342857,28.1568" id="Fill-18" fill="#FFFFFF"></path>
                <path d="M105.025971,29.7773143 L100.380257,29.7773143 L100.268829,29.7773143 C100.087971,29.7773143 100.020257,30.0164571 100.054543,30.1716 C100.120543,30.2393143 100.1994,30.2950286 100.285971,30.3336 L104.785971,30.3336 L105.043114,30.3336 C105.164829,30.2873143 105.248829,30.1733143 105.2574,30.0430286 C105.2574,29.8801714 105.1194,29.8287429 105.025971,29.7773143" id="Fill-20" fill="#FFFFFF"></path>
                <path d="M104.965714,31.5946286 L100.422857,31.5946286 C100.294286,31.5946286 100.148571,31.5946286 100.071429,31.7489143 C100.011429,31.8860571 100.072286,32.0463429 100.208571,32.1089143 L104.785714,32.1089143 C104.913429,32.1337714 105.047143,32.0917714 105.137143,31.9974857 C105.178286,31.9194857 105.178286,31.8269143 105.137143,31.7489143 C105.096,31.6812 105.036857,31.6272 104.965714,31.5946286" id="Fill-22" fill="#FFFFFF"></path>
                <path d="M81.4285714,33.6168857 C82.2857143,33.7034571 83.0485714,33.6168857 83.8714286,33.6768857 C83.9228571,33.6768857 83.8714286,33.7626 83.8714286,33.8063143 C83.3074286,34.7714571 82.5925714,35.6388857 81.7542857,36.3777429 C81.6085714,36.4797429 81.4114286,36.5997429 81.3514286,36.7626 C81.3308571,36.8611714 81.36,36.9631714 81.4285714,37.0368857 C81.9428571,37.3120286 82.3371429,36.7720286 82.6542857,36.5054571 C82.7057143,36.4206 82.8771429,36.4206 82.8857143,36.2911714 C83.3417143,35.8831714 83.7711429,35.4443143 84.1714286,34.9797429 C84.1714286,34.8854571 84.3257143,34.8940286 84.3171429,34.7911714 C84.48,34.6977429 84.4885714,34.3711714 84.6857143,34.5263143 C84.5271429,35.4451714 84.4611429,36.3786 84.4885714,37.3120286 L84.4885714,37.5948857 C84.5742857,37.7611714 84.732,37.8786 84.9171429,37.9120286 C85.2514286,37.9120286 85.6542857,37.9120286 85.8257143,37.5948857 C85.8762857,36.6357429 85.8445714,35.6748857 85.7314286,34.7226 L85.8,34.7226 C86.4711429,35.2754571 87.1782857,35.7820286 87.9171429,36.2406 L88.2857143,36.2406 C88.4228571,36.1540286 88.5685714,35.9997429 88.4828571,35.8120286 C87.678,35.3080286 86.9545714,34.6831714 86.34,33.9597429 C86.34,33.8654571 86.16,33.7540286 86.34,33.6940286 L88.4657143,33.6940286 C88.596,33.6434571 88.6825714,33.5174571 88.6800558,33.3777429 C88.6800558,33.2568857 88.5257143,33.2226 88.4314286,33.1797429 L86.1857143,33.1797429 C86.1085714,33.1797429 85.9885714,33.1797429 85.9371429,33.0948857 C85.8085714,32.6320286 86.1085714,32.2377429 85.7571429,31.8777429 C85.5342857,31.6454571 85.1314286,31.6977429 84.84,31.7483143 C84.3085714,31.9626 84.6,32.6054571 84.5142857,33.0340286 C84.5142857,33.0948857 84.4114286,33.1883143 84.3342857,33.1797429 L81.4714286,33.1797429 L81.2914286,33.2826 C81.2314286,33.3777429 81.3342857,33.5397429 81.4285714,33.6168857" id="Fill-24" fill="#FFFFFF"></path>
                <path d="M108.986057,32.1344571 C108.796629,32.0076 108.567771,31.9553143 108.3432,31.9887429 C108.171771,32.0478857 107.948914,32.1258857 107.888914,32.3307429 C107.888914,33.7373143 107.846057,35.3307429 107.828057,36.7201714 L107.828057,36.9516 C108.030343,37.3227429 108.417771,37.5550286 108.840343,37.5601714 C110.159486,37.5001714 111.737486,37.7993143 112.928914,37.2944571 C113.422629,36.9610286 113.700343,36.3884571 113.656629,35.7944571 C113.4732,35.5441714 113.168057,35.4130286 112.860343,35.4516 C112.628057,35.4781714 112.424057,35.6161714 112.311771,35.8201714 C112.259486,36.3558857 111.921771,36.8221714 111.428914,37.0373143 L109.526057,37.0373143 C109.396629,36.9858857 109.2252,36.9601714 109.166057,36.8058857 L109.166057,33.1801714 C109.0452,32.8201714 109.286057,32.4001714 108.986057,32.1344571" id="Fill-26" fill="#FFFFFF"></path>
                <path d="M111.3432,35.1428571 C111.620914,35.1788571 111.9012,35.0948571 112.113771,34.9114286 C112.210629,34.7905714 112.248343,34.6337143 112.217486,34.4828571 C111.968914,33.9377143 111.656057,33.4251429 111.2832,32.9571429 C111.071486,32.6597143 110.826343,32.3862857 110.554629,32.1428571 C110.3232,32.1428571 110.031771,32.1 109.911771,32.3142857 C109.817486,32.8371429 110.348914,33.1714286 110.460343,33.6257143 C110.820343,34.08 110.571771,34.9971429 111.3432,35.1428571" id="Fill-28" fill="#FFFFFF"></path>
                <path d="M114.188314,35.6484 C114.514029,35.7255429 114.856029,35.6458286 115.114029,35.4341143 C115.233171,35.2738286 115.270886,35.0681143 115.216886,34.8778286 C114.856886,34.3712571 114.454886,33.8912571 114.0426,33.3941143 C113.777743,33.1712571 113.571171,32.7769714 113.245457,32.6312571 C113.075743,32.5849714 112.894029,32.6064 112.7406,32.6912571 C112.637743,32.7915429 112.600886,32.9415429 112.645457,33.0769714 C113.0046,33.5432571 113.3226,34.0395429 113.597743,34.5598286 C113.759743,34.9284 113.777743,35.4255429 114.188314,35.6484" id="Fill-30" fill="#FFFFFF"></path>
                <path d="M101.383114,33.8738571 C101.383114,33.7624286 101.5374,33.7967143 101.614543,33.7624286 L103.680257,33.7624286 L103.740257,33.831 L103.740257,36.8995714 L103.6374,36.9767143 L101.425971,36.9767143 C101.365114,35.931 101.348829,34.8252857 101.383114,33.8738571 L101.383114,33.8738571 Z M100.105971,37.1061429 C100.257686,37.2912857 100.465114,37.4241429 100.6974,37.4832857 C101.8374,37.5707143 102.9834,37.5852857 104.125971,37.5261429 L104.631686,37.3624286 C104.924829,37.2038571 105.111686,36.8995714 105.1194,36.5661429 C105.361971,36.6501429 105.618257,36.6852857 105.873686,36.669 C106.585114,36.4452857 106.4574,35.6138571 106.653686,35.0481429 C106.801971,34.4164286 106.873971,33.7692857 106.867971,33.1195714 C106.754829,32.9832857 106.591114,32.8967143 106.414543,32.8804286 C106.251686,32.931 106.028829,32.8804286 105.960257,33.1375714 C105.882257,33.9398571 105.664543,34.7232857 105.3174,35.4518571 C105.2574,35.5452857 105.205971,35.7004286 105.103114,35.6481429 C104.8974,34.791 105.582257,33.3252857 104.245971,33.1795714 L101.674543,33.1795714 C101.2794,33.135 100.878257,33.1872857 100.507971,33.3338571 C100.298829,33.477 100.147114,33.6895714 100.0794,33.9338571 L100.0794,36.8652857 L100.105971,37.1061429 Z" id="Fill-32" fill="#FFFFFF"></path>
                <path d="M90.8571429,34.5342857 C90.8777143,34.4794286 90.9274286,34.44 90.9857143,34.4314286 C91.6285714,34.4031429 92.274,34.4228571 92.9142857,34.4914286 C92.9142857,35.2714286 92.9742857,36.0257143 92.9142857,36.72 L90.9428571,36.72 L90.8742857,36.72 C90.8571429,36 90.78,35.2542857 90.8571429,34.5342857 L90.8571429,34.5342857 Z M90.8571429,31.4742857 C90.8571429,31.4142857 90.9771429,31.4142857 91.0371429,31.3885714 C91.6662857,31.3611429 92.2971429,31.3808571 92.9228571,31.4485714 L92.9228571,33.8485714 C92.2517143,33.8828571 91.5797143,33.8828571 90.9085714,33.8485714 L90.8657143,33.7885714 L90.8571429,31.4742857 Z M90.8571429,28.5857143 C90.8571429,28.3542857 91.1314286,28.4828571 91.26,28.4314286 L92.8971429,28.4314286 L92.8971429,28.5857143 L92.8971429,30.7457143 C92.2277143,30.8142857 91.5531429,30.8142857 90.8828571,30.7457143 L90.8571429,28.5857143 Z M91.2514286,25.8685714 C91.1854286,25.6525714 91.0028571,25.4931429 90.78,25.4571429 C90.4542857,25.4142857 90.0857143,25.4057143 89.9228571,25.7142857 C89.526,27.2202857 88.8582857,28.6405714 87.9514286,29.9057143 C87.9128571,30.0257143 87.9351429,30.1568571 88.0114286,30.2571429 C88.1314286,30.3385714 88.278,30.3745714 88.4228571,30.36 C88.8771429,30.1285714 89.1,29.6228571 89.4514286,29.3057143 L89.4514286,34.7142857 C89.4428571,35.4017143 89.4771429,36.0882857 89.5542857,36.7714286 C89.7711429,37.0928571 90.1345714,37.2865714 90.5228571,37.2857171 L96.9685714,37.2857171 L97.0971429,37.2085714 C97.1717143,37.1194286 97.1717143,36.9891429 97.0971429,36.9 C96.3754286,36.8022857 95.646,36.7825714 94.92,36.84 C94.7134286,36.8648571 94.5034286,36.8357143 94.3114286,36.7542857 L94.3114286,34.5771429 L94.3885714,34.4657143 C95.1685714,34.3371429 95.9485714,34.4657143 96.7457143,34.38 C96.8657143,34.38 96.8485714,34.2171429 96.8828571,34.1142857 C96.9171429,34.0114286 96.7457143,33.9942857 96.6857143,33.9342857 L94.56,33.9342857 C94.4742857,33.9342857 94.32,33.9342857 94.3114286,33.78 L94.3114286,31.4914286 C94.3114286,31.4314286 94.4057143,31.4228571 94.4485714,31.3885714 L96.5742857,31.3885714 L96.7714286,31.2942857 C96.7714286,31.2171429 96.9085714,31.1571429 96.8314286,31.0628571 C96.7542857,30.9685714 96.7028571,30.9342857 96.6428571,30.8657143 L94.4142857,30.8657143 L94.3114286,30.78 L94.3114286,28.5162857 L94.3971429,28.44 L96.9685714,28.44 C97.0971429,28.3885714 97.1142857,28.2514286 97.1828571,28.1571429 L97.0114286,27.9685714 L93.9085714,27.9685714 L93.8485714,27.9685714 C94.224,27.4774286 94.6397143,27.018 95.0914286,26.5971429 C95.274,26.448 95.3631429,26.2122857 95.3228571,25.98 C95.1248571,25.7485714 94.83,25.6225714 94.5257143,25.6371429 C93.9257143,25.6371429 93.8142857,26.34 93.5228571,26.7257143 C93.2305714,27.1105714 92.9982857,27.5382857 92.8371429,27.9942857 L90.4542857,27.9942857 C90.6925714,27.4002857 90.9788571,26.8268571 91.3114286,26.28 L91.2514286,25.8685714 Z" id="Fill-34" fill="#FFFFFF"></path>
                <mask id="mask-2" fill="white">
                    <use xlink:href="#path-1"></use>
                </mask>
                <g id="Clip-37"></g>
                <polygon id="Fill-36" fill="#FFFFFF" mask="url(#mask-2)" points="0 17.1942857 15.2828571 17.1942857 15.2828571 16.5514286 0 16.5514286"></polygon>
                <polygon id="Fill-38" fill="#FFFFFF" mask="url(#mask-2)" points="31.6457143 17.1942857 38.34 17.1942857 38.34 16.5514286 31.6457143 16.5514286"></polygon>
                <polygon id="Fill-39" fill="#FFFFFF" mask="url(#mask-2)" points="50.3828571 17.1942857 54.6942857 17.1942857 54.6942857 16.5514286 50.3828571 16.5514286"></polygon>
                <polygon id="Fill-40" fill="#FFFFFF" mask="url(#mask-2)" points="60.0514286 17.34 120 17.34 120 16.6971429 60.0514286 16.6971429"></polygon>
                <polygon id="Fill-41" fill="#FFFFFF" mask="url(#mask-2)" points="0 29.0914286 10.08 29.0914286 10.08 28.4485714 0 28.4485714"></polygon>
                <polygon id="Fill-42" fill="#FFFFFF" mask="url(#mask-2)" points="20.4942857 29.0914286 23.0228571 29.0914286 23.0228571 28.4485714 20.4942857 28.4485714"></polygon>
                <polygon id="Fill-43" fill="#FFFFFF" mask="url(#mask-2)" points="32.5371429 29.0914286 53.5028571 29.0914286 53.5028571 28.4485714 32.5371429 28.4485714"></polygon>
                <polygon id="Fill-44" fill="#FFFFFF" mask="url(#mask-2)" points="61.0971429 29.0914286 69.5742857 29.0914286 69.5742857 28.4485714 61.0971429 28.4485714"></polygon>
                <polygon id="Fill-45" fill="#FFFFFF" mask="url(#mask-2)" points="75.2228571 29.0914286 80.1342857 29.0914286 80.1342857 28.4485714 75.2228571 28.4485714"></polygon>
                <polygon id="Fill-46" fill="#FFFFFF" mask="url(#mask-2)" points="115.68 29.0914286 120 29.0914286 120 28.4485714 115.68 28.4485714"></polygon>
                <polygon id="Fill-47" fill="#FFFFFF" mask="url(#mask-2)" points="0 33.8485714 10.2342857 33.8485714 10.2342857 33.2057143 0 33.2057143"></polygon>
                <polygon id="Fill-48" fill="#FFFFFF" mask="url(#mask-2)" points="19.3028571 33.8485714 25.9971429 33.8485714 25.9971429 33.2057143 19.3028571 33.2057143"></polygon>
                <polygon id="Fill-49" fill="#FFFFFF" mask="url(#mask-2)" points="40.4228571 33.8485714 53.2114286 33.8485714 53.2114286 33.2057143 40.4228571 33.2057143"></polygon>
                <polygon id="Fill-50" fill="#FFFFFF" mask="url(#mask-2)" points="61.8342857 33.8485714 80.1265714 33.8485714 80.1265714 33.2057143 61.8342857 33.2057143"></polygon>
                <polygon id="Fill-51" fill="#FFFFFF" mask="url(#mask-2)" points="115.68 33.8485714 120 33.8485714 120 33.2057143 115.68 33.2057143"></polygon>
                <polygon id="Fill-52" fill="#FFFFFF" mask="url(#mask-2)" points="0 36.3771429 4.73142857 36.3771429 4.73142857 35.7342857 0 35.7342857"></polygon>
                <polygon id="Fill-53" fill="#FFFFFF" mask="url(#mask-2)" points="18.1114286 36.3771429 27.78 36.3771429 27.78 35.7342857 18.1114286 35.7342857"></polygon>
                <polygon id="Fill-54" fill="#FFFFFF" mask="url(#mask-2)" points="45.6257143 36.3771429 52.7657143 36.3771429 52.7657143 35.7342857 45.6257143 35.7342857"></polygon>
                <polygon id="Fill-55" fill="#FFFFFF" mask="url(#mask-2)" points="62.58 36.3771429 80.28 36.3771429 80.28 35.7342857 62.58 35.7342857"></polygon>
                <polygon id="Fill-56" fill="#FFFFFF" mask="url(#mask-2)" points="115.38 36.3771429 120 36.3771429 120 35.7342857 115.38 35.7342857"></polygon>
                <polygon id="Fill-57" fill="#FFFFFF" mask="url(#mask-2)" points="0 40.6885714 4.87714286 40.6885714 4.87714286 40.0457143 0 40.0457143"></polygon>
                <polygon id="Fill-58" fill="#FFFFFF" mask="url(#mask-2)" points="14.9914286 40.6885714 31.5 40.6885714 31.5 40.0457143 14.9914286 40.0457143"></polygon>
                <polygon id="Fill-59" fill="#FFFFFF" mask="url(#mask-2)" points="46.5171429 40.6885714 53.0571429 40.6885714 53.0571429 40.0457143 46.5171429 40.0457143"></polygon>
                <polygon id="Fill-60" fill="#FFFFFF" mask="url(#mask-2)" points="62.28 40.6885714 120 40.6885714 120 40.0457143 62.28 40.0457143"></polygon>
            </g>
        </g>
    </g>
</svg>