<?xml version="1.0" encoding="UTF-8"?>
<svg width="120px" height="52px" viewBox="0 0 120 52" version="1.1" xmlns="http://www.w3.org/2000/svg" xmlns:xlink="http://www.w3.org/1999/xlink">
    <title>10-3</title>
    <defs>
        <linearGradient x1="0%" y1="49.9998717%" x2="100%" y2="49.9998717%" id="linearGradient-1">
            <stop stop-color="#E72410" offset="0.073902027%"></stop>
            <stop stop-color="#C11920" offset="100%"></stop>
        </linearGradient>
    </defs>
    <g id="10-3" stroke="none" stroke-width="1" fill="none" fill-rule="evenodd">
        <g id="Group-30">
            <polygon id="Fill-1" fill="url(#linearGradient-1)" points="0 52 120 52 120 0 0 0"></polygon>
            <g id="Group-29" transform="translate(9.022556, 5.257444)" fill="#FEFEFE">
                <path d="M0.645428571,34.9936692 L1.6902406,35.0220902 C1.64106767,36.1914135 1.56257143,37.2037444 1.45790977,38.0726165 L0.285879699,37.8610376 C0.473548872,36.9181805 0.591744361,35.9590827 0.645428571,34.9936692 L0.645428571,34.9936692 Z M1.89685714,32.7944211 L3.30798496,32.709609 L3.30798496,35.1190827 L3.9946015,34.8326165 C4.32708271,35.4876541 4.57881203,36.1020902 4.75881203,36.6867519 L3.72663158,37.248406 C3.60392481,36.7309624 3.46362406,36.2518647 3.30798496,35.8142707 L3.30798496,43.3873534 L1.89685714,43.4757744 L1.89685714,32.7944211 Z M4.39971429,34.2641955 L5.93986466,34.1694586 L5.93986466,32.5490075 L7.38392481,32.4596842 L7.38392481,34.0814887 L10.014,33.9213383 L10.014,37.2705113 L10.8264812,37.2195338 L10.8264812,38.4926165 L8.62407519,38.628406 C8.85099248,39.2726165 9.10227068,39.7963759 9.38828571,40.2032932 C9.81415038,40.7870526 10.3243759,41.2278045 10.9180602,41.5219398 L10.0609173,43.0241955 C9.28993985,42.5081053 8.68723308,41.8828421 8.25595489,41.1511128 C7.86076692,40.4730677 7.52061654,39.6601353 7.23505263,38.7150226 L7.14166917,38.7177293 C7.01851128,39.383594 6.84663158,39.9628421 6.62061654,40.4644962 C6.12076692,41.5918647 5.34753383,42.5342707 4.30542857,43.2831429 L3.49430075,42.0082556 C4.35144361,41.4493083 4.97354887,40.7139699 5.35881203,39.7995338 C5.48422556,39.507203 5.58888722,39.1742707 5.6746015,38.8075038 L3.80783459,38.924797 L3.80783459,37.6476541 L5.86903759,37.5213383 C5.91640602,37.0264511 5.93986466,36.4832932 5.93986466,35.8963759 L5.93986466,35.4429925 L4.39971429,35.5359248 L4.39971429,34.2641955 Z M7.38392481,35.3559248 L7.38392481,35.8070526 C7.38392481,36.3876541 7.36452632,36.9303609 7.31760902,37.4351729 L8.65069173,37.3521654 L8.65069173,35.278782 L7.38392481,35.3559248 Z" id="Fill-3"></path>
                <path d="M16.4793835,31.9384511 L17.8323158,32.0417594 C17.7718647,32.290782 17.6996842,32.5249173 17.6252481,32.7373985 L18.7025414,32.6724361 L18.7025414,34.4773985 C18.7620902,34.475594 18.8306617,34.4665714 18.898782,34.454391 C19.192015,33.7727368 19.4275038,32.9011579 19.6079549,31.8405564 L20.9130677,32.1279248 C20.6275038,33.0346917 20.363594,33.7384511 20.1136692,34.239203 C20.2914135,34.1922857 20.4777293,34.1431128 20.6721654,34.0916842 C20.8562256,33.6649173 21.027203,33.2164962 21.1805865,32.7410075 L22.407203,33.162812 C22.0007368,34.0601053 21.5879549,34.8477744 21.1706617,35.5190526 L21.9105113,35.2786015 C22.2213383,36.1154436 22.4338195,36.9035639 22.5475038,37.6366466 L21.4156241,38.0196541 C21.3966767,37.8274737 21.3723158,37.6325865 21.3339699,37.4358947 C20.5061504,37.684015 19.6688571,37.9055188 18.8306617,38.0963459 L18.7025414,37.3614586 L18.7025414,37.779203 L17.8783308,37.8315338 L17.8783308,38.4671729 L22.3616391,38.1933383 L22.3616391,39.3279248 L19.0160752,39.5304812 C19.3237444,39.7384511 19.6629925,39.9076241 20.0351729,40.0492782 C20.7655489,40.3217594 21.648406,40.5116842 22.6769774,40.6163459 L21.8649474,42.0234135 C20.6347218,41.7441654 19.6688571,41.3778496 18.9714135,40.9370977 C18.5663008,40.684015 18.2076541,40.390782 17.8783308,40.0659699 L17.8783308,42.3595038 L16.4329173,42.4483759 L16.4329173,40.2031128 C16.0530677,40.6010075 15.6614887,40.9483759 15.249609,41.2339398 C14.3947218,41.8037143 13.4744211,42.2602556 12.4945714,42.5927368 L11.8679549,41.2772481 C13.1951729,40.9136391 14.3225414,40.4083759 15.238782,39.762812 L12.044797,39.9581504 L12.044797,38.8217594 L16.4329173,38.5560451 L16.4329173,37.9199549 L15.6890075,37.9641654 C15.6948722,38.0097293 15.7020902,38.0570977 15.7160752,38.1049173 L14.7181805,38.4301805 C14.6951729,38.2231128 14.6653985,38.0056692 14.6383308,37.7864211 C13.8641955,38.0570977 13.0905113,38.2939398 12.3195338,38.4964962 L12.0917143,37.281609 C12.2897594,37.2698797 12.4981805,37.2486767 12.7160752,37.2193534 C13.0751729,36.7411579 13.4090075,36.2025113 13.7117143,35.594391 C13.2461504,35.7464211 12.7841955,35.8813083 12.3195338,36.0035639 L12.0917143,34.7886767 C12.2144211,34.7819098 12.3420902,34.7701805 12.4693083,34.7552932 C12.8090075,34.1011579 13.0751729,33.2593534 13.269609,32.2298797 L14.4831429,32.5235639 C14.1858496,33.3910827 13.901188,34.0664211 13.6426917,34.5446165 C13.6426917,34.5513835 13.6354737,34.5599549 13.6305113,34.5676241 C13.8204361,34.5234135 14.0180301,34.4773985 14.2210376,34.4300301 C14.367203,34.0641654 14.5043459,33.6829624 14.6243459,33.2805564 L15.4819398,33.5751429 L15.4819398,32.8704812 L16.3038947,32.8186015 C16.3814887,32.5339398 16.4396842,32.2425113 16.4793835,31.9384511 L16.4793835,31.9384511 Z M14.4741203,36.8349925 C14.4538195,36.6865714 14.4195338,36.5435639 14.3816391,36.399203 C14.2675038,36.5986015 14.1466015,36.7835639 14.0238947,36.9536391 C14.1700602,36.921609 14.3225414,36.882812 14.4741203,36.8349925 L14.4741203,36.8349925 Z M14.659985,35.944015 L15.1724662,35.7825113 C15.2924662,36.1709323 15.3957744,36.5449173 15.4819398,36.9103308 L15.4819398,34.2928872 C15.2099098,34.9032632 14.9396842,35.4540902 14.659985,35.944015 L14.659985,35.944015 Z M16.7586316,34.8283759 L17.4299098,34.7877744 L17.4299098,33.7948421 L16.7586316,33.8318346 L16.7586316,34.8283759 Z M17.4299098,36.815594 L17.4299098,35.7387519 L16.7586316,35.7775489 L16.7586316,36.8566466 L17.4299098,36.815594 Z M18.7025414,36.8760451 C18.8017895,36.8710827 18.9019398,36.8607068 19.0066015,36.8462707 C19.399985,36.3757444 19.7595338,35.8398045 20.092015,35.2506316 C19.6607368,35.4008571 19.2244962,35.5348421 18.786,35.6521353 L18.7025414,35.0697293 L18.7025414,36.8760451 Z M21.1580301,36.4957444 C21.1025414,36.2724361 21.0416391,36.0468722 20.9726165,35.8231128 C20.7858496,36.1195038 20.5977293,36.3915338 20.4069023,36.6455188 C20.653218,36.5986015 20.9044962,36.5467218 21.1580301,36.4957444 L21.1580301,36.4957444 Z" id="Fill-5"></path>
                <polygon id="Fill-7" points="24.3551729 32.5913233 33.2288571 32.0513233 33.2288571 33.4033534 29.5079549 33.6316241 29.5079549 39.4723759 33.8960752 39.2003459 33.8960752 40.5699699 23.6726165 41.1916241 23.6726165 39.8305714 27.969609 39.5635038 27.969609 33.7250075 24.3551729 33.9483158"></polygon>
                <path d="M37.4768571,30.6555338 L38.9619699,30.9329774 C38.7359549,31.7409474 38.4494887,32.5286165 38.1030226,33.2896692 L38.1030226,41.1235038 L36.6562556,41.2110226 L36.6562556,35.8601955 C36.2962556,36.3816992 35.9015188,36.8919248 35.4873835,37.3886165 L34.9455789,35.6973383 C36.1027218,34.3069624 36.9472331,32.6238045 37.4768571,30.6555338 M40.4222707,30.4750827 L42.0413684,30.6523759 C41.9019699,31.1332782 41.7499398,31.5943308 41.5798647,32.0373383 L45.7158045,31.7847068 L45.7158045,33.1403459 L41.8712932,33.3726767 L41.8712932,34.6489173 L45.121218,34.4495188 L45.121218,35.8029023 L41.8712932,36.003203 L41.8712932,37.4513233 L45.3093383,37.2392932 L45.3093383,38.5953835 L41.8712932,38.805609 L41.8712932,40.8902707 L40.3753534,40.9841053 L40.3753534,34.5077143 C40.0126466,35.1013985 39.6183609,35.6526767 39.1943008,36.1665113 L38.291594,34.8654586 C39.247985,33.7489173 39.9585113,32.2872632 40.4222707,30.4750827" id="Fill-9"></path>
                <path d="M50.9613835,29.9682857 L52.7194286,29.8613684 L52.7194286,32.5383609 C52.7767218,33.8615188 53.1985263,35.0353534 53.9961203,36.0625714 C54.7864962,37.0536992 55.8710075,37.8382105 57.2501053,38.4124962 L56.2066466,40.0609173 C55.2209323,39.5669323 54.3317594,38.9475338 53.5458947,38.2094887 C52.8953684,37.5905414 52.3192782,36.7158045 51.8162707,35.5798647 C51.5185263,36.6129474 51.0890526,37.4610677 50.5332632,38.1395639 C49.8529624,38.9597143 48.9069474,39.7749023 47.6929624,40.5819699 L46.6210827,39.3382105 C47.9726617,38.4743008 49.0061955,37.4741504 49.7383759,36.3332481 C50.4890526,35.1282857 50.8977744,33.897609 50.9613835,32.6461805 L50.9613835,29.9682857 Z" id="Fill-11"></path>
                <path d="M58.5113684,35.3915188 L60.8148271,35.2507669 L60.8148271,34.5303158 L61.3178346,34.4982857 L61.3178346,35.2200902 L63.4002406,35.0915188 L63.4002406,35.544 L61.3178346,35.6721203 L61.3178346,39.6573835 L60.8148271,39.6867068 L60.8148271,36.0370827 C60.5892632,36.4760301 60.3059549,36.9163308 59.9630977,37.3521203 C59.4343759,38.0012932 58.9354286,38.4966316 58.4658045,38.8322707 L58.2808421,38.4411429 C58.6922707,38.1443008 59.1190376,37.7080602 59.5670075,37.1333233 C59.9306165,36.6691128 60.2261053,36.2026466 60.4489624,35.7226466 L58.5113684,35.8417444 L58.5113684,35.3915188 Z M59.8250526,31.3764812 L60.2721203,31.4861053 C60.2089624,31.7585865 60.1322707,32.0283609 60.0298647,32.2994887 C60.3636992,32.5489624 60.6686617,32.8336241 60.9564812,33.1561805 L60.6456541,33.5473083 C60.3943759,33.2292632 60.1381353,32.9563308 59.8661053,32.727609 C59.8033985,32.8778346 59.7411429,33.0199398 59.6739248,33.1633985 C59.4077594,33.7286617 59.1258045,34.2253534 58.8262556,34.6530226 L58.4658045,34.3507669 C58.7838496,33.9280602 59.056782,33.4494135 59.2891128,32.9008421 C59.5372331,32.3576842 59.7140752,31.8483609 59.8250526,31.3764812 L59.8250526,31.3764812 Z M58.7360301,30.8143759 L63.5409925,30.5188872 L63.5409925,30.9731729 L58.7360301,31.2668571 L58.7360301,30.8143759 Z M60.7755789,29.1966316 C61.096782,29.5029474 61.3697143,29.8421955 61.5952782,30.2197895 L61.1418947,30.5734737 C60.9479098,30.1818947 60.6943759,29.8200902 60.3673083,29.4867068 L60.7755789,29.1966316 Z M61.9990376,31.2420451 L62.4501654,31.3503158 C62.350015,31.7049023 62.2322707,32.0513684 62.0910677,32.3924211 C62.5182857,32.7438496 62.8913684,33.1182857 63.2166316,33.5139248 L62.857985,33.9086617 C62.5719699,33.5161805 62.2485113,33.1593383 61.8853534,32.8336241 C61.859188,32.8814436 61.841594,32.9233985 61.827609,32.9644511 C61.5515188,33.5058045 61.2650526,33.9754286 60.9564812,34.3859549 L60.5969323,34.0958797 C60.9262556,33.6830977 61.2073083,33.2166316 61.4459549,32.6987368 C61.6976842,32.180391 61.8853534,31.6931729 61.9990376,31.2420451 L61.9990376,31.2420451 Z M61.8122707,36.0948271 C62.3924211,36.5351278 62.9224962,37.0624962 63.4002406,37.6769323 L63.0898647,38.0996391 C62.5958797,37.4585865 62.0811429,36.9181353 61.5429474,36.4796391 L61.8122707,36.0948271 Z M64.7549774,29.0342256 L65.2557293,29.141594 C65.1154286,29.7993383 64.930015,30.4430977 64.686406,31.0769323 L68.6491128,30.8333233 L68.6491128,31.2844511 L66.8418947,31.3936241 L66.8418947,33.122797 L68.427609,33.0244511 L68.427609,33.4760301 L66.8418947,33.5739248 L66.8418947,35.4722707 L68.427609,35.3770827 L68.427609,35.830015 L66.8418947,35.9224962 L66.8418947,38.1050526 L68.7853534,37.9832481 L68.7853534,38.4352782 L64.5352782,38.6955789 L64.5352782,39.6443008 L64.0399398,39.6745263 L64.0399398,32.6324211 C63.8761805,32.960391 63.7119699,33.2626466 63.5409925,33.542797 L63.1209925,33.207609 C63.5058045,32.6130226 63.8342256,31.9385865 64.1202406,31.1797895 C64.4238496,30.4106165 64.6345263,29.6955789 64.7549774,29.0342256 L64.7549774,29.0342256 Z M66.299188,33.1530226 L66.299188,31.4279098 L64.5352782,31.5361805 L64.5352782,33.2617444 L66.299188,33.1530226 Z M66.299188,35.5047519 L66.299188,33.6059549 L64.5352782,33.7119699 L64.5352782,35.6125714 L66.299188,35.5047519 Z M64.5352782,38.2444511 L66.299188,38.1348271 L66.299188,35.9581353 L64.5352782,36.0655038 L64.5352782,38.2444511 Z M66.2513684,29.1249023 C66.6830977,29.5259549 67.0471579,29.9685113 67.3376842,30.4606917 L66.8874586,30.8030977 C66.6348271,30.3149774 66.2838496,29.8539248 65.8449023,29.4194887 L66.2513684,29.1249023 Z" id="Fill-13"></path>
                <path d="M69.8195188,30.5409925 L73.988391,30.2856541 L73.988391,30.7381353 L69.8195188,30.9930226 L69.8195188,30.5409925 Z M70.3162105,32.1330226 L73.6288421,31.9327218 L73.6288421,32.3788872 L70.3162105,32.5841504 L70.3162105,32.1330226 Z M70.3162105,33.8121203 L73.6288421,33.6113684 L73.6288421,34.0602406 L70.3162105,34.2641504 L70.3162105,33.8121203 Z M73.4903459,35.2498647 L73.4903459,38.6549774 L72.9909474,38.6861053 L72.9909474,38.2358797 L71.0434286,38.3554286 L71.0434286,39.0244511 L70.5485414,39.0573835 L70.5485414,35.4303158 L73.4903459,35.2498647 Z M71.0434286,37.8776842 L72.9909474,37.7612932 L72.9909474,35.7298647 L71.0434286,35.8521203 L71.0434286,37.8776842 Z M71.4995188,28.5384361 C71.9037293,28.9489624 72.2510977,29.4068571 72.5425263,29.9247519 L72.0886917,30.2630977 C71.8396692,29.7510677 71.5085414,29.2737744 71.0966617,28.8307669 L71.4995188,28.5384361 Z M74.532,35.0021955 L75.0359098,35.1104662 C74.8297444,35.950015 74.514406,36.8098647 74.0826767,37.6931729 L73.6288421,37.5046015 C74.0465865,36.6199398 74.3479398,35.7871579 74.532,35.0021955 L74.532,35.0021955 Z M74.3046316,30.4855038 L76.9301955,30.3249023 L76.9301955,28.2871579 L77.4264361,28.2573835 L77.4264361,30.2955789 L80.3249323,30.1182857 L80.3249323,30.5707669 L77.4264361,30.7480602 L77.4264361,32.6473083 L79.9649323,32.4889624 L79.9649323,32.9446015 L74.7097444,33.2658045 L74.7097444,32.8128722 L76.9301955,32.6775338 L76.9301955,30.7769323 L74.3046316,30.9393383 L74.3046316,30.4855038 Z M75.6228271,34.3444511 L76.1208722,34.3137744 L76.1208722,37.4883609 C76.1208722,37.7477594 76.1655338,37.905203 76.2566617,37.9539248 C76.3374135,38.0161805 76.9080902,38.0161805 77.9745564,37.9539248 C78.2817744,37.9345263 78.4590677,37.8623459 78.5050827,37.7360301 C78.5605714,37.6327218 78.6070376,37.104 78.6435789,36.1521203 L79.1903459,36.4782857 C79.1217744,37.5046015 79.0198195,38.0685113 78.8885414,38.1758797 C78.8159098,38.3265564 78.5136541,38.4158797 77.9745564,38.4519699 C76.7583158,38.5255038 76.0730526,38.5070075 75.9205714,38.3924211 C75.7225263,38.3414436 75.6228271,38.0784361 75.6228271,37.5993383 L75.6228271,34.3444511 Z M76.7438797,33.5116692 C77.3249323,34.1175338 77.8053835,34.7928722 78.1947068,35.540391 L77.7413233,35.8927218 C77.3894436,35.1605414 76.9256842,34.4626466 76.3405714,33.8021955 L76.7438797,33.5116692 Z M79.1407218,34.6277594 C79.5904962,35.2187368 80.0294436,35.9157293 80.4656842,36.7209925 L80.0921504,37.104 C79.734406,36.3722707 79.3008722,35.6554286 78.7852331,34.9620451 L79.1407218,34.6277594 Z" id="Fill-15"></path>
                <path d="M91.5322556,27.5386015 C91.3657895,27.1222105 91.2832331,26.2154436 91.2832331,24.8232632 L91.2832331,23.1865714 L84.594812,23.1865714 L84.594812,24.4366466 C84.594812,25.9551429 84.7220301,27.1952932 84.9742105,28.1724361 L91.8056391,27.8097293 C91.6739098,27.7321353 91.5755639,27.6419098 91.5322556,27.5386015" id="Fill-17"></path>
                <path d="M37.2275188,30.7079549 L37.2275188,14.4244962 C37.2275188,11.9951729 37.1210526,10.3183308 36.9171429,9.40028571 C36.7145865,8.48584962 36.1457143,7.6747218 35.2186466,6.97231579 C34.2884211,6.27126316 33.1651128,5.91893233 31.846015,5.91893233 C30.9852632,5.91893233 30.1804511,6.07682707 29.4261654,6.38855639 C28.6709774,6.70254135 27.9717293,7.17216541 27.3234586,7.7947218 L27.3234586,0.689007519 L19.7774436,0.689007519 L19.7774436,31.6345714 L27.3225564,31.2335188 L27.3234586,13.8019398 C27.3234586,12.4864511 27.4042105,11.6099098 27.5657143,11.1682556 C27.7285714,10.7252481 28.0398496,10.5028421 28.5022556,10.5028421 C28.9984962,10.5028421 29.3206015,10.7171278 29.4622556,11.148406 C29.6043609,11.5769774 29.6801504,12.5450977 29.6801504,14.053218 L29.6801504,31.1085564 L37.2275188,30.7079549 Z" id="Fill-19"></path>
                <path d="M96.3395639,17.1547669 C94.6970075,16.311609 93.6106917,15.6673985 93.0810677,15.2257444 C92.5509925,14.7836391 92.2365564,14.3771729 92.1282857,14.0081504 C92.0222707,13.6359699 91.9685865,13.0517594 91.9685865,12.2604812 C91.9685865,11.6749173 92.0759549,11.2346165 92.2875338,10.9445414 C92.4995639,10.6495038 92.8158045,10.5028872 93.2398647,10.5028872 C93.7658797,10.5028872 94.0902406,10.6652932 94.2197143,10.9828872 C94.3536992,11.3004812 94.4182105,12.0592782 94.4182105,13.2570226 L94.4182105,14.6586767 L101.103925,14.6586767 L101.103925,13.1582256 C101.103925,11.8589774 101.038962,10.9025865 100.908586,10.2899549 C100.775955,9.67867669 100.40603,9.01416541 99.7893383,8.29957895 C99.1690376,7.58454135 98.2861805,7.00890226 97.1344511,6.57266165 C95.9836241,6.13822556 94.5855789,5.91897744 92.9398647,5.91897744 C91.2873835,5.91897744 89.8306917,6.18514286 88.5797143,6.71882707 C87.3296391,7.25341353 86.4395639,8.01040602 85.917609,8.99341353 C85.6288872,9.53296241 85.4218195,10.2326617 85.2932481,11.1015338 L85.2932481,5.91897744 C83.2099398,6.06288722 81.6260301,7.35221053 80.527985,9.78965414 L80.8270827,6.38634586 L73.2810677,6.38634586 L73.2810677,28.7938647 L80.8270827,28.392812 L80.8270827,22.0531128 C80.8270827,19.5430376 80.9015188,17.9406316 81.0517444,17.2436391 C81.2001654,16.5493534 81.5989624,16.0066466 82.2490376,15.6132632 C82.8851278,15.2347669 83.8789624,15.0398797 85.2233233,15.0317594 C85.335203,15.8834887 85.5472331,16.6576241 85.8603158,17.3433383 C86.347985,18.404391 87.696406,19.5818346 89.912797,20.885594 C92.5532481,22.4189774 94.0185113,23.3433383 94.3063308,23.6519098 C94.5783609,23.9676992 94.7168571,24.7422857 94.7168571,25.9765714 C94.7168571,26.8034887 94.6243759,27.3673985 94.4434737,27.6696541 L101.504075,27.295218 C101.624075,26.5242406 101.686331,25.6386767 101.686331,24.6317594 C101.686331,22.7424361 101.343474,21.3073985 100.656406,20.3180752 C99.9733985,19.3301053 98.5333985,18.2767218 96.3395639,17.1547669" id="Fill-21"></path>
                <path d="M15.6225113,31.3974586 C17.135594,30.3702406 18.1140902,29.1706917 18.5548421,27.8010677 C18.9973985,26.4355038 19.2166466,24.1171579 19.2166466,20.8464812 L19.2166466,19.6153534 L11.3530376,19.6153534 L11.3530376,23.5848271 C11.3530376,25.321218 11.2650677,26.4228722 11.0832632,26.8906917 C10.9023609,27.3639248 10.5193534,27.5980602 9.93514286,27.5980602 C9.32206015,27.5980602 8.93003008,27.3639248 8.75815038,26.8943008 C8.58266165,26.4228722 8.49559398,25.4263308 8.49559398,23.887985 L8.49559398,9.21415038 C8.49559398,7.61580451 8.58266165,6.57640602 8.75815038,6.09505263 C8.93003008,5.61324812 9.34100752,5.37144361 9.98702256,5.37144361 C10.5599549,5.37144361 10.934391,5.57039098 11.1017594,5.9664812 C11.2682256,6.36121805 11.3530376,7.36001504 11.3530376,8.95790977 L11.3530376,14.446782 L19.2166466,14.446782 L19.2166466,11.4445263 C19.2166466,8.49866165 18.9838647,6.32377444 18.5083759,4.92753383 C18.0364962,3.53264662 17.0462707,2.36287218 15.5381504,1.42948872 C14.0291278,0.494300752 12.1190526,0.0273834586 9.80386466,0.0273834586 C8.09724812,0.0273834586 6.58777444,0.328736842 5.27228571,0.933699248 C3.95815038,1.53821053 2.93138346,2.36873684 2.19153383,3.42031579 C1.44852632,4.4746015 1.0055188,5.57039098 0.854390977,6.71039098 C0.70687218,7.84813534 0.631984962,9.55430075 0.631984962,11.8333985 L0.631984962,21.0594135 C0.631984962,24.1550526 0.87243609,26.4747519 1.35920301,28.0144511 C1.84642105,29.5550526 2.83529323,30.7631729 4.33078195,31.6356541 C4.83604511,31.9306917 5.39273684,32.171594 5.99183459,32.3664812 L14.7599549,31.9009173 C15.0576992,31.747985 15.3482256,31.5842256 15.6225113,31.3974586" id="Fill-23"></path>
                <path d="M45.258406,13.6833835 C45.258406,12.2280451 45.3202105,11.3330075 45.4447218,11.0023308 C45.5683308,10.671203 45.893594,10.5029323 46.416,10.5029323 C46.8418647,10.5029323 47.1202105,10.7005263 47.2587068,11.0893985 C47.3963008,11.4809774 47.4630677,12.3417293 47.4630677,13.6833835 L47.4630677,15.577218 L45.258406,15.577218 L45.258406,13.6833835 Z M53.3859248,29.8202256 C54.0937444,28.843985 54.5475789,27.9259398 54.7379549,27.0692481 C54.9310376,26.2130075 55.0307368,24.9832331 55.0307368,23.3794737 L55.0307368,21.4707519 L47.873594,21.4707519 L47.873594,24.8835338 C47.873594,26.1728571 47.7756992,27.0394737 47.5853233,27.4892481 C47.3904361,27.9363158 47.0074286,28.1605263 46.4358496,28.1605263 C45.974797,28.1605263 45.6621654,27.9922556 45.502015,27.6539098 C45.3391579,27.3151128 45.258406,26.5608271 45.258406,25.3910526 L45.258406,19.7916541 L55.0307368,19.7916541 L55.0307368,16.3590226 C55.0307368,13.8453383 54.7510376,11.8996241 54.1961504,10.5133083 C53.6435188,9.13015038 52.6790075,8.01586466 51.3035188,7.17766917 C49.9257744,6.33992481 48.1794586,5.91902256 46.0591579,5.91902256 C44.3308872,5.91902256 42.7988571,6.26684211 41.4657744,6.96112782 C40.133594,7.65857143 39.1749474,8.65917293 38.5884812,9.96789474 C38.0042707,11.2734586 37.7110376,13.0603759 37.7110376,15.3241353 L37.7110376,22.8737594 C37.7110376,24.8000752 37.8409624,26.2648872 38.1030677,27.2722556 C38.3638195,28.2800752 38.8325414,29.2035338 39.5137444,30.0448872 C39.660812,30.2262406 39.8259248,30.3954135 39.9987068,30.5609774 L53.3597594,29.8509023 C53.3683308,29.8405263 53.3782556,29.8310526 53.3859248,29.8202256 L53.3859248,29.8202256 Z" id="Fill-25"></path>
                <path d="M63.0821053,13.6833835 C63.0821053,12.2280451 63.1430075,11.3330075 63.2679699,11.0023308 C63.3920301,10.671203 63.7154887,10.5029323 64.238797,10.5029323 C64.662406,10.5029323 64.9430075,10.7005263 65.0810526,11.0893985 C65.2177444,11.4809774 65.2840602,12.3417293 65.2840602,13.6833835 L65.2840602,15.577218 L63.0821053,15.577218 L63.0821053,13.6833835 Z M72.5643609,27.0692481 C72.7565414,26.2130075 72.8517293,24.9832331 72.8517293,23.3794737 L72.8517293,21.4707519 L65.6977444,21.4707519 L65.6977444,24.8835338 C65.6977444,26.1728571 65.601203,27.0394737 65.4054135,27.4892481 C65.2109774,27.9363158 64.8324812,28.1605263 64.2609023,28.1605263 C63.7984962,28.1605263 63.4890226,27.9922556 63.3234586,27.6539098 C63.1646617,27.3151128 63.0821053,26.5608271 63.0821053,25.3910526 L63.0821053,19.7916541 L72.8517293,19.7916541 L72.8517293,16.3590226 C72.8517293,13.8453383 72.5756391,11.8996241 72.0216541,10.5133083 C71.467218,9.13015038 70.5,8.01586466 69.1254135,7.17766917 C67.7490226,6.33992481 66.0022556,5.91902256 63.8846617,5.91902256 C62.1532331,5.91902256 60.6225564,6.26684211 59.2885714,6.96112782 C57.9568421,7.65857143 56.9972932,8.65917293 56.4126316,9.96789474 C55.8270677,11.2734586 55.5324812,13.0603759 55.5324812,15.3241353 L55.5324812,22.8737594 C55.5324812,24.8000752 55.6642105,26.2648872 55.9267669,27.2722556 C56.1482707,28.1284962 56.5294737,28.9197744 57.052782,29.6555639 L71.8181955,28.8715038 C72.1781955,28.2444361 72.4335338,27.6417293 72.5643609,27.0692481 L72.5643609,27.0692481 Z" id="Fill-27"></path>
            </g>
        </g>
    </g>
</svg>