<?xml version="1.0" encoding="UTF-8"?>
<svg width="120px" height="41px" viewBox="0 0 120 41" version="1.1" xmlns="http://www.w3.org/2000/svg" xmlns:xlink="http://www.w3.org/1999/xlink">
    <title>10-4</title>
    <defs>
        <polygon id="path-1" points="0 41.4915254 119.919458 41.4915254 119.919458 0.185084746 0 0.185084746"></polygon>
    </defs>
    <g id="10-4" stroke="none" stroke-width="1" fill="none" fill-rule="evenodd">
        <polygon id="Fill-1" fill="#E3007E" points="0 41 120 41 120 0 0 0"></polygon>
        <g id="Group-56">
            <path d="M83.8472542,18.3132203 L91.9787797,18.3132203 L91.9787797,16.3700339 L71.7654915,16.3700339 L71.7654915,18.3132203 L79.8970169,18.3132203 L79.8970169,22.6344407 C79.8970169,22.8154576 79.9035254,22.9952542 79.9120678,23.1746441 C79.9018983,23.2913898 79.8945763,23.4081356 79.8811525,23.5252881 L71.7654915,23.5252881 L71.7654915,25.2451525 L79.5634576,25.2451525 C78.667322,28.7438644 76.2160678,32.344678 71.7654915,36.1700339 L71.7654915,38.0062373 C71.7654915,38.0062373 78.4456271,34.7540339 81.8707119,29.1807458 C85.2957966,34.7548475 91.9787797,38.0062373 91.9787797,38.0062373 L91.9787797,36.1700339 C87.5282034,32.344678 85.0000678,27.8981695 84.1808136,25.2451525 L91.9787797,25.2451525 L91.9787797,23.5252881 L83.8631186,23.5252881 C83.851322,23.4187119 83.8399322,23.3121356 83.8305763,23.2047458 C83.8407458,23.016 83.8472542,22.8256271 83.8472542,22.6344407 L83.8472542,18.3132203 Z" id="Fill-2" fill="#FEFEFE"></path>
            <path d="M13.2624407,4.76989831 L10.4739661,4.76989831 L10.4739661,6.59959322 L5.2240678,6.59959322 L5.2240678,8.29261017 L18.6071186,8.29261017 L18.6071186,6.59959322 L13.2624407,6.59959322 L13.2624407,4.76989831 Z M32.1260339,36.3750508 C32.1260339,36.3750508 31.383661,36.236339 31.383661,35.3389831 L31.383661,24.3457627 L34.8929492,24.3457627 L34.8929492,4.76989831 L20.1162712,4.76989831 L20.1162712,24.3457627 L23.2981017,24.3457627 C23.0194576,27.1346441 22.6452203,31.9985085 18.6567458,37.9480678 L20.6654237,37.9480678 C22.6700339,35.5383051 25.636678,31.1011525 26.3656271,24.3457627 L28.3165424,24.3457627 L28.3165424,34.9118644 C28.3165424,37.9317966 30.7722712,37.9789831 30.7722712,37.9789831 L34.8929492,37.9789831 L34.8929492,36.3750508 L32.1260339,36.3750508 Z M23.1829831,10.5551186 L31.8250169,10.5551186 L31.8250169,6.61423729 L23.1829831,6.61423729 L23.1829831,10.5551186 Z M23.1829831,16.3456271 L31.8250169,16.3456271 L31.8250169,12.4722712 L23.1829831,12.4722712 L23.1829831,16.3456271 Z M23.1829831,22.5258305 L31.8250169,22.5258305 L31.8250169,18.188339 L23.1829831,18.188339 L23.1829831,22.5258305 Z M5.2240678,16.1788475 L10.5211525,16.1788475 L10.5211525,20.6701017 L5.2240678,20.6701017 L5.2240678,22.5909153 L8.96033898,22.5909153 C8.42745763,26.016 6.43342373,30.1765424 5.2240678,31.6494915 L5.2240678,33.8001356 C5.2240678,33.8001356 8.54216949,31.5111864 10.5211525,26.4748475 L10.5211525,37.9480678 L13.3092203,37.9480678 L13.3092203,26.4748475 C15.2882034,31.5111864 18.6071186,33.8001356 18.6071186,33.8001356 L18.6071186,31.6494915 C17.3973559,30.1765424 15.4029153,26.016 14.8700339,22.5909153 L18.6071186,22.5909153 L18.6071186,20.6701017 L13.3092203,20.6701017 L13.3092203,16.1788475 L18.6071186,16.1788475 L18.6071186,14.4357966 L5.2240678,14.4357966 L5.2240678,16.1788475 Z" id="Fill-4" fill="#FEFEFE"></path>
            <path d="M44.3026576,38.0060746 L44.3026576,36.2113627 L49.6554712,36.2113627 C49.6554712,36.2113627 50.9836068,36.3834305 50.9836068,34.8177356 L50.9836068,18.3342102 L37.7677424,18.3342102 L37.7677424,16.4418712 L50.9836068,16.4418712 L50.9836068,11.5568542 L58.9853695,6.42939661 L39.6173695,6.42939661 L39.6173695,4.73597288 L65.2664542,4.73597288 L65.2664542,6.37204068 L54.9509288,12.8032271 L54.9509288,16.4418712 L69.0674034,16.4418712 L69.0674034,18.3342102 L54.9509288,18.3342102 L54.9509288,34.6590915 C54.9509288,38.1285153 51.8846237,38.0060746 51.8846237,38.0060746 L44.3026576,38.0060746 Z" id="Fill-6" fill="#FEFEFE"></path>
            <path d="M114.890441,18.3130169 L114.890441,16.3698305 L94.6771525,16.3698305 L94.6771525,18.3130169 L102.883119,18.3130169 L102.883119,37.9816271 L106.684068,37.9816271 L106.684068,23.1935593 C108.061017,23.9717288 110.060746,24.903661 112.207322,25.2445424 L112.207322,23.7227797 C109.858983,22.5602034 107.967864,21.2320678 106.684068,20.216339 L106.684068,18.3130169 L114.890441,18.3130169 Z" id="Fill-8" fill="#FEFEFE"></path>
            <path d="M14.489939,6.95674576 C13.0999729,6.76515254 12.2587525,7.66210169 11.8682441,8.29261017 C11.4781424,7.66210169 10.636922,6.76515254 9.24654915,6.95674576 C7.66376949,7.17559322 7.11136271,8.42155932 7.39407458,9.78630508 C7.73048136,11.4113898 9.61875254,13.4098983 11.8682441,14.4357966 C14.1189559,13.4098983 16.0060068,11.4113898 16.3432271,9.78630508 C16.625939,8.42155932 16.0731254,7.17559322 14.489939,6.95674576" id="Fill-10" fill="#8EC31F"></path>
            <path d="M71.7185492,7.5891661 C71.7368542,7.42930169 71.750278,7.24584407 71.7584136,7.0392 C71.7661424,6.83214915 71.7702102,6.49858983 71.7702102,6.03770847 L71.7702102,5.80991186 C71.7702102,5.46414915 71.7661424,5.19404746 71.7584136,4.99879322 C71.750278,4.80353898 71.7368542,4.62862373 71.7185492,4.47364068 C71.8601085,4.47933559 72.0053288,4.48340339 72.1554305,4.48625085 C72.3047186,4.48909831 72.4613288,4.49072542 72.6244475,4.49072542 C72.7896,4.49072542 72.9397017,4.48909831 73.0755661,4.48625085 C73.2114305,4.48340339 73.3391593,4.47933559 73.4599729,4.47364068 C73.4530576,4.52489492 73.4481763,4.56475932 73.4465492,4.5932339 C73.4441085,4.62170847 73.4424814,4.64814915 73.4424814,4.67214915 C73.4424814,4.69614915 73.4441085,4.72136949 73.4465492,4.74781017 C73.4481763,4.77425085 73.4530576,4.81370847 73.4599729,4.86618305 C73.2358373,4.85072542 73.0430237,4.83852203 72.8786847,4.82997966 C72.7147525,4.82143729 72.5727864,4.81655593 72.4511593,4.81492881 C72.4454644,4.87025085 72.4405831,4.9292339 72.4389559,4.99228475 C72.436922,5.05492881 72.4361085,5.1472678 72.4361085,5.26970847 L72.4361085,5.48774237 L72.4377356,5.79648814 C72.532922,5.79364068 72.6948203,5.78835254 72.9238373,5.78062373 C73.1524475,5.77289492 73.3257356,5.76679322 73.4424814,5.76231864 C73.4355661,5.80828475 73.4306847,5.84448814 73.4290576,5.87174237 C73.4266169,5.89899661 73.4249898,5.92584407 73.4249898,5.95228475 C73.4249898,5.99214915 73.4306847,6.05235254 73.4408542,6.13330169 C73.4416678,6.13940339 73.4424814,6.14347119 73.4424814,6.14672542 C73.1679051,6.13004746 72.9580068,6.11906441 72.8140068,6.11296271 C72.6704136,6.10686102 72.5439051,6.10401356 72.4361085,6.10401356 L72.4361085,6.64828475 C72.4361085,6.84353898 72.436922,6.98062373 72.4397695,7.05872542 C72.4422102,7.1372339 72.4470915,7.2031322 72.4536,7.25642034 C72.5910915,7.25153898 72.7436339,7.24381017 72.9112271,7.23242034 C73.0780068,7.22103051 73.2614644,7.20638644 73.4599729,7.18808136 C73.4554983,7.21818305 73.4522441,7.24787797 73.4506169,7.2771661 C73.4481763,7.30645424 73.4473627,7.33696271 73.4473627,7.36828475 C73.4473627,7.40001356 73.4498034,7.44150508 73.4538712,7.49357288 C73.4575322,7.5452339 73.4599729,7.57736949 73.4599729,7.5891661 C73.1589559,7.57899661 72.9270915,7.57208136 72.7656,7.56882712 C72.6037017,7.5651661 72.4731254,7.56353898 72.3730576,7.56353898 C72.2380068,7.56353898 72.1180068,7.56557288 72.0126508,7.57004746 C71.9077017,7.57411525 71.8100746,7.58062373 71.7185492,7.5891661" id="Fill-12" fill="#FEFEFE"></path>
            <path d="M75.3978305,7.5891661 C75.3994576,7.55458983 75.4010847,7.51594576 75.4018983,7.47242034 C75.4035254,7.42889492 75.404339,7.36381017 75.404339,7.27675932 C75.3351864,7.40408136 75.2469153,7.49764068 75.1419661,7.55825085 C75.0362034,7.61886102 74.9060339,7.64896271 74.7518644,7.64896271 C74.4541017,7.64896271 74.2291525,7.55458983 74.0774237,7.36543729 C73.9256949,7.17669153 73.8500339,6.89601356 73.8500339,6.52421695 C73.8500339,6.15974237 73.9326102,5.87336949 74.0997966,5.66509831 C74.2657627,5.45682712 74.4943729,5.35269153 74.7852203,5.35269153 C74.9117288,5.35269153 75.0244068,5.37750508 75.1220339,5.4271322 C75.2212881,5.47635254 75.3095593,5.55201356 75.3868475,5.65411525 L75.3868475,5.08381017 C75.3868475,4.89587797 75.3844068,4.72869153 75.380339,4.58265763 C75.3754576,4.43662373 75.3693559,4.29750508 75.3612203,4.16611525 C75.4136949,4.17181017 75.4677966,4.17628475 75.5235254,4.1791322 C75.5788475,4.18197966 75.6386441,4.1832 75.7012881,4.1832 C75.7639322,4.1832 75.8245424,4.18197966 75.8814915,4.1791322 C75.9388475,4.17628475 75.9929492,4.17181017 76.0437966,4.16611525 C76.0279322,4.36706441 76.0165424,4.59567458 76.0104407,4.85194576 C76.0047458,5.10821695 76.000678,5.45682712 76.000678,5.89655593 C76.000678,6.24882712 76.0047458,6.56692881 76.0120678,6.85004746 C76.0189831,7.1331661 76.0295593,7.37967458 76.0437966,7.5891661 C75.991322,7.58143729 75.9380339,7.57533559 75.8831186,7.57045424 C75.8294237,7.56597966 75.775322,7.56353898 75.7228475,7.56353898 C75.6679322,7.56353898 75.6130169,7.56557288 75.5597288,7.57004746 C75.507661,7.57411525 75.4535593,7.58062373 75.3978305,7.5891661 M74.9727458,5.6431322 C74.8124746,5.6431322 74.6961356,5.7151322 74.6241356,5.85872542 C74.5525424,6.00272542 74.5159322,6.23336949 74.5159322,6.55065763 C74.5159322,6.83418305 74.5509153,7.03960678 74.6200678,7.16733559 C74.6884068,7.29506441 74.7978305,7.35852203 74.948339,7.35852203 C75.0919322,7.35852203 75.2017627,7.28692881 75.2778305,7.14292881 C75.3534915,6.99892881 75.391322,6.79106441 75.391322,6.51974237 C75.391322,6.22604746 75.356339,6.00638644 75.2875932,5.8611661 C75.2184407,5.71553898 75.1134915,5.6431322 74.9727458,5.6431322" id="Fill-14" fill="#FEFEFE"></path>
            <path d="M78.6083797,5.41244746 C78.5998373,5.59427797 78.5933288,5.77610847 78.589261,5.95712542 C78.5843797,6.13854915 78.5831593,6.31834576 78.5831593,6.49732881 C78.5831593,6.6795661 78.5843797,6.86139661 78.589261,7.04322712 C78.5933288,7.22505763 78.5998373,7.40729492 78.6083797,7.58912542 C78.5502102,7.58058305 78.4957017,7.57407458 78.4440407,7.57000678 C78.3931932,7.5655322 78.3447864,7.56349831 78.2984136,7.56349831 C78.2508203,7.56349831 78.2007864,7.5655322 78.1491254,7.57000678 C78.0966508,7.57407458 78.0417356,7.58058305 77.9839729,7.58912542 L77.9839729,7.27671864 C77.8863458,7.39875254 77.7813966,7.48824407 77.6691254,7.5456 C77.557261,7.60295593 77.4295322,7.63183729 77.2847186,7.63183729 C77.0504136,7.63183729 76.8795661,7.56593898 76.7721763,7.43414237 C76.6643797,7.30193898 76.6110915,7.09082034 76.6110915,6.80037966 L76.6110915,6.55021017 C76.6110915,6.37895593 76.6086508,6.19875254 76.6045831,6.01000678 C76.6001085,5.82126102 76.5936,5.62193898 76.5854644,5.41244746 C76.6354983,5.41814237 76.6879729,5.42261695 76.7445153,5.42505763 C76.8002441,5.42831186 76.8596339,5.4295322 76.9230915,5.4295322 C76.9885831,5.4295322 77.0479729,5.42831186 77.1037017,5.42505763 C77.1590237,5.42261695 77.2106847,5.41814237 77.2594983,5.41244746 C77.2481085,5.60282034 77.2395661,5.78383729 77.2338712,5.95590508 C77.2281763,6.12797288 77.2261424,6.28865085 77.2261424,6.4375322 C77.2261424,6.77393898 77.2513627,6.99319322 77.3046508,7.09488814 C77.3571254,7.19698983 77.4523119,7.24783729 77.5889898,7.24783729 C77.7240407,7.24783729 77.8204475,7.19617627 77.8757695,7.09285424 C77.9314983,6.98912542 77.9591593,6.8056678 77.9591593,6.54126102 L77.9591593,5.81922712 C77.9591593,5.77204068 77.9583458,5.71427797 77.9567186,5.6455322 C77.9554983,5.57719322 77.9530576,5.49949831 77.9506169,5.41244746 C78.0014644,5.41814237 78.0531254,5.42261695 78.1072271,5.42505763 C78.1617356,5.42831186 78.2199051,5.4295322 78.2817356,5.4295322 C78.3423458,5.4295322 78.3992949,5.42831186 78.4533966,5.42505763 C78.5074983,5.42261695 78.5591593,5.41814237 78.6083797,5.41244746" id="Fill-16" fill="#FEFEFE"></path>
            <path d="M80.8806508,7.15378983 L80.9123797,7.17412881 C80.9013966,7.24897627 80.893261,7.30429831 80.8887864,7.34050169 C80.8839051,7.37670508 80.8798373,7.40802712 80.8757695,7.43487458 C80.7724475,7.50402712 80.6630237,7.55568814 80.5479051,7.58945085 C80.4323797,7.62362034 80.3087186,7.64029831 80.176922,7.64029831 C79.8185492,7.64029831 79.5338034,7.53901017 79.3243119,7.33602712 C79.1136,7.13304407 79.0078373,6.85765424 79.0078373,6.51107797 C79.0078373,6.16409492 79.1160407,5.88463729 79.3312271,5.67189153 C79.5468203,5.45914576 79.8311593,5.35256949 80.1830237,5.35256949 C80.3420746,5.35256949 80.4872949,5.36965424 80.618278,5.40341695 C80.7504814,5.43717966 80.8647864,5.48721356 80.9632271,5.55311186 C80.9156339,5.66050169 80.8790237,5.74917966 80.8521763,5.81873898 C80.824922,5.88789153 80.8029559,5.95175593 80.7854644,6.00992542 L80.7240407,5.98307797 C80.6858034,5.83989153 80.6264136,5.73290847 80.5438373,5.66294237 C80.4628881,5.59256949 80.3587525,5.55758644 80.2322441,5.55758644 C80.0536678,5.55758644 79.9137356,5.63690847 79.8112271,5.79514576 C79.7087186,5.95378983 79.6570576,6.17141695 79.6570576,6.44802712 C79.6570576,6.74701017 79.7144136,6.97521356 79.8279051,7.13182373 C79.9405831,7.28884068 80.1069559,7.36734915 80.3237695,7.36734915 C80.4213966,7.36734915 80.5173966,7.34945085 80.6121763,7.31324746 C80.7065492,7.27745085 80.7964475,7.22416271 80.8806508,7.15378983" id="Fill-18" fill="#FEFEFE"></path>
            <path d="M82.4163661,7.30991186 C82.3512814,7.41852203 82.2654508,7.50231864 82.1588746,7.56089492 C82.0531119,7.61947119 81.9335186,7.64875932 81.7996881,7.64875932 C81.6076881,7.64875932 81.4575864,7.59181017 81.3485695,7.47831864 C81.2395525,7.36482712 81.1842305,7.20984407 81.1842305,7.01336949 C81.1842305,6.86936949 81.2228746,6.75018305 81.3001627,6.65662373 C81.3778576,6.56306441 81.4986712,6.48862373 81.6638237,6.43330169 C81.7171119,6.41581017 81.7944,6.39099661 81.8952814,6.35967458 C82.1328407,6.28848814 82.2955525,6.22299661 82.3830102,6.16360678 C82.3846373,6.15506441 82.3862644,6.14489492 82.387078,6.13350508 C82.387078,6.12252203 82.3878915,6.10665763 82.3878915,6.08591186 C82.3878915,5.94801356 82.3480271,5.83818305 82.2695186,5.75682712 C82.1914169,5.67506441 82.0872814,5.63438644 81.9571119,5.63438644 C81.8546034,5.63438644 81.7618576,5.6632678 81.6784678,5.72103051 C81.5946712,5.77838644 81.5169763,5.86625085 81.4461966,5.98421695 C81.4242305,5.91343729 81.4059254,5.85689492 81.3912814,5.81377627 C81.3762305,5.77106441 81.3611797,5.7312 81.3469424,5.69418305 C81.4811797,5.57621695 81.6146034,5.48835254 81.7468068,5.43058983 C81.8777898,5.3732339 82.0144678,5.34435254 82.1572475,5.34435254 C82.4289763,5.34435254 82.638061,5.40740339 82.7840949,5.53391186 C82.929722,5.66042034 83.0025356,5.84143729 83.0025356,6.07614915 L83.0025356,6.09852203 L82.9858576,6.89784407 L82.9858576,6.98530169 C82.9858576,7.1712 83.0057898,7.29038644 83.0472814,7.3432678 C83.0883661,7.39574237 83.1689085,7.42218305 83.2880949,7.42218305 L83.3015186,7.42218305 L83.3015186,7.53364068 C83.2242305,7.56536949 83.1449085,7.58977627 83.0615186,7.60686102 C82.9789424,7.62353898 82.9000271,7.63208136 82.8247729,7.63208136 C82.7149424,7.63208136 82.6254508,7.60442034 82.5562983,7.54950508 C82.4871458,7.49499661 82.4403661,7.41486102 82.4163661,7.30991186 L82.4163661,7.30991186 Z M82.3964339,6.39221695 C82.1853153,6.43533559 82.0335864,6.50082712 81.9396203,6.58909831 C81.846061,6.67696271 81.7988746,6.79940339 81.7988746,6.95601356 C81.7988746,7.08740339 81.8228746,7.18625085 81.8704678,7.25174237 C81.918061,7.3172339 81.9888407,7.35018305 82.0819932,7.35018305 C82.1836881,7.35018305 82.2613831,7.31357288 82.3154847,7.24035254 C82.3695864,7.16753898 82.3964339,7.06218305 82.3964339,6.92469153 L82.3964339,6.39221695 Z" id="Fill-20" fill="#FEFEFE"></path>
            <path d="M83.674861,5.6599322 L83.5906576,5.6599322 C83.5304542,5.6599322 83.4848949,5.66033898 83.4539797,5.66115254 C83.4230644,5.6619661 83.3937763,5.66318644 83.3673356,5.66440678 C83.3705898,5.64854237 83.3722169,5.63308475 83.3730305,5.61844068 C83.3738441,5.60379661 83.3746576,5.58020339 83.3746576,5.5480678 C83.3746576,5.5159322 83.3738441,5.49152542 83.3722169,5.47444068 C83.3705898,5.45776271 83.3689627,5.44271186 83.3673356,5.42928814 C83.3738441,5.43091525 83.3815729,5.43213559 83.3937763,5.43335593 C83.4999458,5.44230508 83.5756068,5.44637288 83.6207593,5.44637288 L83.674861,5.44433898 C83.6764881,5.42359322 83.6781153,5.40162712 83.6789288,5.3780339 C83.6789288,5.3540339 83.6797424,5.31783051 83.6797424,5.26901695 C83.6797424,5.2100339 83.6781153,5.14738983 83.6740475,5.08067797 C83.6699797,5.01437288 83.6655051,4.93138983 83.6581831,4.83254237 C83.7631322,4.79227119 83.8672678,4.7499661 83.9697763,4.70562712 C84.0722847,4.66088136 84.171539,4.61491525 84.2683525,4.56732203 L84.3151322,4.60515254 C84.3065898,4.77884746 84.3000814,4.9240678 84.2960136,5.04081356 C84.291539,5.15715254 84.2899119,5.24623729 84.2899119,5.30684746 L84.2899119,5.44637288 C84.3724881,5.44637288 84.4501831,5.44515254 84.5225898,5.44271186 C84.5949966,5.44027119 84.6649627,5.43661017 84.7333017,5.43172881 C84.7292339,5.46549153 84.7267932,5.48949153 84.7259797,5.50413559 C84.7251661,5.51877966 84.7243525,5.53342373 84.7243525,5.5480678 C84.7243525,5.57288136 84.7267932,5.60745763 84.7316746,5.65138983 C84.7341153,5.65708475 84.734522,5.66155932 84.7333017,5.66440678 C84.6975051,5.66318644 84.6503186,5.6619661 84.5925559,5.66115254 C84.5335729,5.66033898 84.4302508,5.6599322 84.2809627,5.6599322 C84.2809627,5.68230508 84.2801492,5.71769492 84.278522,5.76528814 C84.2691661,6.08135593 84.2634712,6.30630508 84.2634712,6.44094915 L84.2634712,6.62522034 C84.2634712,6.97505085 84.2809627,7.19186441 84.3143186,7.27566102 C84.3484881,7.35945763 84.4143864,7.40135593 84.5124203,7.40135593 C84.5608271,7.40135593 84.6482847,7.38508475 84.7735729,7.35213559 L84.7760136,7.35010169 L84.7760136,7.51932203 C84.6767593,7.5640678 84.5844203,7.59661017 84.4985898,7.61776271 C84.4135729,7.63850847 84.3318102,7.64867797 84.2541153,7.64867797 C84.0592678,7.64867797 83.9116068,7.59661017 83.8090983,7.49288136 C83.7065898,7.38915254 83.6557424,7.23864407 83.6557424,7.04135593 C83.6557424,7.03362712 83.6589966,6.90345763 83.6655051,6.6500339 C83.6716068,6.39661017 83.674861,6.14725424 83.674861,5.90237288 L83.674861,5.6599322 Z" id="Fill-22" fill="#FEFEFE"></path>
            <path d="M85.0914305,4.58993898 C85.0914305,4.49312542 85.1247864,4.41095593 85.1914983,4.34383729 C85.2590237,4.27671864 85.3416,4.24295593 85.4400407,4.24295593 C85.5356339,4.24295593 85.6165831,4.27712542 85.6824814,4.34505763 C85.7491932,4.41298983 85.7825492,4.49475254 85.7825492,4.58993898 C85.7825492,4.68715932 85.7491932,4.76851525 85.6816678,4.83522712 C85.6149559,4.9015322 85.5323797,4.93448136 85.4363797,4.93448136 C85.3391593,4.93448136 85.2573966,4.9015322 85.1906847,4.83522712 C85.1239729,4.76851525 85.0914305,4.68715932 85.0914305,4.58993898 M85.0914305,7.58912542 C85.1032271,7.35685424 85.1121763,7.15468475 85.1174644,6.98343051 C85.1223458,6.81217627 85.1256,6.65190508 85.1256,6.50180339 C85.1256,6.33014237 85.1223458,6.15482034 85.1162441,5.97624407 C85.1097356,5.7976678 85.1016,5.60973559 85.0914305,5.41244746 C85.1439051,5.41814237 85.1988203,5.42261695 85.2557695,5.42546441 C85.3131254,5.42831186 85.3725153,5.4295322 85.4323119,5.4295322 C85.4933288,5.4295322 85.5514983,5.42831186 85.6100746,5.42546441 C85.6682441,5.42261695 85.7231593,5.41814237 85.7748203,5.41244746 C85.7626169,5.60973559 85.7540746,5.7976678 85.7483797,5.97624407 C85.7430915,6.15482034 85.7398373,6.33014237 85.7398373,6.50180339 C85.7398373,6.65190508 85.7430915,6.81258305 85.7483797,6.98465085 C85.7540746,7.15631186 85.7626169,7.35807458 85.7748203,7.58912542 C85.7150237,7.58058305 85.6580746,7.57448136 85.6007186,7.57000678 C85.5441763,7.56593898 85.4888542,7.56349831 85.4323119,7.56349831 C85.3782102,7.56349831 85.3232949,7.56593898 85.2671593,7.57000678 C85.2098034,7.57448136 85.1516339,7.58058305 85.0914305,7.58912542" id="Fill-24" fill="#FEFEFE"></path>
            <path d="M86.1965695,6.50408136 C86.1965695,6.14042034 86.2974508,5.85730169 86.4992136,5.65553898 C86.7017898,5.45377627 86.9824678,5.35248814 87.342061,5.35248814 C87.7077559,5.35248814 87.9896542,5.45255593 88.1877559,5.65228475 C88.3846373,5.85201356 88.4838915,6.13594576 88.4838915,6.50408136 C88.4838915,6.86489492 88.3838237,7.14597966 88.182061,7.34733559 C87.9802983,7.54828475 87.6988068,7.64875932 87.3384,7.64875932 C86.9751458,7.64875932 86.694061,7.54869153 86.4943322,7.34814915 C86.2958237,7.14760678 86.1965695,6.86652203 86.1965695,6.50408136 M86.8701966,6.50408136 C86.8701966,6.84943729 86.9059932,7.09228475 86.9784,7.23303051 C87.0499932,7.37377627 87.1699932,7.44414915 87.3384,7.44414915 C87.5076203,7.44414915 87.6284339,7.37336949 87.7004339,7.23181017 C87.7736542,7.09025085 87.8094508,6.84781017 87.8094508,6.50408136 C87.8094508,6.15872542 87.7736542,5.91506441 87.7004339,5.77187797 C87.6284339,5.62909831 87.5076203,5.55750508 87.3384,5.55750508 C87.1699932,5.55750508 87.0499932,5.62828475 86.9784,5.76984407 C86.9059932,5.91140339 86.8701966,6.15587797 86.8701966,6.50408136" id="Fill-26" fill="#FEFEFE"></path>
            <path d="M88.8867254,7.5891661 C88.8977085,7.38781017 88.9058441,7.19784407 88.9119458,7.01886102 C88.9176407,6.83987797 88.9208949,6.66862373 88.9208949,6.50428475 C88.9208949,6.3192 88.9176407,6.13574237 88.9119458,5.95391186 C88.9058441,5.77208136 88.8977085,5.59147119 88.8867254,5.41248814 C88.9335051,5.41818305 88.9827254,5.42265763 89.0335729,5.42550508 C89.0844203,5.42835254 89.1393356,5.42957288 89.1991322,5.42957288 C89.2577085,5.42957288 89.3126237,5.42835254 89.3618441,5.42550508 C89.4110644,5.42265763 89.4578441,5.41818305 89.5025898,5.41248814 L89.5025898,5.72570847 C89.5953356,5.60204746 89.7002847,5.51052203 89.8154034,5.45072542 C89.9313356,5.39133559 90.0619119,5.3612339 90.2046915,5.3612339 C90.3169627,5.3612339 90.4178441,5.38035254 90.5097763,5.41818305 C90.6021153,5.45601356 90.6798102,5.51133559 90.7432678,5.58374237 C90.7933017,5.6431322 90.8299119,5.71635254 90.8514712,5.80299661 C90.8730305,5.89004746 90.8832,6.03852203 90.8832,6.2492339 C90.8832,6.27892881 90.8823864,6.35743729 90.8807593,6.48435254 C90.8799458,6.6112678 90.8791322,6.72272542 90.8791322,6.8191322 C90.8791322,6.96150508 90.8815729,7.09574237 90.8872678,7.22184407 C90.8921492,7.34835254 90.8990644,7.47038644 90.9096407,7.5891661 C90.8457763,7.58062373 90.7863864,7.57411525 90.7306576,7.57004746 C90.6749288,7.56557288 90.6220475,7.56353898 90.5695729,7.56353898 C90.5179119,7.56353898 90.4654373,7.56557288 90.4113356,7.57004746 C90.3572339,7.57411525 90.2986576,7.58062373 90.2347932,7.5891661 C90.2453695,7.46021695 90.2530983,7.30604746 90.2596068,7.12665763 C90.2661153,6.9472678 90.2689627,6.74794576 90.2689627,6.52828475 C90.2689627,6.19757288 90.2429288,5.98442034 90.1904542,5.88882712 C90.1371661,5.7932339 90.0427932,5.7452339 89.9044881,5.7452339 C89.7669966,5.7452339 89.6677424,5.80258983 89.6079458,5.91648814 C89.5477424,6.03079322 89.5184542,6.22360678 89.5184542,6.49492881 C89.5184542,6.62265763 89.5200814,6.77764068 89.5245559,6.95987797 C89.5294373,7.14211525 89.5359458,7.35201356 89.5436746,7.5891661 C89.487539,7.58062373 89.4318102,7.57411525 89.3768949,7.57004746 C89.3219797,7.56557288 89.2686915,7.56353898 89.2170305,7.56353898 C89.1661831,7.56353898 89.1141153,7.56557288 89.0600136,7.57004746 C89.0050983,7.57411525 88.9469288,7.58062373 88.8867254,7.5891661" id="Fill-28" fill="#FEFEFE"></path>
            <mask id="mask-2" fill="white">
                <use xlink:href="#path-1"></use>
            </mask>
            <g id="Clip-31"></g>
            <polygon id="Fill-30" fill="#FEFEFE" mask="url(#mask-2)" points="93.1879322 6.22657627 93.7712542 6.22657627 93.7712542 5.64284746 93.1879322 5.64284746"></polygon>
            <path d="M96.1007186,7.5891661 C96.1182102,7.38414915 96.1308203,7.16042034 96.1397695,6.91757288 C96.1474983,6.6751322 96.1523797,6.38062373 96.1523797,6.03486102 C96.1523797,5.71391186 96.1474983,5.42631864 96.1397695,5.17167458 C96.1308203,4.91703051 96.1182102,4.68435254 96.1007186,4.47364068 C96.1564475,4.47933559 96.2097356,4.48340339 96.2626169,4.48625085 C96.3150915,4.48909831 96.3675661,4.49072542 96.4192271,4.49072542 C96.4814644,4.49072542 96.5965831,4.48787797 96.7641763,4.48218305 C96.9309559,4.47648814 97.0684475,4.47364068 97.1758373,4.47364068 C97.5329898,4.47364068 97.7945492,4.5391322 97.9605153,4.67011525 C98.1264814,4.80150508 98.2094644,5.00774237 98.2094644,5.2892339 C98.2094644,5.61099661 98.1061424,5.84977627 97.8994983,6.00597966 C97.6920407,6.16218305 97.3776,6.24069153 96.9533288,6.24069153 C96.9350237,6.24069153 96.9093966,6.23987797 96.8752271,6.23825085 C96.8418712,6.23703051 96.8174644,6.23621695 96.8016,6.23621695 L96.8016,6.90658983 C96.8016,6.94360678 96.805261,7.0131661 96.8125831,7.11445424 C96.8207186,7.21614915 96.8341424,7.37438644 96.8524475,7.5891661 C96.7808542,7.58062373 96.7149559,7.57411525 96.6527186,7.57004746 C96.5908881,7.56557288 96.5306847,7.56353898 96.4708881,7.56353898 C96.413939,7.56353898 96.3541424,7.56557288 96.293939,7.57004746 C96.2333288,7.57411525 96.1690576,7.58062373 96.1007186,7.5891661 L96.1007186,7.5891661 Z M96.8016,5.99296271 C97.0428203,5.99296271 97.216922,5.93967458 97.3234983,5.83309831 C97.4308881,5.72652203 97.4837695,5.55242034 97.4837695,5.3112 C97.4837695,5.11309831 97.4418712,4.96503051 97.3576678,4.86740339 C97.2726508,4.76977627 97.1437017,4.72096271 96.9708203,4.72096271 C96.9427525,4.72096271 96.9000407,4.72340339 96.8418712,4.72787797 C96.8365831,4.72950508 96.8317017,4.72991186 96.829261,4.72991186 C96.8199051,4.81492881 96.8125831,4.89953898 96.8077017,4.98374237 C96.8040407,5.06794576 96.8016,5.15255593 96.8016,5.23757288 L96.8016,5.99296271 Z" id="Fill-32" fill="#FEFEFE" mask="url(#mask-2)"></path>
            <path d="M99.6997424,7.30991186 C99.6338441,7.41852203 99.5480136,7.50231864 99.4422508,7.56089492 C99.3356746,7.61947119 99.2160814,7.64875932 99.0822508,7.64875932 C98.8910644,7.64875932 98.7401492,7.59181017 98.6311322,7.47831864 C98.5217085,7.36482712 98.4676068,7.20984407 98.4676068,7.01336949 C98.4676068,6.86936949 98.5054373,6.75018305 98.583539,6.65662373 C98.6604203,6.56306441 98.7812339,6.48862373 98.9463864,6.43330169 C99.0004881,6.41581017 99.0769627,6.39099661 99.1786576,6.35967458 C99.4162169,6.28848814 99.5789288,6.22299661 99.6663864,6.16360678 C99.6680136,6.15506441 99.6688271,6.14489492 99.6696407,6.13350508 C99.6704542,6.12252203 99.6704542,6.10665763 99.6704542,6.08591186 C99.6704542,5.94801356 99.6314034,5.83818305 99.5528949,5.75682712 C99.4747932,5.67506441 99.3698441,5.63438644 99.2396746,5.63438644 C99.1379797,5.63438644 99.0452339,5.6632678 98.9610305,5.72103051 C98.8776407,5.77838644 98.8003525,5.86625085 98.7287593,5.98421695 C98.7067932,5.91343729 98.6884881,5.85689492 98.6742508,5.81377627 C98.6596068,5.77106441 98.6445559,5.7312 98.6295051,5.69418305 C98.7645559,5.57621695 98.8979797,5.48835254 99.0293695,5.43058983 C99.1611661,5.3732339 99.2978441,5.34435254 99.4398102,5.34435254 C99.7123525,5.34435254 99.9214373,5.40740339 100.067471,5.53391186 C100.213098,5.66042034 100.285098,5.84143729 100.285098,6.07614915 L100.285098,6.09852203 L100.26842,6.89784407 L100.26842,6.98530169 C100.26842,7.1712 100.289166,7.29038644 100.330658,7.3432678 C100.371742,7.39574237 100.451471,7.42218305 100.571471,7.42218305 L100.584895,7.42218305 L100.584895,7.53364068 C100.507607,7.56536949 100.427471,7.58977627 100.344895,7.60686102 C100.262319,7.62353898 100.18259,7.63208136 100.107336,7.63208136 C99.9983186,7.63208136 99.9088271,7.60442034 99.8396746,7.54950508 C99.7697085,7.49499661 99.7229288,7.41486102 99.6997424,7.30991186 L99.6997424,7.30991186 Z M99.6798102,6.39221695 C99.4686915,6.43533559 99.3161492,6.50082712 99.2221831,6.58909831 C99.1286237,6.67696271 99.0822508,6.79940339 99.0822508,6.95601356 C99.0822508,7.08740339 99.1062508,7.18625085 99.1538441,7.25174237 C99.2006237,7.3172339 99.2714034,7.35018305 99.3653695,7.35018305 C99.4662508,7.35018305 99.5439458,7.31357288 99.5980475,7.24035254 C99.6529627,7.16753898 99.6798102,7.06218305 99.6798102,6.92469153 L99.6798102,6.39221695 Z" id="Fill-33" fill="#FEFEFE" mask="url(#mask-2)"></path>
            <path d="M100.889898,7.5891661 C100.900881,7.43947119 100.909831,7.2751322 100.915119,7.09492881 C100.920814,6.9151322 100.924068,6.71621695 100.924068,6.49858983 C100.924068,6.22767458 100.920814,6.01004746 100.915119,5.84570847 C100.909831,5.68136949 100.900881,5.53696271 100.889898,5.41248814 C100.937492,5.41818305 100.986712,5.42265763 101.038373,5.42550508 C101.090847,5.42835254 101.146576,5.42957288 101.207593,5.42957288 C101.266576,5.42957288 101.322712,5.42835254 101.374373,5.42550508 C101.426034,5.42265763 101.475254,5.41818305 101.521627,5.41248814 C101.513492,5.5532339 101.50861,5.66957288 101.504949,5.76150508 C101.500881,5.85384407 101.499254,5.93153898 101.499254,5.99540339 L101.521627,5.99540339 C101.574915,5.78469153 101.661966,5.6252339 101.781966,5.51621695 C101.901966,5.4072 102.04922,5.35269153 102.225356,5.35269153 L102.246915,5.35269153 C102.23878,5.40801356 102.231864,5.46333559 102.227797,5.51865763 C102.223729,5.57397966 102.221288,5.62930169 102.221288,5.68421695 C102.221288,5.7411661 102.223729,5.79811525 102.227797,5.85587797 C102.231864,5.9132339 102.23878,5.97058983 102.246915,6.0271322 C102.184271,6.00435254 102.128542,5.9872678 102.080136,5.97587797 C102.032542,5.96448814 101.98861,5.95879322 101.950373,5.95879322 C101.799458,5.95879322 101.690847,6.01004746 101.622508,6.11174237 C101.554983,6.21384407 101.521627,6.37818305 101.521627,6.60435254 C101.521627,6.77886102 101.524881,6.94889492 101.531797,7.11445424 C101.539119,7.28001356 101.549288,7.43865763 101.564339,7.5891661 C101.503322,7.58347119 101.445153,7.57940339 101.389831,7.57655593 C101.333288,7.57370847 101.279186,7.57208136 101.225898,7.57208136 C101.175051,7.57208136 101.122576,7.57370847 101.068475,7.57696271 C101.01478,7.58021695 100.954983,7.58428475 100.889898,7.5891661" id="Fill-34" fill="#FEFEFE" mask="url(#mask-2)"></path>
            <path d="M103.147851,6.50505763 C103.147851,6.76946441 103.209681,6.97895593 103.335376,7.13434576 C103.461071,7.28973559 103.630292,7.36702373 103.842224,7.36702373 C103.947986,7.36702373 104.048868,7.3495322 104.144868,7.31454915 C104.241681,7.27915932 104.335647,7.22587119 104.426359,7.15387119 L104.470698,7.18682034 L104.370631,7.44268475 C104.275037,7.50939661 104.163173,7.56024407 104.035444,7.5956339 C103.906495,7.63102373 103.767376,7.64892203 103.617275,7.64892203 C103.262156,7.64892203 102.984325,7.54437966 102.783376,7.33488814 C102.58202,7.12539661 102.481139,6.83617627 102.481139,6.46641356 C102.481139,6.1336678 102.581207,5.86519322 102.782563,5.66017627 C102.982698,5.45515932 103.247105,5.35265085 103.577003,5.35265085 C103.889817,5.35265085 104.129817,5.43929492 104.296597,5.61258305 C104.463376,5.78546441 104.546766,6.03441356 104.546766,6.35861695 C104.546766,6.39685424 104.546766,6.42654915 104.546359,6.44729492 C104.545546,6.46804068 104.544732,6.48634576 104.543105,6.50261695 L103.147851,6.50505763 Z M103.147851,6.28295593 L103.919105,6.28295593 C103.919105,6.26668475 103.919919,6.24675254 103.921546,6.22193898 C103.923173,6.1975322 103.923986,6.1816678 103.923986,6.17434576 C103.923986,5.96810847 103.893885,5.81231186 103.834088,5.70695593 C103.773885,5.6016 103.6848,5.54912542 103.568054,5.54912542 C103.434631,5.54912542 103.330495,5.60932881 103.257681,5.72932881 C103.184461,5.84932881 103.147851,6.02058305 103.147851,6.24309153 L103.147851,6.28295593 Z" id="Fill-35" fill="#FEFEFE" mask="url(#mask-2)"></path>
            <path d="M104.956108,7.5891661 C104.967092,7.38781017 104.976041,7.19784407 104.981329,7.01886102 C104.987024,6.83987797 104.990278,6.66862373 104.990278,6.50428475 C104.990278,6.3192 104.987024,6.13574237 104.981329,5.95391186 C104.976041,5.77208136 104.967092,5.59147119 104.956108,5.41248814 C105.002888,5.41818305 105.052108,5.42265763 105.102956,5.42550508 C105.153803,5.42835254 105.208719,5.42957288 105.268515,5.42957288 C105.327092,5.42957288 105.382007,5.42835254 105.431227,5.42550508 C105.480447,5.42265763 105.527227,5.41818305 105.571973,5.41248814 L105.571973,5.72570847 C105.664719,5.60204746 105.769668,5.51052203 105.884786,5.45072542 C106.000719,5.39133559 106.131295,5.3612339 106.274075,5.3612339 C106.386346,5.3612339 106.487227,5.38035254 106.579159,5.41818305 C106.671498,5.45601356 106.749193,5.51133559 106.812651,5.58374237 C106.862685,5.6431322 106.899295,5.71635254 106.920854,5.80299661 C106.942414,5.89004746 106.952583,6.03852203 106.952583,6.2492339 C106.952583,6.27892881 106.951769,6.35743729 106.950142,6.48435254 C106.949329,6.6112678 106.948515,6.72272542 106.948515,6.8191322 C106.948515,6.96150508 106.950956,7.09574237 106.956651,7.22184407 C106.961532,7.34835254 106.968447,7.47038644 106.979024,7.5891661 C106.915159,7.58062373 106.855769,7.57411525 106.800041,7.57004746 C106.744312,7.56557288 106.691431,7.56353898 106.638956,7.56353898 C106.587295,7.56353898 106.53482,7.56557288 106.480719,7.57004746 C106.426617,7.57411525 106.368041,7.58062373 106.304176,7.5891661 C106.314753,7.46021695 106.322481,7.30604746 106.32899,7.12665763 C106.335498,6.9472678 106.338346,6.74794576 106.338346,6.52828475 C106.338346,6.19757288 106.312312,5.98442034 106.259837,5.88882712 C106.206549,5.7932339 106.112176,5.7452339 105.973871,5.7452339 C105.83638,5.7452339 105.737125,5.80258983 105.677329,5.91648814 C105.617125,6.03079322 105.587837,6.22360678 105.587837,6.49492881 C105.587837,6.62265763 105.589464,6.77764068 105.593939,6.95987797 C105.59882,7.14211525 105.605329,7.35201356 105.613058,7.5891661 C105.556922,7.58062373 105.501193,7.57411525 105.446278,7.57004746 C105.391363,7.56557288 105.338075,7.56353898 105.286414,7.56353898 C105.235566,7.56353898 105.183498,7.56557288 105.129397,7.57004746 C105.074481,7.57411525 105.016312,7.58062373 104.956108,7.5891661" id="Fill-36" fill="#FEFEFE" mask="url(#mask-2)"></path>
            <path d="M107.609736,5.6599322 L107.524719,5.6599322 C107.465329,5.6599322 107.419769,5.66033898 107.388041,5.66115254 C107.357939,5.6619661 107.328651,5.66318644 107.30221,5.66440678 C107.305464,5.64854237 107.307092,5.63308475 107.307905,5.61844068 C107.308719,5.60379661 107.309532,5.58020339 107.309532,5.5480678 C107.309532,5.5159322 107.308719,5.49152542 107.307092,5.47444068 C107.305464,5.45776271 107.303837,5.44271186 107.30221,5.42928814 C107.308719,5.43091525 107.316447,5.43213559 107.328651,5.43335593 C107.43482,5.44230508 107.510481,5.44637288 107.555634,5.44637288 L107.609736,5.44433898 C107.611363,5.42359322 107.61299,5.40162712 107.613803,5.3780339 C107.613803,5.3540339 107.614617,5.31783051 107.614617,5.26901695 C107.614617,5.2100339 107.61299,5.14738983 107.608922,5.08067797 C107.604854,5.01437288 107.60038,4.93138983 107.592244,4.83254237 C107.698007,4.79227119 107.802142,4.7499661 107.904651,4.70562712 C108.007159,4.66088136 108.106414,4.61491525 108.202414,4.56732203 L108.250007,4.60515254 C108.241464,4.77884746 108.234956,4.9240678 108.230888,5.04081356 C108.226414,5.15715254 108.224786,5.24623729 108.224786,5.30684746 L108.224786,5.44637288 C108.307363,5.44637288 108.385058,5.44515254 108.457464,5.44271186 C108.529871,5.44027119 108.599837,5.43661017 108.668176,5.43172881 C108.664108,5.46549153 108.660854,5.48949153 108.660041,5.50413559 C108.659227,5.51877966 108.659227,5.53342373 108.659227,5.5480678 C108.659227,5.57288136 108.661668,5.60745763 108.666549,5.65138983 C108.66899,5.65708475 108.669397,5.66155932 108.668176,5.66440678 C108.63238,5.66318644 108.585193,5.6619661 108.527431,5.66115254 C108.468447,5.66033898 108.365125,5.6599322 108.215837,5.6599322 C108.215837,5.68230508 108.215024,5.71769492 108.213397,5.76528814 C108.203227,6.08135593 108.198346,6.30630508 108.198346,6.44094915 L108.198346,6.62522034 C108.198346,6.97505085 108.215837,7.19186441 108.249193,7.27566102 C108.283363,7.35945763 108.349261,7.40135593 108.447295,7.40135593 C108.495702,7.40135593 108.583159,7.38508475 108.708447,7.35213559 L108.710888,7.35010169 L108.710888,7.51932203 C108.611634,7.5640678 108.519295,7.59661017 108.433464,7.61776271 C108.348447,7.63850847 108.266685,7.64867797 108.18899,7.64867797 C107.994142,7.64867797 107.845668,7.59661017 107.743973,7.49288136 C107.641464,7.38915254 107.590617,7.23864407 107.590617,7.04135593 C107.590617,7.03362712 107.593871,6.90345763 107.60038,6.6500339 C107.606481,6.39661017 107.609736,6.14725424 107.609736,5.90237288 L107.609736,5.6599322 Z" id="Fill-37" fill="#FEFEFE" mask="url(#mask-2)"></path>
            <path d="M109.026305,4.58993898 C109.026305,4.49312542 109.059661,4.41095593 109.126373,4.34383729 C109.193898,4.27671864 109.276475,4.24295593 109.374915,4.24295593 C109.470508,4.24295593 109.551458,4.27712542 109.617356,4.34505763 C109.684068,4.41298983 109.717424,4.49475254 109.717424,4.58993898 C109.717424,4.68715932 109.684068,4.76851525 109.616542,4.83522712 C109.549831,4.9015322 109.467254,4.93448136 109.370441,4.93448136 C109.274034,4.93448136 109.192271,4.9015322 109.125559,4.83522712 C109.058847,4.76851525 109.026305,4.68715932 109.026305,4.58993898 M109.026305,7.58912542 C109.038102,7.35685424 109.047051,7.15468475 109.052339,6.98343051 C109.05722,6.81217627 109.060475,6.65190508 109.060475,6.50180339 C109.060475,6.33014237 109.05722,6.15482034 109.051119,5.97624407 C109.04461,5.7976678 109.036475,5.60973559 109.026305,5.41244746 C109.07878,5.41814237 109.133695,5.42261695 109.190644,5.42546441 C109.248,5.42831186 109.30739,5.4295322 109.367186,5.4295322 C109.428203,5.4295322 109.486373,5.42831186 109.544949,5.42546441 C109.603119,5.42261695 109.658034,5.41814237 109.708881,5.41244746 C109.697492,5.60973559 109.688949,5.7976678 109.683254,5.97624407 C109.677153,6.15482034 109.674712,6.33014237 109.674712,6.50180339 C109.674712,6.65190508 109.677153,6.81258305 109.683254,6.98465085 C109.688949,7.15631186 109.697492,7.35807458 109.708881,7.58912542 C109.649898,7.58058305 109.592136,7.57448136 109.535593,7.57000678 C109.479051,7.56593898 109.422915,7.56349831 109.367186,7.56349831 C109.313085,7.56349831 109.258169,7.56593898 109.20122,7.57000678 C109.144678,7.57448136 109.086508,7.58058305 109.026305,7.58912542" id="Fill-38" fill="#FEFEFE" mask="url(#mask-2)"></path>
            <path d="M110.284759,7.5891661 C110.295742,7.38781017 110.304692,7.19784407 110.30998,7.01886102 C110.315675,6.83987797 110.318929,6.66862373 110.318929,6.50428475 C110.318929,6.3192 110.315675,6.13574237 110.30998,5.95391186 C110.304692,5.77208136 110.295742,5.59147119 110.284759,5.41248814 C110.331539,5.41818305 110.380759,5.42265763 110.43242,5.42550508 C110.483268,5.42835254 110.538183,5.42957288 110.59798,5.42957288 C110.656556,5.42957288 110.710658,5.42835254 110.759878,5.42550508 C110.809912,5.42265763 110.856692,5.41818305 110.900624,5.41248814 L110.900624,5.72570847 C110.994183,5.60204746 111.098319,5.51052203 111.214251,5.45072542 C111.330183,5.39133559 111.459946,5.3612339 111.603539,5.3612339 C111.714997,5.3612339 111.815878,5.38035254 111.908624,5.41818305 C112.000149,5.45601356 112.077844,5.51133559 112.142115,5.58374237 C112.192149,5.6431322 112.227946,5.71635254 112.249505,5.80299661 C112.271064,5.89004746 112.282047,6.03852203 112.282047,6.2492339 C112.282047,6.27892881 112.281234,6.35743729 112.279607,6.48435254 C112.27798,6.6112678 112.27798,6.72272542 112.27798,6.8191322 C112.27798,6.96150508 112.28042,7.09574237 112.285302,7.22184407 C112.290183,7.34835254 112.297912,7.47038644 112.307675,7.5891661 C112.24381,7.58062373 112.18442,7.57411525 112.129505,7.57004746 C112.073776,7.56557288 112.020081,7.56353898 111.96842,7.56353898 C111.916759,7.56353898 111.863471,7.56557288 111.809369,7.57004746 C111.756081,7.57411525 111.696692,7.58062373 111.633641,7.5891661 C111.643403,7.46021695 111.651132,7.30604746 111.657641,7.12665763 C111.664963,6.9472678 111.666997,6.74794576 111.666997,6.52828475 C111.666997,6.19757288 111.640963,5.98442034 111.588488,5.88882712 C111.536014,5.7932339 111.440827,5.7452339 111.303336,5.7452339 C111.165031,5.7452339 111.06659,5.80258983 111.006793,5.91648814 C110.94659,6.03079322 110.916488,6.22360678 110.916488,6.49492881 C110.916488,6.62265763 110.918929,6.77764068 110.923403,6.95987797 C110.928285,7.14211525 110.93398,7.35201356 110.941708,7.5891661 C110.885573,7.58062373 110.829844,7.57411525 110.775742,7.57004746 C110.720827,7.56557288 110.667539,7.56353898 110.615878,7.56353898 C110.565031,7.56353898 110.512963,7.56557288 110.458047,7.57004746 C110.403132,7.57411525 110.345776,7.58062373 110.284759,7.5891661" id="Fill-39" fill="#FEFEFE" mask="url(#mask-2)"></path>
            <path d="M113.196569,7.70733559 L113.201451,7.67153898 C113.109112,7.64306441 113.036705,7.59750508 112.985044,7.53486102 C112.93379,7.47221695 112.908163,7.39655593 112.908163,7.30828475 C112.908163,7.20536949 112.948027,7.10977627 113.027349,7.02150508 C113.106671,6.9332339 113.219756,6.85797966 113.368231,6.79492881 L113.368231,6.74042034 C113.171756,6.70177627 113.024908,6.62774237 112.925654,6.51831864 C112.8264,6.40848814 112.776366,6.26611525 112.776366,6.08997966 C112.776366,5.86828475 112.861383,5.69011525 113.031417,5.55506441 C113.201451,5.42001356 113.430061,5.35289492 113.716027,5.35289492 C113.743281,5.35289492 113.844163,5.35858983 114.020298,5.36997966 C114.196027,5.38136949 114.359553,5.38706441 114.509247,5.38706441 C114.570264,5.38706441 114.634536,5.38584407 114.702875,5.38381017 C114.771214,5.38177627 114.84362,5.37892881 114.918875,5.37486102 L114.918875,5.59248814 C114.825315,5.58801356 114.697993,5.58272542 114.536908,5.57703051 C114.504366,5.57540339 114.48118,5.57458983 114.467756,5.57458983 C114.547078,5.62543729 114.606875,5.69011525 114.645925,5.76781017 C114.685383,5.84591186 114.706129,5.93784407 114.706129,6.04442034 C114.706129,6.28238644 114.615417,6.46869153 114.435214,6.60252203 C114.25501,6.73675932 114.002807,6.80387797 113.679417,6.80387797 L113.602536,6.80387797 C113.543146,6.80997966 113.495959,6.8331661 113.458942,6.87343729 C113.422332,6.91370847 113.404027,6.96374237 113.404027,7.02353898 C113.404027,7.16225085 113.619214,7.23994576 114.04918,7.25621695 L114.073586,7.25621695 C114.086603,7.25784407 114.105315,7.25947119 114.129315,7.26069153 C114.405112,7.27411525 114.583688,7.30258983 114.66301,7.34692881 C114.754536,7.40021695 114.824502,7.47262373 114.872908,7.56414915 C114.920502,7.65567458 114.944502,7.76184407 114.944502,7.88306441 C114.944502,8.16211525 114.829383,8.39072542 114.598739,8.56848814 C114.367688,8.74665763 114.068298,8.83533559 113.699349,8.83533559 C113.395892,8.83533559 113.159146,8.78367458 112.989112,8.68035254 C112.819078,8.57662373 112.734061,8.43425085 112.734061,8.25364068 C112.734061,8.12143729 112.772298,8.01079322 112.848773,7.92130169 C112.925654,7.83140339 113.041586,7.76021695 113.196569,7.70733559 L113.196569,7.70733559 Z M113.399959,7.73418305 C113.324298,7.77242034 113.265722,7.82692881 113.223417,7.89770847 C113.181519,7.96808136 113.160773,8.04821695 113.160773,8.13811525 C113.160773,8.29228475 113.212434,8.41594576 113.317383,8.50869153 C113.421519,8.60143729 113.561858,8.64781017 113.7384,8.64781017 C113.944231,8.64781017 114.106129,8.60550508 114.222875,8.52170847 C114.340027,8.43791186 114.398603,8.32157288 114.398603,8.17350508 C114.398603,8.0392678 114.360366,7.93960678 114.283485,7.87452203 C114.20701,7.80903051 114.08579,7.77160678 113.919417,7.76306441 L113.399959,7.73418305 Z M113.399959,6.07614915 C113.399959,6.26489492 113.425993,6.40360678 113.480095,6.49187797 C113.533383,6.58055593 113.6184,6.62448814 113.734332,6.62448814 C113.855146,6.62448814 113.94179,6.57811525 113.994264,6.48536949 C114.047553,6.39221695 114.0744,6.23886102 114.0744,6.02408136 C114.0744,5.85811525 114.047553,5.73445424 113.993451,5.65350508 C113.940163,5.57255593 113.8584,5.53187797 113.747756,5.53187797 C113.637519,5.53187797 113.551688,5.57906441 113.490671,5.67343729 C113.430061,5.76821695 113.399959,5.90204746 113.399959,6.07614915 L113.399959,6.07614915 Z" id="Fill-40" fill="#FEFEFE" mask="url(#mask-2)"></path>
            <path d="M71.7098034,13.5984814 C71.7272949,13.3983458 71.7399051,13.1774644 71.7488542,12.9358373 C71.7565831,12.6946169 71.7614644,12.397261 71.7614644,12.0441763 C71.7614644,11.7651254 71.7582102,11.4958373 71.7521085,11.2367186 C71.7456,10.9776 71.7358373,10.7262102 71.7224136,10.4829559 C71.8521763,10.4886508 71.9872271,10.4927186 72.1291932,10.4955661 C72.2715661,10.4984136 72.424922,10.5000407 72.5908881,10.5000407 C72.7552271,10.5000407 72.9093966,10.4984136 73.0533966,10.4955661 C73.1969898,10.4927186 73.3352949,10.4886508 73.4687186,10.4829559 C73.4646508,10.514278 73.4618034,10.5451932 73.4593627,10.5752949 C73.4577356,10.6053966 73.4561085,10.637939 73.4561085,10.6725153 C73.4561085,10.7054644 73.4577356,10.7384136 73.4593627,10.7705492 C73.4618034,10.8030915 73.4646508,10.8380746 73.4687186,10.8754983 C73.312922,10.8584136 73.1660746,10.8458034 73.0285831,10.837261 C72.890278,10.8287186 72.7592949,10.8242441 72.6352271,10.8242441 C72.6140746,10.8242441 72.5827525,10.8250576 72.5400407,10.8266847 C72.4985492,10.8283119 72.4684475,10.8291254 72.4501424,10.8291254 C72.4416,10.8828203 72.4359051,10.9466847 72.4326508,11.0215322 C72.4289898,11.0959729 72.4273627,11.221261 72.4273627,11.3973966 L72.4273627,11.8143458 C72.613261,11.810278 72.7893966,11.8037695 72.9569898,11.7952271 C73.1253966,11.7866847 73.2844475,11.7761085 73.4345492,11.7630915 C73.4312949,11.7940068 73.429261,11.8253288 73.4268203,11.8566508 C73.4243797,11.8879729 73.4227525,11.9201085 73.4227525,11.9522441 C73.4227525,11.9843797 73.4243797,12.0161085 73.4268203,12.0478373 C73.429261,12.0791593 73.4321085,12.1096678 73.4369898,12.1389559 C73.2877017,12.1275661 73.1310915,12.1182102 72.965939,12.1112949 C72.8016,12.1039729 72.6250576,12.0990915 72.4375322,12.0962441 L72.4359051,12.8870237 C72.4359051,13.0550237 72.4383458,13.1933288 72.4448542,13.301939 C72.4493288,13.4105492 72.458278,13.5093966 72.4700746,13.5984814 C72.3984814,13.589939 72.3325831,13.5834305 72.2707525,13.5793627 C72.208922,13.5748881 72.1483119,13.5728542 72.0909559,13.5728542 C72.0323797,13.5728542 71.9713627,13.5748881 71.9091254,13.5793627 C71.8472949,13.5834305 71.7805831,13.589939 71.7098034,13.5984814" id="Fill-41" fill="#FEFEFE" mask="url(#mask-2)"></path>
            <path d="M75.0252203,13.3192271 C74.9601356,13.4278373 74.8743051,13.5116339 74.7677288,13.5702102 C74.6611525,13.6287864 74.5423729,13.6580746 74.4077288,13.6580746 C74.2165424,13.6580746 74.0664407,13.6011254 73.9574237,13.4876339 C73.8475932,13.3741424 73.7938983,13.2191593 73.7938983,13.0226847 C73.7938983,12.8786847 73.8317288,12.7594983 73.9090169,12.665939 C73.9858983,12.5723797 74.1075254,12.497939 74.2718644,12.4430237 C74.3259661,12.4251254 74.4032542,12.4007186 74.5041356,12.3689898 C74.7416949,12.2978034 74.9044068,12.2323119 74.992678,12.172922 C74.9934915,12.1643797 74.9951186,12.1542102 74.9959322,12.1428203 C74.9967458,12.1318373 74.9967458,12.1159729 74.9967458,12.0952271 C74.9967458,11.9573288 74.9576949,11.8479051 74.8791864,11.7661424 C74.8002712,11.6847864 74.695322,11.6437017 74.5659661,11.6437017 C74.4634576,11.6437017 74.3707119,11.6725831 74.287322,11.7303458 C74.2031186,11.7877017 74.1258305,11.8755661 74.0542373,11.993939 C74.0330847,11.9227525 74.0147797,11.8662102 73.9997288,11.8230915 C73.9850847,11.7803797 73.9700339,11.7405153 73.9557966,11.7034983 C74.0900339,11.5855322 74.2234576,11.4976678 74.355661,11.4399051 C74.4866441,11.3825492 74.623322,11.3536678 74.7652881,11.3536678 C75.0378305,11.3536678 75.2469153,11.4167186 75.3929492,11.5432271 C75.5385763,11.6697356 75.6113898,11.8507525 75.6113898,12.0854644 L75.6113898,12.1082441 L75.5938983,12.9071593 L75.5938983,12.9946169 C75.5938983,13.1805153 75.6146441,13.2997017 75.6561356,13.3525831 C75.6972203,13.4050576 75.7777627,13.4314983 75.8969492,13.4314983 L75.9103729,13.4314983 L75.9103729,13.5429559 C75.8330847,13.5746847 75.7537627,13.5990915 75.6711864,13.6161763 C75.5877966,13.6328542 75.5088814,13.6413966 75.4336271,13.6413966 C75.3237966,13.6413966 75.2343051,13.6137356 75.1651525,13.5588203 C75.096,13.5043119 75.0492203,13.4241763 75.0252203,13.3192271 L75.0252203,13.3192271 Z M75.0052881,12.4015322 C74.7941695,12.4446508 74.6424407,12.5101424 74.5484746,12.5984136 C74.4549153,12.686278 74.4077288,12.8087186 74.4077288,12.9653288 C74.4077288,13.0967186 74.4317288,13.1955661 74.479322,13.2610576 C74.5261017,13.3265492 74.5968814,13.3594983 74.6908475,13.3594983 C74.7925424,13.3594983 74.8694237,13.3228881 74.924339,13.2500746 C74.9784407,13.1768542 75.0052881,13.0714983 75.0052881,12.9340068 L75.0052881,12.4015322 Z" id="Fill-42" fill="#FEFEFE" mask="url(#mask-2)"></path>
            <path d="M76.224122,13.5984814 C76.2326644,13.3560407 76.2391729,13.1428881 76.2432407,12.9594305 C76.248122,12.7759729 76.2493424,12.6250576 76.2493424,12.5066847 C76.2493424,12.3887186 76.248122,12.2394305 76.2432407,12.0596339 C76.2391729,11.8802441 76.2326644,11.6674983 76.224122,11.4218034 C76.2725288,11.4274983 76.3225627,11.4319729 76.3750373,11.4344136 C76.4266983,11.4376678 76.4816136,11.4388881 76.5410034,11.4388881 C76.6032407,11.4388881 76.6593763,11.4376678 76.7102237,11.4344136 C76.7610712,11.4319729 76.809478,11.4274983 76.8558508,11.4218034 L76.8558508,11.717939 C76.9485966,11.5971254 77.049478,11.5088542 77.1568678,11.4535322 C77.2642576,11.3982102 77.3871051,11.3705492 77.5254102,11.3705492 C77.6779525,11.3705492 77.8085288,11.4063458 77.9163254,11.477939 C78.0253424,11.5491254 78.1046644,11.6536678 78.157139,11.7907525 C78.2470373,11.6475661 78.3511729,11.5418034 78.4695458,11.4734644 C78.5883254,11.4047186 78.7266305,11.3705492 78.8848678,11.3705492 C78.9946983,11.3705492 79.0939525,11.3888542 79.1826305,11.4250576 C79.2709017,11.461261 79.3465627,11.5157695 79.4092068,11.5881763 C79.4710373,11.6593627 79.5157831,11.7517017 79.5410034,11.8656 C79.5666305,11.9794983 79.5784271,12.1853288 79.5784271,12.4826847 L79.5784271,12.7649898 C79.5784271,12.8931254 79.5808678,13.0261424 79.5857492,13.1640407 C79.5894102,13.3015322 79.5959186,13.4467525 79.6048678,13.5984814 C79.5373424,13.589939 79.4751051,13.5834305 79.4189695,13.5793627 C79.3632407,13.5748881 79.3083254,13.5728542 79.2558508,13.5728542 C79.2033763,13.5728542 79.1500881,13.5748881 79.0955797,13.5793627 C79.041478,13.5834305 78.9824949,13.589939 78.921478,13.5984814 C78.9357153,13.3995661 78.9458847,13.2152949 78.9532068,13.0456678 C78.9605288,12.8764475 78.9641898,12.7182102 78.9641898,12.5709559 C78.9641898,12.2304814 78.9373424,12.0079729 78.8832407,11.9034305 C78.8299525,11.7984814 78.7339525,11.7460068 78.5972746,11.7460068 C78.4614102,11.7460068 78.3654102,11.7984814 78.3072407,11.9030237 C78.2498847,12.0075661 78.2214102,12.1934644 78.2214102,12.4603119 L78.2214102,13.1811254 C78.2214102,13.2514983 78.2271051,13.3755661 78.236461,13.5537356 C78.2372746,13.5744814 78.2380881,13.5895322 78.2380881,13.5984814 C78.1746305,13.589939 78.1156475,13.5834305 78.061139,13.5793627 C78.0054102,13.5748881 77.9513085,13.5728542 77.900461,13.5728542 C77.8488,13.5728542 77.7955119,13.5752949 77.7422237,13.5801763 C77.6885288,13.5850576 77.6287322,13.5911593 77.564461,13.5984814 C77.5754441,13.4276339 77.5843932,13.2624814 77.5896814,13.1030237 C77.5953763,12.9439729 77.5978169,12.7930576 77.5978169,12.6498712 C77.5978169,12.2512271 77.5721898,12.0010576 77.520122,11.8989559 C77.468461,11.797261 77.3728678,11.7460068 77.2345627,11.7460068 C77.101139,11.7460068 77.005139,11.7980746 76.9485966,11.9018034 C76.892461,12.005939 76.8643932,12.1918373 76.8643932,12.4603119 L76.8643932,13.1811254 C76.8643932,13.2531254 76.8700881,13.3780068 76.8810712,13.5557695 C76.8826983,13.5752949 76.8826983,13.5895322 76.8810712,13.5984814 C76.8249356,13.589939 76.7700203,13.5834305 76.7159186,13.5793627 C76.6618169,13.5748881 76.6077153,13.5728542 76.5552407,13.5728542 C76.5060203,13.5728542 76.4551729,13.5748881 76.4018847,13.5793627 C76.3490034,13.5834305 76.2892068,13.589939 76.224122,13.5984814" id="Fill-43" fill="#FEFEFE" mask="url(#mask-2)"></path>
            <path d="M80.1878237,10.5990915 C80.1878237,10.502278 80.2211797,10.4201085 80.2878915,10.3529898 C80.3554169,10.2858712 80.4379932,10.2525153 80.5364339,10.2525153 C80.6320271,10.2525153 80.7129763,10.286278 80.7788746,10.3542102 C80.8455864,10.4221424 80.8789424,10.5039051 80.8789424,10.5990915 C80.8789424,10.6963119 80.8455864,10.7776678 80.778061,10.8443797 C80.7113492,10.9106847 80.6287729,10.9436339 80.5319593,10.9436339 C80.4355525,10.9436339 80.3537898,10.9106847 80.287078,10.8443797 C80.2203661,10.7776678 80.1878237,10.6963119 80.1878237,10.5990915 M80.1878237,13.598278 C80.1996203,13.3660068 80.2085695,13.1638373 80.2138576,12.9925831 C80.218739,12.8213288 80.2219932,12.6610576 80.2219932,12.5113627 C80.2219932,12.3392949 80.218739,12.1639729 80.2126373,11.9853966 C80.2061288,11.8068203 80.1979932,11.6188881 80.1878237,11.4216 C80.2402983,11.4272949 80.2952136,11.4317695 80.3521627,11.4346169 C80.4095186,11.4374644 80.4689085,11.4386847 80.5287051,11.4386847 C80.589722,11.4386847 80.6487051,11.4374644 80.7064678,11.4346169 C80.7646373,11.4317695 80.8195525,11.4272949 80.8704,11.4216 C80.8590102,11.6188881 80.8504678,11.8068203 80.8447729,11.9853966 C80.8394847,12.1639729 80.8362305,12.3392949 80.8362305,12.5113627 C80.8362305,12.6610576 80.8394847,12.8217356 80.8447729,12.9938034 C80.8504678,13.1654644 80.8590102,13.3672271 80.8704,13.598278 C80.8114169,13.5897356 80.7544678,13.5836339 80.6971119,13.5791593 C80.6405695,13.5750915 80.5852475,13.5726508 80.5287051,13.5726508 C80.4746034,13.5726508 80.4196881,13.5750915 80.362739,13.5791593 C80.3061966,13.5836339 80.2480271,13.5897356 80.1878237,13.598278" id="Fill-44" fill="#FEFEFE" mask="url(#mask-2)"></path>
            <path d="M81.4463186,13.5984814 C81.4573017,13.3413966 81.4654373,13.0733288 81.471539,12.7938712 C81.4772339,12.5148203 81.4804881,12.2154305 81.4804881,11.8961085 C81.4804881,11.557261 81.4772339,11.2477017 81.471539,10.9678373 C81.4654373,10.6875661 81.4573017,10.4235661 81.4463186,10.1754305 C81.5187254,10.1884475 81.5797424,10.1973966 81.6314034,10.202278 C81.6830644,10.2071593 81.7330983,10.2096 81.7823186,10.2096 C81.8307254,10.2096 81.8823864,10.2067525 81.9373017,10.2010576 C81.9914034,10.1957695 82.0524203,10.1872271 82.1207593,10.1754305 C82.1089627,10.4325153 82.1008271,10.7005831 82.095539,10.9800407 C82.0890305,11.2594983 82.0865898,11.5588881 82.0865898,11.8782102 C82.0865898,12.2170576 82.0890305,12.5262102 82.095539,12.8064814 C82.1008271,13.0863458 82.1089627,13.3503458 82.1207593,13.5984814 C82.0699119,13.5870915 82.0174373,13.5785492 81.9613017,13.5728542 C81.9055729,13.5671593 81.8474034,13.5643119 81.7863864,13.5643119 C81.7257763,13.5643119 81.6680136,13.5671593 81.6114712,13.5728542 C81.5561492,13.5785492 81.5004203,13.5870915 81.4463186,13.5984814" id="Fill-45" fill="#FEFEFE" mask="url(#mask-2)"></path>
            <path d="M83.0194169,14.294278 L83.3578576,13.5986847 L82.426739,11.4220068 C82.4800271,11.4277017 82.5365695,11.4317695 82.5951458,11.4346169 C82.6533153,11.4374644 82.7159593,11.4390915 82.7834847,11.4390915 C82.8501966,11.4390915 82.9128407,11.4374644 82.9710102,11.4346169 C83.0295864,11.4317695 83.0861288,11.4277017 83.1394169,11.4220068 C83.2142644,11.6437017 83.2960271,11.8714983 83.3871458,12.1053966 C83.4778576,12.3388881 83.5754847,12.5792949 83.6812475,12.8262102 L84.2112814,11.4220068 C84.2397559,11.4277017 84.2698576,11.4317695 84.3007729,11.4346169 C84.3320949,11.4374644 84.3646373,11.4390915 84.3988068,11.4390915 C84.4346034,11.4390915 84.4679593,11.4374644 84.4988746,11.4346169 C84.5306034,11.4317695 84.559078,11.4277017 84.5863322,11.4220068 C84.3231458,12.0028881 84.069722,12.5784814 83.8272814,13.1491932 C83.5844339,13.7194983 83.3513492,14.2845153 83.1292475,14.8450576 C83.1003661,14.8389559 83.0702644,14.8348881 83.0385356,14.8320407 C83.0059932,14.8291932 82.9734508,14.8279729 82.9392814,14.8279729 C82.9051119,14.8279729 82.8701288,14.8291932 82.8351458,14.8320407 C82.8001627,14.8348881 82.7635525,14.8389559 82.7253153,14.8450576 C82.7692475,14.7746847 82.8160271,14.6953627 82.8644339,14.6066847 C82.9128407,14.5176 82.9645017,14.4134644 83.0194169,14.294278" id="Fill-46" fill="#FEFEFE" mask="url(#mask-2)"></path>
            <path d="M86.1846508,13.5984814 C86.2021424,13.3893966 86.213939,13.1628203 86.2228881,12.9191593 C86.2314305,12.6759051 86.2363119,12.3842441 86.2363119,12.0441763 C86.2363119,11.7175322 86.2314305,11.4270915 86.2228881,11.173261 C86.213939,10.9194305 86.2021424,10.6891932 86.1846508,10.4829559 C86.2481085,10.4906847 86.3123797,10.4971932 86.3770576,10.5016678 C86.4413288,10.5061424 86.5047864,10.5085831 86.5682441,10.5085831 C86.632922,10.5085831 86.6971932,10.5061424 86.7606508,10.5016678 C86.824922,10.4971932 86.8883797,10.4906847 86.9530576,10.4829559 C86.9323119,10.6936678 86.917261,10.9263458 86.9066847,11.1801763 C86.8981424,11.4340068 86.893261,11.7220068 86.893261,12.0445831 C86.893261,12.3594305 86.8957017,12.6096 86.9013966,12.7950915 C86.9066847,12.9809898 86.9156339,13.1404475 86.9266169,13.274278 C87.1125153,13.2698034 87.2906847,13.2628881 87.4599051,13.2527186 C87.629939,13.2429559 87.7967186,13.229939 87.9602441,13.2144814 C87.9541424,13.2437695 87.9500746,13.274278 87.9476339,13.3060068 C87.9443797,13.3377356 87.9427525,13.370278 87.9427525,13.4040407 C87.9427525,13.4349559 87.9443797,13.466278 87.9476339,13.4980068 C87.9500746,13.5297356 87.9541424,13.5630915 87.9602441,13.5984814 C87.7483119,13.5854644 87.5685153,13.5765153 87.4208542,13.5716339 C87.2731932,13.5667525 87.1389559,13.5643119 87.0189559,13.5643119 C86.9107525,13.5643119 86.7915661,13.5667525 86.6622102,13.5716339 C86.5320407,13.5765153 86.3729898,13.5854644 86.1846508,13.5984814" id="Fill-47" fill="#FEFEFE" mask="url(#mask-2)"></path>
            <path d="M88.3051525,10.5990915 C88.3051525,10.502278 88.3385085,10.4201085 88.4052203,10.3529898 C88.4727458,10.2858712 88.555322,10.2525153 88.6537627,10.2525153 C88.7493559,10.2525153 88.8303051,10.286278 88.8962034,10.3542102 C88.9629153,10.4221424 88.9962712,10.5039051 88.9962712,10.5990915 C88.9962712,10.6963119 88.9629153,10.7776678 88.8953898,10.8443797 C88.828678,10.9106847 88.7461017,10.9436339 88.6492881,10.9436339 C88.5520678,10.9436339 88.4711186,10.9106847 88.4044068,10.8443797 C88.3376949,10.7776678 88.3051525,10.6963119 88.3051525,10.5990915 M88.3051525,13.598278 C88.3169492,13.3660068 88.3258983,13.1638373 88.3303729,12.9925831 C88.3360678,12.8213288 88.339322,12.6610576 88.339322,12.5113627 C88.339322,12.3392949 88.3360678,12.1639729 88.3299661,11.9853966 C88.3234576,11.8068203 88.315322,11.6188881 88.3051525,11.4216 C88.3576271,11.4272949 88.4125424,11.4317695 88.4694915,11.4346169 C88.5268475,11.4374644 88.5854237,11.4386847 88.6460339,11.4386847 C88.7062373,11.4386847 88.7660339,11.4374644 88.8229831,11.4346169 C88.8819661,11.4317695 88.9368814,11.4272949 88.9877288,11.4216 C88.976339,11.6188881 88.9677966,11.8068203 88.9621017,11.9853966 C88.956,12.1639729 88.9535593,12.3392949 88.9535593,12.5113627 C88.9535593,12.6610576 88.956,12.8217356 88.9621017,12.9938034 C88.9677966,13.1654644 88.976339,13.3672271 88.9877288,13.598278 C88.9287458,13.5897356 88.8709831,13.5836339 88.8144407,13.5791593 C88.7578983,13.5750915 88.7017627,13.5726508 88.6460339,13.5726508 C88.5919322,13.5726508 88.5362034,13.5750915 88.4800678,13.5791593 C88.4235254,13.5836339 88.3645424,13.5897356 88.3051525,13.598278" id="Fill-48" fill="#FEFEFE" mask="url(#mask-2)"></path>
            <path d="M90.2294237,11.4559322 L90.3376271,11.4559322 C90.3937627,11.4559322 90.4503051,11.4547119 90.5068475,11.4518644 C90.5629831,11.4490169 90.6187119,11.4445424 90.6744407,11.4388475 C90.6711864,11.4754576 90.6695593,11.5014915 90.6687458,11.5173559 C90.6679322,11.5336271 90.6663051,11.5498983 90.6654915,11.5661695 C90.6663051,11.58 90.6679322,11.5942373 90.6687458,11.6084746 C90.6695593,11.6231186 90.6711864,11.6463051 90.6744407,11.6780339 C90.6455593,11.6751864 90.6044746,11.6731525 90.5511864,11.6715254 C90.4970847,11.6703051 90.3929492,11.6694915 90.2387797,11.6694915 L90.2387797,11.696339 C90.232678,11.9936949 90.2294237,12.2133559 90.2294237,12.3549153 C90.2294237,12.584339 90.2334915,12.8023729 90.2404068,13.0090169 C90.2469153,13.2160678 90.2578983,13.4125424 90.2721356,13.5984407 C90.2103051,13.5898983 90.1533559,13.5833898 90.0992542,13.579322 C90.0451525,13.5748475 89.992678,13.5728136 89.9418305,13.5728136 C89.8893559,13.5728136 89.8352542,13.5748475 89.780339,13.579322 C89.7266441,13.5833898 89.667661,13.5898983 89.6066441,13.5984407 C89.6208814,13.4096949 89.6310508,13.2124068 89.6383729,13.0069831 C89.6452881,12.8011525 89.6493559,12.5863729 89.6493559,12.3618305 C89.6493559,12.220678 89.6461017,12.0018305 89.6391864,11.7044746 L89.6391864,11.6780339 C89.6184407,11.6751864 89.5960678,11.6731525 89.5724746,11.6715254 C89.5484746,11.6703051 89.5143051,11.6694915 89.4699661,11.6694915 C89.427661,11.6694915 89.3967458,11.6703051 89.3768136,11.6715254 C89.3568814,11.6731525 89.3393898,11.6751864 89.324339,11.6780339 C89.3275932,11.6597288 89.3300339,11.6406102 89.3332881,11.6210847 C89.3365424,11.6011525 89.3381695,11.5816271 89.3381695,11.5616949 C89.3381695,11.5437966 89.3365424,11.5234576 89.3332881,11.5014915 C89.3300339,11.4795254 89.3275932,11.4587797 89.324339,11.4388475 C89.3658305,11.4445424 89.4065085,11.4490169 89.4451525,11.4518644 C89.4842034,11.4547119 89.5232542,11.4559322 89.5598644,11.4559322 L89.6351186,11.4559322 C89.6351186,11.3090847 89.656678,11.164678 89.7002034,11.0227119 C89.743322,10.8811525 89.8075932,10.743661 89.8950508,10.6098305 C89.992678,10.4568814 90.0935593,10.3462373 90.1968814,10.2778983 C90.2993898,10.2095593 90.4177627,10.1753898 90.5503729,10.1753898 C90.596339,10.1753898 90.6455593,10.1798644 90.6955932,10.188 C90.7464407,10.1961356 90.7989153,10.2091525 90.8530169,10.2266441 C90.8347119,10.3149153 90.8180339,10.4072542 90.8021695,10.503661 C90.7863051,10.6000678 90.7712542,10.7013559 90.7570169,10.8071186 C90.6829831,10.7497627 90.6130169,10.7066441 90.5454915,10.6785763 C90.4779661,10.6505085 90.4120678,10.636678 90.3477966,10.636678 C90.2668475,10.636678 90.2017627,10.6586441 90.1517288,10.7021695 C90.1016949,10.7461017 90.0760678,10.8014237 90.0760678,10.8681356 C90.0760678,10.9169492 90.0968136,11.0072542 90.1395254,11.1386441 C90.1810169,11.2700339 90.2111186,11.3757966 90.2294237,11.4559322" id="Fill-49" fill="#FEFEFE" mask="url(#mask-2)"></path>
            <path d="M91.4982102,12.5144136 C91.4982102,12.7788203 91.5608542,12.9883119 91.6865492,13.1437017 C91.8118373,13.2990915 91.9806508,13.3763797 92.1933966,13.3763797 C92.2991593,13.3763797 92.4000407,13.3588881 92.4960407,13.3239051 C92.5928542,13.2885153 92.6860068,13.2352271 92.7767186,13.1632271 L92.8218712,13.1961763 L92.7209898,13.4520407 C92.6262102,13.5187525 92.5143458,13.5696 92.3858034,13.6049898 C92.2576678,13.6403797 92.1185492,13.658278 91.9684475,13.658278 C91.6133288,13.658278 91.3354983,13.5537356 91.1341424,13.3442441 C90.9331932,13.1347525 90.8323119,12.8455322 90.8323119,12.4757695 C90.8323119,12.1430237 90.9331932,11.8745492 91.132922,11.6695322 C91.3338712,11.4645153 91.598278,11.3620068 91.9281763,11.3620068 C92.2409898,11.3620068 92.4809898,11.4486508 92.6477695,11.621939 C92.8145492,11.7948203 92.897939,12.0437695 92.897939,12.3679729 C92.897939,12.4062102 92.897939,12.4359051 92.8971254,12.4566508 C92.8967186,12.4773966 92.8950915,12.4957017 92.894278,12.5119729 L91.4982102,12.5144136 Z M91.4982102,12.2923119 L92.2710915,12.2923119 C92.2710915,12.2760407 92.2710915,12.2561085 92.2727186,12.2312949 C92.2743458,12.2068881 92.2751593,12.1910237 92.2751593,12.1837017 C92.2751593,11.9774644 92.2450576,11.8216678 92.1844475,11.7163119 C92.1250576,11.6109559 92.0359729,11.5584814 91.9192271,11.5584814 C91.7858034,11.5584814 91.6816678,11.6186847 91.6084475,11.7386847 C91.5348203,11.8586847 91.4982102,12.029939 91.4982102,12.2524475 L91.4982102,12.2923119 Z" id="Fill-50" fill="#FEFEFE" mask="url(#mask-2)"></path>
            <path d="M93.3041085,12.9754169 L93.3683797,12.9754169 C93.4167864,13.1255186 93.493261,13.2410441 93.5965831,13.3228068 C93.6999051,13.4041627 93.8190915,13.4448407 93.9565831,13.4448407 C94.0643797,13.4448407 94.1485831,13.4184 94.2075661,13.3647051 C94.2669559,13.3114169 94.2962441,13.2365695 94.2962441,13.1397559 C94.2962441,13.0165017 94.1493966,12.894061 93.8540746,12.7724339 C93.8133966,12.7561627 93.7824814,12.7435525 93.7617356,12.7346034 C93.5534644,12.646739 93.4098712,12.5564339 93.3309559,12.4632814 C93.2524475,12.3705356 93.2125831,12.2517559 93.2125831,12.1073492 C93.2125831,11.8844339 93.2890576,11.7042305 93.4407864,11.5675525 C93.5925153,11.4308746 93.794278,11.3621288 94.0460746,11.3621288 C94.1644475,11.3621288 94.2775322,11.3784 94.3861424,11.4105356 C94.4951593,11.4426712 94.6013288,11.491078 94.706278,11.5557559 C94.6753627,11.625722 94.6485153,11.6960949 94.6261424,11.7672814 C94.6037695,11.8384678 94.5854644,11.9108746 94.5720407,11.9853153 L94.5277017,11.9853153 C94.4601763,11.8457898 94.381261,11.7412475 94.2909559,11.6716881 C94.2010576,11.6021288 94.0993627,11.5671458 93.9858712,11.5671458 C93.890278,11.5671458 93.8117695,11.5935864 93.7491254,11.646061 C93.6877017,11.6989424 93.6567864,11.7664678 93.6567864,11.8498576 C93.6567864,11.9181966 93.6791593,11.974739 93.7234983,12.0198915 C93.7690576,12.0654508 93.8760407,12.1207729 94.0460746,12.1858576 C94.3784136,12.3152136 94.5854644,12.4254508 94.6684475,12.5173831 C94.7510237,12.6093153 94.7921085,12.7309424 94.7921085,12.8822644 C94.7921085,13.1133153 94.7119729,13.3008407 94.552922,13.4436203 C94.3934644,13.5868068 94.1843797,13.6584 93.9260746,13.6584 C93.7832949,13.6584 93.6576,13.6437559 93.5473627,13.6152814 C93.4375322,13.5868068 93.3374644,13.5424678 93.2467525,13.4822644 C93.2540746,13.4273492 93.2707525,13.2857898 93.2955661,13.0575864 L93.3041085,12.9754169 Z" id="Fill-51" fill="#FEFEFE" mask="url(#mask-2)"></path>
            <path d="M95.3594441,11.6692881 L95.2752407,11.6692881 C95.2150373,11.6692881 95.169478,11.6696949 95.1385627,11.6705085 C95.1076475,11.671322 95.0783593,11.6725424 95.0527322,11.6737627 C95.0551729,11.6578983 95.0568,11.6424407 95.0576136,11.6277966 C95.0584271,11.6131525 95.0592407,11.5895593 95.0592407,11.5574237 C95.0592407,11.5252881 95.0584271,11.5008814 95.0568,11.4837966 C95.0551729,11.4671186 95.0535458,11.4520678 95.0527322,11.4386441 C95.0584271,11.440678 95.0669695,11.4414915 95.0783593,11.4427119 C95.1845288,11.451661 95.2601898,11.4557288 95.3053424,11.4557288 L95.3594441,11.4536949 C95.3610712,11.4329492 95.3626983,11.4109831 95.3635119,11.3873898 C95.3635119,11.3633898 95.3643254,11.3271864 95.3643254,11.2783729 C95.3643254,11.2197966 95.3626983,11.1567458 95.3586305,11.0900339 C95.3545627,11.0237288 95.3500881,10.9407458 95.3427661,10.8418983 C95.4477153,10.8016271 95.5518508,10.759322 95.6543593,10.7149831 C95.7568678,10.6702373 95.856122,10.6242712 95.9529356,10.576678 L95.9997153,10.6145085 C95.9911729,10.7882034 95.9846644,10.9334237 95.9805966,11.0505763 C95.976122,11.1665085 95.9744949,11.2555932 95.9744949,11.3162034 L95.9744949,11.4557288 C96.0570712,11.4557288 96.1347661,11.4545085 96.2071729,11.4520678 C96.2795797,11.4496271 96.3495458,11.4459661 96.4178847,11.4410847 C96.4138169,11.4748475 96.4113763,11.4988475 96.4105627,11.5134915 C96.4097492,11.5281356 96.4089356,11.5427797 96.4089356,11.5574237 C96.4089356,11.5822373 96.4113763,11.6168136 96.4162576,11.6607458 C96.4186983,11.6664407 96.4191051,11.6709153 96.4178847,11.6737627 C96.3820881,11.6725424 96.3349017,11.671322 96.277139,11.6705085 C96.2181559,11.6696949 96.1148339,11.6692881 95.9655458,11.6692881 C95.9655458,11.691661 95.9647322,11.7270508 95.9631051,11.7746441 C95.9537492,12.0907119 95.9480542,12.315661 95.9480542,12.4503051 L95.9480542,12.6341695 C95.9480542,12.9844068 95.9655458,13.2012203 95.9989017,13.2850169 C96.0330712,13.3688136 96.0989695,13.4107119 96.1970034,13.4107119 C96.2454102,13.4107119 96.3328678,13.3944407 96.4581559,13.3614915 L96.4605966,13.3594576 L96.4605966,13.528678 C96.3613424,13.5734237 96.2690034,13.6059661 96.1831729,13.6271186 C96.0981559,13.6478644 96.0163932,13.6580339 95.9386983,13.6580339 C95.7438508,13.6580339 95.5961898,13.6059661 95.4936814,13.5022373 C95.3911729,13.3985085 95.3403254,13.248 95.3403254,13.0507119 C95.3403254,13.0429831 95.3435797,12.9128136 95.3500881,12.6593898 C95.3561898,12.4063729 95.3594441,12.1566102 95.3594441,11.9117288 L95.3594441,11.6692881 Z" id="Fill-52" fill="#FEFEFE" mask="url(#mask-2)"></path>
            <path d="M97.0954169,14.294278 L97.4346712,13.5986847 L96.502739,11.4220068 C96.5560271,11.4277017 96.6125695,11.4317695 96.6711458,11.4346169 C96.7301288,11.4374644 96.7927729,11.4390915 96.8594847,11.4390915 C96.9261966,11.4390915 96.9888407,11.4374644 97.0478237,11.4346169 C97.1055864,11.4317695 97.1621288,11.4277017 97.2162305,11.4220068 C97.2902644,11.6437017 97.3728407,11.8714983 97.4631458,12.1053966 C97.5538576,12.3388881 97.6522983,12.5792949 97.758061,12.8262102 L98.2880949,11.4220068 C98.3165695,11.4277017 98.3458576,11.4317695 98.3767729,11.4346169 C98.4080949,11.4374644 98.4414508,11.4390915 98.4756203,11.4390915 C98.5106034,11.4390915 98.5439593,11.4374644 98.5756881,11.4346169 C98.6066034,11.4317695 98.6358915,11.4277017 98.6623322,11.4220068 C98.3991458,12.0028881 98.1465356,12.5784814 97.9032814,13.1491932 C97.6604339,13.7194983 97.4273492,14.2845153 97.2052475,14.8450576 C97.1763661,14.8389559 97.1462644,14.8348881 97.1145356,14.8320407 C97.0828068,14.8291932 97.0494508,14.8279729 97.0152814,14.8279729 C96.9811119,14.8279729 96.9469424,14.8291932 96.9119593,14.8320407 C96.8769763,14.8348881 96.8403661,14.8389559 96.8013153,14.8450576 C96.846061,14.7746847 96.8920271,14.6953627 96.9404339,14.6066847 C96.9888407,14.5176 97.0405017,14.4134644 97.0954169,14.294278" id="Fill-53" fill="#FEFEFE" mask="url(#mask-2)"></path>
            <path d="M98.952122,13.5984814 C98.9631051,13.3413966 98.9720542,13.0733288 98.9773424,12.7938712 C98.9830373,12.5148203 98.9862915,12.2154305 98.9862915,11.8961085 C98.9862915,11.557261 98.9830373,11.2477017 98.9773424,10.9678373 C98.9720542,10.6875661 98.9631051,10.4235661 98.952122,10.1754305 C99.0245288,10.1884475 99.0863593,10.1973966 99.1372068,10.202278 C99.1896814,10.2071593 99.2397153,10.2096 99.288122,10.2096 C99.3365288,10.2096 99.3881898,10.2067525 99.4431051,10.2010576 C99.4972068,10.1957695 99.5582237,10.1872271 99.6257492,10.1754305 C99.6147661,10.4325153 99.6058169,10.7005831 99.6005288,10.9800407 C99.5948339,11.2594983 99.5915797,11.5588881 99.5915797,11.8782102 C99.5915797,12.2170576 99.5948339,12.5262102 99.6005288,12.8064814 C99.6058169,13.0863458 99.6147661,13.3503458 99.6257492,13.5984814 C99.5757153,13.5870915 99.5224271,13.5785492 99.4671051,13.5728542 C99.4113763,13.5671593 99.3523932,13.5643119 99.2921898,13.5643119 C99.2315797,13.5643119 99.1738169,13.5671593 99.1172746,13.5728542 C99.0619525,13.5785492 99.0062237,13.5870915 98.952122,13.5984814" id="Fill-54" fill="#FEFEFE" mask="url(#mask-2)"></path>
            <path d="M100.708759,12.5144136 C100.708759,12.7788203 100.771403,12.9883119 100.897098,13.1437017 C101.022386,13.2990915 101.1912,13.3763797 101.403946,13.3763797 C101.509708,13.3763797 101.61059,13.3588881 101.70659,13.3239051 C101.803403,13.2885153 101.896556,13.2352271 101.987268,13.1632271 L102.03242,13.1961763 L101.931539,13.4520407 C101.836759,13.5187525 101.724895,13.5696 101.596353,13.6049898 C101.468217,13.6403797 101.328285,13.658278 101.178183,13.658278 C100.823878,13.658278 100.546047,13.5537356 100.344692,13.3442441 C100.143742,13.1347525 100.042861,12.8455322 100.042861,12.4757695 C100.042861,12.1430237 100.142929,11.8745492 100.343471,11.6695322 C100.54442,11.4645153 100.808827,11.3620068 101.138725,11.3620068 C101.451539,11.3620068 101.691539,11.4486508 101.858319,11.621939 C102.025098,11.7948203 102.108488,12.0437695 102.108488,12.3679729 C102.108488,12.4062102 102.108488,12.4359051 102.107675,12.4566508 C102.107268,12.4773966 102.105641,12.4957017 102.104827,12.5119729 L100.708759,12.5144136 Z M100.708759,12.2923119 L101.480827,12.2923119 C101.480827,12.2760407 101.481641,12.2561085 101.483268,12.2312949 C101.484895,12.2068881 101.485708,12.1910237 101.485708,12.1837017 C101.485708,11.9774644 101.455607,11.8216678 101.394997,11.7163119 C101.335607,11.6109559 101.246522,11.5584814 101.129776,11.5584814 C100.996353,11.5584814 100.892217,11.6186847 100.818997,11.7386847 C100.746183,11.8586847 100.708759,12.029939 100.708759,12.2524475 L100.708759,12.2923119 Z" id="Fill-55" fill="#FEFEFE" mask="url(#mask-2)"></path>
        </g>
    </g>
</svg>