<?xml version="1.0" encoding="UTF-8"?>
<svg width="120px" height="33px" viewBox="0 0 120 33" version="1.1" xmlns="http://www.w3.org/2000/svg" xmlns:xlink="http://www.w3.org/1999/xlink">
    <title>10-5</title>
    <defs>
        <polygon id="path-1" points="0 32.4324324 119.917703 32.4324324 119.917703 0.255 0 0.255"></polygon>
    </defs>
    <g id="10-5" stroke="none" stroke-width="1" fill="none" fill-rule="evenodd">
        <polygon id="Fill-1" fill="#4693D0" points="0 33 120 33 120 0 0 0"></polygon>
        <g id="Group-39">
            <path d="M21.9205946,5.5002973 C22.1346486,6.12097297 21.7924865,6.71975676 21.4069459,7.04124324 C20.1441081,7.66232432 18.7742432,8.06854054 17.553973,8.75408108 C15.1353243,9.22475676 12.8662703,10.0594865 10.5120811,10.6371892 C9.61289189,10.7871892 8.64964865,10.5086757 8.136,9.78137838 C8.26491892,9.22475676 7.47235135,8.81813514 8.05045946,8.32597297 C9.14221622,8.21894595 9.97694595,7.94043243 11.1327568,7.983 C12.3100541,7.02056757 13.6373514,6.89124324 15.1353243,6.69908108 C15.3708649,6.35691892 15.7774865,6.39908108 16.0555946,6.18502703 C16.6981622,5.67137838 17.553973,5.47921622 18.0676216,4.83664865 C18.7953243,4.23745946 19.758973,4.34448649 20.6792432,4.47259459 C21.1073514,4.77218919 21.728027,4.92259459 21.9205946,5.5002973" id="Fill-2" fill="#FEFEFE"></path>
            <path d="M39.4723784,13.6770811 C39.6004865,13.206 39.6868378,12.6923514 39.4298108,12.2427568 C39.3868378,11.9642432 39.5583243,11.7501892 39.2798108,11.6216757 C38.7657568,11.2584324 38.2950811,11.8361351 37.7814324,11.9216757 C37.0962973,12.2642432 36.6045405,13.1208649 35.7908919,13.313027 C35.1702162,14.1051892 34.2495405,14.4043784 33.4792703,14.9184324 C32.5156216,15.1750541 31.3172432,15.1105946 30.4399459,14.7465405 C30.2048108,14.3399189 29.7118378,14.5543784 29.4122432,14.2973514 C28.6845405,13.8270811 27.7217027,13.8270811 27.2076486,13.013027 C26.8861622,12.4353243 25.9448108,12.4353243 26.1154865,11.6216757 C26.4365676,11.2795135 26.8861622,11.2150541 27.3146757,11.1084324 C28.7915676,10.8299189 30.396973,11.0443784 31.8308919,10.5518108 C32.6441351,10.3377568 33.5003514,10.1447838 34.2929189,9.86708108 C34.5921081,9.54559459 35.2346757,9.73856757 35.4698108,9.26748649 C36.0049459,9.16045946 36.561973,9.01086486 37.0752162,9.01086486 C37.5244054,8.64721622 38.1880541,8.86127027 38.6161622,8.43316216 C39.4938649,8.43316216 40.1575135,7.85464865 41.0777838,7.91910811 C41.7629189,7.23397297 42.8335946,7.51208108 43.6464324,7.14843243 C44.8452162,6.78478378 46.1506216,5.86410811 47.4994054,6.59221622 L48.056027,6.59221622 C48.9762973,6.82735135 50.1746757,6.82735135 50.6246757,7.76910811 C50.6883243,8.38978378 50.2602162,8.92491892 50.004,9.46045946 C49.1267027,9.97410811 47.6704865,10.2947838 46.7717027,9.56708108 C45.7014324,8.88194595 44.3952162,9.28856757 43.2827838,9.61005405 C42.9831892,9.95262162 42.4691351,9.95262162 42.2980541,10.4443784 C42.341027,10.9584324 42.2121081,11.5369459 42.4050811,11.9857297 C42.8112973,12.8423514 42.2765676,13.6981622 42.6621081,14.5543784 C42.8335946,15.7101892 43.1757568,17.3374865 43.1327838,18.6647838 C43.1327838,20.5057297 43.2827838,22.7962703 43.5827838,24.5723514 C43.7108919,25.236 43.9675135,25.9637027 44.0534595,26.7343784 C44.4600811,27.2054595 44.096027,27.8257297 44.3530541,28.3604595 C43.9034595,29.4951892 44.3311622,31.1224865 43.0257568,31.7001892 C42.3621081,32.4274865 41.0777838,32.298973 40.2434595,32.0212703 C39.6653514,31.8287027 39.5149459,31.2076216 39.1302162,30.8865405 C39.1302162,30.1373514 38.5950811,29.4311351 38.8735946,28.5753243 C39.3012973,23.6516757 39.729,18.9854595 39.4723784,14.0832973" id="Fill-4" fill="#FEFEFE"></path>
            <path d="M15.5421892,11.3222432 C15.9698919,11.7929189 16.1628649,12.3499459 16.4194865,12.9061622 C16.8690811,13.3987297 17.3831351,12.8421081 17.8538108,12.7991351 C18.6240811,12.0073784 19.6088108,10.9800811 20.9786757,11.1081892 C21.5352973,11.3222432 22.2423243,11.3007568 22.5196216,11.8788649 C22.7770541,12.2429189 22.7125946,12.671027 22.5840811,13.0561622 C22.0919189,14.0623784 20.8720541,14.426027 20.0154324,15.0681892 C19.3307027,15.4322432 18.4104324,15.6888649 18.0674595,16.4595405 C18.0463784,17.6798108 19.0311081,18.6645405 19.8017838,19.3703514 C20.9786757,20.591027 22.0704324,22.4534595 23.6547568,23.1807568 C24.5105676,23.6729189 25.1952973,24.6580541 26.2874595,24.9361622 C26.5225946,25.1712973 26.9725946,25.2576486 27.2077297,25.5345405 C27.6998919,25.5994054 27.9143514,26.306027 28.4920541,26.1130541 C29.4982703,26.7981892 30.5255676,27.4841351 31.7239459,27.6977838 C32.0239459,27.9114324 32.4305676,28.0825135 32.6016486,28.361027 C32.9867838,28.446973 33.1582703,28.8527838 33.3723243,29.1317027 C33.4793514,29.4523784 33.2008378,29.7304865 33.1152973,30.009 C32.5157027,30.5871081 31.5739459,30.3515676 30.9107027,30.7367027 C28.7916486,30.8007568 26.4155676,31.3573784 24.318,30.9292703 L21.963,29.1317027 C20.465027,27.2907568 19.3307027,25.2576486 17.8538108,23.3952162 C17.6827297,22.9675135 17.0616486,22.7964324 16.8690811,22.3030541 C16.1413784,21.831973 15.8843514,20.9546757 14.9215135,20.8691351 C14.5355676,21.4472432 14.4074595,22.1108919 14.4074595,22.7100811 C14.1719189,23.2237297 14.2578649,23.9737297 13.9582703,24.5080541 C13.6371892,24.8725135 13.7652973,25.4068378 13.4442162,25.7498108 C13.4231351,26.1767027 13.1020541,26.306027 13.0805676,26.7341351 C12.3528649,28.4031892 11.0036757,29.7730541 9.63462162,30.9292703 C8.43543243,31.1652162 7.36556757,32.064 6.08124324,31.3573784 C5.35354054,31.2933243 4.60435135,30.8007568 4.34732432,30.0726486 C4.51840541,29.6875135 4.02624324,29.5602162 4.02624324,29.2387297 C4.26137838,28.7246757 3.55556757,28.2321081 4.2402973,27.9114324 C4.28327027,27.6329189 4.5402973,27.3341351 4.79691892,27.2477838 C5.418,27.1411622 6.05975676,27.1196757 6.55191892,27.6552162 C6.78745946,27.7192703 6.93745946,27.5258919 7.10894595,27.4403514 C7.15151351,27.1196757 7.64367568,27.0767027 7.62218919,26.7341351 C8.2002973,26.2204865 8.60691892,25.6427838 8.86435135,24.8725135 C9.63462162,24.0580541 9.71975676,22.9026486 9.42016216,21.7898108 C8.62840541,21.7253514 7.79367568,22.131973 6.95854054,21.8542703 C6.40232432,21.4472432 5.58867568,21.2331892 5.31097297,20.6125135 C4.92502703,20.2054865 4.60435135,19.6918378 4.5402973,19.1145405 C4.77543243,18.4715676 5.67421622,18.6645405 6.18827027,18.5571081 C6.65935135,18.3649459 7.21556757,18.3211622 7.68664865,18.086027 C8.88543243,17.8508919 9.59124324,16.781027 10.8115135,16.6095405 C11.5392162,16.1603514 12.545027,15.5181892 12.4169189,14.4904865 C12.0532703,13.6557568 12.6305676,12.9276486 12.5024595,12.0288649 C12.6524595,11.6433243 12.995027,11.3007568 13.3801622,11.1507568 C13.8297568,11.0226486 14.3434054,11.2152162 14.8140811,11.0011622 C14.9855676,11.2792703 15.3277297,11.1507568 15.5421892,11.3222432" id="Fill-6" fill="#FEFEFE"></path>
            <path d="M52.9364595,17.4225405 C53.9207838,18.4932162 54.9914595,19.799027 54.3274054,21.3829459 C54.2629459,21.9176757 53.4926757,21.7251081 53.4501081,22.3032162 C52.3583514,22.4751081 51.2236216,22.4751081 50.2182162,22.1106486 C50.1967297,21.7251081 49.9182162,21.597 49.5971351,21.3829459 C48.3557838,20.2486216 47.3925405,18.6857838 47.9487568,17.1233514 C49.1905135,16.1175405 50.9025405,17.037 52.3153784,17.1233514 C52.5079459,17.2518649 52.7005135,17.4225405 52.9364595,17.4225405" id="Fill-8" fill="#FEFEFE"></path>
            <mask id="mask-2" fill="white">
                <use xlink:href="#path-1"></use>
            </mask>
            <g id="Clip-11"></g>
            <polygon id="Fill-10" fill="#FEFEFE" mask="url(#mask-2)" points="0.027972973 14.2293243 11.0039189 14.2293243 11.0039189 13.7671622 0.027972973 13.7671622"></polygon>
            <polygon id="Fill-12" fill="#FEFEFE" mask="url(#mask-2)" points="22.7772973 14.2293243 27.5927027 14.2293243 27.5927027 13.7671622 22.7772973 13.7671622"></polygon>
            <polygon id="Fill-13" fill="#FEFEFE" mask="url(#mask-2)" points="36.2614865 14.2293243 39.3652703 14.2293243 39.3652703 13.7671622 36.2614865 13.7671622"></polygon>
            <polygon id="Fill-14" fill="#FEFEFE" mask="url(#mask-2)" points="43.2186486 14.3310811 119.917703 14.3310811 119.917703 13.8697297 43.2186486 13.8697297"></polygon>
            <polygon id="Fill-15" fill="#FEFEFE" mask="url(#mask-2)" points="0.027972973 22.7910811 7.25837838 22.7910811 7.25837838 22.3293243 0.027972973 22.3293243"></polygon>
            <polygon id="Fill-16" fill="#FEFEFE" mask="url(#mask-2)" points="14.7502703 22.7910811 16.5697297 22.7910811 16.5697297 22.3293243 14.7502703 22.3293243"></polygon>
            <polygon id="Fill-17" fill="#FEFEFE" mask="url(#mask-2)" points="23.4194595 22.7910811 38.5094595 22.7910811 38.5094595 22.3293243 23.4194595 22.3293243"></polygon>
            <polygon id="Fill-18" fill="#FEFEFE" mask="url(#mask-2)" points="43.9678378 22.7910811 50.067973 22.7910811 50.067973 22.3293243 43.9678378 22.3293243"></polygon>
            <polygon id="Fill-19" fill="#FEFEFE" mask="url(#mask-2)" points="54.135 22.7910811 57.6668919 22.7910811 57.6668919 22.3293243 54.135 22.3293243"></polygon>
            <polygon id="Fill-20" fill="#FEFEFE" mask="url(#mask-2)" points="112.847027 22.7910811 119.542703 22.7910811 119.542703 22.3293243 112.847027 22.3293243"></polygon>
            <polygon id="Fill-21" fill="#FEFEFE" mask="url(#mask-2)" points="0.027972973 26.2155405 7.36540541 26.2155405 7.36540541 25.7537838 0.027972973 25.7537838"></polygon>
            <polygon id="Fill-22" fill="#FEFEFE" mask="url(#mask-2)" points="13.8936486 26.2155405 18.7098649 26.2155405 18.7098649 25.7537838 13.8936486 25.7537838"></polygon>
            <polygon id="Fill-23" fill="#FEFEFE" mask="url(#mask-2)" points="29.0914865 26.2155405 38.2954054 26.2155405 38.2954054 25.7537838 29.0914865 25.7537838"></polygon>
            <polygon id="Fill-24" fill="#FEFEFE" mask="url(#mask-2)" points="44.502973 26.2155405 57.6668919 26.2155405 57.6668919 25.7537838 44.502973 25.7537838"></polygon>
            <polygon id="Fill-25" fill="#FEFEFE" mask="url(#mask-2)" points="112.857162 26.2155405 119.542703 26.2155405 119.542703 25.7537838 112.857162 25.7537838"></polygon>
            <polygon id="Fill-26" fill="#FEFEFE" mask="url(#mask-2)" points="0 28.035 3.40581081 28.035 3.40581081 27.5732432 0 27.5732432"></polygon>
            <polygon id="Fill-27" fill="#FEFEFE" mask="url(#mask-2)" points="13.0378378 28.035 19.9945946 28.035 19.9945946 27.5732432 13.0378378 27.5732432"></polygon>
            <polygon id="Fill-28" fill="#FEFEFE" mask="url(#mask-2)" points="32.837027 28.035 37.9743243 28.035 37.9743243 27.5732432 32.837027 27.5732432"></polygon>
            <polygon id="Fill-29" fill="#FEFEFE" mask="url(#mask-2)" points="45.0377027 28.035 57.7739189 28.035 57.7739189 27.5732432 45.0377027 27.5732432"></polygon>
            <polygon id="Fill-30" fill="#FEFEFE" mask="url(#mask-2)" points="112.841351 28.035 119.542703 28.035 119.542703 27.5732432 112.841351 27.5732432"></polygon>
            <polygon id="Fill-31" fill="#FEFEFE" mask="url(#mask-2)" points="0.0425675676 31.1391892 3.51283784 31.1391892 3.51283784 30.6774324 0.0425675676 30.6774324"></polygon>
            <polygon id="Fill-32" fill="#FEFEFE" mask="url(#mask-2)" points="10.7902703 31.1391892 22.6694595 31.1391892 22.6694595 30.6774324 10.7902703 30.6774324"></polygon>
            <polygon id="Fill-33" fill="#FEFEFE" mask="url(#mask-2)" points="33.4791892 31.1391892 38.187973 31.1391892 38.187973 30.6774324 33.4791892 30.6774324"></polygon>
            <polygon id="Fill-34" fill="#FEFEFE" mask="url(#mask-2)" points="44.8236486 31.1391892 119.542703 31.1391892 119.542703 30.6774324 44.8236486 30.6774324"></polygon>
            <path d="M68.5348784,28.4599459 L70.0527162,28.4599459 C70.2128514,28.4668378 70.3433919,28.5057568 70.4447432,28.5762973 C70.5375811,28.6476486 70.5878514,28.7477838 70.5959595,28.8758919 C70.5878514,29.0035946 70.5420405,29.1029189 70.4573108,29.1738649 C70.3482568,29.2602162 70.2128514,29.301973 70.0527162,29.301973 L66.1689324,29.301973 C65.8065,29.2950811 65.5320405,29.2062973 65.3467703,29.0348108 C65.1529865,28.8434595 65.0556892,28.6164324 65.0556892,28.3529189 L65.0556892,23.4158919 C64.6843378,23.856973 64.4228514,24.0767027 64.2712297,24.0767027 C64.1451486,24.0912973 64.0271757,24.0629189 63.9165,23.9915676 C63.8662297,23.9421081 63.828527,23.9027838 63.8029865,23.874 C63.7190676,23.8958919 63.6387973,23.9027838 63.5629865,23.8954865 C63.4360946,23.8817027 63.1839324,23.6712973 62.8036622,23.2658919 C62.6183919,23.5512973 62.4489324,23.7783243 62.2977162,23.9485946 C62.1716351,24.0629189 62.0451486,24.1200811 61.9182568,24.1200811 C62.0617703,24.2408919 62.1331216,24.4650811 62.1331216,24.7914324 L64.233527,24.7914324 C64.3855541,24.7914324 64.503527,24.8271081 64.5878514,24.8980541 C64.6802838,24.9762973 64.7269054,25.0792703 64.7269054,25.206973 C64.7183919,25.3217027 64.6717703,25.4206216 64.5878514,25.5061622 C64.503527,25.5917027 64.3855541,25.6338649 64.233527,25.6338649 L62.3483919,25.6338649 C63.1162297,26.2095405 63.7697432,26.7142703 64.3089324,27.1484595 C64.4102838,27.2404865 64.4609595,27.3612973 64.4609595,27.5104865 C64.4528514,27.624 64.3928514,27.7273784 64.2842027,27.8206216 C64.1662297,27.8980541 64.0389324,27.9333243 63.9043378,27.9268378 C63.7612297,27.9268378 63.6258243,27.8623784 63.4997432,27.7342703 C63.1202838,27.3791351 62.6646081,26.9846757 62.1331216,26.5512973 L62.1331216,29.1312973 C62.1331216,29.2735946 62.0783919,29.3907568 61.9693378,29.4831892 C61.8846081,29.5618378 61.7617703,29.6044054 61.6016351,29.6108919 C61.458527,29.6044054 61.3356892,29.5650811 61.2351486,29.4937297 C61.1337973,29.4012973 61.0839324,29.2808919 61.0839324,29.1312973 L61.0839324,26.6364324 C60.9400135,26.7998108 60.8005541,26.9485946 60.6659595,27.084 C59.8227162,27.9017027 59.223527,28.2888649 58.8700135,28.2467027 C58.7171757,28.211027 58.5996081,28.146973 58.5152838,28.0541351 C58.4309595,27.9337297 58.4009595,27.8161622 58.4265,27.7026486 C58.4597432,27.5745405 58.5525811,27.4683243 58.7050135,27.3827838 C59.5060946,26.8991351 60.1725811,26.3161622 60.7040676,25.6338649 L58.9202838,25.6338649 C58.7601486,25.6265676 58.6369054,25.5876486 58.5529865,25.5167027 C58.4597432,25.4388649 58.4139324,25.3350811 58.4139324,25.206973 C58.4228514,25.0934595 58.4686622,24.9945405 58.5529865,24.9085946 C58.6369054,24.8307568 58.7601486,24.7914324 58.9202838,24.7914324 L61.0839324,24.7914324 C61.0916351,24.4294054 61.1378514,24.2157568 61.2229865,24.1517027 C61.3154189,24.0738649 61.4419054,24.0381892 61.6016351,24.0446757 C61.4925811,23.9453514 61.424473,23.8529189 61.3993378,23.7681892 C61.3993378,23.646973 61.4496081,23.5330541 61.5509595,23.4268378 C61.964473,22.9857568 62.2725811,22.4421081 62.4756892,21.7950811 C62.5089324,21.6604865 62.5802838,21.5603514 62.6897432,21.4967027 C62.8000135,21.4395405 62.9216351,21.4221081 63.0570405,21.4435946 C63.2005541,21.471973 63.3015,21.5283243 63.3610946,21.6134595 C63.4450135,21.7561622 63.393527,22.0545405 63.2082568,22.509 C63.7397432,22.9358919 64.0178514,23.1706216 64.0437973,23.2131892 C64.9202838,22.1684595 65.5616351,20.9850811 65.9662297,19.6626486 C66.0083919,19.5280541 66.0850135,19.4283243 66.1940676,19.3634595 C66.2954189,19.3071081 66.4137973,19.2892703 66.5487973,19.3103514 C66.6915,19.3391351 66.7928514,19.3967027 66.8520405,19.4814324 C66.9615,19.6521081 66.7973108,20.241973 66.3590676,21.2518378 L67.6742027,21.2518378 C67.6742027,21.2437297 67.6786622,21.2408919 67.6867703,21.2408919 C68.0496081,20.6080541 68.2940676,20.0854865 68.4205541,19.6731892 C68.4716351,19.5381892 68.5515,19.4384595 68.6613649,19.374 C68.7700135,19.3172432 68.9005541,19.3034595 69.0525811,19.3318378 C69.1969054,19.3675135 69.2982568,19.4311622 69.3566351,19.5235946 C69.483527,19.7368378 69.2933919,20.3133243 68.7874459,21.2518378 L70.0527162,21.2518378 C70.2128514,21.2583243 70.3433919,21.2976486 70.4447432,21.3681892 C70.5375811,21.4395405 70.5878514,21.5392703 70.5959595,21.6673784 C70.5878514,21.7950811 70.5420405,21.8948108 70.4573108,21.9657568 C70.3482568,22.0504865 70.2128514,22.0930541 70.0527162,22.0930541 L68.5348784,22.0930541 L68.5348784,23.6392703 L70.0020405,23.6392703 C70.1540676,23.6392703 70.2720405,23.6753514 70.3559595,23.7462973 C70.4492027,23.8245405 70.4954189,23.9279189 70.4954189,24.0556216 C70.4865,24.1691351 70.4406892,24.2688649 70.3559595,24.354 C70.2720405,24.4395405 70.1540676,24.4821081 70.0020405,24.4821081 L68.5348784,24.4821081 L68.5348784,25.9857568 L70.0020405,25.9857568 C70.1540676,25.9857568 70.2720405,26.0214324 70.3559595,26.0923784 C70.4492027,26.171027 70.4954189,26.274 70.4954189,26.4017027 C70.4865,26.5148108 70.4406892,26.6145405 70.3559595,26.7004865 C70.2720405,26.7856216 70.1540676,26.8277838 70.0020405,26.8277838 L68.5348784,26.8277838 L68.5348784,28.4599459 Z M59.2867703,24.0556216 C59.1517703,24.1622432 59.0297432,24.2117027 58.9202838,24.2048108 C58.7933919,24.2117027 58.6754189,24.1735946 58.5659595,24.0872432 C58.4727162,24.0094054 58.4228514,23.916973 58.4139324,23.8103514 C58.4309595,23.6826486 58.4937973,23.5723784 58.6036622,23.4799459 C59.0925811,23.0177838 59.493527,22.4421081 59.8056892,21.7525135 C59.864473,21.6248108 59.9492027,21.5352162 60.0590676,21.4861622 C60.1677162,21.4362973 60.2905541,21.4249459 60.4251486,21.4545405 C60.5520405,21.4894054 60.644473,21.5530541 60.7040676,21.6458919 C60.7713649,21.7812973 60.6874459,22.0833243 60.4510946,22.551973 C60.7381216,22.8296757 60.9858243,23.0745405 61.1970405,23.2877838 C61.2809595,23.3944054 61.3109595,23.5156216 61.2858243,23.651027 C61.2692027,23.7572432 61.1966351,23.846027 61.0705541,23.916973 C60.944473,23.9664324 60.8179865,23.9883243 60.6910946,23.981027 C60.5556892,23.9599459 60.4377162,23.8817027 60.3371757,23.7462973 C60.2358243,23.604 60.1170405,23.4483243 59.9824459,23.2772432 C59.5948784,23.7252162 59.3625811,23.9842703 59.2867703,24.0556216 L59.2867703,24.0556216 Z M61.1216351,19.416973 C61.2140676,19.3391351 61.3397432,19.2998108 61.5002838,19.2998108 C61.6437973,19.3071081 61.7666351,19.346027 61.8679865,19.416973 C61.9770405,19.5025135 62.0317703,19.6127838 62.0317703,19.7481892 L62.0317703,20.3129189 L64.0312297,20.3129189 C64.1832568,20.3129189 64.3008243,20.3485946 64.3855541,20.4195405 C64.4775811,20.4977838 64.5242027,20.6007568 64.5242027,20.7292703 C64.5156892,20.8423784 64.469473,20.9417027 64.3855541,21.0272432 C64.3008243,21.1123784 64.1832568,21.1549459 64.0312297,21.1549459 L58.9709595,21.1549459 C58.8104189,21.1480541 58.6875811,21.1091351 58.6036622,21.0381892 C58.5104189,20.9599459 58.4646081,20.8565676 58.4646081,20.7292703 C58.4727162,20.6153514 58.5189324,20.5156216 58.6036622,20.4300811 C58.6875811,20.3518378 58.8104189,20.3129189 58.9709595,20.3129189 L60.9825811,20.3129189 C60.9902838,19.7794054 61.0365,19.4814324 61.1216351,19.416973 L61.1216351,19.416973 Z M67.5355541,23.6392703 L67.5355541,22.0930541 L66.6748784,22.0930541 C66.4977162,22.0930541 66.3542027,22.1396757 66.2447432,22.2321081 C66.1097432,22.3318378 66.0469054,22.4599459 66.0550135,22.616027 L66.0550135,23.6392703 L67.5355541,23.6392703 Z M66.0550135,25.9857568 L67.5355541,25.9857568 L67.5355541,24.4821081 L66.0550135,24.4821081 L66.0550135,25.9857568 Z M66.0550135,26.8277838 L66.0550135,27.9053514 C66.063527,28.1323784 66.1223108,28.2823784 66.2321757,28.3529189 C66.3501486,28.4242703 66.5106892,28.4599459 66.7121757,28.4599459 L67.5355541,28.4599459 L67.5355541,26.8277838 L66.0550135,26.8277838 Z" id="Fill-35" fill="#FEFEFE" mask="url(#mask-2)"></path>
            <path d="M76.3405135,21.1230405 C76.4925405,21.1230405 76.6105135,21.1591216 76.6952432,21.230473 C76.7876757,21.3083108 76.8338919,21.4116892 76.8338919,21.5389865 C76.8253784,21.6533108 76.7791622,21.7522297 76.6952432,21.8377703 C76.6105135,21.9233108 76.4925405,21.965473 76.3405135,21.965473 L72.7498378,21.965473 C72.5897027,21.9589865 72.4664595,21.9192568 72.3825405,21.8483108 C72.2905135,21.770473 72.2442973,21.6675 72.2442973,21.5389865 C72.2524054,21.4250676 72.2982162,21.3257432 72.3825405,21.2406081 C72.4664595,21.1623649 72.5897027,21.1230405 72.7498378,21.1230405 L76.3405135,21.1230405 Z M73.2801081,29.2165541 C73.0607838,29.2096622 72.897,29.1415541 72.7875405,29.0146622 C72.6436216,28.8573649 72.5771351,28.6903378 72.5852432,28.5127703 L72.5852432,26.2416892 C72.5852432,26.0787162 72.6525405,25.9392568 72.7875405,25.8253378 C72.9302432,25.7049324 73.0956486,25.6441216 73.2801081,25.6441216 L75.6452432,25.6441216 C75.8892973,25.6376351 76.092,25.6980405 76.2517297,25.8253378 C76.3867297,25.9319595 76.4584865,26.0706081 76.467,26.2416892 L76.467,28.5127703 C76.467,28.704527 76.3786216,28.8683108 76.2014595,29.0033108 C76.0413243,29.1383108 75.8564595,29.2096622 75.6452432,29.2165541 L73.2801081,29.2165541 Z M75.8345676,19.7158784 C75.9865946,19.7158784 76.1045676,19.7515541 76.1884865,19.8225 C76.2817297,19.9007432 76.3279459,20.0037162 76.3279459,20.1322297 C76.3198378,20.2453378 76.2732162,20.3450676 76.1884865,20.4297973 C76.1045676,20.5157432 75.9865946,20.5583108 75.8345676,20.5583108 L73.3064595,20.5583108 C73.1455135,20.5510135 73.0230811,20.5120946 72.9391622,20.4407432 C72.8463243,20.3629054 72.8009189,20.259527 72.8009189,20.1322297 C72.809027,20.0179054 72.8552432,19.9185811 72.9391622,19.8330405 C73.0230811,19.7552027 73.1455135,19.7158784 73.3064595,19.7158784 L75.8345676,19.7158784 Z M75.7847027,22.6161486 C75.9359189,22.6161486 76.0538919,22.6518243 76.1386216,22.7223649 C76.2310541,22.8014189 76.2772703,22.9043919 76.2772703,23.0320946 C76.2691622,23.1456081 76.2225405,23.2453378 76.1386216,23.330473 C76.0538919,23.4160135 75.9359189,23.4585811 75.7847027,23.4585811 L73.3064595,23.4585811 C73.1455135,23.4516892 73.0230811,23.4123649 72.9391622,23.3414189 C72.8463243,23.2627703 72.8009189,23.1602027 72.8009189,23.0320946 C72.809027,22.9185811 72.8552432,22.8188514 72.9391622,22.7333108 C73.0230811,22.6550676 73.1455135,22.6161486 73.3064595,22.6161486 L75.7847027,22.6161486 Z M75.8345676,24.1522297 C75.9865946,24.1522297 76.1045676,24.1879054 76.1884865,24.2580405 C76.2817297,24.3366892 76.3279459,24.4396622 76.3279459,24.5677703 C76.3198378,24.6812838 76.2732162,24.7806081 76.1884865,24.8661486 C76.1045676,24.9508784 75.9865946,24.9938514 75.8345676,24.9938514 L73.3064595,24.9938514 C73.1455135,24.9865541 73.0230811,24.9480405 72.9391622,24.8766892 C72.8463243,24.7984459 72.8009189,24.695473 72.8009189,24.5677703 C72.809027,24.4538514 72.8552432,24.3549324 72.9391622,24.2685811 C73.0230811,24.1903378 73.1455135,24.1522297 73.3064595,24.1522297 L75.8345676,24.1522297 Z M74.039027,26.4865541 C73.887,26.4865541 73.7864595,26.5116892 73.7357838,26.5611486 C73.6603784,26.6329054 73.6263243,26.7216892 73.6348378,26.8279054 L73.6348378,28.0327703 C73.6429459,28.1539865 73.677,28.239527 73.7357838,28.2885811 C73.8034865,28.3457432 73.9044324,28.3741216 74.039027,28.3741216 L75.0253784,28.3741216 C75.1684865,28.3599324 75.2702432,28.3279054 75.3294324,28.2784459 C75.3882162,28.2285811 75.4178108,28.1466892 75.4178108,28.0327703 L75.4178108,26.8279054 C75.4178108,26.7216892 75.3882162,26.6430405 75.3294324,26.5931757 C75.2613243,26.5222297 75.1607838,26.4865541 75.0253784,26.4865541 L74.039027,26.4865541 Z M77.5044324,24.7806081 C77.5891622,24.695473 77.7071351,24.6492568 77.8591622,24.6423649 C78.0022703,24.6565541 78.1242973,24.6991216 78.2256486,24.7700676 C78.327,24.8556081 78.3776757,24.9731757 78.3776757,25.1219595 C78.3517297,25.3003378 78.327,25.5589865 78.3018649,25.9003378 C78.0817297,27.7984459 77.8713243,28.8119595 77.669027,28.9396622 C77.5676757,28.9956081 77.4371351,29.0211486 77.277,29.0146622 C77.142,28.985473 77.0325405,28.9250676 76.9478108,28.8326351 C76.8724054,28.7264189 76.8505135,28.5975 76.8853784,28.4487162 C77.1205135,27.5110135 77.277,26.4018243 77.3532162,25.1219595 C77.3532162,24.980473 77.4030811,24.8661486 77.5044324,24.7806081 L77.5044324,24.7806081 Z M80.0982162,21.4538514 L77.4030811,21.4538514 C77.2433514,21.4473649 77.1205135,21.4076351 77.0365946,21.3362838 C76.9433514,21.2580405 76.8971351,21.155473 76.8971351,21.0269595 C76.9056486,20.9134459 76.9518649,20.8141216 77.0365946,20.7285811 C77.1205135,20.6503378 77.2433514,20.6114189 77.4030811,20.6114189 L80.0982162,20.6114189 C80.1063243,19.8938514 80.1525405,19.4916892 80.2368649,19.4069595 C80.3463243,19.3214189 80.4817297,19.2784459 80.6422703,19.2784459 C80.7930811,19.2784459 80.9203784,19.3214189 81.0217297,19.4069595 C81.1397027,19.4989865 81.1980811,19.6125 81.1980811,19.7475 L81.1980811,20.6114189 L83.9317297,20.6114189 C84.0833514,20.6114189 84.2017297,20.6470946 84.2848378,20.7180405 C84.3780811,20.7962838 84.4242973,20.8992568 84.4242973,21.0269595 C84.4161892,21.1408784 84.369973,21.2406081 84.2848378,21.3257432 C84.2017297,21.4116892 84.0833514,21.4538514 83.9317297,21.4538514 L81.1980811,21.4538514 L81.1980811,22.7438514 L83.7797027,22.7438514 C83.9309189,22.7438514 84.0492973,22.7799324 84.1336216,22.8512838 C84.2260541,22.9287162 84.2730811,23.0320946 84.2730811,23.1597973 C84.2641622,23.2741216 84.2183514,23.3730405 84.1336216,23.4585811 C84.0492973,23.5441216 83.9309189,23.5862838 83.7797027,23.5862838 L77.6057838,23.5862838 C77.4460541,23.5797973 77.3232162,23.5408784 77.2384865,23.4691216 C77.1460541,23.3912838 77.0998378,23.2883108 77.0998378,23.1597973 C77.1083514,23.0462838 77.1545676,22.9469595 77.2384865,22.8614189 C77.3232162,22.7831757 77.4460541,22.7438514 77.6057838,22.7438514 L80.0982162,22.7438514 L80.0982162,21.4538514 Z M78.9598378,24.2475 C79.0437568,24.1696622 79.1657838,24.1266892 79.3263243,24.1197973 C79.4698378,24.1266892 79.5922703,24.1656081 79.6928108,24.2369595 C79.8030811,24.3293919 79.8578108,24.4538514 79.8578108,24.6107432 L79.8578108,27.9370946 C79.8484865,28.0793919 79.9076757,28.1965541 80.0345676,28.2885811 C80.1444324,28.3814189 80.279027,28.4308784 80.4395676,28.4389865 L81.2491622,28.4389865 C81.7721351,28.4247973 82.0587568,28.2784459 82.109027,28.0011486 C82.109027,27.6597973 82.1856486,27.4360135 82.3368649,27.3297973 C82.4467297,27.2442568 82.5776757,27.2118243 82.7297027,27.2329054 C82.8809189,27.2543919 82.9997027,27.3083108 83.0836216,27.3938514 C83.1764595,27.5069595 83.2097027,27.6314189 83.184973,27.7668243 C83.1342973,28.0011486 83.1047027,28.1823649 83.0961892,28.3100676 C82.9615946,28.7365541 82.7171351,29.0353378 82.3624054,29.2060135 C82.1856486,29.2765541 81.9663243,29.3158784 81.7044324,29.3235811 C81.1563243,29.3300676 80.6122703,29.3300676 80.0730811,29.3235811 C79.812,29.2943919 79.5752432,29.2230405 79.3644324,29.109527 C78.9841622,28.8833108 78.7988919,28.5942568 78.8078108,28.2460135 L78.8078108,24.6107432 C78.8078108,24.4607432 78.8584865,24.3399324 78.9598378,24.2475 L78.9598378,24.2475 Z M80.6803784,24.1522297 C80.7391622,24.0589865 80.8441622,23.9916892 80.9961892,23.9487162 C81.1478108,23.9207432 81.2787568,23.9312838 81.3882162,23.9811486 C81.5236216,24.0447973 81.6075405,24.1522297 81.6407838,24.3010135 C82.0624054,26.0073649 82.1730811,26.9596622 81.9703784,27.1587162 C81.8937568,27.2442568 81.7757838,27.2973649 81.6164595,27.3184459 C81.4721351,27.3184459 81.3505135,27.2827703 81.2491622,27.2118243 C81.1307838,27.1270946 81.0675405,27.0091216 81.0598378,26.8603378 C81.0087568,26.2416892 80.8697027,25.4629054 80.6422703,24.5243919 C80.6082162,24.3825 80.6207838,24.2580405 80.6803784,24.1522297 L80.6803784,24.1522297 Z M82.9324054,24.8020946 C82.9997027,24.7169595 83.1010541,24.6529054 83.2356486,24.6107432 C83.3694324,24.5892568 83.4926757,24.5997973 83.6021351,24.6423649 C83.729027,24.7064189 83.8088919,24.8057432 83.8429459,24.9403378 C83.8680811,25.0335811 83.8976757,25.1539865 83.9317297,25.3035811 C84.3780811,27.4360135 84.5126757,28.5910135 84.3355135,28.7689865 C84.2597027,28.8468243 84.1461892,28.8966892 83.9941622,28.9181757 C83.8595676,28.9181757 83.7415946,28.8861486 83.6402432,28.8225 C83.529973,28.7296622 83.4707838,28.6161486 83.4630811,28.4811486 C83.3694324,27.2722297 83.1801081,26.1670946 82.8942973,25.1649324 C82.8594324,25.029527 82.8728108,24.9091216 82.9324054,24.8020946 L82.9324054,24.8020946 Z" id="Fill-36" fill="#FEFEFE" mask="url(#mask-2)"></path>
            <path d="M91.7597838,24.0832297 L88.0020811,24.0832297 C87.7158649,24.0767432 87.4916757,24.0053919 87.3319459,23.8703919 C87.1718108,23.7207973 87.0955946,23.5359324 87.1045135,23.3157973 L87.1045135,20.3518784 C87.1045135,20.1812027 87.1588378,20.0494459 87.2691081,19.9570135 C87.3611351,19.8645811 87.4965405,19.8151216 87.6732973,19.8074189 C87.8334324,19.8151216 87.968027,19.8613378 88.0782973,19.946473 C88.1962703,20.0457973 88.2554595,20.1812027 88.2554595,20.3518784 L88.2554595,22.7186351 C88.2554595,22.8540405 88.2972162,22.9570135 88.3819459,23.0275541 C88.4662703,23.0778243 88.5757297,23.1057973 88.7107297,23.1130946 L91.7597838,23.1130946 L91.7597838,19.8390405 C91.7597838,19.6902568 91.8100541,19.5690405 91.9114054,19.4770135 C92.0123514,19.3918784 92.1522162,19.3489054 92.3285676,19.3489054 C92.4895135,19.3489054 92.6241081,19.3918784 92.7335676,19.4770135 C92.8515405,19.5690405 92.9107297,19.6902568 92.9107297,19.8390405 L92.9107297,23.1130946 L95.9597838,23.1130946 C96.1199189,23.1057973 96.2419459,23.0672838 96.3258649,22.9959324 C96.4195135,22.9176892 96.4657297,22.811473 96.4657297,22.6760676 L96.4657297,20.3085 C96.4657297,20.1382297 96.5204595,20.0060676 96.6303243,19.9140405 C96.7231622,19.8216081 96.8577568,19.7717432 97.0349189,19.7652568 C97.1954595,19.7717432 97.3300541,19.8179595 97.4399189,19.9030946 C97.5578919,20.0032297 97.6170811,20.1382297 97.6170811,20.3085 L97.6170811,23.2302568 C97.6085676,23.5152568 97.5238378,23.7244459 97.3641081,23.8598514 C97.1869459,24.0094459 96.9335676,24.0832297 96.6047838,24.0832297 L92.9107297,24.0832297 L92.9107297,28.1462027 L96.1620811,28.1462027 C96.3222162,28.1393108 96.4442432,28.1007973 96.5285676,28.0294459 C96.6218108,27.9512027 96.668027,27.8441757 96.668027,27.7087703 L96.668027,25.2994459 C96.668027,25.1283649 96.7231622,24.9974189 96.8322162,24.9049865 C96.9250541,24.8121486 97.0600541,24.7622838 97.2372162,24.7553919 C97.3977568,24.7622838 97.5327568,24.8085 97.6422162,24.8940405 C97.7601892,24.9929595 97.8193784,25.1283649 97.8193784,25.2994459 L97.8193784,28.2633649 C97.8108649,28.5483649 97.7265405,28.7579595 97.5664054,28.8925541 C97.3892432,29.0417432 97.1358649,29.1167432 96.8066757,29.1167432 L87.698027,29.1167432 C87.4122162,29.1090405 87.1884324,29.0389054 87.0278919,28.9035 C86.8677568,28.7543108 86.7923514,28.5690405 86.8004595,28.3485 L86.8004595,25.4267432 C86.8004595,25.256473 86.8547838,25.1251216 86.9650541,25.0326892 C87.0574865,24.9398514 87.1928919,24.8899865 87.3704595,24.8839054 C87.5293784,24.8899865 87.6651892,24.9366081 87.7746486,25.0213378 C87.8922162,25.121473 87.9514054,25.256473 87.9514054,25.4267432 L87.9514054,27.7517432 C87.9514054,27.8871486 87.9943784,27.9901216 88.0782973,28.0610676 C88.163027,28.1109324 88.2720811,28.1393108 88.4074865,28.1462027 L91.7597838,28.1462027 L91.7597838,24.0832297 Z" id="Fill-37" fill="#FEFEFE" mask="url(#mask-2)"></path>
            <path d="M101.649446,27.3510405 C101.404581,28.5246892 101.155662,29.1563108 100.903095,29.2491486 C100.777014,29.2990135 100.632689,29.3026622 100.472959,29.2596892 C100.329446,29.2102297 100.228095,29.1319865 100.169311,29.0253649 C100.119041,28.9041486 100.123095,28.7695541 100.181878,28.6199595 C100.671203,27.1487432 100.915257,25.5137432 100.915257,23.7141486 L100.915257,19.7480676 C100.915257,19.5911757 100.966338,19.467527 101.067689,19.3750946 C101.16823,19.2895541 101.299986,19.2433378 101.460122,19.2364459 C101.610932,19.2364459 101.741878,19.2790135 101.852149,19.3645541 C101.961608,19.4638784 102.015932,19.5911757 102.015932,19.7480676 L102.015932,22.1257703 L103.192824,22.1257703 L103.192824,19.8336081 C103.200527,19.6909054 103.247149,19.5777973 103.331473,19.4914459 C103.441338,19.4067162 103.576338,19.3645541 103.736473,19.3645541 C103.888095,19.3645541 104.015392,19.4067162 104.116338,19.4914459 C104.234311,19.5850946 104.293095,19.6986081 104.293095,19.8336081 L104.293095,22.1257703 L104.597149,22.1257703 C104.765797,22.1330676 104.891878,22.1727973 104.976203,22.2437432 C105.069041,22.3215811 105.115662,22.4282027 105.115662,22.5627973 C105.106338,22.6848243 105.060122,22.7869865 104.976203,22.872527 C104.88377,22.9649595 104.757284,23.0111757 104.597149,23.0111757 L102.015932,23.0111757 L102.015932,23.7141486 C102.00823,23.8572568 101.998905,24.0242838 101.991608,24.2164459 L103.319311,24.2164459 C103.597419,24.2087432 103.816338,24.2800946 103.976473,24.4292838 C104.128905,24.5719865 104.208365,24.7491486 104.217689,24.9627973 L104.217689,28.9609054 C104.217689,29.1105 104.162149,29.2313108 104.053095,29.3233378 C103.943635,29.3946892 103.820797,29.4340135 103.686203,29.4405 C103.526068,29.4271216 103.40323,29.3837432 103.319311,29.3132027 C103.217959,29.213473 103.167689,29.0963108 103.167689,28.9609054 L103.167689,25.3892838 C103.167689,25.3033378 103.138095,25.2364459 103.0785,25.1865811 C102.994176,25.1298243 102.909851,25.1014459 102.825527,25.1014459 L101.927959,25.1014459 C101.818095,26.217527 101.725257,26.967527 101.649446,27.3510405 L101.649446,27.3510405 Z M106.595392,22.8405 L106.595392,24.3332027 C106.577959,25.5919865 106.380932,26.7538784 106.000662,27.8196892 C105.638635,28.6945541 105.305797,29.1672568 105.001743,29.2386081 C104.858635,29.2519865 104.723635,29.2240135 104.597149,29.1530676 C104.335662,28.9755 104.306068,28.7476622 104.507959,28.4707703 C105.199581,27.2265811 105.545392,25.7586081 105.545392,24.0664459 L105.545392,20.4838784 C105.537284,20.2426622 105.608635,20.0541486 105.760257,19.9187432 C105.920797,19.7699595 106.156338,19.6949595 106.469311,19.6949595 L111.477689,19.6949595 C111.655257,19.7018514 111.798365,19.7411757 111.90823,19.8121216 C112.017284,19.8976622 112.072824,20.0042838 112.072824,20.1319865 C112.072824,20.2880676 112.017284,20.3991486 111.90823,20.4623919 C111.781338,20.5410405 111.639041,20.5799595 111.477689,20.5799595 L106.949311,20.5799595 C106.713365,20.5799595 106.595392,20.6792838 106.595392,20.8787432 L106.595392,21.9555 L110.947014,21.9555 C111.217014,21.9413108 111.440392,22.0199595 111.617149,22.1902297 C111.786608,22.3600946 111.840932,22.6414459 111.781338,23.0322568 C111.587959,24.5111757 110.985122,25.8259054 109.972824,26.9776622 C110.706608,27.6036081 111.389716,28.0977973 112.022554,28.4602297 C112.191203,28.5672568 112.292554,28.6868514 112.326203,28.8226622 C112.3335,28.9576622 112.296203,29.0821216 112.212284,29.1956351 C112.101608,29.3233378 111.971878,29.3914459 111.819851,29.3983378 C111.651203,29.412527 111.486608,29.3732027 111.326473,29.2815811 C110.584581,28.8688784 109.909986,28.3398243 109.303095,27.6927973 C109.066743,27.9056351 108.804851,28.1192838 108.51823,28.3321216 C107.421203,29.1348243 106.721878,29.5045541 106.418635,29.4405 C106.266608,29.3914459 106.149041,29.3095541 106.064311,29.1956351 C105.979581,29.0606351 105.954446,28.9365811 105.988095,28.8226622 C106.021743,28.6868514 106.168905,28.5672568 106.431203,28.4602297 C107.139446,28.0977973 107.872824,27.5963108 108.632554,26.9565811 C107.805527,26.0038784 107.22823,24.6319865 106.89823,22.8405 L106.595392,22.8405 Z M109.303095,26.1996892 C109.378095,26.1068514 109.446203,26.0180676 109.504986,25.932527 C109.842689,25.463473 110.116338,24.9802297 110.327149,24.4823919 C110.681068,23.558473 110.807959,23.0326622 110.706608,22.9041486 C110.655932,22.8623919 110.550932,22.8405 110.390392,22.8405 L108.011878,22.8405 C108.180932,24.0064459 108.54377,25.0272568 109.100797,25.9009054 C109.150257,25.9929324 109.217959,26.0926622 109.303095,26.1996892 L109.303095,26.1996892 Z" id="Fill-38" fill="#FEFEFE" mask="url(#mask-2)"></path>
        </g>
    </g>
</svg>