<?xml version="1.0" encoding="UTF-8"?>
<svg width="30px" height="30px" viewBox="0 0 30 30" version="1.1" xmlns="http://www.w3.org/2000/svg" xmlns:xlink="http://www.w3.org/1999/xlink">
    <!-- Generator: Sketch 64 (93537) - https://sketch.com -->
    <title>2-3-4</title>
    <desc>Created with Sketch.</desc>
    <g id="Page-1" stroke="none" stroke-width="1" fill="none" fill-rule="evenodd">
        <g id="天下特色_報導原則" transform="translate(-11.000000, -469.000000)" fill="#000000" fill-rule="nonzero" stroke="#000000" stroke-width="0.5">
            <g id="Group-9" transform="translate(1.000000, 459.000000)">
                <g id="2-3-4" transform="translate(11.000000, 11.000000)">
                    <path d="M27.6357055,11.9951477 C27.3413676,11.5567932 26.8952042,11.2547302 26.3764851,11.1402283 C26.7111077,10.5089721 26.6974628,9.72134401 26.2712252,9.08666992 C25.9680074,8.63485716 25.5105817,8.34304811 25.0126547,8.23260495 C25.1014542,8.06555176 25.1670792,7.88525391 25.2062809,7.69512942 C25.3150062,7.16641237 25.2088799,6.62765502 24.9067451,6.17797852 C24.6124072,5.73941041 24.1662438,5.4373474 23.6475248,5.32305911 C23.9821473,4.69180299 23.9685024,3.9041748 23.5422648,3.26928711 C22.9191522,2.34109498 21.6460706,2.08581543 20.7047958,2.70062253 L18.6667389,4.03192136 C17.5803527,3.48846433 16.4248762,3.10287474 15.2256498,2.88327025 C14.8466275,2.31567383 14.4058787,1.78802488 13.9125,1.31634519 L13.0693379,0.510345445 C12.4518564,-0.0801086562 11.4835086,-0.168762234 10.7666151,0.299713148 C9.91847155,0.853637695 9.68542699,1.98498535 10.2470297,2.8215332 C10.2691213,2.85464479 10.2907797,2.88796998 10.3122215,2.92129518 C7.54839109,3.47286986 5.02951735,4.91952513 3.16516092,7.03930664 C1.14204825,9.33981322 0.0277227723,12.2861023 0.0277227723,15.3353577 C0.0277227723,15.9198303 0.0682240238,16.5053711 0.148360135,17.0753174 C0.765841584,21.506073 3.75816832,25.3243714 7.95730198,27.0404053 C9.51454205,27.677002 11.1668626,28 12.867698,28 C15.5613552,28 18.1397896,27.1863098 20.324474,25.6471557 C22.4617265,24.1411133 24.0607673,22.0627747 24.9489789,19.6368714 C25.0319307,19.4108581 24.913026,19.1611328 24.6838799,19.0795288 C24.4545174,18.9979248 24.2015471,19.1149902 24.1188119,19.3412171 C23.291677,21.6002807 21.8022277,23.5357056 19.8111696,24.9385681 C17.7772277,26.3717651 15.3761757,27.1292725 12.867698,27.1292725 C11.5707921,27.1292725 10.3044245,26.9273987 9.09241954,26.5292053 L12.6838181,24.1834107 C12.6840347,24.183197 12.6842512,24.183197 12.6844678,24.1829834 C12.6846844,24.1829834 12.6846844,24.1827698 12.684901,24.1825561 L15.6696473,22.2330322 L15.6698639,22.2330322 C15.9377785,22.0578613 16.1207921,21.7904053 16.184901,21.4795837 C16.2490099,21.1687622 16.1866337,20.8517456 16.0090347,20.5874939 L15.9696164,20.5285339 L16.5494121,20.1497803 C16.9630879,19.8795471 17.4605817,19.7735901 17.950495,19.8511353 C18.6598082,19.963501 19.3801671,19.8096924 19.9788057,19.4185486 L24.7878403,16.2774353 C24.7549195,16.6888733 24.7007735,17.0979615 24.6251856,17.5002136 C24.5805693,17.7366943 24.7388923,17.9639893 24.978651,18.007782 C25.005724,18.0129089 25.0330136,18.0152588 25.0596535,18.0152588 C25.268224,18.0152588 25.4536201,17.8687134 25.4930384,17.6591492 C25.6154084,17.0099487 25.6857983,16.3449402 25.7039914,15.6790771 L27.0591584,14.7938232 C27.5150681,14.4960327 27.8262995,14.040802 27.9350248,13.5122986 C28.0439666,12.9835815 27.9376238,12.4448242 27.6357055,11.9951477 L27.6357055,11.9951477 Z M17.8097154,4.5916138 L16.4610458,5.47259519 L16.1955136,4.7669983 C16.0846225,4.47262572 15.9574877,4.18402097 15.8167079,3.90161133 C16.5008973,4.07272338 17.1671102,4.30343627 17.8097154,4.5916138 Z M3.8320235,7.60989381 C5.62382429,5.57257083 8.06451115,4.20303346 10.7345607,3.72814941 C11.1629641,4.75183105 11.265625,5.89556888 11.0096225,6.98568724 L9.93341584,11.5715332 C9.76426363,11.3933716 9.54464726,11.2705383 9.29730818,11.2209778 C8.98196165,11.1575318 8.66076733,11.2192688 8.39285274,11.3944397 L5.34443069,13.3854065 C5.34421412,13.3854065 5.34421412,13.3854065 5.3439975,13.3856201 C5.3439975,13.3856201 5.34378093,13.3856201 5.34378093,13.3858337 L0.947122511,16.2575684 C0.923081711,15.9516602 0.910519802,15.6434021 0.910519802,15.3353577 C0.910519802,12.4958801 1.94817452,9.75210573 3.8320235,7.60989381 Z M15.3198639,21.3059082 C15.3027537,21.3887939 15.2538057,21.4603577 15.1821163,21.5071411 L15.1823329,21.5071411 L12.5607983,23.2193298 L7.69523512,16.0623169 C7.5594369,15.8625794 7.28524132,15.8093872 7.08273518,15.9433288 C6.88044554,16.0772705 6.82629953,16.3475036 6.96209776,16.5472412 L11.8246287,23.7001953 L8.08227103,26.1446839 C4.36352105,24.5403747 1.70235149,21.1523132 1.06256185,17.2098999 L5.46441834,14.3441467 L5.97100865,15.0896911 C6.05634284,15.2148743 6.19582303,15.2825928 6.33811881,15.2825928 C6.42258666,15.2825928 6.50813736,15.2588806 6.58350865,15.2088928 C6.78601485,15.0749512 6.84016092,14.8045044 6.70436264,14.6047669 L6.20123762,13.864563 L8.88038364,12.1203308 C8.95163987,12.0735474 9.03719062,12.057312 9.12122522,12.0741882 C9.20525993,12.0910645 9.27781558,12.1393432 9.32524752,12.2098389 L15.2730817,21.0683594 C15.320297,21.1386413 15.336974,21.2230225 15.3198639,21.3059082 L15.3198639,21.3059082 Z M27.0699876,13.3388367 C27.0080446,13.6396179 26.8310953,13.898529 26.5716275,14.0679322 L25.022401,15.0798645 C25.0219678,15.0800781 25.0215347,15.0805053 25.0208849,15.080719 L19.4912747,18.6926575 C19.077599,18.9628906 18.5801052,19.0690613 18.0901918,18.9913025 C17.3810953,18.8791504 16.6607364,19.0327454 16.0618812,19.4238892 L15.4820854,19.8026428 L10.6106745,12.5473633 L11.8698948,7.18222045 C12.1941213,5.80007936 12.0232364,4.34423828 11.4055384,3.07595827 C11.3999072,3.06271361 11.3938428,3.04989623 11.3869121,3.03729245 C11.268224,2.79760742 11.1335086,2.56497194 10.9829827,2.34066771 C10.6901609,1.90444948 10.8116646,1.3146362 11.254146,1.02560423 C11.6279703,0.781433078 12.1330446,0.827575656 12.4548886,1.13540651 L13.2980508,1.94161986 C14.2100866,2.81384277 14.9258973,3.89562988 15.367729,5.07012942 L15.8268874,6.2901306 C15.8277537,6.29248047 15.8286201,6.29440306 15.8294864,6.29653932 C15.8305693,6.29931641 15.8318688,6.30230716 15.8329517,6.30508424 C15.8362005,6.31256106 15.8392327,6.319397 15.8424814,6.32516478 C15.8513614,6.34353639 15.8611077,6.36169434 15.8728032,6.37899779 C16.0075186,6.57958984 16.2812809,6.63449095 16.4844369,6.50161745 L21.1923267,3.42672728 C21.7277228,3.07702637 22.4517636,3.22207643 22.8063119,3.7501526 C23.1608601,4.27822877 23.0137995,4.99237058 22.4784034,5.34207155 L22.0697092,5.60910033 C22.0697092,5.60910033 22.0694925,5.60910033 22.069276,5.60931394 L21.1576733,6.20489505 C21.1563737,6.20574948 21.1555075,6.20660403 21.1542079,6.20724486 C21.1490099,6.21087644 21.1440285,6.21429441 21.1399134,6.21771237 C20.9514851,6.35421752 20.9027537,6.61376953 21.0333539,6.80816653 C21.1678527,7.00875853 21.4418317,7.06365964 21.6452042,6.93078613 L22.5574567,6.33477786 C22.8167079,6.16580202 23.127073,6.10620117 23.4318069,6.16729739 C23.7365409,6.22839355 23.9992574,6.40292357 24.1707921,6.65884401 C24.3425433,6.91455078 24.4031869,7.22109987 24.3412438,7.52166745 C24.2793007,7.8224487 24.1023515,8.08135989 23.8428837,8.25076295 L22.5221535,9.11358645 C22.3187809,9.24624635 22.2631188,9.51626588 22.3978342,9.71685794 C22.4827352,9.84332278 22.6230817,9.91189577 22.7662438,9.91189577 C22.8498453,9.91189577 22.9345297,9.8883972 23.0094678,9.83947754 L23.2139233,9.70596315 L23.9212871,9.24389648 C24.4568997,8.89419557 25.180724,9.03924558 25.5352723,9.56732175 C25.8898205,10.0956116 25.7427599,10.8095398 25.2073638,11.1594544 L24.5476485,11.590332 C24.5441832,11.5924682 24.5407178,11.5948181 24.5372525,11.597168 L23.8866337,12.0220642 C23.6832611,12.1547241 23.627599,12.4249573 23.7623143,12.6255493 C23.8472153,12.7520142 23.9875619,12.8205872 24.130724,12.8205872 C24.2143255,12.8205872 24.2990099,12.7970886 24.373948,12.7481689 L24.5784034,12.6146546 C24.5784034,12.6146546 24.5784034,12.6144409 24.5786201,12.6144409 L25.2859839,12.1525879 C25.5452351,11.9831848 25.8558168,11.9233704 26.1607673,11.9846802 C26.4657178,12.0455628 26.7282178,12.2203064 26.899969,12.4760132 C27.0715037,12.73172 27.1319307,13.038269 27.0699876,13.3388367 Z" id="Shape"></path>
                </g>
            </g>
        </g>
    </g>
</svg>