<?xml version="1.0" encoding="UTF-8"?>
<svg width="28px" height="28px" viewBox="0 0 28 28" version="1.1" xmlns="http://www.w3.org/2000/svg" xmlns:xlink="http://www.w3.org/1999/xlink">
    <!-- Generator: Sketch 64 (93537) - https://sketch.com -->
    <title>2-3-3</title>
    <desc>Created with Sketch.</desc>
    <g id="Page-1" stroke="none" stroke-width="1" fill="none" fill-rule="evenodd">
        <g id="天下特色_報導原則" transform="translate(-11.000000, -380.000000)">
            <g id="Group-8" transform="translate(0.000000, 369.000000)">
                <g id="2-3-3" transform="translate(11.000000, 11.000000)">
                    <path d="M22.1663889,24.0078672 L22.1663889,23.4185 C22.1663889,22.3163281 21.2555,21.4196172 20.1357778,21.4196172 L15.9438889,21.4196172 L15.9438889,4.92482813 L17.8769444,4.92482813 C18.1837222,4.92482813 18.4325,4.6799375 18.4325,4.37795313 C18.4325,4.07596875 18.1837222,3.83107813 17.8769444,3.83107813 L16.6385556,3.83107813 C16.7686111,3.51082813 16.8408889,3.16192188 16.8408889,2.79655469 C16.8409444,1.25453125 15.5665,0 14,0 C12.4335,0 11.1590556,1.25453125 11.1590556,2.79655469 C11.1590556,3.16192188 11.2313333,3.51082813 11.3613889,3.83107813 L10.123,3.83107813 C9.81622222,3.83107813 9.56744444,4.07596875 9.56744444,4.37795313 C9.56744444,4.6799375 9.81622222,4.92482813 10.123,4.92482813 L12.0560556,4.92482813 L12.0560556,21.4196172 L7.86416667,21.4196172 C6.7445,21.4196172 5.83355556,22.3162734 5.83355556,23.4185 L5.83355556,24.0078672 C4.78522222,24.0853047 3.95638889,24.94975 3.95638889,26.0011172 C3.95638889,27.1032891 4.86733333,28 5.98705556,28 L22.0128889,28 C23.1325556,28 24.0435556,27.1032891 24.0435556,26.0011172 C24.0435556,24.94975 23.2147222,24.0853047 22.1663889,24.0078672 Z M14.8327778,5.47148438 L14.8327778,21.4196172 L13.1672222,21.4196172 L13.1672222,5.47148438 C13.3415,5.52398437 13.5213889,5.55942188 13.7049444,5.57796094 C13.7102778,5.57850781 13.7157222,5.57889063 13.7210556,5.5794375 C13.759,5.58304688 13.7971111,5.58589063 13.8353889,5.58802344 C13.8460556,5.588625 13.8566667,5.58928125 13.8673333,5.58977344 C13.9113889,5.59174219 13.9555556,5.59310938 14,5.59310938 C14.0443889,5.59310938 14.0886111,5.59179688 14.1326667,5.58977344 C14.1433333,5.58928125 14.1539444,5.588625 14.1646111,5.58802344 C14.2028889,5.58589063 14.241,5.58304688 14.2789444,5.5794375 C14.2843333,5.57894531 14.2897222,5.57850781 14.2950556,5.57796094 C14.4786667,5.55947656 14.6585,5.52403906 14.8327778,5.47148438 Z M22.0128889,26.90625 L5.98711111,26.90625 C5.48005556,26.90625 5.06755556,26.5001953 5.06755556,26.0011172 C5.06755556,25.5019844 5.48005556,25.0959297 5.98711111,25.0959297 L6.38916667,25.0959297 C6.39766667,25.0959297 6.406,25.0950547 6.41438889,25.0946719 C6.42211111,25.095 6.42966667,25.0958203 6.4375,25.0958203 L17.1177222,25.0958203 C17.4245,25.0958203 17.6732778,24.8509297 17.6732778,24.5489453 C17.6732778,24.2469063 17.4245,24.0020703 17.1177222,24.0020703 L6.94472222,24.0020703 L6.94472222,23.4184453 C6.94472222,22.9193672 7.35722222,22.5133125 7.86422222,22.5133125 L12.6116667,22.5133125 L15.3883333,22.5133125 L20.1357778,22.5133125 C20.6427778,22.5133125 21.0552778,22.9193672 21.0552778,23.4184453 L21.0552778,24.5490547 C21.0552778,24.8510391 21.3040556,25.0959297 21.6108333,25.0959297 L22.0128889,25.0959297 C22.5199444,25.0959297 22.9324444,25.5019844 22.9324444,26.0011172 C22.9324444,26.5001953 22.5199444,26.90625 22.0128889,26.90625 Z" id="Shape" fill="#000000" fill-rule="nonzero"></path>
                    <path d="M14,1.09375 C14.9538333,1.09375 15.7298333,1.857625 15.7298333,2.79655469 C15.7298333,3.35146875 15.4586667,3.84513281 15.04,4.15619531 C15.0107778,4.17790625 14.9809444,4.19835937 14.9507222,4.21810156 C14.9386111,4.22597656 14.9263889,4.2336875 14.9140556,4.24128906 C14.8846667,4.25939063 14.855,4.27678125 14.8247778,4.29302344 C14.8105,4.30067969 14.7958889,4.30773438 14.7813889,4.31495313 C14.7605556,4.32539844 14.7395,4.33540625 14.7182778,4.34497656 C14.6988889,4.35372656 14.6793889,4.3623125 14.6596111,4.37040625 C14.6335556,4.38101563 14.6073333,4.39096875 14.5807778,4.40032031 C14.5636111,4.40639063 14.5462778,4.41213281 14.5288889,4.41765625 C14.4987222,4.42717188 14.4683333,4.43614063 14.4376667,4.44401563 C14.4223333,4.44795312 14.4067778,4.45134375 14.3912778,4.45489844 C14.3637222,4.46113281 14.3360556,4.46682031 14.3081667,4.47174219 C14.2958889,4.47392969 14.2837222,4.47633594 14.2713889,4.47825 C14.2333333,4.48410156 14.1949444,4.48869531 14.1563333,4.49208594 C14.1461667,4.49296094 14.1359444,4.49367188 14.1257222,4.49438281 C14.0841111,4.49728125 14.0422778,4.49935938 14.0001667,4.49935938 C13.958,4.49935938 13.9162222,4.49728125 13.8746111,4.49438281 C13.8643889,4.49367188 13.8541667,4.49296094 13.844,4.49208594 C13.8053889,4.48869531 13.767,4.48415625 13.7289444,4.47825 C13.7166111,4.47633594 13.7044444,4.47392969 13.6921667,4.47174219 C13.6642778,4.46682031 13.6365556,4.46113281 13.6090556,4.45489844 C13.5935556,4.45134375 13.578,4.44800781 13.5626667,4.44401563 C13.5319444,4.43614063 13.5016111,4.42717187 13.4714444,4.41765625 C13.454,4.41213281 13.4367222,4.40639063 13.4195,4.40032031 C13.393,4.39102344 13.3667222,4.38101563 13.3406667,4.37040625 C13.3208889,4.36236719 13.3013889,4.35378125 13.282,4.34497656 C13.2607778,4.33540625 13.2397222,4.32539844 13.2188889,4.31495313 C13.2043889,4.30767969 13.1897778,4.300625 13.1755,4.29302344 C13.1452778,4.27678125 13.1155556,4.25939063 13.0862222,4.24128906 C13.0738889,4.2336875 13.0616667,4.22597656 13.0495556,4.21810156 C13.0193333,4.19841406 12.9894444,4.17790625 12.9602778,4.15619531 C12.5416111,3.84513281 12.2704444,3.35146875 12.2704444,2.79655469 C12.2701667,1.857625 13.0461667,1.09375 14,1.09375 Z" id="Path" fill="#FFFFFF" fill-rule="nonzero"></path>
                    <path d="M27.5965556,11.2932969 L24.4937778,4.92477344 L25.5356667,4.92477344 C25.8424444,4.92477344 26.0912222,4.67988281 26.0912222,4.37789844 C26.0912222,4.07591406 25.8424444,3.83102344 25.5356667,3.83102344 L21.5622222,3.83102344 C21.2554444,3.83102344 21.0066667,4.07591406 21.0066667,4.37789844 C21.0066667,4.67988281 21.2554444,4.92477344 21.5622222,4.92477344 L22.7641111,4.92477344 L19.6613889,11.2932969 C19.4506667,11.3710078 19.3003889,11.5705078 19.3003889,11.8050078 L19.3003889,11.9440234 C19.3003889,14.2935078 21.2421667,16.2049453 23.6289444,16.2049453 C26.0157778,16.2049453 27.9575556,14.2935078 27.9575556,11.9440234 L27.9575556,11.8050078 C27.9575556,11.5705078 27.8072778,11.3710078 27.5965556,11.2932969 Z M23.6289444,5.67896875 L26.3471667,11.2581328 L20.9107778,11.2581328 L23.6289444,5.67896875 Z" id="Shape" fill="#000000" fill-rule="nonzero"></path>
                    <path d="M8.33861111,11.2932969 L5.23588889,4.92482812 L6.43777778,4.92482812 C6.74455556,4.92482812 6.99333333,4.6799375 6.99333333,4.37795312 C6.99333333,4.07596875 6.74455556,3.83107812 6.43777778,3.83107812 L2.46427778,3.83107812 C2.1575,3.83107812 1.90872222,4.07596875 1.90872222,4.37795312 C1.90872222,4.6799375 2.1575,4.92482812 2.46427778,4.92482812 L3.50616667,4.92482812 L0.403388889,11.2933516 C0.192666667,11.3710625 0.0423888889,11.5705078 0.0423888889,11.8050625 L0.0423888889,11.9440781 C0.0423888889,14.2935625 1.98416667,16.205 4.371,16.205 C6.75783333,16.205 8.69961111,14.2935078 8.69961111,11.9440234 L8.69961111,11.8050078 C8.69961111,11.5705078 8.54933333,11.3710078 8.33861111,11.2932969 Z M4.37105556,5.67896875 L7.08922222,11.2581328 L1.65283333,11.2581328 L4.37105556,5.67896875 Z" id="Shape" fill="#000000" fill-rule="nonzero"></path>
                    <path d="M23.629,15.1111953 C21.9952222,15.1111953 20.6419444,13.906375 20.4381111,12.3518828 L26.82,12.3518828 C26.6160556,13.906375 25.2627222,15.1111953 23.629,15.1111953 Z" id="Path" fill="#FFFFFF" fill-rule="nonzero"></path>
                    <path d="M4.371,15.1111953 C2.73716667,15.1111953 1.38394444,13.906375 1.18005556,12.3518828 L7.56194444,12.3518828 C7.35805556,13.906375 6.00483333,15.1111953 4.371,15.1111953 Z" id="Path" fill="#FFFFFF" fill-rule="nonzero"></path>
                    <rect id="Rectangle" stroke="#000000" stroke-width="0.5" fill="#000000" x="18.2838983" y="24.2833333" width="1.87288136" height="1" rx="0.5"></rect>
                    <rect id="Rectangle" stroke="#000000" stroke-width="0.5" fill="#000000" x="6.41949153" y="4.07666667" width="15.6355932" height="1"></rect>
                </g>
            </g>
        </g>
    </g>
</svg>