<?xml version="1.0" encoding="UTF-8"?>
<svg width="20px" height="28px" viewBox="0 0 20 28" version="1.1" xmlns="http://www.w3.org/2000/svg" xmlns:xlink="http://www.w3.org/1999/xlink">
    <!-- Generator: Sketch 64 (93537) - https://sketch.com -->
    <title>2-3-1</title>
    <desc>Created with Sketch.</desc>
    <g id="Page-1" stroke="none" stroke-width="1" fill="none" fill-rule="evenodd">
        <g id="天下特色_報導原則" transform="translate(-15.000000, -200.000000)" fill="#000000" fill-rule="nonzero">
            <g id="Group-3" transform="translate(0.000000, 189.000000)">
                <g id="2-3-1" transform="translate(15.000000, 11.000000)">
                    <path d="M16.1046703,1.21677193 C14.3206593,0.409847953 12.266978,0 10.0012088,0 C7.71901099,0 5.66538462,0.409847953 3.89543956,1.21797271 C3.60241758,1.35185965 3.47346154,1.69768421 3.60824176,1.98996491 C3.74302198,2.28224561 4.09115385,2.4091462 4.38538462,2.27525926 C6.0006044,1.53819883 7.89016484,1.16442885 10.0012088,1.16442885 C12.0981868,1.16442885 13.9877473,1.53819883 15.6193956,2.27640546 C15.6979121,2.31133723 15.7811538,2.32880312 15.862033,2.32880312 C16.0847253,2.32880312 16.2980769,2.20304873 16.3953846,1.98761793 C16.529011,1.69533723 16.3989011,1.34951267 16.1046703,1.21677193 Z" id="Path"></path>
                    <path d="M18.6248352,5.9954386 C16.2488462,3.59677193 13.2657143,2.32874854 9.9989011,2.32874854 C6.745,2.32874854 3.76417582,3.59677193 1.38,5.99423782 C1.15258242,6.22364133 1.15494505,6.59271735 1.38467033,6.81748148 C1.49956044,6.93040936 1.64840659,6.98630019 1.7960989,6.98630019 C1.94730769,6.98630019 2.09851648,6.92806238 2.21340659,6.8139883 C4.37368132,4.64128655 7.06494505,3.49317739 9.9989011,3.49317739 C12.9433516,3.49317739 15.6381868,4.64008577 17.7890659,6.81169591 C18.0152747,7.03989864 18.3868681,7.04339181 18.6178022,6.81868226 C18.8486813,6.59397271 18.8521978,6.22369591 18.6248352,5.9954386 Z" id="Path"></path>
                    <path d="M9.9989011,4.65755166 C9.16197802,4.65755166 8.33208791,4.76 7.53032967,4.96380507 C7.21620879,5.04300195 7.02747253,5.35968031 7.1071978,5.6705731 C7.18692308,5.98381287 7.50456044,6.17124366 7.82104396,6.09090058 C8.5267033,5.91274854 9.26043956,5.82192593 9.9989011,5.82192593 C14.846978,5.82192593 18.7901099,9.73892398 18.7901099,14.5548694 C18.7901099,14.8762417 19.0526923,15.1370838 19.3762088,15.1370838 C19.6997253,15.1370838 19.9623077,14.8762417 19.9623077,14.5548694 C19.9623077,9.09738012 15.4928022,4.65755166 9.9989011,4.65755166 Z" id="Path"></path>
                    <path d="M5.79785714,6.20273684 C5.63373626,5.92442885 5.2739011,5.83246004 4.9960989,5.9942924 C4.24593407,6.43093957 3.55082418,6.96774269 2.93307692,7.58952827 C1.10802198,9.42230019 0.0800549451,11.8919766 0.0378571429,14.5455906 C0.031978022,14.8681092 0.291043956,15.1312982 0.61456044,15.1370838 C0.618076923,15.1370838 0.621593407,15.1370838 0.623956044,15.1370838 C0.943956044,15.1370838 1.20532967,14.8820819 1.21005495,14.5642027 C1.24758242,12.2132943 2.15483516,10.0265653 3.76653846,8.40922417 C4.31395604,7.85844834 4.92697802,7.384577 5.58807692,7.00032749 C5.86703297,6.83729435 5.96076923,6.47984405 5.79785714,6.20273684 Z" id="Path"></path>
                    <path d="M15.7424725,9.58527875 C14.2925275,7.93300585 12.199011,6.98635478 9.9989011,6.98635478 C7.95467033,6.98635478 6.03697802,7.78279922 4.59994505,9.22782846 C3.16873626,10.6658713 2.38104396,12.608078 2.38104396,14.7295828 C2.38456044,15.9812865 1.99071429,17.4833528 1.28505495,18.9272359 L0.955659341,19.5094503 C0.797417582,19.7900507 0.897032967,20.1452086 1.17956044,20.3024016 C1.27098901,20.3524522 1.36945055,20.3769045 1.46675824,20.3769045 C1.67186813,20.3769045 1.87,20.2697622 1.9778022,20.0799844 L2.32357143,19.4675322 C3.13236264,17.8117661 3.55785714,16.1723197 3.55318681,14.6981988 C3.55318681,12.9166784 4.22131868,11.2644055 5.43335165,10.0464327 C6.65005495,8.82382066 8.27115385,8.15078363 9.9989011,8.15078363 C11.8591209,8.15078363 13.6314286,8.95186745 14.8586813,10.3514854 C15.0731868,10.5936608 15.4424176,10.6169669 15.6862088,10.4073762 C15.93,10.1954386 15.9546154,9.82865497 15.7424725,9.58527875 Z" id="Path"></path>
                    <path d="M18.7068681,21.2676101 L18.0469231,19.1181598 C17.6753297,17.4344483 17.6436813,15.8252398 17.6237912,14.864616 L17.6167582,14.5548694 C17.6167582,13.6920546 17.4702198,12.8432125 17.1818681,12.0351423 C17.0752198,11.7323821 16.7399451,11.5740429 16.434011,11.6799844 C16.1292308,11.7882729 15.9698352,12.1201248 16.0776923,12.4240312 C16.3214835,13.1075478 16.4445604,13.8247953 16.4445604,14.5699883 L16.4515934,14.8867212 C16.4715385,15.8916101 16.5054945,17.5718285 16.9134066,19.4127329 L17.5839011,21.6064483 C17.6612637,21.8568109 17.8945055,22.0186433 18.1453846,22.0186433 C18.2016484,22.0186433 18.2590659,22.0105107 18.3165385,21.994191 C18.625989,21.901076 18.8006593,21.5762105 18.7068681,21.2676101 Z" id="Path"></path>
                    <path d="M16.9967033,23.9550643 L16.4528022,22.2224483 C15.4869231,19.2253021 15.3064286,15.8508928 15.2736264,14.554924 C15.2736264,11.6660663 12.907033,9.31515789 9.9989011,9.31515789 C7.09076923,9.31515789 4.72532967,11.7021442 4.72532967,14.6562261 C4.72648352,15.2686784 4.6128022,18.5057076 2.13835165,22.0512827 C1.95313187,22.3156179 2.01994505,22.6789084 2.28604396,22.8616998 C2.54978022,23.0421988 2.91664835,22.9781209 3.10186813,22.7149864 C5.70994505,18.9784327 5.90098901,15.5982378 5.89747253,14.6364133 C5.89747253,12.3448889 7.73659341,10.4795322 9.99769231,10.4795322 C12.2599451,10.4795322 14.1002747,12.3088109 14.1002747,14.5700429 C14.1424725,16.2607407 14.3593407,19.5489669 15.3345604,22.5729123 L15.8760989,24.3008889 C15.9546154,24.5512515 16.1867033,24.7107368 16.4363736,24.7107368 C16.495,24.7107368 16.5524176,24.7026043 16.611044,24.6839376 C16.9204945,24.5884756 17.0928022,24.2624639 16.9967033,23.9550643 Z" id="Path"></path>
                    <path d="M12.9292857,14.552577 C12.9292857,12.9468616 11.6152747,11.641614 9.9989011,11.641614 C8.38247253,11.641614 7.06851648,12.9480624 7.06851648,14.5747368 C7.07554945,14.7680078 7.20450549,19.3417778 3.48285714,24.1541754 C3.28593407,24.4091774 3.33401099,24.7748148 3.59071429,24.9704327 C3.84857143,25.1660507 4.21549451,25.1182924 4.41241758,24.8632904 C8.38956044,19.7213333 8.24653846,14.7412086 8.23950549,14.5537778 C8.23950549,13.590807 9.02835165,12.8071891 9.99774725,12.8071891 C10.9671429,12.8071891 11.7571429,13.590807 11.7571429,14.5677505 C11.7723626,15.2198285 11.7770879,21.1023392 7.20093407,27.0081014 C7.00401099,27.2631033 7.05087912,27.62754 7.30758242,27.8243587 C7.41543956,27.905848 7.54082418,27.9454737 7.66510989,27.9454737 C7.84093407,27.9454737 8.0156044,27.8674776 8.13043956,27.7160702 C12.9597802,21.4841871 12.9468681,15.2302534 12.9292857,14.552577 Z" id="Path"></path>
                    <path d="M10.5837912,14.529271 C10.5697253,14.2067524 10.305989,13.9843353 9.97307692,13.9738558 C9.64956044,13.9878285 9.39873626,14.2602963 9.4128022,14.5805224 C9.4128022,14.588655 9.4456044,15.4398441 9.22758242,16.7893567 C9.17598901,17.1060897 9.39401099,17.4053021 9.71285714,17.4565536 C9.74450549,17.461193 9.77615385,17.46354 9.80664835,17.46354 C10.0903297,17.46354 10.3387912,17.2597895 10.3857143,16.9744951 C10.6247802,15.4957349 10.5849451,14.5676959 10.5837912,14.529271 Z" id="Path"></path>
                    <path d="M9.43274725,18.6710331 C9.1232967,18.5837037 8.79626374,18.7560156 8.70368132,19.064616 C7.96989011,21.5238129 6.75203297,23.8234698 5.08285714,25.897271 C4.88126374,26.1487797 4.92225275,26.5144172 5.17543956,26.7158207 C5.2832967,26.8008031 5.41340659,26.8427212 5.54115385,26.8427212 C5.71346154,26.8427212 5.88340659,26.7670175 5.9982967,26.6249981 C7.76241758,24.4312827 9.0506044,21.998885 9.82774725,19.3941209 C9.92032967,19.085575 9.74335165,18.7618558 9.43274725,18.6710331 Z" id="Path"></path>
                    <path d="M15.1118681,25.6492554 L14.4062088,23.417115 C14.1248901,22.5822456 13.8623077,21.6973255 13.8611538,21.6949786 C13.7908242,21.4585887 13.5798352,21.292117 13.3325275,21.2781442 C13.0734615,21.2501988 12.8554396,21.4062456 12.7593407,21.6321014 C12.7464286,21.6623938 11.4406593,24.7107368 9.94379121,27.0511657 C9.77032967,27.3224873 9.85120879,27.6834308 10.1242857,27.8545965 C10.2215934,27.9163275 10.3306044,27.9454191 10.4384066,27.9454191 C10.6318132,27.9454191 10.8217033,27.8499571 10.9318681,27.6775906 C11.8391209,26.2593606 12.6608242,24.63154 13.1976374,23.4974035 C13.2292857,23.5905731 13.2597802,23.6848889 13.2914286,23.7768577 L13.9935714,25.9973723 C14.0896703,26.3036257 14.4179121,26.4770838 14.7285165,26.3792749 C15.0368132,26.2826667 15.2091209,25.9554542 15.1118681,25.6492554 Z" id="Path"></path>
                </g>
            </g>
        </g>
    </g>
</svg>