<?xml version="1.0" encoding="UTF-8"?>
<svg width="30px" height="30px" viewBox="0 0 30 30" version="1.1" xmlns="http://www.w3.org/2000/svg" xmlns:xlink="http://www.w3.org/1999/xlink">
    <!-- Generator: Sketch 64 (93537) - https://sketch.com -->
    <title>2-3-2</title>
    <desc>Created with Sketch.</desc>
    <g id="Page-1" stroke="none" stroke-width="1" fill="none" fill-rule="evenodd">
        <g id="天下特色_報導原則" transform="translate(-10.000000, -289.000000)" fill-rule="nonzero">
            <g id="Group-7" transform="translate(0.000000, 279.000000)">
                <g id="2-3-2" transform="translate(11.000000, 11.000000)">
                    <path d="M25.944519,6.69580078 L27.3025208,5.3380127 C27.5281067,5.11221315 27.6024475,4.77597045 27.4928589,4.4762573 C27.3832703,4.17633059 27.1096191,3.96740723 26.7913208,3.94049075 L24.2720642,3.7279358 L24.0595093,1.20867917 C24.0328064,0.890594469 23.8236694,0.616943359 23.5239563,0.50735475 C23.2242432,0.397552477 22.8880005,0.471893297 22.6622009,0.697692844 L21.3041992,2.05548098 C19.1081543,0.709014906 16.597229,0 14,0 C10.2605286,0 6.74472045,1.4562683 4.1004944,4.1004944 C1.4562683,6.74472045 0,10.2605286 0,14 C0,17.7394714 1.4562683,21.2552796 4.1004944,23.8995056 C6.74472045,26.5437317 10.2605286,28 14,28 C17.7394714,28 21.2552796,26.5437317 23.8995056,23.8995056 C26.5437317,21.2552796 28,17.7394714 28,14 C28,11.402771 27.2909851,8.89205931 25.944519,6.69580078 Z M16.7890625,14 C16.7890625,15.5378723 15.5378723,16.7890625 14,16.7890625 C12.4621277,16.7890625 11.2109375,15.5378723 11.2109375,14 C11.2109375,12.4621277 12.4621277,11.2109375 14,11.2109375 C14.4710388,11.2109375 14.9147339,11.3286438 15.3041687,11.5356445 L13.4200134,13.4200134 C13.0995788,13.7402344 13.0995788,14.259552 13.4200134,14.5799866 C13.5800171,14.7402038 13.7900085,14.8203125 14,14.8203125 C14.2099915,14.8203125 14.4199829,14.7402038 14.5799866,14.5799866 L16.4643555,12.6958313 C16.6713562,13.0852661 16.7890625,13.5289612 16.7890625,14 L16.7890625,14 Z M16.4966126,10.3432007 C15.7852478,9.85614011 14.925415,9.5703125 14,9.5703125 C11.5574341,9.5703125 9.5703125,11.5574341 9.5703125,14 C9.5703125,16.4425659 11.5574341,18.4296875 14,18.4296875 C16.4425659,18.4296875 18.4296875,16.4425659 18.4296875,14 C18.4296875,13.074585 18.1438599,12.2147522 17.6567993,11.5033874 L19.9989624,9.16122435 C21.0690003,10.48526 21.7109375,12.1690369 21.7109375,14 C21.7109375,18.2517395 18.2517395,21.7109375 14,21.7109375 C9.74826048,21.7109375 6.2890625,18.2517395 6.2890625,14 C6.2890625,9.74826048 9.74826048,6.2890625 14,6.2890625 C15.8309631,6.2890625 17.51474,6.93099974 18.8387756,8.00103763 L16.4966126,10.3432007 Z M22.7393189,22.7393189 C20.4050598,25.0737915 17.3013306,26.359375 14,26.359375 C10.6986694,26.359375 7.59494017,25.0737915 5.26068113,22.7393189 C2.92620847,20.4050598 1.640625,17.3013306 1.640625,14 C1.640625,10.6986694 2.92620847,7.59494017 5.26068113,5.26068112 C7.59494017,2.92620847 10.6986694,1.640625 14,1.640625 C16.159729,1.640625 18.2517395,2.19540404 20.1070557,3.25262448 L19.1818542,4.17782591 C19.0323181,4.32736205 18.9470825,4.52774049 18.9417419,4.73687747 C18.941101,4.76678464 18.9419556,4.79669192 18.9443054,4.82681276 L19.0547486,6.13568112 C17.596344,5.19488528 15.8608704,4.6484375 14,4.6484375 C8.84356692,4.6484375 4.6484375,8.84356692 4.6484375,14 C4.6484375,19.1564331 8.84356692,23.3515625 14,23.3515625 C19.1564331,23.3515625 23.3515625,19.1564331 23.3515625,14 C23.3515625,12.1391296 22.8051147,10.403656 21.8643189,8.94525144 L23.1731872,9.05569459 C23.1962585,9.05740358 23.2193298,9.05847168 23.2421875,9.05847168 C23.2460327,9.05847168 23.2500915,9.05804441 23.2539368,9.0578308 C23.2648315,9.0578308 23.2755127,9.0569763 23.2864075,9.05633542 C23.3041382,9.05526732 23.3220825,9.05419922 23.3395996,9.05206302 C23.3504944,9.05056764 23.3613892,9.04885866 23.3722839,9.04714967 C23.3895874,9.04437253 23.4066772,9.04116823 23.4237671,9.03732298 C23.4346619,9.03475951 23.445343,9.03198242 23.4560242,9.02920534 C23.4726868,9.02471927 23.4891357,9.01959231 23.5055847,9.01403809 C23.5162659,9.01040651 23.5267334,9.00677487 23.5372009,9.00271608 C23.5532227,8.99652097 23.5690307,8.98968503 23.5848389,8.98220827 C23.5948792,8.97772214 23.6049194,8.97323607 23.6149597,8.96810912 C23.6307678,8.95999147 23.6461487,8.95101927 23.6613159,8.94204713 C23.6705017,8.93649291 23.6796875,8.93136595 23.6886596,8.92581178 C23.704895,8.9151306 23.7204895,8.90359498 23.736084,8.8918457 C23.7433471,8.88629153 23.750824,8.88137819 23.7578736,8.87561035 C23.7800904,8.85766602 23.8016663,8.83865358 23.8221741,8.81814577 L24.7473755,7.89294434 C25.804596,9.74826048 26.359375,11.840271 26.359375,14 C26.359375,17.3013306 25.0737915,20.4050598 22.7393189,22.7393189 L22.7393189,22.7393189 Z" id="Shape" stroke="#FFFFFF" stroke-width="0.4" fill="#000000"></path>
                    <path d="M22.6953125,4.55615234 C22.729065,4.95477292 23.0452271,5.27093503 23.4438477,5.3046875 L24.89328,5.42687988 L22.931366,7.38879395 L20.7917175,7.20828248 L20.6112061,5.06863405 L22.5731201,3.10671998 L22.6953125,4.55615234 Z" id="Path" fill="#FFFFFF"></path>
                </g>
            </g>
        </g>
    </g>
</svg>