<?xml version="1.0" encoding="UTF-8"?>
<svg width="28px" height="26px" viewBox="0 0 28 26" version="1.1" xmlns="http://www.w3.org/2000/svg" xmlns:xlink="http://www.w3.org/1999/xlink">
    <!-- Generator: Sketch 64 (93537) - https://sketch.com -->
    <title>2-3-5</title>
    <desc>Created with Sketch.</desc>
    <g id="Page-1" stroke="none" stroke-width="1" fill="none" fill-rule="evenodd">
        <g id="天下特色_報導原則" transform="translate(-12.000000, -555.000000)" fill-rule="nonzero">
            <g id="Group-10" transform="translate(1.000000, 544.000000)">
                <g id="2-3-5" transform="translate(11.000000, 11.000000)">
                    <g id="XMLID_1170_">
                        <path d="M26.7318129,13.811178 L22.5141287,12.6706483 C21.9552749,12.5195508 21.3854503,12.6808941 20.9864639,13.0475932 L19.828694,10.8806144 C19.1083899,9.53241525 18.0978791,8.35261017 16.8843275,7.43688136 L19.923883,4.36926695 C20.1370214,4.15416102 20.1370214,3.80536441 19.923883,3.59020339 L16.5275867,0.1625 C16.3144483,-0.0525508475 15.9688421,-0.0525508475 15.7556491,0.1625 L10.6255361,5.33997034 C9.2482963,5.34074153 7.90489669,5.61071186 6.63239766,6.14266525 C5.35820663,6.67533475 4.21762963,7.44448305 3.24237817,8.4286822 L1.74495127,9.93998729 C1.35316959,10.3353856 1.13746589,10.8610042 1.13746589,11.4201144 C1.13746589,11.9792246 1.35322417,12.5048432 1.74495127,12.9002415 C2.01425341,13.1720297 2.33982846,13.3527627 2.68412476,13.4435424 L0.0462300195,19.4977415 C-0.044374269,19.7056314 0.000764132554,19.9483898 0.159922027,20.1090169 C0.264499025,20.2145042 0.404116959,20.2703602 0.54602729,20.2703602 C0.620148148,20.2703602 0.694923977,20.2551568 0.765606238,20.2237585 L6.76519298,17.5611822 C6.85503314,17.9092076 7.03422222,18.238339 7.30385185,18.5105127 C7.70818713,18.9185805 8.23931384,19.1226144 8.77044055,19.1226144 C9.30156725,19.1226144 9.83269396,18.9185805 10.2370292,18.5105127 L10.831306,17.91075 L11.0692788,18.1509195 C12.3189084,20.9888856 15.0350721,22.8584619 18.090729,23.0129746 C18.0490292,23.3649661 18.1203119,23.7195466 18.2991189,24.0320424 C18.51777,24.4143305 18.8709084,24.6877712 19.2933645,24.8020169 L23.5110487,25.9426017 C23.6524678,25.9808305 23.7944873,25.9990636 23.9344327,25.9990636 C24.6573021,25.9990636 25.3206784,25.5113983 25.51646,24.7740339 L26.0529357,22.7533051 C26.1309864,22.4594831 25.9581832,22.1574534 25.6669942,22.0786822 C25.3759688,21.999911 25.076538,22.1743093 24.9985419,22.4681864 L24.4620663,24.4889153 C24.3841793,24.7823517 24.0843119,24.9571356 23.7935595,24.8784195 L19.5758752,23.7378347 C19.4350565,23.6997712 19.3173801,23.6086059 19.24446,23.4811949 C19.1715945,23.3537839 19.1522183,23.2053305 19.1899337,23.0632119 L21.5631657,14.1243347 C21.6411072,13.8309534 21.9411384,13.6563347 22.2316725,13.7348305 L26.4493567,14.8753602 C26.7400546,14.9540212 26.9132398,15.2566568 26.8352982,15.5500381 L26.2701676,17.678678 C26.192117,17.9725 26.3649201,18.2745297 26.6561092,18.3533008 C26.9470799,18.432072 27.2465653,18.2576737 27.3245614,17.9637966 L27.889692,15.8351568 C28.1234074,14.9549576 27.603961,14.0470508 26.7318129,13.811178 L26.7318129,13.811178 Z M16.1416452,1.3310678 L17.067883,2.26585593 L4.90960624,14.5363136 L3.98336842,13.6015254 L16.1416452,1.3310678 Z M2.51683431,12.1212331 C2.33125926,11.934 2.22908382,11.6849619 2.22908382,11.4201144 C2.22908382,11.1552669 2.33125926,10.9062839 2.51683431,10.7189958 L4.01426121,9.20769068 C5.50306433,7.70514407 7.40526316,6.77134746 9.46198051,6.51421186 L3.90619103,12.1212331 C3.52319688,12.507928 2.89988304,12.5078178 2.51683431,12.1212331 L2.51683431,12.1212331 Z M3.38985575,14.5606059 L5.65747368,16.8491568 L1.61002729,18.6454153 L3.38985575,14.5606059 Z M9.46503704,17.7314492 C9.08193372,18.1180339 8.45867446,18.1179788 8.07562573,17.7315042 C7.692577,17.3448093 7.692577,16.7157966 8.07562573,16.3292119 L8.66990253,15.7294492 L10.0593138,17.1316314 L9.46503704,17.7314492 Z M18.3632515,21.9203136 C15.5990019,21.8662203 13.1231033,20.190322 12.0296842,17.6178644 C12.0023392,17.5535254 11.9630955,17.4950805 11.9140273,17.4455042 L8.60735283,14.1083051 C8.13915789,13.6358432 8.13915789,12.8669703 8.60735283,12.3945085 C8.83413645,12.1656314 9.13569591,12.0395424 9.45641326,12.0395424 C9.7771306,12.0395424 10.0786901,12.1656314 10.3054737,12.3945085 L13.6121481,15.7317076 C13.8252865,15.9467585 14.1708928,15.9467585 14.3840858,15.7317076 C14.5972242,15.5166017 14.5972242,15.1678051 14.3840858,14.9526441 L11.9106979,12.4564237 L16.102729,8.22569492 C17.2463626,9.05835593 18.1977076,10.149089 18.8679064,11.4034788 L20.3960624,14.2636441 L18.3632515,21.9203136 Z" id="XMLID_682_" fill="#000000"></path>
                        <path d="M18.7660585,3.97970763 L11.1388148,11.6773602 L11.0774113,11.6153898 C10.7664094,11.3015169 10.3815595,11.0896059 9.96265107,10.99475 L17.8397661,3.04486441 L18.7660585,3.97970763 Z" id="XMLID_682_-path" fill="#FFFFFF"></path>
                        <path d="M6.60783626,16.2501653 L5.68159844,15.3153771 L7.2217076,13.7610508 C7.31351267,14.1740763 7.51769981,14.5665 7.83552437,14.8873136 L7.89692788,14.9492839 L6.60783626,16.2501653 Z" id="XMLID_682_-path" fill="#FFFFFF"></path>
                    </g>
                    <g id="XMLID_928_" transform="translate(25.598441, 19.665254)" fill="#000000">
                        <path d="M0.563274854,1.10186017 C0.419181287,1.10186017 0.278908382,1.04291949 0.176842105,0.94040678 C0.0753216374,0.83745339 0.0174658869,0.695885593 0.0174658869,0.551012712 C0.0174658869,0.405533898 0.0753216374,0.264021186 0.176842105,0.161012712 C0.278362573,0.0585550847 0.419181287,0.000165254237 0.563274854,0.000165254237 C0.706822612,0.000165254237 0.847641326,0.0585550847 0.949161793,0.161012712 C1.05068226,0.264021186 1.10908382,0.405533898 1.10908382,0.551012712 C1.10908382,0.695885593 1.05068226,0.838004237 0.949161793,0.94040678 C0.847095517,1.04291949 0.706822612,1.10186017 0.563274854,1.10186017 Z" id="XMLID_273_"></path>
                    </g>
                </g>
            </g>
        </g>
    </g>
</svg>