<svg id="圖層_1" data-name="圖層 1" xmlns="http://www.w3.org/2000/svg" viewBox="0 0 300 300"><defs><style>.cls-1{fill:#d60c18;}.cls-2{fill:#fff;}.cls-3{isolation:isolate;}</style></defs><circle id="Oval-Copy-3" class="cls-1" cx="150" cy="150" r="150"/><circle id="Oval-Copy" class="cls-2" cx="150" cy="150" r="108"/><circle id="Oval-Copy-3-2" data-name="Oval-Copy-3" class="cls-1" cx="150" cy="150" r="70"/><circle id="Oval-Copy-2" data-name="Oval-Copy" class="cls-2" cx="150" cy="150" r="39"/><g class="cls-3"><path class="cls-2" d="M135.26,23.12l-.67-.82a10.85,10.85,0,0,0,2.08-3.71l1.06.24c-.1.25-.21.53-.3.78h4.73c0,4.23-.08,6.84-.22,7.83-.15,1.36-.83,2-2.07,2l-1.55,0-.25-1c.64,0,1.18.06,1.66.06.66,0,1-.49,1.15-1.47q.17-1,.21-6.32H137a13.3,13.3,0,0,1-1,1.58h3.87v4.47H136V22.27C135.73,22.56,135.5,22.85,135.26,23.12Zm1.88-6.88V14.89h1v3.63h-1V17.23h-2.31v-1Zm1.68,7H137v2.52h1.86Zm2.1-8.32v1.27H143v1h-2.12v1.31h-1V14.89Zm2,7.2-.69-.84a14.86,14.86,0,0,0,2.21-6.34l1.12.19a22.6,22.6,0,0,1-.48,2.27h4.08v1.11h-.93a15.2,15.2,0,0,1-1.65,6.78,14.52,14.52,0,0,0,2.93,3.33l-.78.91a15.23,15.23,0,0,1-2.79-3.17,11.69,11.69,0,0,1-3.25,3.13l-.65-1a9.53,9.53,0,0,0,3.26-3.14,17.6,17.6,0,0,1-1.53-3.73l.88-.5a16,16,0,0,0,1.28,3.11,14.26,14.26,0,0,0,1.25-5.68h-2.42A12.46,12.46,0,0,1,142.87,22.09Z"/><path class="cls-2" d="M157.07,20.59a30.71,30.71,0,0,0,.4-3.68h-5.79V15.79h12.65v1.12h-5.69a35,35,0,0,1-.41,3.68h6.56v1.1H158.9a12.76,12.76,0,0,0,6.39,7l-.72.93A13.54,13.54,0,0,1,157.92,22a11.41,11.41,0,0,1-1,2.76,13.19,13.19,0,0,1-5.46,4.88l-.72-.95a12,12,0,0,0,5.09-4.37,9.9,9.9,0,0,0,1-2.64h-5.57v-1.1Z"/></g><g class="cls-3"><path class="cls-2" d="M137,94v-2.1c-.59.1-1.2.18-1.81.26l-.21-1a19,19,0,0,0,4.55-1l.38,1a15.21,15.21,0,0,1-1.8.5V94h1.82v1.06h-1.82v1.07c.67.77,1.36,1.63,2,2.58l-.64,1c-.54-1-1-1.75-1.4-2.36v7.21H137V97.49a17.64,17.64,0,0,1-1.84,3.86l-.53-1.3a13.69,13.69,0,0,0,2.32-5H135V94Zm6.95,9a13.86,13.86,0,0,1-3.62,1.57l-.45-1a12.76,12.76,0,0,0,3.46-1.33Zm1.28-13.14v.88h3.65v.93h-3.65v.88h3.15v.92h-3.15v.93h4v.92h-8.91v-.92h3.84v-.93H141V92.6h3.07v-.88h-3.57v-.93h3.57v-.88Zm3,6.22v6.12H141V96.13Zm-1,1.78V97h-5.08v.88Zm0,1.74v-.92h-5.08v.92Zm0,.82h-5.08v.88h5.08Zm2.21,3.15-.39.93a16.41,16.41,0,0,0-3.57-1.31l.42-.85A17.25,17.25,0,0,1,149.37,103.62Z"/><path class="cls-2" d="M153.89,104.55h-1.12v-8a19.37,19.37,0,0,1-1.7,4.08l-.48-1.18a16,16,0,0,0,2.08-5.25h-1.73V93.08h1.83V89.92h1.12v3.16h1.5v1.07h-1.5v1.12c.59.75,1.18,1.58,1.79,2.51l-.62,1c-.45-.87-.83-1.59-1.17-2.16ZM165.37,103v1.08h-9.9V103Zm-.24-12.4v1.06h-4.74q-.39.85-1,2h1.72v6.71a2.1,2.1,0,0,1-.32,1.41,1.59,1.59,0,0,1-1,.35l-1.36,0-.3-1c.51,0,1,.08,1.39.08a.55.55,0,0,0,.41-.16.88.88,0,0,0,.15-.62v-5.8h-1.86v-.91c.43-.8.77-1.47,1-2h-3.43V90.58ZM159,95.38V100h-3.17V95.38Zm-.88.87h-1.41v2.88h1.41Zm5.19,1.28a15.64,15.64,0,0,0,.65-2.45h-2.19v-.93H165v.77a16.27,16.27,0,0,1-1,3.53c.51.72,1,1.43,1.38,2.13l-.74.74a20.23,20.23,0,0,0-1.1-1.87,9.62,9.62,0,0,1-1.48,2.06l-.62-.81a9.08,9.08,0,0,0,1.47-2.17c-.5-.7-1-1.4-1.63-2.11l.65-.64C162.42,96.36,162.88,97,163.32,97.53Z"/></g><g class="cls-3"><path class="cls-2" d="M141.41,281.25a7.55,7.55,0,0,1-.82,1h6v.83a7.85,7.85,0,0,1-2.94,2.29,21.63,21.63,0,0,0,5.63,1.14l-.29,1.1a20.57,20.57,0,0,1-6.77-1.62,32.69,32.69,0,0,1-7.07,1.65l-.43-1.09a35.57,35.57,0,0,0,6.19-1.18,18.4,18.4,0,0,1-2.34-1.52,21.58,21.58,0,0,1-2.36,1.22l-.69-.92a18.58,18.58,0,0,0,2.21-1,10.68,10.68,0,0,1-1-.9l.82-.57c.33.32.68.62,1,.93a8.11,8.11,0,0,0,1.54-1.38,1.07,1.07,0,0,1-1.11-1.2v-2h1.11v1.73c0,.34.16.51.49.51h2.92a1,1,0,0,0,.59-.14,2.16,2.16,0,0,0,.29-1.08l1.05.34c-.09.87-.27,1.39-.56,1.59a2.21,2.21,0,0,1-1.16.24Zm7.25-2.08h-1.12V277.4H136.46v1.77h-1.12v-2.79h2.37a10,10,0,0,0-.51-1.14l1.12-.17a11.51,11.51,0,0,1,.53,1.31h2.71a9.79,9.79,0,0,0-.53-1.25l1.12-.19a14.63,14.63,0,0,1,.54,1.44h2.23a14.47,14.47,0,0,0,.89-1.81l1.11.39a9.54,9.54,0,0,1-.79,1.42h2.53Zm-10.32-.47a7,7,0,0,1-2,2.88l-.82-.72a5.83,5.83,0,0,0,1.84-2.54Zm9.89-4.77a77.2,77.2,0,0,1-12.21.79l-.34-1a85.53,85.53,0,0,0,12-.74Zm-3.09,9.24h-5.59a.16.16,0,0,0-.08.06,16.63,16.63,0,0,0,2.89,1.62A8.79,8.79,0,0,0,145.14,283.17ZM143.48,279l-.72.73a11.46,11.46,0,0,0-1.77-1.5l.71-.67A12.61,12.61,0,0,1,143.48,279Zm5.1,1.85-1,.68a23.56,23.56,0,0,0-2.08-2.9l.85-.55A23,23,0,0,1,148.58,280.89Z"/><path class="cls-2" d="M158.47,276.51a14.68,14.68,0,0,0,6.94,10l-.75,1a15.81,15.81,0,0,1-6.61-8.65,15,15,0,0,1-6.79,8.66l-.7-1c4.4-2.7,6.67-6.37,6.82-11,0-1.09,0-1.94,0-2.54h1.17C158.58,274.33,158.53,275.52,158.47,276.51Z"/></g><g class="cls-3"><path class="cls-1" d="M127.38,61.11l-.76-.9a14.43,14.43,0,0,0,4.65-4.48l1.18.26c-.22.36-.46.72-.7,1h5.82v.85a15.2,15.2,0,0,1-1.39,1.66h3.15v8.12H128.87V60.05A16.25,16.25,0,0,1,127.38,61.11Zm5.47,7.59a17.94,17.94,0,0,1-4.79,2l-.48-1a17.14,17.14,0,0,0,4.57-1.73ZM136.16,58H131a16.14,16.14,0,0,1-1.48,1.5h5.27A18.62,18.62,0,0,0,136.16,58Zm2,3.88V60.56H130v1.36Zm0,2.37v-1.4H130v1.4Zm0,.95H130v1.39h8.2Zm2.41,4.43-.62,1a23.2,23.2,0,0,0-4.53-1.85l.58-.87A25.86,25.86,0,0,1,140.61,69.67Z"/><path class="cls-1" d="M155.3,62.17v6.24H148l.56.75a19.83,19.83,0,0,1-5.28,1.41l-.49-.85A21.22,21.22,0,0,0,148,68.41h-3.06V62.17Zm-5.82-5.38v-.87h1.12v.87h5.84v.93H150.6v.91h5.25v.93H150.6v.92h6.51v.92H142.94v-.92h6.54v-.92h-5.22v-.93h5.22v-.91h-5.83v-.93Zm4.7,7.23v-.93h-8.13V64Zm0,1.75v-.93h-8.13v.93Zm0,.81h-8.13v.9h8.13Zm3,3.09-.36.91a39.77,39.77,0,0,0-5.4-1.28l.4-.78A40.67,40.67,0,0,1,157.17,69.67Z"/><path class="cls-1" d="M163.39,56.45a17.87,17.87,0,0,1-1.6,3.49V70.63h-1.15v-9a19.22,19.22,0,0,1-1.73,2l-.38-1.21A17.67,17.67,0,0,0,162.32,56Zm4,6.32V58.08h-3.62V57h8.76v1.1h-4v4.69h4.69v1.12h-4.69v5h3.89v1.14h-8.9V68.92h3.86v-5h-4.66V62.77Z"/></g><g class="cls-3"><path class="cls-1" d="M137.11,148a13.45,13.45,0,0,0-.82-1.86l1.07-.3a15.75,15.75,0,0,1,.74,2l-.56.21h2.24v1.05H135V148Zm2.2,11.26a10.23,10.23,0,0,0,1.25-5.07v-5.7h4.53v-2.38h1c0,.85,0,1.65,0,2.38h3v1.06h-3c0,2.49.12,4.45.24,5.84a17.78,17.78,0,0,0,1.41-4.35l1,.41a18.38,18.38,0,0,1-2.13,5.62.69.69,0,0,0,0,.24q.43,1.83,1,2c.29,0,.55-1,.74-2.76l.86.59c-.27,2.19-.78,3.29-1.53,3.29a1.47,1.47,0,0,1-1.19-.8,6,6,0,0,1-.62-1.44,9.07,9.07,0,0,1-2.68,2.34l-.64-.83a8.76,8.76,0,0,0,3-2.82l0-.14a54,54,0,0,1-.41-7.14H141.6v2.27h2.61a23,23,0,0,1-.32,5.14,1.25,1.25,0,0,1-1.15.94h-.8l-.27-.94h.78c.32,0,.51-.29.61-.77s.11-1.62.14-3.41h-1.6v1.41a11,11,0,0,1-1.87,6.42l-.82-.74a2.76,2.76,0,0,0,.24-.35h-2.88v.93h-1V155h4.06Zm-.11-8.91v1h-3.84v-1Zm0,2.21v1h-3.84v-1Zm-.91,6V156h-2v2.58Zm10.32-10.63-.81.36a10.64,10.64,0,0,0-1-1.85l.83-.33A13.57,13.57,0,0,1,148.61,147.92Z"/><path class="cls-1" d="M150.88,153.67l-.37-1.23a18.67,18.67,0,0,0,3.43-6.66l1.07.49a21.1,21.1,0,0,1-1.41,3.48v10.88h-1.14v-9A19.07,19.07,0,0,1,150.88,153.67Zm9-5.63a16.3,16.3,0,0,0-.84-1.86l1.11-.3a16.27,16.27,0,0,1,.78,1.93l-.61.23h5.05v1.08H155V148Zm4.4,12.56h-1.12v-.86h-5.93v.86h-1.12v-5.55h8.17ZM164,150.42v1h-7.57v-1Zm0,2.26v1h-7.57v-1Zm-.83,6v-2.53h-5.93v2.53Z"/></g><g class="cls-3"><path class="cls-1" d="M63.72,127.27h6.34v1H55.93v-1h6.56a9.92,9.92,0,0,0-.54-1.22l1.26-.22A14.87,14.87,0,0,1,63.72,127.27Zm2.44,13.28-.28-1,1.29.05c.65,0,1-.26,1-.77v-4.35H57.85v6.16H56.74v-7.17H69.26V139c0,1-.59,1.52-1.76,1.52Zm1.32-11.19v3.11H58.54v-3.11Zm-1.12.9h-6.7v1.31h6.7Zm-.2,5.2v3.2H59.87v-3.2Zm-1,.87H60.91v1.47h4.22Z"/></g><g class="cls-3"><path class="cls-1" d="M62.09,160.36H61v-.82H57.59v.82H56.46v-7h5.63ZM61,158.46v-3.94H57.59v3.94Zm6.43-11.87v5.24H58.59v-5.24Zm-1.15,1.09H59.74v3.06h6.51Zm3.28,12.68H68.38v-.82h-3.5v.82H63.74v-7h5.79Zm-1.15-1.9v-3.94h-3.5v3.94Z"/></g><g class="cls-3"><path class="cls-1" d="M56.66,172.05l-.8-.86a3.71,3.71,0,0,0,.92-2.47V166.5a36.58,36.58,0,0,0,5.66-.48l.5.91a37,37,0,0,1-5.12.45v1h5.1v.94H61v1.88H59.85v-1.88H57.77A4.87,4.87,0,0,1,56.66,172.05Zm5,7a15.88,15.88,0,0,1-4.89,1.52l-.52-.88a17.65,17.65,0,0,0,4.87-1.38Zm6.74-7.4v6.5H58v-6.5Zm-1.16,1.94v-1H59.1v1Zm0,1.79v-1H59.1v1Zm0,.8H59.1v1h8.15Zm-3.73-4.56-.8-.85a3.07,3.07,0,0,0,1.08-2.28v-2a32.79,32.79,0,0,0,5.64-.51l.49.92a34,34,0,0,1-5.05.48v1h5.2v1H68v1.85H66.86V169.4h-2.1A4.11,4.11,0,0,1,63.52,171.65Zm6.56,8.07-.39.91a29,29,0,0,0-5.18-1.45l.41-.84A29.88,29.88,0,0,1,70.08,179.72Z"/></g><g class="cls-3"><path class="cls-1" d="M234.83,136.05a43.29,43.29,0,0,1,4.06,2.95l-.65.88a41.79,41.79,0,0,0-3.67-2.77,13.74,13.74,0,0,1-1.57,1.58h3.63v.87h-3.9v-.63a26.27,26.27,0,0,1-2.48,1.87l-.67-.92a21,21,0,0,0,4.53-3.83Zm-4.34,14.5-.9-.78a11.35,11.35,0,0,0,1.65-6.32v-2.87h6.63v4.51h-5.6A13,13,0,0,1,230.49,150.55Zm1.87-7.1c0,.27,0,.54,0,.8h4.43v-1h-4.4Zm4.4-2h-4.4v1h4.4Zm1.27,9.09h-1.09v-.61h-3.47v.62h-1.06v-4.34H238ZM236.94,149v-1.88h-3.47V149Zm2.9,1.42-.26-1.12c.79,0,1.54.06,2.24.06.42,0,.64-.2.64-.59V136h1.15v13.12a1.22,1.22,0,0,1-1.39,1.36Zm.92-13.38v10.32h-1.1V137.06Z"/></g><g class="cls-3"><path class="cls-1" d="M232.23,165.93a15.37,15.37,0,0,1-1.68,4.22l-.94-.61a12.11,12.11,0,0,0,1.58-3.84ZM229.82,162v-1h1.85a13.49,13.49,0,0,0-.77-1.81l1-.37a13.88,13.88,0,0,1,.79,2.18h1.73a21.42,21.42,0,0,0,.72-2.18l1,.35a19.45,19.45,0,0,1-.72,1.83h1.82v1h-3.14v1.78H237v1h-2.87v5.82H233v-5.82h-2.93v-1H233V162Zm3.23-4.67a11,11,0,0,0-.7-1.33l1.2-.2c.2.45.41,1,.62,1.53h3v1.05H230v-1.05Zm3.74,11.09-1,.37a25.37,25.37,0,0,0-1-2.9l1-.26A28.34,28.34,0,0,1,236.79,168.41ZM244,157.12a16,16,0,0,1-4.71.93V161h5.13v1.1H242.7v8.52h-1.14V162.1h-2.32v1.78a12,12,0,0,1-1.82,6.67l-.83-.85a10.82,10.82,0,0,0,1.55-5.82v-6.76a13.77,13.77,0,0,0,5.23-1Z"/></g><g class="cls-3"><path class="cls-2" d="M195.94,118.31a18,18,0,0,0-1-2.23l1.12-.32a20.76,20.76,0,0,1,1,2.42l-.34.13h2.79v1.1h-3.89v1.51c0,.29,0,.56,0,.84h3.15a60.68,60.68,0,0,1-.24,7.24c-.16.91-.83,1.38-2,1.38-.21,0-.58,0-1.11-.07l-.25-1c.45,0,.85.05,1.2.05a1,1,0,0,0,1.12-.82,47,47,0,0,0,.21-5.71h-2.12c-.22,3.44-.93,6-2.11,7.73l-.9-.79c1.32-1.84,2-4.8,2-8.86v-1.51h-1.66v-1.1Zm3.81,4.74-.69-.87a13.58,13.58,0,0,0,2.56-6.34l1.14.2a23.43,23.43,0,0,1-.56,2.33h4.65v1.11h-1.18a14.18,14.18,0,0,1-1.79,6.67,15.87,15.87,0,0,0,3.39,3.46l-.77.89a15.38,15.38,0,0,1-3.29-3.36,12.52,12.52,0,0,1-3.86,3.33l-.66-1a11,11,0,0,0,3.84-3.26,18.2,18.2,0,0,1-1.79-3.84l.91-.52a15.76,15.76,0,0,0,1.52,3.3,12.73,12.73,0,0,0,1.41-5.63h-2.75A12.48,12.48,0,0,1,199.75,123.05Z"/></g><g class="cls-3"><path class="cls-2" d="M197.91,149.51h-1.12V148.3h-2.42v1.58h-1.11V136.79h4.65Zm-1.12-9.23v-2.4h-2.42v2.4Zm0,3.47v-2.43h-2.42v2.43Zm0,3.46v-2.42h-2.42v2.42Zm3.68,1.68a16.81,16.81,0,0,0,2.59-.95l.26,1a30.7,30.7,0,0,1-4.09,1.34l-.25-.94c.24-.08.37-.21.37-.39V136.56h6.7v6.79h-5.58Zm4.46-11.27h-4.46v1.87h4.46Zm-4.46,4.71h4.46v-1.81h-4.46Zm6.51,2.52a7.42,7.42,0,0,1-2.35,2.05,8.61,8.61,0,0,0,2.7,2.55l-.67,1a10.63,10.63,0,0,1-4.32-5.78l.87-.49a10.59,10.59,0,0,0,.89,1.92,7.78,7.78,0,0,0,2.18-1.94Z"/></g><g class="cls-3"><path class="cls-2" d="M199.07,161.59a30.71,30.71,0,0,0,.4-3.68h-5.79v-1.12h12.65v1.12h-5.69a35,35,0,0,1-.41,3.68h6.56v1.1H200.9a12.76,12.76,0,0,0,6.39,7l-.72.93a13.54,13.54,0,0,1-6.65-7.64,11.41,11.41,0,0,1-1,2.76,13.19,13.19,0,0,1-5.46,4.88l-.72-1a12,12,0,0,0,5.09-4.37,9.9,9.9,0,0,0,1-2.64h-5.57v-1.1Z"/></g><g class="cls-3"><path class="cls-2" d="M207.11,176.77v1.14h-7v2.41a66.3,66.3,0,0,1,6.05,3.46l-.68,1c-2.13-1.41-3.93-2.5-5.37-3.27v9.09H199V177.91h-6.11v-1.14Z"/></g><g class="cls-3"><path class="cls-2" d="M91.74,150.68l-.83-.75a8.45,8.45,0,0,0,1.12-4.5v-5.09h5.7v8.82c0,.86-.48,1.31-1.41,1.31H94.88l-.27-1c.5,0,1,.06,1.38.06s.68-.24.68-.72v-1.63H93A9,9,0,0,1,91.74,150.68Zm10.2-14.41a10.76,10.76,0,0,1-1.1,1.65h4V139H91.1v-1.12h4.13a11.48,11.48,0,0,0-1-1.8l1.16-.2a14.85,14.85,0,0,1,1.07,2h3.14a15.23,15.23,0,0,0,1.26-2Zm-8.83,9.08c0,.27,0,.53,0,.78h3.6v-1.88H93.11Zm3.56-4H93.11v1.84h3.56Zm4-.32V148H99.57v-6.95Zm-.11,9.41-.24-1.07c.67,0,1.33.08,1.94.08.43,0,.65-.24.65-.7v-8.89H104v9.17a1.24,1.24,0,0,1-1.39,1.41Z"/></g><g class="cls-3"><path class="cls-2" d="M95.49,168.7H92.23v1.21H91.15v-13.2h4.34Zm-1.07-8.34v-2.6H92.23v2.6Zm0,3.61v-2.6H92.23V164Zm0,3.69V165H92.23v2.66Zm3.41-2.82a11.59,11.59,0,0,1-1.43,5.84l-.8-.74a10.08,10.08,0,0,0,1.19-5.1v-5l-.72.5-.31-1a10,10,0,0,0,3.33-3.57l1.11.22c-.13.24-.26.48-.4.72h3.76v.71a17.44,17.44,0,0,1-1.19,1.31h2.77v1H103v.59c0,.27.13.42.4.42H105v.77h-2c-.64,0-.94-.26-.94-.77v-1h-1.17a2.87,2.87,0,0,1-2.26,2.13l-.35-.79a2.19,2.19,0,0,0,1.68-1.34H97.83v2.66h3a6.4,6.4,0,0,0-.45-.87l1.07-.17c.15.3.29.65.44,1h3.25v.91h-7.3Zm4.45-7.24H99.2a15.06,15.06,0,0,1-1.08,1.19h3A10.6,10.6,0,0,0,102.28,157.6Zm2.41,13h-1V170H99.44v.58h-1V167.3h6.24Zm-.38-6.47v.77H98.82v-.77Zm0,1.57v.78H98.82v-.78Zm-.61,3.5v-1.1H99.44v1.1Z"/></g><g class="cls-3"><path class="cls-1" d="M148.53,246.62h-1.08v-.69H136.56v.69h-1.09V232.56h13.06ZM147.45,245V233.51H136.56V245Zm-6-10.47v-.6h1v.6h3.81v.76H142.5v.65h3.12v3.4h0a12.1,12.1,0,0,1,1,1.32l-.69.48c-.13-.22-.29-.43-.45-.65l-.75.05v.94h1.79v.83h-1.79v1.06c0,.69-.38,1-1.15,1H142l-.21-.88c.52,0,1,.06,1.48.06.32,0,.48-.16.48-.44v-.84h-6.31v-.83h6.31v-.9q-2.4.12-5.91.23l-.09-.69,3.71-.08v-.7h-3.07v-3.4h3.07v-.65h-3.78v-.76Zm-.39,8.92-.48.72a8,8,0,0,0-2-1.1l.41-.63A9.8,9.8,0,0,1,141.07,243.4Zm.49-6.07v-.81h-2.23v.81Zm0,.53h-2.23v.83h2.23Zm.84-.53h2.29v-.81H142.4Zm2.29.53H142.4v.83h2.29ZM142.5,240l2.56-.1-.48-.57H142.5Z"/><path class="cls-1" d="M155.71,232.56v.87c-.35,1.31-.78,2.65-1.29,4A7.61,7.61,0,0,1,155.7,241a2.74,2.74,0,0,1-.45,1.73,3,3,0,0,1-2.14.67l-.36-1.16a4.07,4.07,0,0,0,.61.07,1.5,1.5,0,0,0,1-.35,1.54,1.54,0,0,0,.24-1,5.93,5.93,0,0,0-1.3-3.33,40.13,40.13,0,0,0,1.3-4H152.5v12.89h-1.16V232.56Zm2.58,1.46a10.77,10.77,0,0,0-1-1.73l1.09-.4a12.53,12.53,0,0,1,1,2.13h2a14.76,14.76,0,0,0,1-2.11l1.1.36a10.35,10.35,0,0,1-1,1.75H165v1.12H161a8,8,0,0,1-1.26,1.41,6.81,6.81,0,0,1,1.49,2.24,7.31,7.31,0,0,0,1.23-1,11.1,11.1,0,0,0,1.28-1.7l1,.59a11,11,0,0,1-1.44,1.81,10.34,10.34,0,0,1-1.44,1.14,13,13,0,0,0,3.59,4.22l-.58,1a12.78,12.78,0,0,1-3-3.54,13.39,13.39,0,0,1,.1,1.7c0,1.6-.23,2.59-.67,2.95a3.63,3.63,0,0,1-2,.51h-.91l-.35-1h1.17a1.92,1.92,0,0,0,1.17-.35,3.29,3.29,0,0,0,.43-2.1,14,14,0,0,0-.08-1.49,16.76,16.76,0,0,1-4.71,3.48l-.65-1a14.87,14.87,0,0,0,5.13-3.76,7.16,7.16,0,0,0-.46-1.33,10.23,10.23,0,0,1-3.55,2.7l-.56-1a9.66,9.66,0,0,0,3.61-2.61,4.67,4.67,0,0,0-.67-.83,16.81,16.81,0,0,1-2.93,1.6l-.59-1a10.21,10.21,0,0,0,4.32-2.72H156V234Z"/></g></svg>