<?xml version="1.0" encoding="UTF-8"?>
<svg width="237px" height="158px" viewBox="0 0 237 158" version="1.1" xmlns="http://www.w3.org/2000/svg" xmlns:xlink="http://www.w3.org/1999/xlink">
    <title>4-1-7</title>
    <defs>
        <polygon id="path-1" points="0 0.0907730673 32.3296758 0.0907730673 32.3296758 32.4189526 0 32.4189526"></polygon>
        <polygon id="path-3" points="0.0299750623 0.0907730673 32.3601496 0.0907730673 32.3601496 32.4189526 0.0299750623 32.4189526"></polygon>
        <polygon id="path-5" points="0.0608977556 0.0907730673 32.3910723 0.0907730673 32.3910723 32.4189526 0.0608977556 32.4189526"></polygon>
        <polygon id="path-7" points="0.0905735661 0.0907730673 32.4217456 0.0907730673 32.4217456 32.4189526 0.0905735661 32.4189526"></polygon>
        <polygon id="path-9" points="0.121296758 0.0907730673 32.4514713 0.0907730673 32.4514713 32.4189526 0.121296758 32.4189526"></polygon>
        <polygon id="path-11" points="0.151970075 0.0907730673 32.4817955 0.0907730673 32.4817955 32.4189526 0.151970075 32.4189526"></polygon>
    </defs>
    <g id="4-1-7" stroke="none" stroke-width="1" fill="none" fill-rule="evenodd">
        <polygon id="Fill-1" stroke="#D3D5D7" fill="#FFFFFF" points="0 158 237 158 237 0 0 0"></polygon>
        <g id="Group-43" transform="translate(18.000000, 62.000000)">
            <g id="Group-3" transform="translate(0.000000, 0.408130)">
                <mask id="mask-2" fill="white">
                    <use xlink:href="#path-1"></use>
                </mask>
                <g id="Clip-2"></g>
                <path d="M31.5551122,26.326783 C31.5551122,29.2644389 29.1730673,31.64399 26.2354115,31.64399 L6.09426434,31.64399 C3.15710723,31.64399 0.775062344,29.2644389 0.775062344,26.326783 L0.775062344,6.18413965 C0.775062344,3.24548628 3.15710723,0.865935162 6.09426434,0.865935162 L26.2354115,0.865935162 C29.1730673,0.865935162 31.5551122,3.24548628 31.5551122,6.18413965 L31.5551122,26.326783 Z M26.7426434,0.0903740648 L5.58703242,0.0903740648 C2.50174564,0.0903740648 0,2.59112219 0,5.67790524 L0,26.8335162 C0,29.918803 2.50174564,32.4190524 5.58703242,32.4190524 L26.7426434,32.4190524 C29.8279302,32.4190524 32.3296758,29.918803 32.3296758,26.8335162 L32.3296758,5.67790524 C32.3296758,2.59112219 29.8279302,0.0903740648 26.7426434,0.0903740648 L26.7426434,0.0903740648 Z" id="Fill-1" fill="#DB0B17" mask="url(#mask-2)"></path>
            </g>
            <path d="M26.2354115,1.27391521 L6.09426434,1.27391521 C3.15710723,1.27391521 0.775062344,3.65346633 0.775062344,6.59261845 L0.775062344,26.7347631 C0.775062344,29.672419 3.15710723,32.0519701 6.09426434,32.0519701 L26.2354115,32.0519701 C29.1730673,32.0519701 31.5551122,29.672419 31.5551122,26.7347631 L31.5551122,6.59261845 C31.5551122,3.65346633 29.1730673,1.27391521 26.2354115,1.27391521" id="Fill-4" fill="#FEFEFE"></path>
            <g id="Group-8" transform="translate(33.416459, 0.408130)">
                <mask id="mask-4" fill="white">
                    <use xlink:href="#path-3"></use>
                </mask>
                <g id="Clip-7"></g>
                <path d="M31.5850873,26.326783 C31.5850873,29.2644389 29.2030424,31.64399 26.2653865,31.64399 L6.12473815,31.64399 C3.18708229,31.64399 0.805037406,29.2644389 0.805037406,26.326783 L0.805037406,6.18413965 C0.805037406,3.24548628 3.18708229,0.865935162 6.12473815,0.865935162 L26.2653865,0.865935162 C29.2030424,0.865935162 31.5850873,3.24548628 31.5850873,6.18413965 L31.5850873,26.326783 Z M26.7731172,0.0903740648 L5.61700748,0.0903740648 C2.53221945,0.0903740648 0.0299750623,2.59112219 0.0299750623,5.67790524 L0.0299750623,26.8335162 C0.0299750623,29.918803 2.53221945,32.4190524 5.61700748,32.4190524 L26.7731172,32.4190524 C29.858404,32.4190524 32.3601496,29.918803 32.3601496,26.8335162 L32.3601496,5.67790524 C32.3601496,2.59112219 29.858404,0.0903740648 26.7731172,0.0903740648 L26.7731172,0.0903740648 Z" id="Fill-6" fill="#DB0B17" mask="url(#mask-4)"></path>
            </g>
            <path d="M59.6820948,1.27391521 L39.5409476,1.27391521 C36.6037905,1.27391521 34.2217456,3.65346633 34.2217456,6.59261845 L34.2217456,26.7347631 C34.2217456,29.672419 36.6037905,32.0519701 39.5409476,32.0519701 L59.6820948,32.0519701 C62.6192519,32.0519701 65.0017955,29.672419 65.0017955,26.7347631 L65.0017955,6.59261845 C65.0017955,3.65346633 62.6192519,1.27391521 59.6820948,1.27391521" id="Fill-9" fill="#FEFEFE"></path>
            <g id="Group-13" transform="translate(66.832918, 0.408130)">
                <mask id="mask-6" fill="white">
                    <use xlink:href="#path-5"></use>
                </mask>
                <g id="Clip-12"></g>
                <path d="M31.61601,26.326783 C31.61601,29.2644389 29.2339651,31.64399 26.2963092,31.64399 L6.15516209,31.64399 C3.21800499,31.64399 0.8359601,29.2644389 0.8359601,26.326783 L0.8359601,6.18413965 C0.8359601,3.24548628 3.21800499,0.865935162 6.15516209,0.865935162 L26.2963092,0.865935162 C29.2339651,0.865935162 31.61601,3.24548628 31.61601,6.18413965 L31.61601,26.326783 Z M26.8040399,0.0903740648 L5.64793017,0.0903740648 C2.56264339,0.0903740648 0.0608977556,2.59112219 0.0608977556,5.67790524 L0.0608977556,26.8335162 C0.0608977556,29.918803 2.56264339,32.4190524 5.64793017,32.4190524 L26.8040399,32.4190524 C29.8893267,32.4190524 32.3910723,29.918803 32.3910723,26.8335162 L32.3910723,5.67790524 C32.3910723,2.59112219 29.8893267,0.0903740648 26.8040399,0.0903740648 L26.8040399,0.0903740648 Z" id="Fill-11" fill="#DB0B17" mask="url(#mask-6)"></path>
            </g>
            <path d="M93.1294763,1.27391521 L72.9883292,1.27391521 C70.0511721,1.27391521 67.6691272,3.65346633 67.6691272,6.59261845 L67.6691272,26.7347631 C67.6691272,29.672419 70.0511721,32.0519701 72.9883292,32.0519701 L93.1294763,32.0519701 C96.0666334,32.0519701 98.4491771,29.672419 98.4491771,26.7347631 L98.4491771,6.59261845 C98.4491771,3.65346633 96.0666334,1.27391521 93.1294763,1.27391521" id="Fill-14" fill="#FEFEFE"></path>
            <g id="Group-18" transform="translate(100.249377, 0.408130)">
                <mask id="mask-8" fill="white">
                    <use xlink:href="#path-7"></use>
                </mask>
                <g id="Clip-17"></g>
                <path d="M31.6466833,26.326783 C31.6466833,29.2644389 29.2636409,31.64399 26.3264838,31.64399 L6.18683292,31.64399 C3.24967581,31.64399 0.86563591,29.2644389 0.86563591,26.326783 L0.86563591,6.18413965 C0.86563591,3.24548628 3.24967581,0.865935162 6.18683292,0.865935162 L26.3264838,0.865935162 C29.2636409,0.865935162 31.6466833,3.24548628 31.6466833,6.18413965 L31.6466833,26.326783 Z M26.8347132,0.0903740648 L5.67910224,0.0903740648 C2.59381546,0.0903740648 0.0905735661,2.59112219 0.0905735661,5.67790524 L0.0905735661,26.8335162 C0.0905735661,29.918803 2.59381546,32.4190524 5.67910224,32.4190524 L26.8347132,32.4190524 C29.9195012,32.4190524 32.4217456,29.918803 32.4217456,26.8335162 L32.4217456,5.67790524 C32.4217456,2.59112219 29.9195012,0.0903740648 26.8347132,0.0903740648 L26.8347132,0.0903740648 Z" id="Fill-16" fill="#DB0B17" mask="url(#mask-8)"></path>
            </g>
            <path d="M126.57586,1.27391521 L106.436209,1.27391521 C103.499052,1.27391521 101.115012,3.65346633 101.115012,6.59261845 L101.115012,26.7347631 C101.115012,29.672419 103.499052,32.0519701 106.436209,32.0519701 L126.57586,32.0519701 C129.513017,32.0519701 131.89606,29.672419 131.89606,26.7347631 L131.89606,6.59261845 C131.89606,3.65346633 129.513017,1.27391521 126.57586,1.27391521" id="Fill-19" fill="#FEFEFE"></path>
            <g id="Group-23" transform="translate(133.665835, 0.408130)">
                <mask id="mask-10" fill="white">
                    <use xlink:href="#path-9"></use>
                </mask>
                <g id="Clip-22"></g>
                <path d="M31.6759102,26.326783 C31.6759102,29.2644389 29.2933666,31.64399 26.3562095,31.64399 L6.2165586,31.64399 C3.27890274,31.64399 0.896359102,29.2644389 0.896359102,26.326783 L0.896359102,6.18413965 C0.896359102,3.24548628 3.27890274,0.865935162 6.2165586,0.865935162 L26.3562095,0.865935162 C29.2933666,0.865935162 31.6759102,3.24548628 31.6759102,6.18413965 L31.6759102,26.326783 Z M26.8644389,0.0903740648 L5.70832918,0.0903740648 C2.62304239,0.0903740648 0.121296758,2.59112219 0.121296758,5.67790524 L0.121296758,26.8335162 C0.121296758,29.918803 2.62304239,32.4190524 5.70832918,32.4190524 L26.8644389,32.4190524 C29.9492269,32.4190524 32.4514713,29.918803 32.4514713,26.8335162 L32.4514713,5.67790524 C32.4514713,2.59112219 29.9492269,0.0903740648 26.8644389,0.0903740648 L26.8644389,0.0903740648 Z" id="Fill-21" fill="#DB0B17" mask="url(#mask-10)"></path>
            </g>
            <path d="M160.022045,1.27391521 L139.882394,1.27391521 C136.944738,1.27391521 134.562195,3.65346633 134.562195,6.59261845 L134.562195,26.7347631 C134.562195,29.672419 136.944738,32.0519701 139.882394,32.0519701 L160.022045,32.0519701 C162.959202,32.0519701 165.341746,29.672419 165.341746,26.7347631 L165.341746,6.59261845 C165.341746,3.65346633 162.959202,1.27391521 160.022045,1.27391521" id="Fill-24" fill="#FEFEFE"></path>
            <g id="Group-28" transform="translate(167.082294, 0.408130)">
                <mask id="mask-12" fill="white">
                    <use xlink:href="#path-11"></use>
                </mask>
                <g id="Clip-27"></g>
                <path d="M31.7070823,26.326783 C31.7070823,29.2644389 29.3240399,31.64399 26.3868828,31.64399 L6.24723192,31.64399 C3.30957606,31.64399 0.927032419,29.2644389 0.927032419,26.326783 L0.927032419,6.18413965 C0.927032419,3.24548628 3.30957606,0.865935162 6.24723192,0.865935162 L26.3868828,0.865935162 C29.3240399,0.865935162 31.7070823,3.24548628 31.7070823,6.18413965 L31.7070823,26.326783 Z M26.8951122,0.0903740648 L5.73950125,0.0903740648 C2.65421446,0.0903740648 0.151970075,2.59112219 0.151970075,5.67790524 L0.151970075,26.8335162 C0.151970075,29.918803 2.65421446,32.4190524 5.73950125,32.4190524 L26.8951122,32.4190524 C29.9799002,32.4190524 32.4821446,29.918803 32.4821446,26.8335162 L32.4821446,5.67790524 C32.4821446,2.59112219 29.9799002,0.0903740648 26.8951122,0.0903740648 L26.8951122,0.0903740648 Z" id="Fill-26" fill="#DB0B17" mask="url(#mask-12)"></path>
            </g>
            <path d="M193.469177,1.27391521 L173.329526,1.27391521 C170.39187,1.27391521 168.009327,3.65346633 168.009327,6.59261845 L168.009327,26.7347631 C168.009327,29.672419 170.39187,32.0519701 173.329526,32.0519701 L193.469177,32.0519701 C196.406334,32.0519701 198.789377,29.672419 198.789377,26.7347631 L198.789377,6.59261845 C198.789377,3.65346633 196.406334,1.27391521 193.469177,1.27391521" id="Fill-29" fill="#FEFEFE"></path>
            <path d="M95.6799501,3.88014963 C95.8704738,3.98588529 95.9821945,4.07167082 95.9821945,4.1240399 C95.9821945,4.29062344 95.8704738,4.37640898 95.6799501,4.37640898 C95.2939152,4.53900249 95.1278304,4.95695761 95.1278304,5.64174564 L95.1278304,26.7449875 C95.1278304,28.0442394 94.1617456,28.705586 92.2310723,28.705586 L90.2729676,28.705586 C90.1078803,28.705586 90.0535162,28.5385037 90.0535162,28.2342643 C89.9722195,27.8771571 89.8056359,27.4636908 89.5298254,26.9684289 C89.5298254,26.8018454 89.5821945,26.7449875 89.7487781,26.7449875 C90.577207,26.8831421 91.3223441,26.9684289 92.0121197,26.9684289 C92.783192,26.9684289 93.1976559,26.6352618 93.1976559,26.0023441 L93.1976559,5.53301746 C93.1976559,5.00882793 93.1402993,4.5953616 93.0859352,4.31805486 C93.0046384,4.1240399 92.9762095,3.96144638 92.9762095,3.79586035 C92.9762095,3.68563591 93.1402993,3.59985037 93.500399,3.59985037 L95.6799501,3.88014963 Z M90.7153616,7.04673317 C90.7153616,7.29910224 90.6051372,7.4367581 90.4390524,7.4367581 C90.2460349,7.49361596 90.1622444,7.68513716 90.1622444,8.01730673 L90.1622444,23.2986035 C90.1622444,23.5175561 90.0245885,23.626783 89.7487781,23.626783 L88.6729676,23.626783 C88.3687282,23.626783 88.2300748,23.5175561 88.2300748,23.2986035 L88.2300748,7.04673317 C88.2300748,6.83177057 88.3687282,6.71855362 88.6729676,6.71855362 C90.0245885,6.71855362 90.7153616,6.83177057 90.7153616,7.04673317 L90.7153616,7.04673317 Z M76.5911721,26.1110723 L84.1502743,26.1110723 L84.1502743,23.626783 L76.5911721,23.626783 L76.5911721,26.1110723 Z M74.7702244,15.8771571 L84.1502743,15.8771571 L84.1502743,14.1404988 L74.7702244,14.1404988 L74.7702244,15.8771571 Z M74.7702244,17.8098254 C74.7702244,18.1948628 74.7422943,18.5519701 74.7422943,18.8851372 L84.1502743,18.8851372 L84.1502743,17.2861347 L74.7702244,17.2861347 L74.7702244,17.8098254 Z M85.6405486,22.0317706 C85.9138653,22.0317706 86.0809476,22.141995 86.0809476,22.33202 L86.0809476,28.4866334 C86.0809476,28.705586 85.9138653,28.8163092 85.6405486,28.8163092 L84.5642394,28.8163092 C84.2879302,28.8163092 84.1502743,28.705586 84.1502743,28.4866334 L84.1502743,27.7390025 L76.5911721,27.7390025 L76.5911721,28.4866334 C76.5911721,28.705586 76.4530175,28.8163092 76.177207,28.8163092 L75.0729676,28.8163092 C74.7971571,28.8163092 74.6604988,28.705586 74.6604988,28.4866334 L74.6604988,22.33202 C74.6604988,22.141995 74.7971571,22.0317706 75.0729676,22.0317706 L85.6405486,22.0317706 Z M81.7223441,4.42877805 C81.8869327,4.56643392 81.9707232,4.67965087 81.9707232,4.78538653 C81.9707232,5.00882793 81.777207,5.09012469 81.4465337,5.09012469 C81.2824439,5.09012469 81.1687282,5.11955112 81.0590025,5.11955112 C81.4181047,5.61431421 81.777207,6.03177057 82.1632419,6.36144638 C82.7981546,6.96942643 83.4315711,7.4367581 84.0934165,7.76643392 C84.9497756,8.37441397 85.9976559,8.84623441 87.2400499,9.17391521 C87.4046384,9.23077307 87.4879302,9.25521197 87.4879302,9.31206983 C87.4879302,9.42229426 87.4305736,9.53102244 87.3492768,9.61630923 C86.9637406,9.92154613 86.6041397,10.2217955 86.3283292,10.497606 C86.2166085,10.6352618 86.1353117,10.6921197 86.0809476,10.6921197 C85.1412968,10.4158105 84.3712219,10.059202 83.7622444,9.67017456 C82.8794514,9.20284289 82.1083791,8.6272818 81.3916708,7.93201995 C80.894414,7.49361596 80.3422943,6.88413965 79.7901746,6.16593516 C79.2400499,6.74648379 78.7138653,7.24224439 78.2171072,7.6272818 C77.6669825,8.12653367 76.9787032,8.64972569 76.177207,9.17391521 C76.0390524,9.28413965 75.9008978,9.36842893 75.7916708,9.42229426 L83.1562594,9.42229426 C83.2939152,9.42229426 83.375212,9.53102244 83.375212,9.72703242 L83.375212,10.5828928 C83.375212,10.8023441 83.2939152,10.9125686 83.1562594,10.9125686 L75.5153616,10.9125686 C75.3482793,10.9125686 75.2939152,10.8023441 75.2939152,10.5828928 L75.2939152,9.75446384 C74.7971571,10.0841397 74.3013965,10.3594514 73.8046384,10.6352618 C72.9757107,11.0781546 72.3422943,11.3828928 71.8450374,11.574414 C71.6804489,11.574414 71.542793,11.4931172 71.4330673,11.2971072 C71.2121197,10.94 70.9353117,10.6123192 70.6315711,10.33202 C70.4385536,10.2217955 70.3572569,10.1404988 70.3572569,10.059202 C70.3572569,10.0302743 70.3841895,10.0028429 70.4664838,9.94598504 C71.5712219,9.58887781 72.5088778,9.20284289 73.2804489,8.81281796 C74.2734663,8.31755611 75.2939152,7.6601995 76.3432918,6.85620948 C77.0051372,6.36144638 77.5836908,5.86219451 78.0245885,5.39486284 C78.5218454,4.87117207 78.9617456,4.29062344 79.3482793,3.68563591 C79.4859352,3.57541147 79.5976559,3.49112219 79.706384,3.49112219 L81.7223441,4.42877805 Z M74.2440399,22.826783 C74.0250873,23.8791521 73.5846883,24.897606 72.9497756,25.9499751 C72.6191022,26.5534663 72.1477805,27.1345137 71.542793,27.7390025 C71.4051372,27.7390025 71.2954115,27.7115711 71.2405486,27.6871322 C70.9353117,27.3779052 70.6046384,27.1345137 70.2475312,26.9120698 C70.1627431,26.8018454 70.1358105,26.6886284 70.1358105,26.5534663 C70.6595012,26.0542145 71.1552618,25.3694264 71.5971571,24.4841397 C72.0116209,23.6033416 72.3138653,22.6367581 72.5353117,21.6138155 C72.7018953,20.5948628 72.8116209,19.3235411 72.8116209,17.8098254 L72.8116209,12.8731671 C72.8116209,12.6497257 72.9497756,12.5390025 73.254015,12.5390025 L85.6405486,12.5390025 C85.9138653,12.5390025 86.0809476,12.6497257 86.0809476,12.8731671 L86.0809476,20.0711721 C86.0809476,20.3714214 85.9138653,20.5090773 85.6405486,20.5090773 L74.6604988,20.5090773 C74.5487781,21.426783 74.4131172,22.1938653 74.2440399,22.826783 L74.2440399,22.826783 Z" id="Fill-31" fill="#DB0B17"></path>
            <path d="M127.954763,5.81281796 C126.986683,6.28014963 125.912369,6.64174564 124.725337,6.86069825 C123.403641,7.10758105 122.022095,7.24573566 120.643541,7.24573566 L120.643541,12.0966085 L128.947282,12.0966085 C129.169227,12.0966085 129.278454,12.2681796 129.278454,12.5434913 L129.278454,13.3973566 C129.278454,13.7000998 129.169227,13.8397506 128.947282,13.8397506 L126.465985,13.8397506 L126.465985,28.376409 C126.465985,28.5968579 126.326334,28.705586 126.051022,28.705586 L124.949776,28.705586 C124.67197,28.705586 124.536808,28.5968579 124.536808,28.376409 L124.536808,13.8397506 L120.643541,13.8397506 L120.643541,15.0237905 C120.643541,17.9230424 120.476459,20.2088279 120.202643,21.893616 C119.981696,23.3260349 119.595661,24.7350125 119.044539,26.1444888 C118.713367,26.9714214 118.301397,27.7958603 117.748778,28.5968579 C117.610623,28.5968579 117.498903,28.5679302 117.445536,28.5434913 C117.1398,28.2382544 116.810623,27.9918703 116.452519,27.7958603 C116.371222,27.6871322 116.339302,27.5494763 116.339302,27.4113217 C116.810623,26.695611 117.253516,25.7295262 117.636559,24.4871322 C117.996658,23.2173067 118.272469,21.8646883 118.439551,20.4322693 C118.603142,18.941995 118.713367,17.1484788 118.713367,15.0237905 L118.713367,5.97541147 C118.713367,5.75645885 118.851521,5.64623441 119.155761,5.64623441 L119.458005,5.64623441 C121.334314,5.61880299 122.797157,5.5080798 123.872469,5.31805486 C125.142294,5.09461347 126.298903,4.70857855 127.319352,4.15745636 C127.429077,4.0761596 127.5398,4.01780549 127.650025,4.01780549 C127.734314,4.01780549 127.845536,4.0761596 127.954763,4.18488778 C128.835561,4.95695761 129.278454,5.4272818 129.278454,5.64623441 C129.278454,5.92204489 129.169227,6.06119701 128.947282,6.06119701 L128.314863,5.75645885 C128.176209,5.75645885 128.064988,5.78389027 127.954763,5.81281796 L127.954763,5.81281796 Z M112.148778,4.01780549 C112.148778,4.26568579 112.036559,4.4038404 111.869476,4.43276808 C111.677955,4.46069825 111.596658,4.6517207 111.596658,4.98438903 L111.596658,6.83177057 L116.780698,6.83177057 C116.893416,6.83177057 116.973217,6.94199501 116.973217,7.13650873 L116.973217,8.01730673 C116.973217,8.29311721 116.893416,8.43127182 116.780698,8.43127182 L114.107382,8.43127182 L115.125835,8.84623441 C115.349776,8.95945137 115.486434,9.06917706 115.486434,9.20733167 C115.486434,9.34099751 115.404638,9.42678304 115.266983,9.47865337 C115.100399,9.47865337 114.990175,9.59187032 114.958753,9.78339152 C114.493416,11.2741646 114.024589,12.4058354 113.552768,13.2342643 C113.442544,13.4242893 113.390175,13.5105736 113.334314,13.5105736 C113.195661,13.5105736 113.058005,13.4537157 112.895411,13.3434913 C112.53581,13.1779052 112.204638,13.0153117 111.898903,12.8731671 C111.762244,12.8193017 111.708379,12.7918703 111.708379,12.7629426 C111.708379,12.7060848 111.708379,12.6537157 111.762244,12.5434913 C112.204638,11.8252868 112.53581,11.2158105 112.754763,10.6686783 C113.085935,9.94997506 113.307382,9.25970075 113.474464,8.54149626 C113.474464,8.48912718 113.497905,8.4601995 113.497905,8.43127182 L107.568229,8.43127182 C107.983192,9.25970075 108.311372,10.0073317 108.590175,10.6921197 C108.865486,11.4118204 109.113865,12.1574564 109.332818,12.9589526 C109.332818,13.0397506 108.72783,13.2342643 107.514863,13.5105736 C107.403142,13.0153117 107.23606,12.378404 106.987681,11.6312718 C106.715362,10.8068329 106.329327,9.94997506 105.886434,9.09710723 C105.886434,8.98837905 106.190673,8.7644389 106.797157,8.43127182 L104.698903,8.43127182 C104.53182,8.43127182 104.480449,8.29311721 104.480449,8.01730673 L104.480449,7.13650873 C104.480449,6.94199501 104.53182,6.83177057 104.698903,6.83177057 L109.66399,6.83177057 L109.66399,4.01780549 C109.66399,3.79885287 109.80414,3.68962594 110.080449,3.68962594 C111.457506,3.68962594 112.148778,3.79885287 112.148778,4.01780549 L112.148778,4.01780549 Z M116.339302,13.6163092 C116.561247,13.6163092 116.673466,13.7584539 116.673466,14.0337656 L116.673466,14.9150623 C116.673466,15.1908728 116.561247,15.3285287 116.339302,15.3285287 L111.486434,15.3285287 L111.486434,18.3659352 L115.787681,18.3659352 C116.008628,18.3659352 116.121347,18.503591 116.121347,18.7799002 L116.121347,19.6606983 C116.121347,19.9330175 116.008628,20.0756608 115.787681,20.0756608 L111.869476,20.0756608 C112.31187,20.6791521 112.702394,21.1504738 113.085935,21.4801496 C113.635561,22.0881297 114.602643,22.7789027 115.982195,23.5499751 C116.147282,23.6063342 116.230075,23.6871322 116.230075,23.7414963 C116.230075,23.7978554 116.147282,23.8791521 116.037057,23.9604489 C115.87197,24.2113217 115.621097,24.4597007 115.318853,24.7350125 C115.210125,24.8731671 115.100399,24.9270324 115.044539,24.9270324 C114.933317,24.9270324 114.769227,24.897606 114.602643,24.820798 C113.664988,24.2113217 112.839052,23.5220449 112.148778,22.7499751 C111.928828,22.501596 111.708379,22.2262843 111.486434,21.9504738 L111.486434,28.4866334 C111.486434,28.705586 111.348778,28.8163092 111.072968,28.8163092 L109.997656,28.8163092 C109.692918,28.8163092 109.552768,28.705586 109.552768,28.4866334 L109.552768,22.6686783 C109.444539,22.8312718 109.332818,22.9414963 109.277955,23.0547132 C108.700399,23.7978554 108.092419,24.4871322 107.459002,25.1210474 C106.715362,25.8108229 105.969227,26.3634414 105.253516,26.8582045 C105.030075,26.8582045 104.893915,26.8063342 104.781696,26.695611 C104.454015,26.3345137 104.11985,26.0312718 103.818105,25.7539651 C103.763242,25.6482294 103.733815,25.5345137 103.733815,25.4781546 C104.421596,25.0921197 104.976708,24.707581 105.415112,24.3494763 C106.079451,23.8502244 106.741297,23.1923691 107.459002,22.3365087 C107.845536,21.893616 108.368728,21.1175561 109.032569,20.0756608 L105.446534,20.0756608 C105.223092,20.0756608 105.143791,19.9330175 105.143791,19.6606983 L105.143791,18.7799002 C105.143791,18.503591 105.223092,18.3659352 105.446534,18.3659352 L109.552768,18.3659352 L109.552768,15.3285287 L105.030075,15.3285287 C104.811122,15.3285287 104.698903,15.1908728 104.698903,14.9150623 L104.698903,14.0337656 C104.698903,13.7584539 104.811122,13.6163092 105.030075,13.6163092 L116.339302,13.6163092 Z" id="Fill-33" fill="#DB0B17"></path>
            <path d="M153.330773,9.97092269 C153.440998,10.0841397 153.498853,10.1928678 153.498853,10.2741646 C153.498853,10.3554613 153.413566,10.384389 153.278404,10.384389 C153.030025,10.4407481 152.863441,10.497606 152.751721,10.5789027 C152.421047,10.9649377 152.092868,11.2941147 151.759202,11.5973566 C152.449476,12.0941147 153.054464,12.5639401 153.606584,12.9499751 C153.606584,12.9789027 153.553716,13.0357606 153.498853,13.1444888 C152.999601,13.8063342 152.751721,14.1355112 152.751721,14.1355112 C152.061945,13.5828928 151.374165,13.0587032 150.657955,12.5639401 C149.88389,13.1444888 148.946234,13.697606 147.898354,14.2487282 C147.730274,14.2487282 147.594115,14.1878803 147.538753,14.0821446 C147.237007,13.8597007 146.982643,13.6407481 146.76818,13.4447382 C146.657955,13.3928678 146.599601,13.33601 146.599601,13.2826434 C146.599601,13.2547132 146.627531,13.1983541 146.737756,13.1444888 C147.289377,12.9789027 147.757706,12.7584539 148.146733,12.5120698 C148.586633,12.259202 149.0001,11.9833915 149.386135,11.707581 C149.330773,11.707581 149.304838,11.6831421 149.304838,11.6557107 C148.312319,11.0462344 147.481895,10.6327681 146.820549,10.384389 C146.820549,10.3030923 147.04399,9.97092269 147.511322,9.41780549 C147.566185,9.36543641 147.62005,9.30907731 147.674913,9.30907731 C148.779651,9.83127182 149.716808,10.33202 150.490873,10.7704239 C150.928778,10.3554613 151.428529,9.8601995 151.926284,9.25122195 C151.977656,9.14199501 152.03601,9.09012469 152.116808,9.09012469 L153.330773,9.97092269 Z M153.330773,4.48064838 C153.440998,4.59087282 153.498853,4.70009975 153.498853,4.75795511 C153.498853,4.83775561 153.413566,4.89561097 153.278404,4.89561097 C153.030025,4.95246883 152.863441,5.00483791 152.751721,5.09012469 C152.394115,5.499601 152.03601,5.88563591 151.676409,6.21930175 C152.449476,6.71855362 153.137257,7.18588529 153.716309,7.57042394 C153.716309,7.59935162 153.661446,7.6517207 153.606584,7.76194514 C153.11182,8.4282793 152.863441,8.7559601 152.863441,8.7559601 C152.116808,8.20433915 151.344239,7.68064838 150.573666,7.18588529 C149.801097,7.76194514 148.917307,8.31356608 147.898354,8.86917706 C147.730274,8.86917706 147.594115,8.81281796 147.538753,8.70359102 C147.237007,8.48014963 146.982643,8.26119701 146.76818,8.06518703 C146.657955,8.01331671 146.599601,7.95645885 146.599601,7.90408978 C146.599601,7.84623441 146.627531,7.81880299 146.737756,7.76194514 C147.289377,7.59935162 147.757706,7.380399 148.146733,7.10009975 C148.558703,6.88114713 148.946234,6.63326683 149.277406,6.35695761 C148.281895,5.83376559 147.481895,5.44723192 146.820549,5.20084788 C146.820549,5.14249377 147.04399,4.81481297 147.511322,4.26169576 C147.566185,4.17591022 147.62005,4.1240399 147.674913,4.1240399 C148.724289,4.59087282 149.609576,5.03376559 150.381646,5.4198005 C150.876409,4.95246883 151.374165,4.39935162 151.926284,3.73800499 C151.977656,3.62877805 152.03601,3.57241895 152.116808,3.57241895 L153.330773,4.48064838 Z M155.122793,17.695611 C155.398603,17.695611 155.564688,17.7489776 155.64798,17.8053367 C156.00808,18.0816459 156.201097,18.3005985 156.201097,18.4676808 L151.512319,22.4382544 C151.455461,22.4946135 151.4001,22.5220449 151.344239,22.5220449 L151.344239,22.7704239 L161.692868,22.7704239 C161.827032,22.7704239 161.909825,22.8806484 161.909825,23.1025935 L161.909825,23.9604489 C161.909825,24.2317706 161.827032,24.3699252 161.692868,24.3699252 L151.344239,24.3699252 L151.344239,26.8542145 C151.344239,28.1499751 150.40808,28.8118204 148.558703,28.8118204 L146.820549,28.8118204 C146.71182,28.8118204 146.657955,28.6492269 146.627531,28.3155611 C146.573666,27.8741646 146.434514,27.459202 146.187631,27.0731671 C146.187631,26.907581 146.213566,26.8542145 146.294863,26.8542145 C147.237007,26.9918703 147.981147,27.0731671 148.558703,27.0731671 C149.11182,27.0731671 149.415062,26.7409975 149.415062,26.1080798 L149.415062,24.3699252 L138.628529,24.3699252 C138.490374,24.3699252 138.435511,24.2317706 138.435511,23.9604489 L138.435511,23.1025935 C138.435511,22.8806484 138.490374,22.7704239 138.628529,22.7704239 L149.415062,22.7704239 L149.415062,21.141995 C149.415062,20.9230424 149.552718,20.8138155 149.857456,20.8138155 L150.516309,21.0856359 L152.697357,19.3235411 L144.035012,19.3235411 C143.81207,19.3235411 143.704339,19.1858853 143.704339,18.8811471 L143.704339,18.0292768 C143.704339,17.8053367 143.81207,17.695611 144.035012,17.695611 L155.122793,17.695611 Z M143.427531,5.69561097 C142.905337,5.83376559 142.381147,5.91456359 141.882394,5.94199501 L141.882394,7.78937656 L145.634514,7.78937656 C145.775661,7.78937656 145.853965,7.90408978 145.853965,8.12354115 L145.853965,8.9794015 C145.853965,9.25122195 145.775661,9.39336658 145.634514,9.39336658 L141.882394,9.39336658 L141.882394,11.2402494 L145.634514,11.2402494 C145.775661,11.2402494 145.853965,11.3509726 145.853965,11.5699252 L145.853965,12.4262843 C145.853965,12.7020948 145.775661,12.8397506 145.634514,12.8397506 L141.882394,12.8397506 L141.882394,14.7973566 L158.019052,14.7973566 L158.019052,12.8397506 L154.680399,12.8397506 C154.546733,12.8397506 154.490873,12.7020948 154.490873,12.4262843 L154.490873,11.5699252 C154.490873,11.3509726 154.546733,11.2402494 154.680399,11.2402494 L158.019052,11.2402494 L158.019052,9.39336658 L154.680399,9.39336658 C154.546733,9.39336658 154.490873,9.25122195 154.490873,8.9794015 L154.490873,8.12354115 C154.490873,7.90408978 154.546733,7.78937656 154.680399,7.78937656 L158.019052,7.78937656 L158.019052,5.86219451 L154.680399,5.86219451 C154.546733,5.86219451 154.490873,5.72304239 154.490873,5.4198005 L154.490873,4.56194514 C154.490873,4.34299252 154.546733,4.23426434 154.680399,4.23426434 L159.537257,4.23426434 C159.814564,4.23426434 159.979651,4.34299252 159.979651,4.56194514 L159.979651,14.7973566 L161.799601,14.7973566 C162.075411,14.7973566 162.240499,14.9065835 162.240499,15.1025935 L162.240499,19.5429925 C162.240499,19.7619451 162.075411,19.8477307 161.799601,19.8477307 L160.727282,19.8477307 C160.448479,19.8477307 160.309327,19.7619451 160.309327,19.5429925 L160.309327,16.3968579 L139.621047,16.3968579 L139.621047,19.5429925 C139.621047,19.7619451 139.453965,19.8477307 139.179651,19.8477307 L138.102843,19.8477307 C137.799601,19.8477307 137.663441,19.7619451 137.663441,19.5429925 L137.663441,15.1025935 C137.663441,14.9065835 137.799601,14.7973566 138.102843,14.7973566 L139.925786,14.7973566 L139.925786,4.23426434 C139.925786,4.01481297 140.037506,3.90458853 140.257955,3.90458853 L141.306334,4.34299252 C142.048978,4.3155611 142.6001,4.23426434 142.98813,4.1240399 C143.704339,4.01481297 144.339252,3.71007481 144.891372,3.21082294 C144.945736,3.18638404 145.02803,3.15745636 145.110823,3.15745636 C145.19212,3.15745636 145.301845,3.21082294 145.414065,3.32004988 C146.077406,4.09610973 146.406584,4.51007481 146.406584,4.56194514 C146.406584,4.78588529 146.325786,4.86718204 146.187631,4.86718204 L145.525786,4.75795511 C144.973167,5.17142145 144.283392,5.47167082 143.427531,5.69561097 L143.427531,5.69561097 Z" id="Fill-35" fill="#DB0B17"></path>
            <path d="M191.725037,11.4683791 C191.946983,11.4683791 192.055711,11.6060349 192.055711,11.8823441 L192.055711,12.7631421 C192.055711,13.0429426 191.946983,13.1810973 191.725037,13.1810973 L183.644738,13.1810973 C183.4198,13.1810973 183.31207,13.0429426 183.31207,12.7631421 L183.31207,11.8823441 C183.31207,11.6060349 183.4198,11.4683791 183.644738,11.4683791 L191.725037,11.4683791 Z M188.94,3.90927681 C188.94,4.16014963 188.828279,4.29830424 188.662693,4.32274314 C188.470175,4.35167082 188.388878,4.54618454 188.388878,4.87586035 L188.388878,6.50379052 L194.952469,6.50379052 C195.226783,6.50379052 195.392369,6.6125187 195.392369,6.8359601 L195.392369,11.8823441 C195.392369,12.1052868 195.226783,12.21601 194.952469,12.21601 L193.876658,12.21601 C193.601845,12.21601 193.464688,12.1052868 193.464688,11.8823441 L193.464688,8.21201995 L181.930524,8.21201995 L181.930524,11.8823441 C181.930524,12.1052868 181.765436,12.21601 181.491122,12.21601 L180.417307,12.21601 C180.111072,12.21601 179.974414,12.1052868 179.974414,11.8823441 L179.974414,6.94219451 C179.974414,6.66937656 180.111072,6.50379052 180.417307,6.50379052 L186.455711,6.50379052 L186.455711,3.90927681 C186.455711,3.68982544 186.593865,3.579601 186.870673,3.579601 C188.252219,3.579601 188.94,3.68982544 188.94,3.90927681 L188.94,3.90927681 Z M194.840249,16.5187531 C195.063691,16.5187531 195.174414,16.6808479 195.174414,16.9611471 L195.174414,17.8130175 C195.174414,18.1177556 195.063691,18.2514214 194.840249,18.2514214 L190.75995,18.2514214 L190.75995,25.787581 C190.75995,26.0908229 190.813317,26.2254863 190.978903,26.2254863 L193.574913,26.2254863 C193.903092,26.2254863 194.208329,25.2913217 194.539002,23.4165087 L196.249726,24.4873317 C195.641746,26.8628928 194.924539,28.0484289 194.096608,28.0484289 L190.206833,28.0484289 C189.269676,28.0484289 188.828279,27.6055362 188.828279,26.7496758 L188.828279,18.2514214 L186.346983,18.2514214 C186.317556,19.4135162 186.291122,20.3786035 186.236259,21.1781047 C186.124539,22.173616 185.935012,23.054414 185.680648,23.854414 C185.408329,24.6833416 185.023292,25.425985 184.496608,26.1152618 C183.946484,26.7771072 183.284638,27.3576559 182.511072,27.8539152 C181.847731,28.1865835 181.105087,28.4908229 180.305586,28.8190025 C180.111072,28.8190025 180.000848,28.7097756 179.974414,28.4908229 C179.699102,28.1297257 179.449227,27.7192519 179.201347,27.2763591 C179.145985,27.1676309 179.118554,27.0574065 179.118554,26.9716209 C180.222793,26.6958105 181.105087,26.3636409 181.765436,26.0339651 C182.264688,25.7581546 182.70409,25.3446883 183.033766,24.7920698 C183.31207,24.4055362 183.558953,23.9357107 183.780898,23.3591521 C184.000349,22.7501746 184.165935,22.0070324 184.28015,21.1781047 C184.333017,20.5137656 184.387382,19.5222444 184.387382,18.2514214 L181.158454,18.2514214 C180.938005,18.2514214 180.856708,18.1177556 180.856708,17.8130175 L180.856708,16.9611471 C180.856708,16.6808479 180.938005,16.5187531 181.158454,16.5187531 L194.840249,16.5187531 Z M173.518055,28.2673815 C173.518055,28.4908229 173.350973,28.5970574 173.075162,28.5970574 L172.002843,28.5970574 C171.726035,28.5970574 171.589377,28.4908229 171.589377,28.2673815 L171.589377,4.87586035 C171.589377,4.60254364 171.726035,4.460399 172.002843,4.460399 L177.933017,4.460399 C178.374913,4.460399 178.675661,4.54618454 178.815312,4.65640898 C179.230274,5.09880299 179.449227,5.45591022 179.449227,5.75665835 L176.883641,12.6539152 C176.854713,12.7631421 176.854713,12.8728678 176.854713,12.9586534 C176.854713,13.0429426 176.883641,13.1242394 176.966434,13.2344638 C178.015312,14.5042893 178.788878,15.7436908 179.311571,16.9611471 C179.750973,18.1711222 179.974414,19.3032918 179.974414,20.4080299 C179.974414,22.0070324 179.725037,23.1925686 179.230274,23.9062843 C178.649726,24.9062843 177.710075,25.3726185 176.416309,25.3726185 C175.586384,25.3726185 175.175411,25.2070324 175.175411,24.8484289 C175.088628,24.4594015 174.982893,24.0209975 174.817307,23.5217456 C174.817307,23.2494264 174.842743,23.106783 174.925536,23.106783 L176.416309,23.3032918 C177.078155,23.3032918 177.519052,23.054414 177.684638,22.5017955 C177.851721,21.979601 177.933017,21.2075312 177.933017,20.1840898 C177.933017,19.2469327 177.684638,18.1990524 177.188379,17.098803 C176.636758,15.8000499 175.835761,14.585586 174.75995,13.4579052 C174.650224,13.343192 174.593367,13.262394 174.593367,13.1810973 C174.593367,13.1242394 174.623791,12.9860848 174.679152,12.7631421 L177.271172,6.17461347 L173.518055,6.17461347 L173.518055,28.2673815 Z" id="Fill-37" fill="#DB0B17"></path>
            <path d="M6.06294264,4.99311721 L26.3696758,4.99311721 C26.5691771,4.99311721 26.6689277,5.10633416 26.6689277,5.33825436 L26.6689277,6.38214464 C26.6689277,6.68239401 26.5691771,6.83600998 26.3696758,6.83600998 L17.2335162,6.83600998 C17.197606,6.97815461 17.1686783,7.11581047 17.1527182,7.24249377 C17.0789027,9.65745636 16.8988529,11.7367581 16.6085786,13.478404 L27.4539651,13.478404 C27.6529676,13.478404 27.7522195,13.5871322 27.7522195,13.8060848 L27.7522195,14.9063342 C27.7522195,15.1836409 27.6529676,15.3212968 27.4539651,15.3212968 L17.205586,15.3212968 C17.8754115,16.9118204 18.4634414,18.1222943 18.9691771,18.9537157 C19.5816459,20.0215461 20.3676808,21.0130673 21.3277805,21.9342643 C21.886384,22.5467332 22.7626933,23.282394 23.9562095,24.1302743 C24.7706733,24.638005 25.7103242,25.1372569 26.7761596,25.6205486 C27.2818953,25.7876309 27.878404,25.9821446 28.5661845,26.2170574 C28.7636908,26.2170574 28.8649377,26.282394 28.8649377,26.4085786 C28.8649377,26.5711721 28.7736658,26.7163092 28.5931172,26.8424938 C28.2679302,27.24 27.9517207,27.6100748 27.6424938,27.9557107 C27.5173067,28.1367581 27.3362594,28.2225436 27.1003491,28.2225436 C25.4749127,27.6305237 24.038005,26.8873815 22.7911222,26.0025935 C21.6524688,25.1896259 20.7387531,24.4235411 20.0534663,23.6963591 C19.1133167,22.7222943 18.2988529,21.6614464 17.6135661,20.5252868 C17.0529676,19.5676808 16.474414,18.4310224 15.8774065,17.1108229 C15.8409975,17.2529676 15.8065835,17.3791521 15.7701746,17.4893766 C15.3537157,18.8085786 14.8918703,19.9357606 14.3881297,20.8779052 C13.7906234,22.124788 12.995611,23.2449875 12.0005985,24.24 C11.2779052,24.9427431 10.4559601,25.6045885 9.53426434,26.2170574 C8.45047382,27.0325187 7.08389027,27.7347631 5.43950125,28.3327681 C5.29386534,28.3327681 5.15970075,28.2429925 5.03401496,28.0644389 C4.74374065,27.718803 4.4005985,27.3577057 4.00309227,26.9801496 C3.85895262,26.834015 3.78563591,26.7522195 3.78563591,26.7317706 C3.78563591,26.6275312 3.84049875,26.5711721 3.94822943,26.5711721 C5.59461347,25.9367581 6.73127182,25.4260349 7.36418953,25.0270324 C8.30433915,24.5003491 9.20708229,23.8250374 10.076409,22.9941147 C11.0140648,22.1781546 11.8020948,21.1961097 12.4345137,20.038005 C13.0848878,18.9711721 13.5736658,17.8335162 13.8988529,16.6200499 C14.0609476,16.2065835 14.1871322,15.7711721 14.278404,15.3212968 L4.86942643,15.3212968 C4.67042394,15.3212968 4.57316708,15.1836409 4.57316708,14.9063342 L4.57316708,13.8060848 C4.57316708,13.5871322 4.67042394,13.478404 4.86942643,13.478404 L14.6030923,13.478404 C14.6210474,13.3681796 14.6310224,13.2709227 14.6310224,13.1781546 C14.8669327,11.8544638 14.9821446,9.73875312 14.9821446,6.83600998 L6.06294264,6.83600998 C5.8644389,6.83600998 5.76468828,6.68239401 5.76468828,6.38214464 L5.76468828,5.33825436 C5.76468828,5.10633416 5.8644389,4.99311721 6.06294264,4.99311721" id="Fill-39" fill="#DB0B17"></path>
            <path d="M37.4534663,4.88279302 L61.7452369,4.88279302 C61.9801496,4.88279302 62.0978554,4.99301746 62.0978554,5.20349127 L62.0978554,6.27182045 C62.0978554,6.5765586 61.9801496,6.72568579 61.7452369,6.72568579 L50.3856359,6.72568579 L50.3856359,12.1750623 C52.3183042,13.1895262 53.9193017,14.1197007 55.1841397,14.9670823 C56.7392519,16.0718204 58.0584539,17.0743142 59.1422444,17.9800499 C59.1422444,18.0119701 59.0878803,18.1062344 58.9796509,18.2483791 C58.3282793,19.1700748 57.9851372,19.6329177 57.9487282,19.6329177 C56.2684289,18.1875312 54.4873815,16.8638404 52.6085786,15.6738155 C51.7941147,15.1660848 51.0534663,14.7436409 50.3856359,14.4 L50.3856359,28.6334165 C50.3856359,28.8523691 50.1951122,28.9566085 49.8150623,28.9566085 L48.7312718,28.9566085 C48.3881297,28.9566085 48.2155611,28.8523691 48.2155611,28.6334165 L48.2155611,6.72568579 L37.4534663,6.72568579 C37.2355112,6.72568579 37.1282793,6.5765586 37.1282793,6.27182045 L37.1282793,5.20349127 C37.1282793,4.99301746 37.2355112,4.88279302 37.4534663,4.88279302" id="Fill-41" fill="#DB0B17"></path>
        </g>
    </g>
</svg>