<?xml version="1.0" encoding="utf-8"?>
<!-- Generator: Adobe Illustrator 24.1.2, SVG Export Plug-In . SVG Version: 6.00 Build 0)  -->
<svg version="1.1" id="圖層_1" xmlns="http://www.w3.org/2000/svg" xmlns:xlink="http://www.w3.org/1999/xlink" x="0px" y="0px"
	 viewBox="0 0 237 158" style="enable-background:new 0 0 237 158;" xml:space="preserve">
<style type="text/css">
	.st0{fill-rule:evenodd;clip-rule:evenodd;fill:#FFFFFF;stroke:#D3D5D7;}
	.st1{fill-rule:evenodd;clip-rule:evenodd;fill:#3C00B4;}
	.st2{filter:url(#Adobe_OpacityMaskFilter);}
	.st3{fill-rule:evenodd;clip-rule:evenodd;fill:#FFFFFF;}
	.st4{mask:url(#mask-2_1_);fill-rule:evenodd;clip-rule:evenodd;fill:#3C00B4;}
	.st5{filter:url(#Adobe_OpacityMaskFilter_1_);}
	.st6{mask:url(#mask-4_1_);fill-rule:evenodd;clip-rule:evenodd;fill:#3C00B4;}
	.st7{filter:url(#Adobe_OpacityMaskFilter_2_);}
	.st8{mask:url(#mask-4_2_);fill-rule:evenodd;clip-rule:evenodd;fill:#3C00B4;}
	.st9{filter:url(#Adobe_OpacityMaskFilter_3_);}
	.st10{mask:url(#mask-4_3_);fill-rule:evenodd;clip-rule:evenodd;fill:#3C00B4;}
</style>
<g id="_x34_-1-4">
	<polygon id="Fill-1_1_" class="st0" points="0,158 237,158 237,0 0,0 	"/>
	<g id="Group-34" transform="translate(39.000000, 45.000000)">
		<path id="Fill-1" class="st1" d="M36.1,21.5H22.4c1.9,2.6,4.1,5,6.7,7c2.4,2.1,5.2,3.8,8.1,5.1c-1,1-1.9,2.1-2.7,3.3
			c-2.7-1.4-5.2-3.2-7.4-5.2c-2.4-2.2-4.6-4.6-6.5-7.2v14.4h-3.9V24.7c-1.9,2.5-4.1,4.9-6.5,6.9c-2.3,2-4.8,3.7-7.4,5.2
			C1.9,35.6,1,34.6,0,33.6c2.9-1.3,5.6-3.1,8.1-5.1c2.5-2,4.7-4.4,6.6-7H1.2v-3.8h15.4v-6.2H4V7.7h12.6V1.2h3.9v6.5h12.9v3.8H20.5
			v6.2h15.7V21.5z"/>
		<path id="Fill-3" class="st1" d="M49.2,11l3.6,0.7c-0.4,1.6-0.9,3.1-1.5,4.7c1.5,1.3,2.9,2.6,4.2,4.1L53,23.1
			c-1-1.2-2.1-2.4-3.3-3.5c-1.2,2.3-2.9,4.3-4.8,6.1c-0.8-1-1.8-1.8-2.8-2.5C45.5,20.5,47.9,16.5,49.2,11 M76.9,22.2l-2.6,2.6
			c-1.8-1.9-3.7-3.7-5.8-5.3c-0.8,1.5-1.9,2.9-3.1,4.2c-0.9-0.8-1.9-1.4-3-1.9c1.9,2.7,4.2,5.1,6.8,7.1c2.6,2.1,5.5,3.7,8.6,4.9
			c-1.1,1-2.1,2.1-2.8,3.5c-5.5-2.6-10.2-6.5-13.9-11.4v13.1h-3.9v-13c-3.6,4.8-8.4,8.6-13.8,11.3C42.9,36,42,34.9,41,33.9
			c3.4-1.4,6.5-3.4,9.3-5.7c2.8-2.3,5.2-5,7.1-8.1v-9.8H42.5V6.6h14.9V1.2h3.9v5.4h15.3v3.7H61.2v9.6c0.3,0.6,0.7,1.2,1.1,1.8
			c2.6-2.4,4.5-5.9,5.4-10.6l3.6,0.6c-0.3,1.6-0.8,3.1-1.4,4.6C72.4,18.1,74.7,20.1,76.9,22.2"/>
		<path id="Fill-5" class="st1" d="M114.4,15l3.3,0.6c-1.1,4.9-2.9,9.6-5.5,13.9c0.9,3.6,1.9,5.5,2.9,5.5c0.7,0,1.1-2.2,1.2-6.5
			c0.7,0.9,1.6,1.5,2.6,2c-0.2,3.1-0.6,5.2-1.2,6.3c-0.6,1.1-1.8,1.8-3,1.7c-1.9,0-3.6-1.8-4.9-5.4c-1.8,2.2-3.9,4.2-6.2,5.8
			c-0.7-1-1.6-1.9-2.6-2.6c3-1.9,5.6-4.4,7.7-7.3c-1.1-6-1.7-12.1-1.9-18.3h-8.6v5h7.3c0,0.6,0,1.1,0,1.4c-0.1,4.9-0.1,8.3-0.3,10.2
			c0,1.3-0.2,2.5-0.7,3.7c-0.5,0.7-1.3,1.1-2.1,1.2c-1.1,0.1-2.3,0.2-3.5,0.1C98.8,31.1,98.5,30,98,29c0.9,0.1,1.8,0.2,2.7,0.2
			c0.4,0,0.8-0.2,1-0.5c0.3-0.5,0.5-3.8,0.6-9.9h-4.1v1.4c0,8.7-1.7,14.9-5,18.8c-0.4-0.5-0.8-0.9-1.3-1.3c-0.5-0.4-1-0.8-1.5-1.1
			c1.8-2.2,3-4.8,3.5-7.5c-0.4,0.2-4,1.7-10.8,4.5l-1.2-3.8c0.8-0.3,2.3-0.8,4.4-1.6V14.6h-3.9v-3.5h3.9V1.7h3.4v9.4h3.5v3.5h-3.5
			V27l3.5-1.3L94,29c0.6-2.9,0.8-5.9,0.8-8.9v-13h11.9c-0.1-2-0.1-4-0.1-6.1h3.5c0,1.4,0,3.4,0,6.1h4.4c-1.2-1.6-2.5-3-3.9-4.4
			l2.6-1.6c1.7,1.3,3.1,2.9,4.3,4.7l-1.9,1.3h2.7v3.5h-8c0.2,4.7,0.6,9.2,1.1,13.5C112.7,21.2,113.7,18.2,114.4,15"/>
		<g id="Group-9" transform="translate(122.767296, 0.817107)">
			<g id="Clip-8">
			</g>
			<defs>
				<filter id="Adobe_OpacityMaskFilter" filterUnits="userSpaceOnUse" x="0.5" y="0.2" width="35.8" height="38">
					<feColorMatrix  type="matrix" values="1 0 0 0 0  0 1 0 0 0  0 0 1 0 0  0 0 0 1 0"/>
				</filter>
			</defs>
			<mask maskUnits="userSpaceOnUse" x="0.5" y="0.2" width="35.8" height="38" id="mask-2_1_">
				<g class="st2">
					<polygon id="path-1_1_" class="st3" points="0.5,0.2 36.2,0.2 36.2,38.2 0.5,38.2 					"/>
				</g>
			</mask>
			<path id="Fill-7" class="st4" d="M36.2,9.5H20.1v5h12.6v14.1c0,2-0.6,3.3-1.9,3.8c-1.1,0.4-3.4,0.6-7,0.6
				c-0.2-1.3-0.6-2.6-1.2-3.8c1.1,0.1,2.2,0.1,3.3,0.1c1.1,0,1.8,0,2.1,0c0.2,0,0.5-0.1,0.7-0.2c0.1-0.2,0.2-0.4,0.2-0.6V18.2h-8.8
				v19.9h-3.8V18.2H8.1v14.9H4.4V14.5h11.9v-5H0.5V5.8h15.8V0.2h3.9v5.6h16.1L36.2,9.5L36.2,9.5z"/>
		</g>
		<path id="Fill-10" class="st1" d="M116.7,57.4c0.7-0.1,1.2-0.5,1.6-1l0.5-2.9c-0.2-0.4-0.6-0.7-1.1-0.7c-0.7,0-1.3,0.4-1.6,1
			c-0.4,0.6-0.6,1.4-0.6,2.1C115.4,56.9,115.8,57.4,116.7,57.4 M116.9,62.9c-1.2,0-2.3-0.2-3.4-0.8c-1-0.5-1.9-1.4-2.4-2.4
			c-0.6-1.2-1-2.5-0.9-3.9c0-1.2,0.2-2.4,0.6-3.5c0.4-1,1-2,1.7-2.7c0.7-0.7,1.6-1.3,2.6-1.7c1-0.4,2-0.6,3.1-0.6
			c1.7-0.1,3.4,0.6,4.6,1.8c1.6,1.9,2.1,4.6,1.3,7c-0.2,0.6-0.5,1.2-0.9,1.6c-0.4,0.4-0.8,0.7-1.2,1c-0.4,0.2-0.9,0.3-1.4,0.3
			c-0.5,0-0.9-0.1-1.3-0.4c-0.4-0.3-0.6-0.6-0.7-1.1h0c-0.3,0.4-0.6,0.7-1.1,1c-0.4,0.2-0.8,0.4-1.2,0.4c-0.6,0-1.3-0.3-1.7-0.8
			c-0.5-0.6-0.7-1.3-0.6-2c0-1.1,0.4-2.2,1-3.1c0.6-0.9,1.5-1.4,2.6-1.4c0.6,0,1.2,0.3,1.5,0.9h0l0.2-0.8h1.2l-0.8,4
			c-0.3,1.4,0,2.1,1,2.1c0.7,0,1.3-0.4,1.7-1.1c0.5-0.8,0.8-1.8,0.7-2.8c0.1-1.4-0.4-2.8-1.3-3.9c-1-1-2.4-1.6-3.8-1.5
			c-0.8,0-1.7,0.2-2.4,0.5c-0.8,0.4-1.5,0.8-2.1,1.5c-0.6,0.7-1.1,1.5-1.5,2.3c-0.4,1-0.6,2-0.6,3c-0.1,1.6,0.5,3.1,1.6,4.3
			c1.1,1,2.5,1.6,4,1.5c1,0,2.1-0.3,3-0.8l0.5,1.2C119.4,62.6,118.2,62.9,116.9,62.9"/>
		<path id="Fill-12" class="st1" d="M141.2,55.2h-5.7c0.9,3.1,3.5,5.5,6.6,6.1c-0.4,0.5-0.8,1-1,1.5c-1.5-0.4-2.9-1.1-4-2.1
			c-1.1-1.1-2-2.3-2.6-3.8c-0.9,2.7-3.2,4.7-6.8,5.9c-0.1-0.3-0.2-0.5-0.4-0.7c-0.2-0.2-0.3-0.5-0.5-0.7c1-0.3,1.9-0.7,2.8-1.3
			c0.7-0.4,1.4-0.9,1.9-1.6c0.4-0.5,0.8-1.1,1.1-1.7c0.3-0.6,0.5-1.2,0.6-1.8h-5.6v-1.6h5.8c0-0.2,0-0.4,0-0.8V50h-6.3v-1.6h14.5V50
			H135v2.9c0,0.3,0,0.6,0,0.7h6.2L141.2,55.2L141.2,55.2z"/>
		<path id="Fill-14" class="st1" d="M158.7,50h-6.9v2.9l0.3-0.4c1,0.5,2,1.1,3.2,1.7c0.9,0.5,1.8,1.1,2.6,1.7l-1.1,1.5
			c-1.5-1.2-3.2-2.3-4.9-3.3v8.6h-1.7V50H144v-1.6h14.7L158.7,50L158.7,50z"/>
		<polygon id="Fill-16" class="st1" points="3.7,47.1 11.7,47.1 11.7,49 5.8,49 5.8,53.2 11.7,53.2 11.7,55.1 5.8,55.1 5.8,62.2 
			3.7,62.2 		"/>
		<path id="Fill-18" class="st1" d="M20.1,62.2v-1.3c-0.4,0.4-0.9,0.8-1.4,1.1c-0.5,0.2-1,0.4-1.6,0.4c-0.6,0-1.2-0.2-1.7-0.5
			c-0.5-0.3-0.9-0.7-1.2-1.3c-0.3-0.9-0.5-1.8-0.4-2.7v-5.7h2v5.7c-0.1,0.8,0.1,1.5,0.4,2.2c0.4,0.5,1,0.7,1.6,0.6
			c1,0,1.9-0.5,2.4-1.4v-7.1h2v9.9H20.1z"/>
		<path id="Fill-20" class="st1" d="M23.4,53.8l3.7-3.6v2.1h3.1V54h-3.1v4.9c0,1.1,0.5,1.7,1.4,1.7c0.8,0,1.6-0.3,2.2-0.7v1.8
			c-0.8,0.4-1.6,0.6-2.5,0.6c-0.8,0-1.6-0.3-2.2-0.8c-0.2-0.2-0.3-0.3-0.5-0.5c-0.1-0.2-0.2-0.5-0.3-0.8c-0.1-0.6-0.1-1.2-0.1-1.8
			V54h-1.7V53.8z"/>
		<path id="Fill-22" class="st1" d="M38.6,62.2v-1.3c-0.4,0.4-0.9,0.8-1.4,1.1c-0.5,0.2-1.1,0.4-1.6,0.4c-0.6,0-1.2-0.2-1.7-0.5
			c-0.5-0.3-0.9-0.7-1.2-1.3c-0.3-0.9-0.5-1.8-0.4-2.7v-5.7h2v5.7c-0.1,0.8,0.1,1.5,0.4,2.2c0.4,0.5,1,0.7,1.6,0.6
			c1,0,1.9-0.5,2.4-1.4v-7.1h2v9.9H38.6z"/>
		<path id="Fill-24" class="st1" d="M45.4,52.2v2.3l0.1-0.2c0.9-1.5,1.9-2.3,2.9-2.3c0.9,0.1,1.7,0.5,2.3,1.1l-1,1.7
			c-0.5-0.6-1.2-0.9-1.9-1c-0.7,0-1.3,0.4-1.6,0.9c-0.5,0.6-0.7,1.4-0.7,2.2v5.2h-2v-9.9H45.4z"/>
		<path id="Fill-26" class="st1" d="M53.1,56.2h5c0-0.7-0.3-1.3-0.7-1.8c-0.4-0.4-1.1-0.7-1.7-0.6c-0.6,0-1.3,0.2-1.7,0.6
			C53.5,54.9,53.2,55.5,53.1,56.2L53.1,56.2z M60.1,57.4h-7c0,0.9,0.4,1.7,1,2.3c0.6,0.6,1.4,0.9,2.3,0.8c1.3,0,2.6-0.4,3.6-1.2v1.9
			c-0.6,0.4-1.2,0.7-1.8,0.9c-0.7,0.2-1.4,0.3-2.1,0.3c-0.9,0-1.9-0.2-2.7-0.7c-0.7-0.5-1.2-1.1-1.6-1.8c-0.4-0.8-0.6-1.7-0.6-2.7
			c-0.1-1.3,0.4-2.7,1.3-3.7c0.9-0.9,2.1-1.5,3.3-1.4c1.2,0,2.4,0.5,3.2,1.4c0.8,1.1,1.2,2.4,1.2,3.7V57.4z"/>
		<path id="Fill-28" class="st1" d="M81.6,58.7V61c-1.7,0.9-3.6,1.3-5.5,1.3c-1.5,0-3-0.3-4.3-1c-1.2-0.7-2.1-1.6-2.8-2.8
			c-0.7-1.2-1-2.5-1-3.9c0-2.1,0.8-4.1,2.4-5.5c1.6-1.5,3.6-2.3,5.8-2.2c1.8,0.1,3.6,0.5,5.3,1.2v2.3c-1.6-0.9-3.3-1.5-5.2-1.5
			c-1.6-0.1-3.1,0.5-4.3,1.6c-2.3,2.2-2.3,5.9,0,8.2c0,0,0,0,0,0c1.2,1.1,2.7,1.7,4.3,1.6C78.2,60.3,80.1,59.7,81.6,58.7"/>
		<g id="Clip-31">
		</g>
		<defs>
			<filter id="Adobe_OpacityMaskFilter_1_" filterUnits="userSpaceOnUse" x="83.9" y="48" width="2.3" height="14.1">
				<feColorMatrix  type="matrix" values="1 0 0 0 0  0 1 0 0 0  0 0 1 0 0  0 0 0 1 0"/>
			</filter>
		</defs>
		<mask maskUnits="userSpaceOnUse" x="83.9" y="48" width="2.3" height="14.1" id="mask-4_1_">
			<g class="st5">
				<polygon id="path-3_1_" class="st3" points="0,67.2 159,67.2 159,1 0,1 				"/>
			</g>
		</mask>
		<path id="Fill-30" class="st6" d="M84.1,62.2h2v-9.9h-2V62.2z M85.1,48c0.3,0,0.6,0.1,0.8,0.3c0.2,0.2,0.4,0.5,0.3,0.8
			c0,0.3-0.1,0.6-0.3,0.8c-0.2,0.2-0.5,0.4-0.8,0.3c-0.3,0-0.6-0.1-0.8-0.4c-0.2-0.2-0.3-0.5-0.3-0.8c0-0.3,0.1-0.6,0.3-0.8
			C84.5,48.2,84.8,48,85.1,48L85.1,48z"/>
		<defs>
			<filter id="Adobe_OpacityMaskFilter_2_" filterUnits="userSpaceOnUse" x="87.5" y="50.2" width="7.4" height="12.2">
				<feColorMatrix  type="matrix" values="1 0 0 0 0  0 1 0 0 0  0 0 1 0 0  0 0 0 1 0"/>
			</filter>
		</defs>
		<mask maskUnits="userSpaceOnUse" x="87.5" y="50.2" width="7.4" height="12.2" id="mask-4_2_">
			<g class="st7">
				<polygon id="path-3_2_" class="st3" points="0,67.2 159,67.2 159,1 0,1 				"/>
			</g>
		</mask>
		<path id="Fill-32" class="st8" d="M87.5,53.8l3.7-3.6v2.1h3.1V54h-3.1v4.9c0,1.1,0.5,1.7,1.4,1.7c0.8,0,1.6-0.3,2.2-0.7v1.8
			c-0.8,0.4-1.6,0.6-2.5,0.6c-0.8,0-1.6-0.3-2.2-0.8c-0.2-0.2-0.3-0.3-0.5-0.5c-0.1-0.2-0.2-0.5-0.3-0.8c-0.1-0.6-0.1-1.2-0.1-1.8
			V54h-1.7V53.8z"/>
		<defs>
			<filter id="Adobe_OpacityMaskFilter_3_" filterUnits="userSpaceOnUse" x="94.9" y="52.2" width="9.7" height="15">
				<feColorMatrix  type="matrix" values="1 0 0 0 0  0 1 0 0 0  0 0 1 0 0  0 0 0 1 0"/>
			</filter>
		</defs>
		<mask maskUnits="userSpaceOnUse" x="94.9" y="52.2" width="9.7" height="15" id="mask-4_3_">
			<g class="st9">
				<polygon id="path-3_3_" class="st3" points="0,67.2 159,67.2 159,1 0,1 				"/>
			</g>
		</mask>
		<polygon id="Fill-33" class="st10" points="102.4,52.2 104.6,52.2 97.5,67.2 95.3,67.2 98.7,60 94.9,52.2 97.1,52.2 99.8,57.8 		
			"/>
	</g>
</g>
</svg>
