<?xml version="1.0" encoding="UTF-8"?>
<svg width="237px" height="158px" viewBox="0 0 237 158" version="1.1" xmlns="http://www.w3.org/2000/svg" xmlns:xlink="http://www.w3.org/1999/xlink">
    <title>4-1-1</title>
    <defs>
        <polygon id="path-1" points="0 64.7010937 199.609375 64.7010937 199.609375 0.0003125 0 0.0003125"></polygon>
    </defs>
    <g id="4-1-1" stroke="none" stroke-width="1" fill="none" fill-rule="evenodd">
        <rect id="Rectangle-Copy-2" fill="#000000" x="0" y="0" width="237" height="158"></rect>
        <g id="Group-44" transform="translate(19.000000, 47.000000)">
            <path d="M199.609375,64.7008594 C184.075,45.8649219 145.248437,32.5133594 99.8046875,32.5133594 C54.3609375,32.5133594 15.5351562,45.8649219 0,64.7008594 C14.4015625,44.5203906 53.64375,30.0407031 99.8046875,30.0407031 C145.966406,30.0407031 185.208594,44.5203906 199.609375,64.7008594 Z" id="Fill-1" fill="#E79012"></path>
            <mask id="mask-2" fill="white">
                <use xlink:href="#path-1"></use>
            </mask>
            <g id="Clip-4"></g>
            <polygon id="Fill-3" fill="#FFFFFF" mask="url(#mask-2)" points="76.496875 23.5432812 77.2929688 23.5432812 77.2929688 0.56203125 76.496875 0.56203125"></polygon>
            <polygon id="Fill-5" fill="#FFFFFF" mask="url(#mask-2)" points="82.6492188 17.2401562 83.4445312 17.2401562 83.4445312 7.46203125 82.6492188 7.46203125"></polygon>
            <polygon id="Fill-6" fill="#FFFFFF" mask="url(#mask-2)" points="79.7296875 16.801875 80.525 16.801875 80.525 6.4815625 79.7296875 6.4815625"></polygon>
            <polygon id="Fill-7" fill="#FFFFFF" mask="url(#mask-2)" points="85.93125 16.801875 86.7273438 16.801875 86.7273438 6.4815625 85.93125 6.4815625"></polygon>
            <polygon id="Fill-8" fill="#FFFFFF" mask="url(#mask-2)" points="74.9726562 5.8628125 80.0390625 5.8628125 80.0390625 5.0675 74.9726562 5.0675"></polygon>
            <polygon id="Fill-9" fill="#FFFFFF" mask="url(#mask-2)" points="83.2923438 7.58203125 82.555625 7.28125 84.5689062 2.34375 85.305625 2.64375"></polygon>
            <polygon id="Fill-10" fill="#FFFFFF" mask="url(#mask-2)" points="80.1609375 7.73078125 86.2804687 7.73078125 86.2804687 6.93546875 80.1609375 6.93546875"></polygon>
            <polygon id="Fill-11" fill="#FFFFFF" mask="url(#mask-2)" points="78.3820313 17.4776563 87.89375 17.4776563 87.89375 16.6823438 78.3820313 16.6823438"></polygon>
            <polygon id="Fill-12" fill="#FFFFFF" mask="url(#mask-2)" points="74.5346094 22.58375 74.8588281 21.8571875 76.9744531 22.8009375 76.6502344 23.5275"></polygon>
            <polygon id="Fill-13" fill="#FFFFFF" mask="url(#mask-2)" points="75.2227344 15.8874219 74.6282031 15.3592969 78.2071094 11.3327344 78.8016406 11.8616406"></polygon>
            <polygon id="Fill-14" fill="#FFFFFF" mask="url(#mask-2)" points="80.1376563 6.16335937 79.4079688 5.84539063 81.8189063 0.314140625 82.5485938 0.632109375"></polygon>
            <polygon id="Fill-15" fill="#FFFFFF" mask="url(#mask-2)" points="81.2640625 3.63703125 84.7117187 3.63703125 84.7117187 2.8409375 81.2640625 2.8409375"></polygon>
            <path d="M84.2803906,11.4799219 C84.5921094,11.4799219 84.8444531,11.6236719 84.8444531,11.8002344 C84.8444531,11.9767969 84.5921094,12.1205469 84.2803906,12.1205469 C83.9694531,12.1205469 83.7163281,11.9767969 83.7163281,11.8002344 C83.7163281,11.6236719 83.9694531,11.4799219 84.2803906,11.4799219" id="Fill-16" fill="#FFFFFF" mask="url(#mask-2)"></path>
            <polygon id="Fill-17" fill="#FFFFFF" mask="url(#mask-2)" points="83.5334375 17.0875 79.1795313 23.7125 78.5146875 23.2765625 82.581875 17.0875"></polygon>
            <polygon id="Fill-18" fill="#FFFFFF" mask="url(#mask-2)" points="82.6801563 17.0875 87.0340625 23.7125 87.6989063 23.2765625 83.6325 17.0875"></polygon>
            <polygon id="Fill-19" fill="#FFFFFF" mask="url(#mask-2)" points="112.795313 23.2284375 113.590625 23.2284375 113.590625 13.064375 112.795313 13.064375"></polygon>
            <polygon id="Fill-20" fill="#FFFFFF" mask="url(#mask-2)" points="120.191406 23.2284375 120.9875 23.2284375 120.9875 10.5214062 120.191406 10.5214062"></polygon>
            <polygon id="Fill-21" fill="#FFFFFF" mask="url(#mask-2)" points="117.50625 11.1378125 118.302344 11.1378125 118.302344 3.470625 117.50625 3.470625"></polygon>
            <polygon id="Fill-22" fill="#FFFFFF" mask="url(#mask-2)" points="122.4625 11.1378125 123.258594 11.1378125 123.258594 3.470625 122.4625 3.470625"></polygon>
            <polygon id="Fill-23" fill="#FFFFFF" mask="url(#mask-2)" points="109.883125 18.8445313 109.287813 18.3164062 112.866719 14.2898437 113.462031 14.8179687"></polygon>
            <polygon id="Fill-24" fill="#FFFFFF" mask="url(#mask-2)" points="121.328359 12.8150781 120.589297 13.1103906 124.336953 22.4822656 125.075234 22.1869531"></polygon>
            <polygon id="Fill-25" fill="#FFFFFF" mask="url(#mask-2)" points="119.850547 12.8150781 120.589609 13.1103906 116.841953 22.4822656 116.103672 22.1869531"></polygon>
            <polygon id="Fill-26" fill="#FFFFFF" mask="url(#mask-2)" points="112.242891 6.38804687 111.513984 6.07007813 113.924141 0.539609375 114.653828 0.856796875"></polygon>
            <polygon id="Fill-27" fill="#FFFFFF" mask="url(#mask-2)" points="110.902031 13.3491406 110.227031 12.9280469 114.545781 6.01710937 115.22 6.43898438"></polygon>
            <polygon id="Fill-28" fill="#FFFFFF" mask="url(#mask-2)" points="116.918516 15.5075 117.598203 15.0942187 114.459922 9.94109375 113.780234 10.354375"></polygon>
            <polygon id="Fill-29" fill="#FFFFFF" mask="url(#mask-2)" points="108.024219 6.4034375 115.169531 6.4034375 115.169531 5.608125 108.024219 5.608125"></polygon>
            <polygon id="Fill-30" fill="#FFFFFF" mask="url(#mask-2)" points="110.75 13.2620313 115.650781 13.2620313 115.650781 12.4659375 110.75 12.4659375"></polygon>
            <polygon id="Fill-31" fill="#FFFFFF" mask="url(#mask-2)" points="123.887266 12.6769531 123.585703 11.9410156 120.877109 13.0496094 121.178672 13.7863281"></polygon>
            <polygon id="Fill-32" fill="#FFFFFF" mask="url(#mask-2)" points="117.291641 12.6769531 117.593203 11.9410156 120.301797 13.0496094 120.000234 13.7863281"></polygon>
            <polygon id="Fill-33" fill="#FFFFFF" mask="url(#mask-2)" points="117.607813 4.2471875 124.204688 4.2471875 124.204688 3.451875 117.607813 3.451875"></polygon>
            <polygon id="Fill-34" fill="#FFFFFF" mask="url(#mask-2)" points="117.607813 7.63625 123.203906 7.63625 123.203906 6.8409375 117.607813 6.8409375"></polygon>
            <polygon id="Fill-35" fill="#FFFFFF" mask="url(#mask-2)" points="117.607813 11.1042188 123.203906 11.1042188 123.203906 10.308125 117.607813 10.308125"></polygon>
            <path d="M114.791484,16.0209375 C115.102422,16.0209375 115.355547,16.2740625 115.355547,16.5857813 C115.355547,16.8967188 115.102422,17.1490625 114.791484,17.1490625 C114.479766,17.1490625 114.227422,16.8967188 114.227422,16.5857813 C114.227422,16.2740625 114.479766,16.0209375 114.791484,16.0209375" id="Fill-36" fill="#FFFFFF" mask="url(#mask-2)"></path>
            <polygon id="Fill-37" fill="#FFFFFF" mask="url(#mask-2)" points="117.547578 3.9703125 119.278047 1.11022302e-14 120.007734 0.3171875 118.415547 3.9703125"></polygon>
            <polygon id="Fill-38" fill="#FFFFFF" mask="url(#mask-2)" points="93.13125 22.6854688 93.9265625 22.6854688 93.9265625 1.420625 93.13125 1.420625"></polygon>
            <polygon id="Fill-39" fill="#FFFFFF" mask="url(#mask-2)" points="103.096094 22.6854688 103.892188 22.6854688 103.892188 1.420625 103.096094 1.420625"></polygon>
            <polygon id="Fill-40" fill="#FFFFFF" mask="url(#mask-2)" points="93.315625 3.36515625 103.574219 3.36515625 103.574219 2.5690625 93.315625 2.5690625"></polygon>
            <polygon id="Fill-41" fill="#FFFFFF" mask="url(#mask-2)" points="93.315625 11.058125 103.574219 11.058125 103.574219 10.2628125 93.315625 10.2628125"></polygon>
            <polygon id="Fill-42" fill="#FFFFFF" mask="url(#mask-2)" points="93.315625 19.7784375 103.574219 19.7784375 103.574219 18.9823438 93.315625 18.9823438"></polygon>
            <path d="M51.7085937,54.0153125 C51.7085937,51.466875 52.559375,49.3426563 54.2609375,47.6403125 C55.9625,45.9379688 58.0703125,45.0871875 60.5828125,45.0871875 L60.5828125,46.3707813 C58.4796875,46.3707813 56.6890625,47.1004688 55.2101562,48.5629688 C53.73125,50.0239063 52.9914062,51.841875 52.9914062,54.0153125 C52.9914062,56.1715625 53.721875,57.9801563 55.1828125,59.4410938 C56.6445312,60.9020313 58.4445312,61.6332813 60.5828125,61.6332813 L60.5828125,62.916875 C58.1234375,62.916875 56.0296875,62.060625 54.3015625,60.3496875 C52.5726562,58.6395313 51.7085937,56.5278125 51.7085937,54.0153125 L51.7085937,54.0153125 Z M70.9351563,62.916875 L66.3382812,59.066875 L66.3382812,62.916875 L65.028125,62.916875 L65.028125,45.0871875 L66.0171875,45.0871875 C67.9953125,45.0871875 69.6882812,45.7645313 71.0953125,47.1192188 C72.5039062,48.473125 73.2078125,50.148125 73.2078125,52.1434375 C73.2078125,53.7473438 72.7710937,55.1379688 71.8976562,56.31375 C71.025,57.4895313 69.8125,58.3723438 68.2625,58.9598438 L73.0203125,62.916875 L70.9351563,62.916875 Z M71.8976562,52.2504688 C71.8976562,50.629375 71.3765625,49.279375 70.334375,48.2020313 C69.2914062,47.1239063 67.959375,46.504375 66.3382812,46.3442188 L66.3382812,58.0246875 C67.9414062,57.8465625 69.2515625,57.2496875 70.2671875,56.2340625 C71.3539062,55.1653125 71.8976562,53.8371875 71.8976562,52.2504688 L71.8976562,52.2504688 Z M95.6953125,54.041875 C95.6953125,56.554375 94.8046875,58.7020313 93.0226562,60.4832813 C91.240625,62.2660938 89.0929688,63.1567188 86.5804688,63.1567188 C84.0679688,63.1567188 81.9117188,62.2832813 80.1117188,60.5371875 C78.3125,58.7903125 77.4125,56.6528125 77.4125,54.1223438 C77.4125,51.5028125 78.3125,49.3020313 80.1117188,47.52 C81.9117188,45.7379688 84.121875,44.8473438 86.7414062,44.8473438 C89.2359375,44.8473438 91.3523438,45.75125 93.0890625,47.5598438 C94.8265625,49.3692188 95.6953125,51.529375 95.6953125,54.041875 L95.6953125,54.041875 Z M78.6953125,54.0153125 C78.6953125,56.1715625 79.4609375,58.0153125 80.99375,59.548125 C82.5265625,61.0809375 84.3796875,61.8465625 86.5539063,61.8465625 C88.7101563,61.8465625 90.559375,61.0942188 92.1007812,59.58875 C93.6414062,58.0825 94.4125,56.260625 94.4125,54.1223438 C94.4125,51.841875 93.6375,49.9434375 92.0867188,48.4285938 C90.5367188,46.91375 88.6296875,46.1567188 86.3671875,46.1567188 C84.2640625,46.1567188 82.4601563,46.9364063 80.9539062,48.4957813 C79.4476562,50.0551563 78.6953125,51.895 78.6953125,54.0153125 L78.6953125,54.0153125 Z M99.4195313,61.6067188 C100.951562,61.6067188 101.976562,61.5176563 102.492969,61.33875 C103.544531,60.9832813 104.070312,60.1809375 104.070312,58.9340625 C104.070312,58.0426563 103.727344,56.9559375 103.041406,55.6723438 C102.355469,54.3895313 101.682031,53.15125 101.023438,51.9567188 C100.292969,50.5317188 99.9273438,49.3645313 99.9273438,48.4559375 C99.9273438,47.3325 100.278906,46.4903125 100.982812,45.929375 C101.686719,45.3684375 102.617969,45.0871875 103.775781,45.0871875 L104.738281,45.0871875 L104.738281,46.3707813 C103.615625,46.3707813 102.849219,46.441875 102.439844,46.5840625 C101.638281,46.87 101.236719,47.4660938 101.236719,48.3746875 C101.236719,49.3020313 101.59375,50.4426563 102.30625,51.7965625 C102.964844,52.9723438 103.625,54.1489063 104.283594,55.3254688 C105.014844,56.7504688 105.380469,57.9535938 105.380469,58.9340625 C105.380469,60.2160938 104.934375,61.2145313 104.042969,61.9270313 C103.224219,62.5864063 102.154687,62.916875 100.835938,62.916875 L99.4195313,62.916875 L99.4195313,61.6067188 Z M108.75625,61.6067188 C110.289063,61.6067188 111.313281,61.5176563 111.830469,61.33875 C112.88125,60.9832813 113.407813,60.1809375 113.407813,58.9340625 C113.407813,58.0426563 113.064844,56.9559375 112.378125,55.6723438 C111.692188,54.3895313 111.019531,53.15125 110.360156,51.9567188 C109.629687,50.5317188 109.264063,49.3645313 109.264063,48.4559375 C109.264063,47.3325 109.616406,46.4903125 110.320312,45.929375 C111.024219,45.3684375 111.955469,45.0871875 113.113281,45.0871875 L114.075781,45.0871875 L114.075781,46.3707813 C112.953125,46.3707813 112.186719,46.441875 111.776563,46.5840625 C110.975,46.87 110.574219,47.4660938 110.574219,48.3746875 C110.574219,49.3020313 110.930469,50.4426563 111.642969,51.7965625 C112.302344,52.9723438 112.961719,54.1489063 113.621094,55.3254688 C114.351562,56.7504688 114.717187,57.9535938 114.717187,58.9340625 C114.717187,60.2160938 114.271875,61.2145313 113.380469,61.9270313 C112.560937,62.5864063 111.491406,62.916875 110.172656,62.916875 L108.75625,62.916875 L108.75625,61.6067188 Z M119.1625,62.9160938 L120.472656,62.9160938 L120.472656,45.0871875 L119.1625,45.0871875 L119.1625,62.9160938 Z M131.119531,62.916875 L131.119531,49.3114063 L127.35,47.0653125 L127.35,62.916875 L126.040625,62.916875 L126.040625,44.766875 L131.119531,47.8410938 L131.119531,45.0871875 L132.428906,45.0871875 L132.428906,62.916875 L131.119531,62.916875 Z M137.195312,53.9621875 C137.195312,51.4496875 138.046094,49.3426563 139.747656,47.6403125 C141.45,45.9379688 143.548438,45.0871875 146.042969,45.0871875 L146.042969,46.3707813 C143.922656,46.3707813 142.135937,47.0879688 140.683594,48.5223438 C139.23125,49.9575 138.505469,51.77 138.505469,53.9621875 C138.505469,55.8325 139.079687,57.4410938 140.229687,58.7864063 C141.378906,60.1317188 142.879687,61.0098438 144.732812,61.42 L144.732812,49.55125 L146.042969,49.55125 L146.042969,62.916875 C143.476562,62.6489063 141.392188,61.7575 139.788281,60.2434375 C138.059375,58.6035938 137.195312,56.5098438 137.195312,53.9621875 L137.195312,53.9621875 Z" id="Fill-43" fill="#FFFFFF" mask="url(#mask-2)"></path>
        </g>
    </g>
</svg>