<?xml version="1.0" encoding="UTF-8"?>
<svg width="237px" height="158px" viewBox="0 0 237 158" version="1.1" xmlns="http://www.w3.org/2000/svg" xmlns:xlink="http://www.w3.org/1999/xlink">
    <title>4-1-2</title>
    <defs>
        <polygon id="path-1" points="0 0.598007547 42.8919623 0.598007547 42.8919623 43.4896302 0 43.4896302"></polygon>
        <polygon id="path-3" points="0 62.490566 179.413811 62.490566 179.413811 0.597735849 0 0.597735849"></polygon>
    </defs>
    <g id="4-1-2" stroke="none" stroke-width="1" fill="none" fill-rule="evenodd">
        <rect id="Rectangle-Copy-2" fill="#313160" x="0" y="0" width="237" height="158"></rect>
        <g id="Group-33" transform="translate(29.000000, 47.000000)">
            <polygon id="Fill-1" fill="#FFFFFF" points="0 43.5708 42.8929811 43.5708 42.8929811 0.679177358 0 0.679177358"></polygon>
            <polygon id="Fill-2" fill="#FFFFFF" points="45.5073962 43.5708 88.3996981 43.5708 88.3996981 0.679177358 45.5073962 0.679177358"></polygon>
            <polygon id="Fill-3" fill="#FFFFFF" points="91.0141132 43.5708 133.907094 43.5708 133.907094 0.679177358 91.0141132 0.679177358"></polygon>
            <polygon id="Fill-4" fill="#FFFFFF" points="136.52083 43.5708 179.413811 43.5708 179.413811 0.679177358 136.52083 0.679177358"></polygon>
            <path d="M45.5073962,43.5714792 L88.4003774,43.5714792 L88.4003774,0.679177358 L45.5073962,0.679177358 L45.5073962,43.5714792 Z M46.8570566,42.2211396 L87.0493585,42.2211396 L87.0493585,2.02951698 L46.8570566,2.02951698 L46.8570566,42.2211396 Z" id="Fill-5" fill="#D60C18"></path>
            <path d="M136.522189,43.5714792 L179.413811,43.5714792 L179.413811,0.679177358 L136.522189,0.679177358 L136.522189,43.5714792 Z M137.872528,42.2211396 L178.064151,42.2211396 L178.064151,2.02951698 L137.872528,2.02951698 L137.872528,42.2211396 Z" id="Fill-6" fill="#D60C18"></path>
            <polygon id="Fill-7" fill="#D60C18" points="26.346566 28.3808377 28.8156226 28.3808377 28.8156226 23.6661962 26.346566 23.6661962"></polygon>
            <polygon id="Fill-8" fill="#D60C18" points="25.6910943 12.3825736 28.082717 12.3825736 28.082717 6.25646038 25.6910943 6.25646038"></polygon>
            <polygon id="Fill-9" fill="#D60C18" points="31.2459623 12.3825736 33.7537358 12.3825736 33.7537358 6.25646038 31.2459623 6.25646038"></polygon>
            <polygon id="Fill-10" fill="#D60C18" points="19.941283 12.3825736 22.5264906 12.3825736 22.5264906 6.25646038 19.941283 6.25646038"></polygon>
            <g id="Group-32" transform="translate(0.000000, 0.081442)">
                <g id="Group-13">
                    <mask id="mask-2" fill="white">
                        <use xlink:href="#path-1"></use>
                    </mask>
                    <g id="Clip-12"></g>
                    <path d="M9.13890566,13.3087245 C7.51822642,14.9613283 5.70464151,16.4923472 3.69883019,17.7408 L3.31301887,17.2979321 C5.04916981,15.323366 6.70788679,12.7850264 8.05890566,10.2453283 C7.17113208,8.27076226 5.97498113,6.3362717 4.27754717,4.48261132 L4.70139623,4.07981887 C6.55369811,5.2488 8.02018868,6.53800755 9.25437736,7.9488 C10.1421509,6.09513962 10.8363396,4.28155472 11.3383019,2.70978113 L15.9381509,5.02261132 C15.9381509,5.02261132 12.8428302,9.23868679 11.3763396,10.8899321 C13.4983019,14.5979321 14.1924906,18.8703849 14.3860755,23.5442717 L14.3860755,24.3308377 C15.852566,22.0818566 18.5090943,15.2866868 18.5919623,15.1066868 C18.596717,15.0958189 16.4686415,15.1066868 16.4686415,15.1066868 L16.4686415,5.00630943 L33.4069811,5.00630943 L34.7804151,4.06691321 L37.6998113,4.06691321 L37.5748302,14.0457057 L33.7540755,14.0457057 L33.7540755,13.4296302 L19.9416226,13.4296302 L19.9416226,14.5761962 C19.9416226,14.6128755 22.806,15.323366 23.415283,15.4721208 L22.3346038,16.8829132 L21.9352075,16.7952906 L21.6390566,17.2571774 L34.0624528,17.2571774 L35.3115849,16.2749887 L38.460566,16.2749887 C38.460566,16.2749887 38.460566,19.1488755 38.460566,19.1875925 C38.3824528,33.002083 38.1481132,37.8566491 36.4927925,39.7041962 C35.4127925,40.9139321 33.8315094,41.1156679 31.8243396,41.1156679 C31.8243396,40.0675925 31.6708302,39.382234 31.1688679,38.8585358 C30.5901509,38.2139321 29.471434,37.8104604 28.0436604,37.5285736 L28.0436604,36.9240453 C29.355283,37.0449509 31.3617736,37.2066113 32.1340755,37.2066113 C32.7508302,37.2066113 33.0592075,37.0449509 33.3295472,36.7623849 C34.2560377,35.7149887 34.4095472,30.1132528 34.4869811,18.3867623 L20.9829057,18.3867623 C20.25,19.5149887 18.6435849,21.4895547 17.6790566,22.4968755 L20.327434,22.4968755 L22.8352075,22.4968755 L22.8352075,18.8296302 L27.3107547,19.2724981 C27.2333208,19.6352151 27.0023774,19.9171019 26.3462264,20.0787623 L26.3462264,22.4968755 L28.5069057,22.4968755 L29.7281887,21.5724226 L32.1136981,21.5785358 L32.1340755,30.0534792 C32.0878868,30.0487245 28.815283,30.0534792 28.815283,30.0534792 L28.815283,29.4278943 L26.3462264,29.4278943 L26.3462264,32.4906113 L28.892717,32.2494792 C28.5836604,31.5641208 28.1985283,30.919517 27.812717,30.3951396 L28.1591321,30.1540075 C36.300566,32.2494792 32.7121132,38.4550642 29.7023774,35.6749132 C29.7023774,34.8686491 29.5481887,34.0223094 29.2785283,33.1759698 C26.6933208,34.1832906 17.3693208,37.4959698 17.3693208,37.4959698 L15.5815472,33.2975547 C17.0867547,33.2167245 19.71,33.0156679 22.8352075,32.7731774 L22.8352075,29.4278943 L20.1345283,29.4278943 L20.1345283,30.0534792 L16.8551321,30.0534792 L16.8551321,23.0606491 C16.0835094,23.7460075 15.459283,24.3505358 14.6109057,24.874234 L14.3860755,24.4687245 L14.3860755,24.874234 C14.4628302,30.194083 14.0002642,35.5540075 12.1866792,38.4149887 C11.2995849,39.7850264 9.64018868,40.3501585 7.32532075,40.3501585 C7.32532075,38.7383094 7.09437736,37.6494792 6.66984906,37.0850264 C6.24532075,36.6421585 5.47369811,36.1184604 4.35430189,35.7951396 L4.35430189,35.231366 C4.35430189,35.231366 6.74728302,35.4731774 7.94275472,35.4731774 C8.48343396,35.4731774 8.79181132,35.3522717 9.0614717,34.9488 C10.064717,33.3369509 10.3343774,28.9041962 10.3343774,24.3505358 L10.3343774,23.1421585 C8.32856604,25.3177811 5.55045283,27.4533283 2.50267925,28.9850264 L2.15558491,28.6223094 C5.55045283,25.3177811 8.32856604,20.6832906 9.79437736,16.2505358 C9.64018868,15.2432151 9.40856604,14.2759698 9.13890566,13.3087245 L9.13890566,13.3087245 Z M-0.000339622642,43.4896302 L42.8919623,43.4896302 L42.8919623,0.598007547 L-0.000339622642,0.598007547 L-0.000339622642,43.4896302 Z" id="Fill-11" fill="#D60C18" mask="url(#mask-2)"></path>
                </g>
                <mask id="mask-4" fill="white">
                    <use xlink:href="#path-3"></use>
                </mask>
                <g id="Clip-15"></g>
                <polygon id="Fill-14" fill="#D60C18" mask="url(#mask-4)" points="20.1348679 28.2993962 22.8355472 28.2993962 22.8355472 23.5847547 20.1348679 23.5847547"></polygon>
                <polygon id="Fill-16" fill="#D60C18" mask="url(#mask-4)" points="152.308121 8.03261887 152.308121 5.8250717 148.592649 5.8250717 147.57514 6.86431698 141.401479 6.86431698 141.710536 8.03261887"></polygon>
                <polygon id="Fill-17" fill="#D60C18" mask="url(#mask-4)" points="152.308121 15.910234 148.592649 15.910234 147.57514 16.9488 141.401479 16.9488 141.710536 18.1177811 152.308121 18.1177811"></polygon>
                <polygon id="Fill-18" fill="#D60C18" mask="url(#mask-4)" points="170.354513 15.3789283 166.639042 15.3789283 165.621532 16.4181736 158.386891 16.4181736 158.695947 17.5871547 170.354513 17.5871547"></polygon>
                <polygon id="Fill-19" fill="#D60C18" mask="url(#mask-4)" points="141.710808 23.4257434 152.308392 23.4257434 152.308392 21.217517 148.592921 21.217517 147.575411 22.2567623 141.401751 22.2567623"></polygon>
                <polygon id="Fill-20" fill="#D60C18" mask="url(#mask-4)" points="154.576664 12.8874566 154.576664 10.6799094 150.861192 10.6799094 149.843683 11.7191547 139.42406 11.7191547 139.733117 12.8874566"></polygon>
                <path d="M145.261358,37.4841509 L148.964604,37.4841509 L148.964604,28.8461887 L145.261358,28.8461887 L145.261358,37.4841509 Z M148.168528,27.6778868 L145.414868,27.6778868 L141.325132,27.6778868 L141.325132,40.6338113 L145.260679,40.6338113 L145.260679,38.6123774 L148.964604,38.6123774 L148.964604,39.5721509 L152.839019,39.5721509 L152.839019,28.9562264 L152.839019,26.8329057 L149.335472,26.8329057 L148.168528,27.6778868 Z" id="Fill-21" fill="#D60C18" mask="url(#mask-4)"></path>
                <path d="M152.678242,18.9324 L152.947902,19.3358717 C158.041562,16.4742113 163.4436,11.4770038 165.950694,6.19790943 C167.378468,11.2351925 170.541713,15.4668906 174.130166,18.1668906 C174.361789,16.3533057 175.519223,14.6606264 177.255374,14.0968528 L177.255374,13.5324 C173.396581,12.1222868 168.652053,9.6233434 166.490694,5.79511698 C167.532657,5.67353208 167.918468,5.4324 168.03394,4.94877736 L162.092581,3.53866415 C161.089336,8.21323019 156.691223,15.1041736 152.678242,18.9324" id="Fill-22" fill="#D60C18" mask="url(#mask-4)"></path>
                <path d="M168.765962,30.029434 L170.927321,30.029434 L170.927321,22.6813585 L168.765962,22.6813585 L168.765962,30.029434 Z M170.927321,35.6970566 C170.927321,36.141283 170.812528,36.3423396 170.388,36.3423396 C170.040226,36.3423396 169.114415,36.3022642 168.766642,36.2615094 L168.766642,31.1970566 L170.927321,31.1970566 L170.927321,35.6970566 Z M163.713736,30.029434 L165.68083,30.029434 L165.68083,22.6813585 L163.713736,22.6813585 L163.713736,30.029434 Z M158.81366,30.029434 L160.704,30.029434 L160.704,22.6813585 L158.81366,22.6813585 L158.81366,30.029434 Z M170.354717,20.8406038 L154.992906,20.8406038 L154.992906,40.6338113 L158.81366,40.6338113 L158.81366,31.1970566 L160.704,31.1970566 L160.704,39.5721509 L163.713057,39.5721509 L163.713057,31.1970566 L165.68083,31.1970566 L165.68083,39.5721509 L168.766642,39.5721509 L168.766642,36.8660377 C169.615698,37.1071698 170.001509,37.5106415 170.233132,38.1151698 C170.503472,38.7597736 170.541509,39.8078491 170.580226,41.178566 C174.43834,40.8151698 174.940302,39.1632453 174.940302,36.1806792 L174.940302,19.9331321 L171.416377,19.9331321 L170.354717,20.8406038 Z" id="Fill-23" fill="#D60C18" mask="url(#mask-4)"></path>
                <path d="M105.239819,10.8477509 L106.256649,9.80918491 L109.9728,9.80918491 L109.9728,12.0167321 L95.1285736,12.0167321 L94.819517,10.8477509 L105.239819,10.8477509 Z M102.97046,5.99386415 L103.988649,4.95393962 L107.704121,4.95393962 L107.704121,7.16148679 L97.1065358,7.16148679 L96.7974792,5.99386415 L102.97046,5.99386415 Z M111.111894,10.485034 L111.613177,10.3240528 C119.677177,17.0540151 115.586762,24.8714491 112.269328,21.0031472 C112.538989,17.5777132 111.883517,13.5484302 111.111894,10.485034 L111.111894,10.485034 Z M130.750234,12.5404302 C130.634762,12.9432226 130.132121,13.3466943 129.283064,13.2658642 C128.126309,15.442166 125.772725,19.230317 123.496574,21.9296377 L123.149479,21.7686566 C123.921102,18.2630717 124.730762,12.742166 125.001781,10.2432226 L130.750234,12.5404302 Z M126.281479,6.37424151 L127.502083,5.47424151 L131.058611,5.47424151 L131.058611,7.54322264 L121.991366,7.54322264 L121.991366,24.7512226 L126.281479,24.7512226 L127.508875,23.8389962 L131.058611,23.8389962 L131.058611,25.9195245 L121.991366,25.9195245 L121.991366,39.7625434 L117.631291,39.7625434 L117.631291,25.9195245 L109.212045,25.9195245 L108.903668,24.7512226 L117.631291,24.7512226 L117.631291,7.54322264 L110.147366,7.54322264 L109.838989,6.37424151 L126.281479,6.37424151 Z M96.7974792,16.0779396 L102.97046,16.0779396 L103.988649,15.0386943 L107.704121,15.0386943 L107.704121,17.2469208 L97.1065358,17.2469208 L96.7974792,16.0779396 Z M102.97046,21.3862415 L103.988649,20.346317 L107.704121,20.346317 L107.704121,22.5538642 L97.1065358,22.5538642 L96.7974792,21.3862415 L102.97046,21.3862415 Z M108.234611,28.0849585 L108.234611,38.700883 L104.359517,38.700883 L104.359517,37.7417887 L100.656272,37.7417887 L100.656272,39.7625434 L96.7207245,39.7625434 L96.7207245,26.8066189 L100.81046,26.8066189 L103.563442,26.8066189 L104.731743,25.962317 L108.234611,25.962317 L108.234611,28.0849585 Z M91.0150642,43.4895623 L133.906687,43.4895623 L133.906687,0.597939623 L91.0150642,0.597939623 L91.0150642,43.4895623 Z" id="Fill-24" fill="#D60C18" mask="url(#mask-4)"></path>
                <polygon id="Fill-25" fill="#D60C18" mask="url(#mask-4)" points="100.656 36.6133585 104.359245 36.6133585 104.359245 27.974717 100.656 27.974717"></polygon>
                <path d="M77.9426491,37.8808981 L70.3418943,37.8808981 C73.7754792,31.5136528 76.901366,23.211917 78.6755547,17.7718415 C79.640083,17.7310868 80.0258943,17.3282943 80.180083,16.8045962 L73.4283849,15.1927472 C72.5793283,21.6802189 70.8818943,31.1108604 69.2231774,37.8808981 L49.4299698,37.8808981 L49.7397057,39.0498792 L84.7724604,39.0498792 L84.7724604,35.9518415 L79.9946491,35.9518415 L77.9426491,37.8808981 Z" id="Fill-26" fill="#D60C18" mask="url(#mask-4)"></path>
                <path d="M59.6163396,33.9719774 C64.4776981,39.1709208 68.1809434,26.7583925 57.0311321,15.7967321 L56.4904528,15.9577132 C58.188566,21.4392226 59.7705283,28.1691849 59.6163396,33.9719774" id="Fill-27" fill="#D60C18" mask="url(#mask-4)"></path>
                <polygon id="Fill-28" fill="#D60C18" mask="url(#mask-4)" points="83.7103245 13.176 83.7103245 10.7449811 78.9338717 10.7449811 77.9163623 12.0070189 69.7246642 12.0070189 69.7246642 6.75916981 70.4412679 6.228 70.4412679 3.57350943 65.0562113 3.57350943 65.0562113 12.0070189 51.0420226 12.0070189 51.3510792 13.176"></polygon>
                <path d="M145.034694,57.2884981 C144.606091,57.6247245 144.170694,57.7918189 143.727826,57.7918189 C142.721864,57.7918189 142.218543,57.0806491 142.218543,55.6610264 C142.218543,54.9478189 142.370694,54.3969509 142.676355,54.0084226 C142.982015,53.6192151 143.415374,53.4242717 143.979147,53.4242717 C144.352053,53.4242717 144.703902,53.5044226 145.034694,53.6620075 L145.034694,57.2884981 Z M143.846694,49.4065358 C142.11394,49.4065358 140.6556,50.002234 139.472355,51.1949887 C138.28843,52.3877434 137.696808,53.8623849 137.696808,55.618234 C137.696808,57.4583094 138.268053,58.9601208 139.409864,60.1223094 C140.550317,61.2844981 142.018166,61.8652528 143.812053,61.8652528 C144.771147,61.8652528 145.672506,61.7681208 146.516128,61.5731774 L146.516128,60.3070642 C145.603223,60.5549887 144.701864,60.6779321 143.812053,60.6779321 C142.418921,60.6779321 141.277789,60.2174038 140.387298,59.2943094 C139.498166,58.3725736 139.052581,57.1492528 139.052581,55.6257057 C139.052581,54.1714415 139.519223,52.9698566 140.450468,52.0161962 C141.382392,51.0638943 142.516732,50.5877434 143.854166,50.5877434 C145.279223,50.5877434 146.406091,51.0251774 147.232053,51.9007245 C148.058694,52.7769509 148.473034,53.9860075 148.473034,55.5272151 C148.473034,56.4543849 148.288279,57.2912151 147.920808,58.0363472 L146.543977,58.0363472 L146.543977,52.3137057 L145.132506,52.3137057 L145.027902,52.7395925 C144.398242,52.3293283 143.825638,52.1241962 143.308732,52.1241962 C142.550015,52.1241962 141.910845,52.4583849 141.39394,53.1240453 C140.877034,53.7903849 140.618242,54.6523472 140.618242,55.7092528 C140.618242,56.7715925 140.833562,57.6145358 141.264883,58.2387623 C141.695525,58.8636679 142.264732,59.1754415 142.973185,59.1754415 C143.350845,59.1754415 143.686392,59.1122717 143.979147,58.9832151 C144.27326,58.8548377 144.631223,58.6028377 145.055751,58.2251774 L145.300958,59.1258566 L148.731147,59.1258566 C149.438921,58.0411019 149.793487,56.8300075 149.793487,55.4918943 C149.793487,53.6851019 149.242619,52.2192906 148.140883,51.0944604 C147.039147,49.9696302 145.607977,49.4065358 143.846694,49.4065358 L143.846694,49.4065358 Z" id="Fill-29" fill="#FFFFFF" mask="url(#mask-4)"></path>
                <path d="M159.293547,55.7449132 L164.81717,55.7449132 L164.81717,54.3117057 L158.856113,54.3117057 C158.901623,53.8131396 158.915887,53.3152528 158.915887,52.8628755 L158.915887,51.2028 L164.198377,51.2028 L164.198377,49.7539698 L152.35166,49.7539698 L152.35166,51.2028 L157.452792,51.2028 L157.452792,52.8472528 C157.452792,53.2996302 157.437849,53.7981962 157.377396,54.3117057 L151.808264,54.3117057 L151.808264,55.7449132 L157.105698,55.7449132 C156.532415,57.7677057 155.053019,59.8645358 151.37083,61.2828 C151.688038,61.5551774 152.110528,62.1277811 152.291208,62.4755547 C155.898,61.0566113 157.573698,58.9889887 158.32766,56.8765358 C159.550302,59.5928377 161.482075,61.4947245 164.379057,62.4606113 C164.575358,62.0523849 165.013472,61.4641585 165.33,61.1625736 C162.342,60.3474792 160.350453,58.3858189 159.293547,55.7449132" id="Fill-30" fill="#FFFFFF" mask="url(#mask-4)"></path>
                <path d="M165.759691,51.1872453 L171.35803,51.1872453 L171.35803,62.490566 L172.85237,62.490566 L172.85237,54.9 C174.482558,55.805434 176.368823,56.982566 177.33403,57.7969811 L178.36037,56.514566 C177.19886,55.6091321 174.829653,54.2655849 173.108445,53.4362264 L172.85237,53.7378113 L172.85237,51.1872453 L179.084445,51.1872453 L179.084445,49.7540377 L165.759691,49.7540377 L165.759691,51.1872453 Z" id="Fill-31" fill="#FFFFFF" mask="url(#mask-4)"></path>
            </g>
        </g>
    </g>
</svg>