<?xml version="1.0" encoding="UTF-8"?>
<svg width="237px" height="158px" viewBox="0 0 237 158" version="1.1" xmlns="http://www.w3.org/2000/svg" xmlns:xlink="http://www.w3.org/1999/xlink">
    <title>4-1-4</title>
    <defs>
        <polygon id="path-1" points="0.451119497 0.189383648 36.2475472 0.189383648 36.2475472 38.176805 0.451119497 38.176805"></polygon>
        <polygon id="path-3" points="0 67.2322013 159.014843 67.2322013 159.014843 1.00628931 0 1.00628931"></polygon>
    </defs>
    <g id="4-1-4" stroke="none" stroke-width="1" fill="none" fill-rule="evenodd">
        <rect id="Rectangle-Copy-2" stroke="#D3D5D7" fill="#FFFFFF" x="0.5" y="0.5" width="236" height="157"></rect>
        <g id="Group-34" transform="translate(39.000000, 45.000000)">
            <path d="M36.1461132,21.4633459 L22.3730314,21.4633459 C24.2668679,24.089761 26.5048553,26.4505157 29.0266164,28.4832201 C31.4698868,30.5340377 34.176805,32.2467421 37.0769308,33.5770566 C36.0424654,34.5521509 35.1398239,35.6590692 34.3921509,36.8676226 C31.7184403,35.4557987 29.2339119,33.7098868 26.9989434,31.6731572 C24.5798239,29.515673 22.3881258,27.1166792 20.4580629,24.5124025 L20.4580629,38.8731572 L16.5757987,38.8731572 L16.5757987,24.7146667 C14.6819623,27.2575597 12.5164277,29.5861132 10.1164277,31.6580629 C7.84120755,33.6555472 5.34862893,35.3903899 2.68498113,36.8303899 C1.91919497,35.6449811 1.01856604,34.5531572 0.000201257862,33.5770566 C2.89831447,32.2366792 5.6052327,30.5169308 8.05051572,28.4630943 C10.5501384,26.4394465 12.7629686,24.0847296 14.6266164,21.4633459 L1.16749686,21.4633459 L1.16749686,17.6535346 L16.5757987,17.6535346 L16.5757987,11.435673 L4.00724528,11.435673 L4.00724528,7.66510692 L16.5747925,7.66510692 L16.5747925,1.20774843 L20.4651069,1.20774843 L20.4651069,7.66510692 L33.3456101,7.66510692 L33.3456101,11.435673 L20.4651069,11.435673 L20.4651069,17.6535346 L36.1461132,17.6535346 L36.1461132,21.4633459 Z" id="Fill-1" fill="#3C00B4"></path>
            <path d="M49.1654843,11.0339623 L52.7448553,11.7162264 C52.3544151,13.2981132 51.8613333,14.8528302 51.2666164,16.3693082 C52.7539119,17.6392453 54.1707673,18.9916981 55.5071195,20.4206289 L52.9783145,23.1446541 C51.9780629,21.9018868 50.886239,20.7366038 49.7108931,19.6578616 C48.479195,21.951195 46.8459874,24.0030189 44.8867421,25.7157233 C44.0575597,24.761761 43.1015849,23.9245283 42.0459874,23.2281761 C45.5458616,20.5272956 47.9186918,16.4628931 49.1654843,11.0339623 M76.9068679,22.1856604 L74.2633459,24.8332075 C72.4379371,22.9574843 70.5159245,21.1773585 68.5053585,19.4998742 C67.6661132,21.0304403 66.6326541,22.4462893 65.4311447,23.7122013 C64.5164277,22.9484277 63.5101384,22.3023899 62.4354214,21.7871698 C64.3554214,24.4649057 66.6618365,26.8437736 69.2771824,28.8472956 C71.8854843,30.9051572 74.7835975,32.5665409 77.8769308,33.7781132 C76.7347925,34.7441509 75.7858616,35.916478 75.0784403,37.2327044 C69.5891321,34.6223899 64.8303899,30.6958491 61.2268679,25.8012579 L61.2268679,38.872956 L57.3355472,38.872956 L57.3355472,25.9159748 C53.6937862,30.7038994 48.9752956,34.5650314 43.5614591,37.1864151 C42.879195,35.9657862 41.9986918,34.8689308 40.9561761,33.9381132 C44.3212075,32.5192453 47.4447296,30.5841509 50.2140377,28.2022642 C53.0085031,25.9028931 55.4135346,23.1667925 57.3345409,20.0986164 L57.3345409,10.3124528 L42.4726541,10.3124528 L42.4726541,6.62138365 L57.3365535,6.62138365 L57.3365535,1.20754717 L61.2278742,1.20754717 L61.2278742,6.62138365 L76.5576855,6.62138365 L76.5576855,10.3124528 L61.2268679,10.3124528 L61.2268679,19.8983648 C61.5619623,20.4608805 61.9383145,21.0495597 62.3549182,21.6633962 C65.0004528,19.3106918 66.816805,15.7675472 67.8029686,11.0339623 L71.3823396,11.6769811 C71.0442264,13.2508176 70.5752956,14.7934591 69.9815849,16.2898113 C72.3886289,18.1363522 74.7000755,20.1046541 76.9068679,22.1856604" id="Fill-3" fill="#3C00B4"></path>
            <path d="M114.400302,15.0059874 L117.745208,15.609761 C116.666465,20.4963019 114.814893,25.1805786 112.260931,29.484478 C113.167597,33.1212075 114.127597,34.9395723 115.138918,34.9395723 C115.810113,34.9395723 116.199547,32.7861132 116.306214,28.4812075 C117.016654,29.3405786 117.924327,30.0157987 118.951748,30.4474969 C118.719296,33.5488805 118.303698,35.6620881 117.707975,36.7871195 C117.122314,37.9041006 115.929862,38.566239 114.672,38.4716478 C112.725836,38.4716478 111.092629,36.6663648 109.769358,33.056805 C107.990239,35.2746667 105.90722,37.2318994 103.583698,38.8721509 C102.84005,37.888 101.976654,36.9994465 101.014642,36.2266164 C104.038541,34.3378113 106.646843,31.853283 108.678541,28.9249811 C107.571623,22.900327 106.947723,16.7971824 106.811874,10.6729057 L98.1758994,10.6729057 L98.1758994,15.686239 L105.450365,15.686239 C105.450365,16.3292579 105.437283,16.7841006 105.411119,17.049761 C105.359799,21.9171824 105.269233,25.3134088 105.139421,27.2384403 C105.155522,28.4902642 104.916025,29.7330314 104.435019,30.8892579 C103.926843,31.578566 103.147975,32.0163019 102.295648,32.0917736 C101.146465,32.2336604 99.9872201,32.2598239 98.832,32.1722767 C98.7635723,31.0683774 98.4727547,29.9916478 97.9766541,29.0034717 C98.8792956,29.1141635 99.7889811,29.1674969 100.699673,29.1634717 C101.087094,29.1906415 101.458415,29.0064906 101.672755,28.6824654 C102.007849,28.1742893 102.216151,24.8847296 102.295648,18.8137862 L98.1698616,18.8137862 L98.1698616,20.2225912 C98.1698616,28.8867421 96.5094843,35.1569308 93.1897358,39.0351698 C92.8093585,38.5672453 92.3786667,38.1435975 91.9057107,37.7712704 C91.4367799,37.3707673 90.9426918,37.0004528 90.4264654,36.6643522 C92.1985409,34.4786918 93.4010566,31.8874969 93.9273459,29.1242264 C93.5117484,29.3113962 89.9192956,30.8208302 83.1489811,33.6525283 L81.9424403,29.8839748 C82.7706164,29.6152956 84.2498616,29.0940377 86.3771572,28.319195 L86.3771572,14.604478 L82.4948931,14.604478 L82.4948931,11.0693836 L86.3862138,11.0693836 L86.3862138,1.68875472 L89.8075975,1.68875472 L89.8075975,11.0693836 L93.308478,11.0693836 L93.308478,14.5994465 L89.8096101,14.5994465 L89.8096101,27.039195 L93.3104906,25.7159245 L93.9706164,29.0457358 C94.5250818,26.1234717 94.7857107,23.1539119 94.7494843,20.180327 L94.7494843,7.2243522 L106.695145,7.2243522 C106.616654,5.21781132 106.577409,3.19919497 106.578415,1.16649057 L110.079296,1.16649057 C110.054138,2.53001258 110.066214,4.54963522 110.118541,7.2243522 L114.474767,7.2243522 C113.306465,5.64749686 111.992252,4.1843522 110.551245,2.85202516 L113.120302,1.24196226 C114.790742,2.5752956 116.245836,4.15919497 117.434264,5.93730818 L115.488101,7.22032704 L118.172881,7.22032704 L118.172881,10.6729057 L110.195019,10.6729057 C110.377157,15.3521509 110.752503,19.8452327 111.323069,24.1511447 C112.690616,21.2278742 113.722063,18.1607044 114.400302,15.0059874" id="Fill-5" fill="#3C00B4"></path>
            <g id="Group-9" transform="translate(122.767296, 0.817107)">
                <mask id="mask-2" fill="white">
                    <use xlink:href="#path-1"></use>
                </mask>
                <g id="Clip-8"></g>
                <path d="M36.2478491,9.49554717 L20.0999245,9.49554717 L20.0999245,14.5088805 L32.744956,14.5088805 L32.744956,28.6281258 C32.744956,30.6336604 32.1220629,31.8905157 30.8782893,32.3986918 C29.788478,32.8273711 27.4538868,33.0407044 23.8745157,33.0407044 C23.6561509,31.7264906 23.2365283,30.4545409 22.6297358,29.2701384 C23.7195472,29.324478 24.8335094,29.3576855 25.9756478,29.3707673 C27.1167799,29.3838491 27.8040755,29.376805 28.0385409,29.3506415 C28.2800503,29.3546667 28.5175346,29.2842264 28.7187925,29.1493836 C28.8566541,28.980327 28.9200503,28.7619623 28.8938868,28.5456101 L28.8938868,18.2402013 L20.1009308,18.2402013 L20.1009308,38.176805 L16.2881006,38.176805 L16.2881006,18.2402013 L8.11703145,18.2402013 L8.11703145,33.1222138 L4.42093082,33.1222138 L4.42093082,14.5088805 L16.2881006,14.5088805 L16.2881006,9.49554717 L0.451119497,9.49554717 L0.451119497,5.80447799 L16.2498616,5.80447799 L16.2498616,0.189383648 L20.1733836,0.189383648 L20.1733836,5.80447799 L36.2438239,5.80447799 L36.2438239,9.49554717 L36.2478491,9.49554717 Z" id="Fill-7" fill="#3C00B4" mask="url(#mask-2)"></path>
            </g>
            <path d="M116.653686,57.4209811 C117.305761,57.3273962 117.883371,56.9480252 118.225509,56.3855094 L118.72966,53.4672704 C118.530415,53.0335597 118.099723,52.752805 117.621736,52.7487799 C116.95356,52.7668931 116.346767,53.1472704 116.042868,53.7429937 C115.636327,54.3729308 115.419975,55.1065157 115.418969,55.8562013 C115.419975,56.898717 115.832553,57.4199748 116.653686,57.4209811 M116.914314,62.8831195 C115.741987,62.9012327 114.582742,62.6385912 113.534189,62.1143145 C112.505761,61.5719245 111.660478,60.738717 111.104,59.7173333 C110.457962,58.5268931 110.13595,57.187522 110.173182,55.8330566 C110.162113,54.6214843 110.382491,53.4199748 110.820226,52.2909182 C111.210667,51.2665157 111.803371,50.331673 112.563119,49.5427421 C113.291673,48.8031195 114.159094,48.2124277 115.115069,47.8048805 C116.082113,47.389283 117.124629,47.1759497 118.178214,47.1789686 C119.89595,47.0954465 121.56639,47.7525535 122.766893,48.9832453 C124.379975,50.9243774 124.887145,53.5558239 124.111296,55.9578365 C123.916075,56.5595975 123.601107,57.1160755 123.187522,57.5950692 C122.837333,57.9915472 122.414692,58.3175849 121.941736,58.5560755 C121.519094,58.7714214 121.052176,58.8861384 120.578214,58.8901635 C120.101233,58.9052579 119.631296,58.7704151 119.233811,58.505761 C118.868528,58.2541887 118.628025,57.8597233 118.56966,57.4199748 L118.537459,57.4199748 C118.252679,57.8033711 117.89444,58.1273962 117.483874,58.3719245 C117.120604,58.6023648 116.699975,58.7291572 116.268277,58.7392201 C115.624252,58.7603522 115.004377,58.4826164 114.590792,57.987522 C114.138969,57.4078994 113.910541,56.6843774 113.950792,55.9497862 C113.94878,54.8227421 114.316075,53.7278994 114.997333,52.8302893 C115.569912,51.9497862 116.547019,51.4174591 117.596579,51.4104151 C118.237585,51.3772075 118.829283,51.7525535 119.071799,52.3462642 L119.120101,52.3462642 L119.331421,51.5613585 L120.578214,51.5613585 L119.79834,55.5472704 C119.475321,56.9278994 119.79834,57.6182138 120.771421,57.6192201 C121.475824,57.5729308 122.10878,57.1694088 122.448906,56.5505409 C122.97117,55.7233711 123.22878,54.7553208 123.184503,53.7772075 C123.246893,52.3714214 122.771925,50.9948176 121.856201,49.9271447 C120.861987,48.8956981 119.463245,48.3543145 118.032302,48.4478994 C117.199094,48.4478994 116.37595,48.6280252 115.618214,48.9731824 C114.839346,49.3253836 114.13595,49.820478 113.543245,50.4353208 C112.906264,51.1095346 112.410164,51.9045031 112.085132,52.7739371 C111.712805,53.7379623 111.525635,54.7643774 111.533686,55.7978365 C111.444126,57.3767044 112.013686,58.9213585 113.106516,60.0655094 C114.169157,61.1019874 115.609157,61.660478 117.093434,61.6111698 C118.138969,61.6061384 119.163371,61.3173333 120.058969,60.7759497 L120.528906,61.9291572 C119.431044,62.5651321 118.183245,62.895195 116.914314,62.8831195" id="Fill-10" fill="#3C00B4"></path>
            <path d="M141.150591,55.245283 L135.42883,55.245283 C136.346566,58.3456604 138.881409,60.6983648 142.041157,61.3836478 C141.620528,61.8344654 141.27034,62.347673 141.003673,62.9041509 C139.519396,62.514717 138.147824,61.7791195 137.00166,60.7577358 C135.884679,59.6991195 135.006189,58.4150943 134.423547,56.9901887 C133.494742,59.7071698 131.231597,61.683522 127.633107,62.9212579 C127.523421,62.6596226 127.384553,62.4100629 127.219522,62.1776101 C127.063547,61.9381132 126.887447,61.7116981 126.694239,61.5013836 C127.679396,61.1874214 128.628327,60.7667925 129.521912,60.2485535 C130.244428,59.8369811 130.895497,59.3127044 131.449962,58.6948428 C131.895748,58.1916981 132.274113,57.6322013 132.576,57.0324528 C132.853736,56.4679245 133.056,55.8701887 133.18078,55.2533333 L127.573736,55.2533333 L127.573736,53.6332075 L133.373987,53.6332075 C133.386063,53.4661635 133.391094,53.2155975 133.391094,52.8815094 L133.391094,50.0377358 L127.086692,50.0377358 L127.086692,48.4176101 L141.578264,48.4176101 L141.578264,50.0377358 L135.014239,50.0377358 L135.014239,52.8945912 C135.014239,53.2306918 135.009208,53.4752201 134.999145,53.6291824 L141.156629,53.6291824 L141.156629,55.245283 L141.150591,55.245283 Z" id="Fill-12" fill="#3C00B4"></path>
            <path d="M158.678038,50.0369308 L151.823195,50.0369308 L151.823195,52.9310189 L152.097912,52.5798239 C153.081057,53.0698868 154.133635,53.6505157 155.25766,54.3247296 C156.163321,54.8510189 157.033761,55.4346667 157.865962,56.0706415 L156.749987,57.5237233 C155.210365,56.2839748 153.559044,55.1871195 151.81917,54.2492579 L151.81917,62.8530314 L150.165836,62.8530314 L150.165836,50.0369308 L144.007346,50.0369308 L144.007346,48.416805 L158.673006,48.416805 L158.673006,50.0369308 L158.678038,50.0369308 Z" id="Fill-14" fill="#3C00B4"></path>
            <polygon id="Fill-16" fill="#3C00B4" points="3.67808805 47.0613333 11.7284025 47.0613333 11.7284025 48.9853585 5.83657862 48.9853585 5.83657862 53.2007044 11.7273962 53.2007044 11.7273962 55.1247296 5.83657862 55.1247296 5.83657862 62.1617107 3.67808805 62.1617107"></polygon>
            <path d="M20.1088805,62.1616101 L20.1088805,60.8806038 C19.7053585,61.3263899 19.2193208,61.6896604 18.6769308,61.9482767 C18.176805,62.1938113 17.6283774,62.3246289 17.0718994,62.3297336 C16.4610818,62.3336855 15.8613333,62.171673 15.3370566,61.8597233 C14.8208302,61.5608553 14.4042264,61.1170818 14.1375597,60.5837484 C13.8135346,59.7304151 13.675673,58.818717 13.735044,57.9080252 L13.735044,52.2164528 L15.6983145,52.2164528 L15.6983145,57.8848805 C15.6308931,58.6416101 15.7878742,59.4013585 16.1471195,60.0705409 C16.5365535,60.5243774 17.1252327,60.7568302 17.7199497,60.6914214 C18.6980629,60.669283 19.5976855,60.1520503 20.1088805,59.3188428 L20.1088805,52.2164528 L22.0761761,52.2164528 L22.0761761,62.1616101 L20.1088805,62.1616101 Z" id="Fill-18" fill="#3C00B4"></path>
            <path d="M23.4466415,53.7953208 L27.1437484,50.1636226 L27.1437484,52.2174591 L30.2894088,52.2174591 L30.2894088,53.9905409 L27.1467673,53.9905409 L27.1467673,58.8579623 C27.1467673,59.9980881 27.618717,60.5666415 28.5626164,60.5626164 C29.3585912,60.5354465 30.1324277,60.2919245 30.8006038,59.8582138 L30.8006038,61.6956981 C30.0448805,62.1203522 29.1915472,62.3407296 28.3251321,62.3336855 C27.5029937,62.3618616 26.7009811,62.0801006 26.0770818,61.5447547 C25.8949434,61.3917987 25.736956,61.211673 25.6121761,61.0094088 C25.4712956,60.7668931 25.3676478,60.5042516 25.3042516,60.2315472 C25.1975849,59.6267673 25.156327,59.0129308 25.1794717,58.4001006 L25.1794717,53.9915472 L23.4466415,53.9915472 L23.4466415,53.7953208 Z" id="Fill-20" fill="#3C00B4"></path>
            <path d="M38.5508428,62.1616101 L38.5508428,60.8806038 C38.148327,61.3263899 37.661283,61.6896604 37.1188931,61.9482767 C36.617761,62.1948176 36.0673208,62.3246289 35.5088302,62.3297336 C34.8990189,62.3336855 34.2982642,62.171673 33.7739874,61.8597233 C33.2587673,61.5608553 32.8411572,61.1170818 32.5744906,60.5837484 C32.2504654,59.7304151 32.1136101,58.818717 32.1719748,57.9080252 L32.1719748,52.2164528 L34.1392704,52.2164528 L34.1392704,57.8848805 C34.0728553,58.6416101 34.2288302,59.4013585 34.5880755,60.0705409 C34.9775094,60.5243774 35.5661887,60.7568302 36.1609057,60.6914214 C37.1390189,60.669283 38.0386415,60.1520503 38.5498365,59.3188428 L38.5498365,52.2164528 L40.5171321,52.2164528 L40.5171321,62.1616101 L38.5508428,62.1616101 Z" id="Fill-22" fill="#3C00B4"></path>
            <path d="M45.3929057,52.2175597 L45.3929057,54.4988176 L45.5005786,54.3257358 C46.4505157,52.7921509 47.4024654,52.0253585 48.3544151,52.0253585 C49.2439748,52.0917736 50.0741635,52.493283 50.6789434,53.1493836 L49.6414591,54.879195 C49.1524025,54.3257358 48.4731572,53.978566 47.738566,53.9061132 C47.0744151,53.9212075 46.4595723,54.2593208 46.0902642,54.8117736 C45.6213333,55.4286289 45.3747925,56.1873711 45.3929057,56.9632201 L45.3929057,62.162717 L43.4145409,62.162717 L43.4145409,52.2175597 L45.3929057,52.2175597 Z" id="Fill-24" fill="#3C00B4"></path>
            <path d="M53.1321761,56.1842516 L58.1374591,56.1842516 C58.1324277,55.5130566 57.8818616,54.8670189 57.4330566,54.3678994 C56.9842516,53.9301635 56.3724277,53.698717 55.7465157,53.7299119 C55.1065157,53.7047547 54.4826164,53.9341887 54.011673,54.3678994 C53.5276478,54.8609811 53.218717,55.4989686 53.1321761,56.1842516 L53.1321761,56.1842516 Z M60.0836226,57.3585912 L53.0899119,57.3585912 C53.0979623,58.2119245 53.4421132,59.0270189 54.0468931,59.6287799 C54.6627421,60.2023648 55.4808553,60.5052579 56.3221132,60.4720503 C57.6182138,60.4730566 58.8780881,60.0484025 59.9105409,59.2645031 L59.9105409,61.1885283 C59.3580881,61.5668931 58.7502893,61.858717 58.1102893,62.0529308 C57.4290314,62.2370818 56.7236226,62.3246289 56.0182138,62.3125535 C55.0833711,62.3548176 54.1575849,62.1183396 53.3585912,61.6312956 C52.6712956,61.1663899 52.1117987,60.5364528 51.7314214,59.7988428 C51.3107925,58.9746918 51.100478,58.0599748 51.1206038,57.135195 C51.062239,55.785761 51.5221132,54.4645031 52.4066415,53.4431195 C53.256956,52.4992201 54.4795975,51.9809811 55.7485283,52.0252579 C56.9570818,51.9759497 58.1213585,52.4871447 58.9052579,53.4089057 C59.7344403,54.4614843 60.1530566,55.778717 60.0836226,57.1170818 L60.0836226,57.3585912 Z" id="Fill-26" fill="#3C00B4"></path>
            <path d="M81.6498113,58.6597233 L81.6498113,61.0375849 C79.9572327,61.9281509 78.0674214,62.3739371 76.1574843,62.3346918 C74.6621384,62.3809811 73.1808805,62.0307925 71.8646541,61.3183396 C70.7013836,60.6511698 69.7383648,59.6851321 69.0772327,58.5188428 C68.3969811,57.3465157 68.041761,56.015195 68.048805,54.6597233 C68.0075472,52.5606038 68.8628931,50.544 70.3994969,49.1140629 C71.9542138,47.6197233 74.0432704,46.8096604 76.1997484,46.8660126 C78.0261635,46.9213585 79.8254088,47.344 81.4857862,48.1087799 L81.4857862,50.4333082 C79.9220126,49.4833711 78.1358491,48.9631195 76.3064151,48.9238742 C74.7104403,48.8725535 73.1587421,49.462239 71.9984906,50.5621132 C69.7303145,52.8081509 69.7122013,56.4680252 71.958239,58.7362013 C71.9622642,58.7412327 71.9672956,58.7452579 71.972327,58.7502893 C73.1406289,59.8340629 74.692327,60.4096604 76.285283,60.3502893 C78.1992453,60.3231195 80.0649057,59.7354465 81.6498113,58.6597233" id="Fill-28" fill="#3C00B4"></path>
            <mask id="mask-4" fill="white">
                <use xlink:href="#path-3"></use>
            </mask>
            <g id="Clip-31"></g>
            <path d="M84.0815094,62.1625157 L86.0477987,62.1625157 L86.0477987,52.2173585 L84.0815094,52.2173585 L84.0815094,62.1625157 Z M85.0545912,48.0332075 C85.3655346,48.0281761 85.6664151,48.1489308 85.8867925,48.3683019 C86.1132075,48.5806289 86.2389937,48.8794969 86.232956,49.189434 C86.2359748,49.4993711 86.111195,49.7962264 85.8867925,50.010566 C85.669434,50.2349686 85.3685535,50.3607547 85.0545912,50.3567296 C84.7506918,50.3567296 84.4598742,50.2289308 84.2545912,50.0045283 C84.0332075,49.791195 83.9074214,49.4963522 83.9084217,49.1884277 C83.909434,48.8845283 84.0342138,48.5937107 84.2545912,48.3833962 C84.4608805,48.1610063 84.7506918,48.0342138 85.0545912,48.0332075 L85.0545912,48.0332075 Z" id="Fill-30" fill="#3C00B4" mask="url(#mask-4)"></path>
            <path d="M87.4968553,53.7953208 L91.1939623,50.1636226 L91.1939623,52.2174591 L94.3396226,52.2174591 L94.3396226,53.9905409 L91.1939623,53.9905409 L91.1939623,58.8579623 C91.1939623,59.9980881 91.6659119,60.5666415 92.6098113,60.5626164 C93.4057862,60.5354465 94.1796226,60.2919245 94.8477987,59.8582138 L94.8477987,61.6956981 C94.0930818,62.1203522 93.2387421,62.3407296 92.372327,62.3336855 C91.5501887,62.3618616 90.7481761,62.0801006 90.1242767,61.5447547 C89.9421384,61.3917987 89.7841509,61.211673 89.6593711,61.0094088 C89.5184906,60.7668931 89.4138365,60.5042516 89.3504403,60.2315472 C89.2447799,59.6267673 89.203522,59.0129308 89.2266667,58.4001006 L89.2266667,53.9915472 L87.4968553,53.9915472 L87.4968553,53.7953208 Z" id="Fill-32" fill="#3C00B4" mask="url(#mask-4)"></path>
            <polygon id="Fill-33" fill="#3C00B4" mask="url(#mask-4)" points="102.369107 52.2175597 104.574893 52.2175597 97.5308679 67.2324025 95.3331321 67.2324025 98.7072201 60.0273711 94.8682264 52.2175597 97.1072201 52.2175597 99.792 57.8346667"></polygon>
        </g>
    </g>
</svg>