<?xml version="1.0" encoding="UTF-8"?>
<svg width="237px" height="158px" viewBox="0 0 237 158" version="1.1" xmlns="http://www.w3.org/2000/svg" xmlns:xlink="http://www.w3.org/1999/xlink">
    <title>4-1-5</title>
    <defs>
        <polygon id="path-1" points="0 0.0368646288 41.436 0.0368646288 41.436 40.8732838 0 40.8732838"></polygon>
        <polygon id="path-3" points="0.461868996 0.0363144105 26.4251004 0.0363144105 26.4251004 40.8733624 0.461868996 40.8733624"></polygon>
    </defs>
    <g id="4-1-5" stroke="none" stroke-width="1" fill="none" fill-rule="evenodd">
        <rect id="Rectangle-Copy-2" fill="#B4CC31" x="0" y="0" width="237" height="158"></rect>
        <g id="Group-15" transform="translate(29.000000, 58.000000)">
            <g id="Group-3" transform="translate(0.000000, 0.749555)">
                <mask id="mask-2" fill="white">
                    <use xlink:href="#path-1"></use>
                </mask>
                <g id="Clip-2"></g>
                <path d="M8.26097817,5.05249782 C13.0470917,1.6890917 19.1442969,0.0368646288 25.9630742,0.0368646288 C29.5033362,0.0368646288 34.4859563,0.686122271 37.5679651,1.45328384 C38.3539913,1.63013974 38.8130306,1.74804367 39.4033362,1.6890917 C39.4693624,3.04655895 39.7971354,6.76367686 40.3214148,10.3636769 C39.9936419,10.7771266 39.0095371,10.8360786 38.5512838,10.4815808 C37.5679651,6.46891703 34.6172227,1.8659476 25.1110218,1.8659476 C15.0789694,1.8659476 6.55608734,7.59057642 6.55608734,19.8062096 C6.55608734,32.1986987 15.276262,39.0442009 26.0283144,39.0442009 C34.4859563,39.0442009 38.2235109,34.0867336 39.7311092,30.6046376 C40.1901485,30.3098777 41.1734672,30.4277817 41.436,30.8412314 C40.9769607,33.9098777 39.2720699,37.8046376 38.2887511,38.9255109 C37.5019389,39.0442009 36.7151266,39.2792227 35.9943406,39.5158166 C34.5511965,39.9882183 29.8311092,40.8732838 25.6353013,40.8732838 C19.7346026,40.8732838 14.0964367,39.8113624 9.30953712,36.9195721 C4.06438428,33.6740699 -0.00015720524,28.3039389 -0.00015720524,20.6912751 C-0.00015720524,14.1405328 3.27757205,8.53459389 8.26097817,5.05249782" id="Fill-1" fill="#FFFFFF" mask="url(#mask-2)"></path>
            </g>
            <g id="Group-6" transform="translate(43.231441, 0.749555)">
                <mask id="mask-4" fill="white">
                    <use xlink:href="#path-3"></use>
                </mask>
                <g id="Clip-5"></g>
                <path d="M12.4597729,40.8735197 C6.95287336,40.8735197 3.47785153,39.3391965 2.232,38.6899389 C1.44518777,37.3914236 0.593135371,33.2019039 0.461868996,30.4280175 C0.789641921,30.0145677 1.7729607,29.8966638 2.03549345,30.2511616 C3.01881223,33.2600699 5.70702183,39.0444367 13.3126114,39.0444367 C18.8202969,39.0444367 21.5077205,35.7981485 21.5077205,32.2578865 C21.5077205,29.6608559 20.9182009,26.7690655 16.1313013,23.9959651 L9.90282969,20.3370131 C6.62431441,18.3900262 2.82230568,15.0258341 2.82230568,10.1870568 C2.82230568,4.58033188 7.67365939,0.0363144105 16.1973275,0.0363144105 C18.2299913,0.0363144105 20.5904279,0.390812227 22.2945328,0.803475983 C23.1473712,1.04006987 24.0654498,1.1579738 24.5897293,1.1579738 C25.1792489,2.57439301 25.7695546,5.87884716 25.7695546,8.35718777 C25.5070218,8.71168559 24.4584629,8.88854148 24.13069,8.53404367 C23.2778515,5.70120524 21.5077205,1.86618341 15.2132227,1.86618341 C8.78824454,1.86618341 7.41191266,5.70120524 7.41191266,8.41692576 C7.41191266,11.8392838 10.5583755,14.3176245 12.9848384,15.6750917 L18.2299913,18.6258341 C22.360559,20.9273188 26.4251004,24.3496769 26.4251004,29.9564017 C26.4251004,36.4474061 20.983441,40.8735197 12.4597729,40.8735197" id="Fill-4" fill="#FFFFFF" mask="url(#mask-4)"></path>
            </g>
            <path d="M83.0064105,19.0800786 C83.0064105,20.142786 83.0064105,20.7912576 83.2037031,21.0278515 C83.4002096,21.2047074 84.3835284,21.3226114 87.7272838,21.3226114 C90.0877205,21.3226114 92.5794236,21.0868035 94.4800349,19.7882882 C96.250952,18.5487249 97.7593362,16.4838341 97.7593362,12.4711703 C97.7593362,7.80846288 94.5468472,3.38313537 87.2682445,3.38313537 C83.2037031,3.38313537 83.0064105,3.61894323 83.0064105,5.27117031 L83.0064105,19.0800786 Z M77.6307773,10.6413013 C77.6307773,5.03536245 77.4334847,4.03160699 74.7452751,3.73684716 L72.6473712,3.5010393 C72.1883319,3.20627948 72.1883319,2.26147598 72.7133974,2.02566812 C76.3849258,1.73012227 80.9085066,1.55326638 87.3334847,1.55326638 C91.3995983,1.55326638 95.2676332,1.8480262 98.2828297,3.32418341 C101.429293,4.79955459 103.724489,7.45475109 103.724489,11.5853188 C103.724489,17.1920437 98.8078952,20.2599039 95.5293799,21.4405153 C95.202393,21.7950131 95.5293799,22.3853188 95.8579389,22.8569345 C101.102306,30.4695983 104.576541,35.1904716 109.035668,38.5538777 C110.150253,39.4397293 111.789118,40.0889869 113.559249,40.2061048 C113.887022,40.3247948 113.952262,40.7964105 113.625275,41.0330044 C113.034969,41.2098603 111.985624,41.3285502 110.739773,41.3285502 C105.166847,41.3285502 101.823092,39.852393 97.1690306,33.8927424 C95.4641397,31.7091616 92.7759301,27.6367598 90.7432664,24.9815633 C89.7599476,23.683048 88.7113886,23.0927424 86.0884192,23.0927424 C83.1376769,23.0927424 83.0064105,23.1524803 83.0064105,24.3912576 L83.0064105,31.8270655 C83.0064105,38.02331 83.1376769,38.7307336 86.9404716,39.2039214 L88.3175895,39.3807773 C88.7113886,39.6755371 88.5793362,40.6785066 88.1863231,40.8561485 C85.2355808,40.7382445 83.0064105,40.6785066 80.3842271,40.6785066 C77.6307773,40.6785066 75.2703406,40.7382445 72.1883319,40.8561485 C71.7953188,40.6785066 71.6640524,39.7942271 72.0578515,39.3807773 L73.6959301,39.2039214 C77.4995109,38.7904716 77.6307773,38.02331 77.6307773,31.8270655 L77.6307773,10.6413013 Z" id="Fill-7" fill="#FFFFFF"></path>
            <path d="M155.851939,25.7394498 C155.664079,26.0192751 155.361459,26.136393 154.707485,26.136393 L146.911677,26.136393 C147.798314,29.7308908 150.529755,33.2554323 156.995607,35.4500175 L156.948445,35.706262 C155.688445,35.9404978 154.941721,36.5701048 154.731066,37.9700175 C148.965563,35.1458253 147.167921,30.1977904 146.491153,26.136393 L146.443991,26.136393 C145.628096,31.1779651 143.129319,35.0994498 135.217179,37.8772664 L134.983729,37.5274847 C141.146175,34.3755197 143.129319,30.6183144 143.783293,26.136393 L136.314472,26.136393 L136.174559,25.6694934 L143.830454,25.6694934 C144.086699,23.615607 144.086699,21.3982271 144.086699,19.0173537 L135.239974,19.0173537 L135.123642,18.5504541 L152.513686,18.5504541 L154.031502,16.6128996 L156.854908,18.6204105 C156.66862,18.9002358 156.388009,19.0173537 155.71124,19.0173537 L146.934472,19.0173537 C146.863729,21.4218079 146.81814,23.6391878 146.538314,25.6694934 L151.55552,25.6694934 L153.050541,23.7783144 L155.851939,25.7394498 Z" id="Fill-9" fill="#FFFFFF"></path>
            <path d="M176.737677,16.2859913 L179.677415,18.4106201 C179.513921,18.7132402 179.211301,18.8303581 178.533747,18.8303581 L169.594271,18.8303581 L169.594271,23.8019738 C175.569642,24.5023231 177.484402,26.8132402 177.484402,28.3302707 C177.484402,29.1241572 176.947546,29.6838079 176.223616,29.6838079 C175.943004,29.6838079 175.640384,29.6146376 175.336978,29.4511441 C174.19331,27.5607511 171.78807,25.4361223 169.594271,24.198917 L169.594271,37.1534148 C169.594271,37.3404891 168.730428,37.9237205 167.423266,37.9237205 L166.933572,37.9237205 L166.933572,18.8303581 L157.900559,18.8303581 L157.783441,18.3634585 L175.126323,18.3634585 L176.737677,16.2859913 Z" id="Fill-11" fill="#FFFFFF"></path>
            <path d="M124.84462,25.097738 C124.726716,24.4791354 124.534926,24.0287424 124.273179,23.746559 C124.00986,23.4635895 123.625493,23.3228908 123.118507,23.3228908 C122.575362,23.3228908 122.077808,23.5193974 121.625843,23.9124105 C121.17152,24.3062096 120.788725,24.7731092 120.475886,25.3154672 C120.144969,25.8806201 119.888725,26.4968646 119.707153,27.1649869 C119.524795,27.8323231 119.433616,28.4485677 119.433616,29.0137205 C119.433616,29.6629782 119.520865,30.1613188 119.695362,30.5079563 C119.869074,30.8561659 120.154402,31.0298777 120.553703,31.0298777 C121.129074,31.0298777 121.646279,30.8498777 122.104533,30.4906638 C122.562,30.1330218 122.990384,29.6252489 123.387328,28.968917 L124.84462,25.097738 Z M129.26759,34.9521485 C128.421039,35.6147686 127.414926,36.1500524 126.250035,36.558786 C125.08593,36.9659476 123.788201,37.1695284 122.356847,37.1695284 C121.077197,37.1695284 119.819555,36.9848122 118.583135,36.6145939 C117.34593,36.2459476 116.232917,35.6839389 115.241738,34.9285677 C114.259205,34.1739825 113.466891,33.2346812 112.866367,32.1106638 C112.264271,30.9858603 111.963223,29.6614061 111.963223,28.1373013 C111.963223,26.8332838 112.235188,25.5685677 112.77676,24.3407948 C113.319118,23.1130218 114.09414,22.0188734 115.101825,21.0591354 C116.075712,20.1206201 117.28069,19.3644629 118.71676,18.7890917 C120.152044,18.2137205 121.717022,17.9260349 123.410908,17.9260349 C124.876061,17.9260349 126.146279,18.137476 127.221563,18.5603581 C128.298419,18.9832402 129.179555,19.5421048 129.864969,20.2353799 C130.55117,20.9223668 131.066017,21.7107511 131.408725,22.6021048 C131.751432,23.4942445 131.923572,24.4248996 131.923572,25.3924978 C131.923572,27.2522358 131.354489,28.8242882 130.218681,30.108655 C129.082087,31.3938079 127.645231,32.0359913 125.908114,32.0359913 C125.187328,32.0359913 124.576585,31.8740699 124.075886,31.549441 C123.575974,31.2255983 123.295362,30.7704891 123.23641,30.1833275 L123.148376,30.1597467 C122.741214,30.7170393 122.278245,31.1611441 121.758681,31.4928472 C121.239118,31.8245502 120.71248,31.9904017 120.179555,31.9904017 C119.832917,31.9904017 119.479205,31.938524 119.120777,31.8355546 C118.760777,31.7325852 118.441651,31.5635895 118.162611,31.3269956 C117.883572,31.0746812 117.661127,30.7476943 117.496061,30.3428908 C117.331782,29.9396594 117.249249,29.4397467 117.249249,28.8462969 C117.249249,28.2897904 117.39152,27.6664716 117.673703,26.9763406 C117.956672,26.2862096 118.341039,25.6283057 118.822087,25.0034148 C119.303921,24.3706638 119.92724,23.8220175 120.69283,23.357476 C121.457633,22.8921485 122.284533,22.6594847 123.171956,22.6594847 C123.64593,22.6594847 124.066454,22.7797467 124.434314,23.0194847 C124.801389,23.2600087 125.02855,23.6129345 125.112655,24.077476 L125.1889,24.077476 L125.743048,22.7970393 L127.641301,22.7970393 L125.239991,28.9484803 C125.164533,29.1386987 125.102437,29.358786 125.056847,29.6063843 C125.009686,29.8531965 124.986891,30.0504891 124.986891,30.1943319 C124.986891,30.5834148 125.096148,30.8671703 125.317022,31.0471703 C125.536323,31.2255983 125.820865,31.3159913 126.168288,31.3159913 C127.480952,31.3159913 128.576672,30.7610568 129.458594,29.6511878 C130.338943,28.5421048 130.779904,27.0808821 130.779904,25.2667336 C130.779904,24.3675197 130.622699,23.5343319 130.30986,22.7679563 C129.996236,22.0023668 129.517546,21.3255983 128.874576,20.7392227 C128.255974,20.1591354 127.477022,19.7024541 126.536148,19.366821 C125.596061,19.0311878 124.519991,18.8629782 123.309511,18.8629782 C122.157197,18.8629782 121.034751,19.0657729 119.942961,19.4697904 C118.849598,19.8738079 117.854489,20.4680437 116.956847,21.2532838 C116.083572,22.0157293 115.376934,22.9644629 114.835362,24.1002707 C114.293004,25.2368646 114.021825,26.5212314 114.021825,27.9533712 C114.021825,29.3336332 114.233266,30.5480437 114.656934,31.5958166 C115.080603,32.6443755 115.677983,33.5223668 116.448288,34.2305764 C117.202087,34.9175633 118.091869,35.4316245 119.116847,35.7743319 C120.141039,36.1178253 121.250908,36.289179 122.444882,36.289179 C123.792131,36.289179 124.990035,36.1248996 126.040166,35.7979127 C127.090297,35.4693537 128.035886,34.9930218 128.874576,34.368131 L129.26759,34.9521485 Z" id="Fill-13" fill="#FFFFFF"></path>
        </g>
    </g>
</svg>