<?xml version="1.0" encoding="UTF-8"?>
<svg width="237px" height="158px" viewBox="0 0 237 158" version="1.1" xmlns="http://www.w3.org/2000/svg" xmlns:xlink="http://www.w3.org/1999/xlink">
    <title>4-1-6</title>
    <g id="4-1-6" stroke="none" stroke-width="1" fill="none" fill-rule="evenodd">
        <g id="Group-85">
            <polygon id="Fill-1" fill="#D60C18" points="0 158 237 158 237 0 0 0"></polygon>
            <g id="Group" transform="translate(29.000000, 44.000000)" fill="#FFFFFF">
                <polygon id="Fill-2" points="-3.33447555e-13 19.9045714 28.248 19.9045714 28.248 19.0217143 -3.33447555e-13 19.0217143"></polygon>
                <polygon id="Fill-3" points="48.744 19.9045714 57.8485714 19.9045714 57.8485714 19.0217143 48.744 19.0217143"></polygon>
                <polygon id="Fill-4" points="73.2634286 19.9045714 79.1314286 19.9045714 79.1314286 19.0217143 73.2634286 19.0217143"></polygon>
                <polygon id="Fill-5" points="87.576 19.9045714 179.165143 19.9045714 179.165143 19.0217143 87.576 19.0217143"></polygon>
                <polygon id="Fill-6" points="6.70320942e-13 35.4548571 20.004 35.4548571 20.004 34.5702857 6.70320942e-13 34.5702857"></polygon>
                <polygon id="Fill-7" points="34.2137143 35.4548571 37.6542857 35.4548571 37.6542857 34.5702857 34.2137143 34.5702857"></polygon>
                <polygon id="Fill-8" points="50.8337143 35.4548571 77.5354286 35.4548571 77.5354286 34.5702857 50.8337143 34.5702857"></polygon>
                <polygon id="Fill-9" points="88.7005714 35.4548571 99.7525714 35.4548571 99.7525714 34.5702857 88.7005714 34.5702857"></polygon>
                <polygon id="Fill-10" points="107.148 35.4548571 113.178857 35.4548571 113.178857 34.5702857 107.148 34.5702857"></polygon>
                <polygon id="Fill-11" points="160.148571 35.4548571 179.163429 35.4548571 179.163429 34.5702857 160.148571 34.5702857"></polygon>
                <polygon id="Fill-12" points="6.70320942e-13 41.484 20.004 41.484 20.004 40.5994286 6.70320942e-13 40.5994286"></polygon>
                <polygon id="Fill-13" points="32.5971429 41.484 41.7017143 41.484 41.7017143 40.5994286 32.5971429 40.5994286"></polygon>
                <polygon id="Fill-14" points="61.3525714 41.484 77.5354286 41.484 77.5354286 40.5994286 61.3525714 40.5994286"></polygon>
                <polygon id="Fill-15" points="89.712 41.484 113.178857 41.484 113.178857 40.5994286 89.712 40.5994286"></polygon>
                <polygon id="Fill-16" points="160.148571 41.484 179.163429 41.484 179.163429 40.5994286 160.148571 40.5994286"></polygon>
                <polygon id="Fill-17" points="5.0245522e-13 45.3634286 12.7817143 45.3634286 12.7817143 44.4822857 5.0245522e-13 44.4822857"></polygon>
                <polygon id="Fill-18" points="30.9805714 45.3634286 44.1308571 45.3634286 44.1308571 44.4822857 30.9805714 44.4822857"></polygon>
                <polygon id="Fill-19" points="68.1582857 45.3634286 77.5354286 45.3634286 77.5354286 44.4822857 68.1582857 44.4822857"></polygon>
                <polygon id="Fill-20" points="90.7217143 45.3634286 113.178857 45.3634286 113.178857 44.4822857 90.7217143 44.4822857"></polygon>
                <polygon id="Fill-21" points="160.148571 45.3634286 179.163429 45.3634286 179.163429 44.4822857 160.148571 44.4822857"></polygon>
                <polygon id="Fill-22" points="-4.79616347e-14 51.1165714 13.8668571 51.1165714 13.8668571 50.232 -4.79616347e-14 50.232"></polygon>
                <polygon id="Fill-23" points="26.7291429 51.1165714 49.1862857 51.1165714 49.1862857 50.232 26.7291429 50.232"></polygon>
                <polygon id="Fill-24" points="68.6331429 51.1165714 77.5354286 51.1165714 77.5354286 50.232 68.6331429 50.232"></polygon>
                <polygon id="Fill-25" points="89.712 51.1165714 179.165143 51.1165714 179.165143 50.232 89.712 50.232"></polygon>
                <g id="Group-84" transform="translate(10.342286, 0.000000)">
                    <path d="M128.383029,34.3038857 C128.489314,34.1856 128.585314,33.9730286 128.7756,33.9370286 C131.712171,33.8650286 133.738457,33.8307429 136.711029,33.8410286 C137.029886,33.6181714 137.480743,33.7107429 137.8716,33.6524571 L141.745886,33.6181714 C142.064743,33.4141714 141.828171,32.9410286 141.946457,32.6221714 C142.076743,31.9930286 141.5796,30.8804571 142.4796,30.6918857 C142.918457,30.6301714 143.533886,30.5838857 143.758457,31.0930286 L143.758457,33.4758857 L143.842457,33.5941714 C145.548171,33.6644571 147.181886,33.5564571 148.793314,33.6764571 C148.8636,33.7347429 148.9836,33.7707429 149.0196,33.8770286 C149.041886,34.0553143 149.005886,34.2576 148.817314,34.3038857 C147.276171,34.4101714 145.584171,34.3158857 143.984743,34.3878857 C143.948743,34.4461714 143.852743,34.3998857 143.816743,34.4461714 L143.736171,34.5884571 C143.676171,35.6907429 143.712171,36.6147429 143.700171,37.7393143 L143.816743,37.8816 L147.881314,37.9398857 C147.9996,38.0581714 148.201886,38.2124571 148.081886,38.4250286 L147.881314,38.6256 L143.794457,38.6753143 L137.681314,38.6513143 C137.539029,38.5450286 137.338457,38.4370286 137.420743,38.2004571 C137.504743,38.0358857 137.659029,37.9638857 137.8236,37.9398857 L141.6276,37.9158857 C142.052743,37.7633143 141.756171,37.1821714 141.886457,36.8856 L141.886457,34.5524571 L141.709886,34.4101714 C140.110457,34.4101714 138.605314,34.4341714 137.0196,34.3878857 C136.9476,34.3278857 136.865314,34.3038857 136.771029,34.3038857 C136.628743,34.4924571 136.486457,34.5284571 136.284171,34.5884571 L129.058457,34.6467429 C128.917886,34.6124571 128.749886,34.6124571 128.6076,34.5524571" id="Fill-26"></path>
                    <path d="M110.583943,31.0311429 C110.690229,31.6585714 110.619943,32.346 110.643943,32.9957143 L110.832514,33.138 C111.8868,33.258 112.953086,33.0214286 113.961086,33.222 C114.101657,33.342 114.089657,33.4585714 114.055371,33.6248571 C113.995371,33.7671429 113.853086,33.8134286 113.712514,33.8271429 L107.3388,33.8734286 L104.779371,33.8511429 C104.6388,33.8134286 104.5788,33.7088571 104.496514,33.5888571 C104.508514,33.4345714 104.532514,33.234 104.721086,33.1997143 C105.915943,33.1277143 107.3028,33.1997143 108.557657,33.138 C108.665657,33.1277143 108.771943,33.0077143 108.795943,32.9151429 C108.972514,32.1677143 108.309086,30.7928571 109.471371,30.6385714 C109.872514,30.6882857 110.359371,30.6042857 110.583943,31.0311429" id="Fill-28"></path>
                    <path d="M135.9768,31.5198857 C136.059086,31.5438857 136.165371,31.5918857 136.201371,31.6861714 C136.261371,31.8627429 136.237371,32.0890286 136.023086,32.1713143 L135.431657,32.2313143 L129.603086,32.1970286 C129.474514,32.1593143 129.402514,32.0547429 129.318514,31.9467429 C129.284229,31.8164571 129.342514,31.6381714 129.462514,31.5678857 C130.184229,31.3313143 131.013943,31.5558857 131.759657,31.4838857 C133.0968,31.4958857 134.589943,31.4616 135.9768,31.5198857" id="Fill-30"></path>
                    <path d="M108.475371,34.1583429 C108.699943,34.3126286 108.759943,34.5852 108.699943,34.8217714 C108.617657,35.4029143 107.669657,35.9223429 108.309086,36.5274857 C108.547371,37.0966286 109.233086,37.5937714 109.411371,38.1372 C109.457657,38.2074857 109.365086,38.3172 109.365086,38.3994857 C109.197086,38.6223429 108.926229,38.6703429 108.677657,38.6000571 C108.2028,38.2074857 107.847943,37.6983429 107.373086,37.3212 C107.196514,37.3554857 107.078229,37.4977714 106.994229,37.6640571 C106.4628,38.3172 105.975943,39.2034857 105.206229,39.5360571 C105.005657,39.4880571 104.791371,39.4280571 104.697086,39.2274857 L104.721086,38.9429143 C105.869657,37.4977714 106.4748,35.8297714 107.2788,34.2526286 C107.563371,34.0040571 108.1548,33.8497714 108.475371,34.1583429" id="Fill-32"></path>
                    <path d="M113.083371,34.7626286 C113.131371,35.3677714 112.620514,35.8152 112.397657,36.3500571 C112.632514,37.1900571 113.095371,37.9254857 113.534229,38.6832 C113.616514,38.8237714 113.522229,38.9540571 113.450229,39.0843429 C113.273657,39.2043429 113.035371,39.2986286 112.7988,39.2266286 C112.349657,38.8837714 112.005086,38.2323429 111.579943,37.8294857 C111.0468,38.1260571 110.9628,39.2626286 110.0988,38.8237714 C109.896514,38.7072 109.872514,38.4809143 109.932514,38.2803429 C110.595943,37.1437714 111.153086,35.9454857 111.437657,34.6443429 C111.567943,34.4060571 111.8028,34.3237714 112.029086,34.2517714 C112.431943,34.2894857 112.8948,34.3357714 113.083371,34.7626286" id="Fill-34"></path>
                    <path d="M135.917486,36.4016571 C136.035771,36.4719429 136.226057,36.5422286 136.226057,36.7222286 C136.190057,36.8748 136.119771,37.0650857 135.941486,37.1113714 L135.596914,37.1473714 L129.627771,37.1473714 C129.521486,37.0993714 129.4152,37.0273714 129.3192,36.9228 C129.272914,36.7222286 129.3672,36.4376571 129.603771,36.4016571 L129.746057,36.3759429 L135.917486,36.4016571 Z" id="Fill-36"></path>
                    <path d="M135.834514,38.8172571 C135.9408,38.8635429 136.059086,38.9235429 136.119086,39.0538286 C136.177371,39.1601143 136.119086,39.2904 136.059086,39.3846857 C135.9528,39.5029714 135.788229,39.5629714 135.597943,39.5269714 L129.5208,39.5029714 C129.332229,39.4206857 129.272229,39.1961143 129.342514,39.0178286 C129.438514,38.8532571 129.639086,38.8532571 129.805371,38.8172571 C131.829943,38.7812571 133.773943,38.7812571 135.834514,38.8172571" id="Fill-38"></path>
                    <path d="M110.406514,39.1086857 C110.869371,39.5938286 110.478514,40.1166857 110.643086,40.7321143 C110.715086,40.8521143 110.869371,40.7904 110.975657,40.8384 L113.960229,40.8384 C114.078514,40.8984 114.2568,40.9446857 114.279086,41.0989714 C114.291086,41.2875429 114.1608,41.4658286 113.996229,41.5258286 L111.176229,41.5841143 C110.975657,41.6561143 111.200229,41.8086857 111.212229,41.9304 C112.005943,42.9829714 112.988229,43.6224 114.054514,44.3921143 C114.1728,44.6424 113.984229,44.8429714 113.793943,44.9612571 L113.3088,44.9612571 C112.3368,44.3801143 111.3768,43.6446857 110.5008,42.9469714 L110.406514,43.0052571 C110.5728,44.2858286 110.5728,45.4344 110.5248,46.8092571 C110.300229,47.2584 109.765371,47.2721143 109.328229,47.2344 C109.103657,47.1881143 108.841371,47.0458286 108.7608,46.8092571 L108.699086,46.4406857 C108.6648,45.1995429 108.747086,44.0012571 108.961371,42.7446857 C108.699086,42.5321143 108.6888,42.9709714 108.476229,43.0892571 C108.486514,43.2315429 108.297943,43.2195429 108.273943,43.3498286 C107.7168,43.8829714 107.231657,44.5944 106.568229,45.0778286 C106.556229,45.2578286 106.331657,45.2578286 106.261371,45.3624 C105.8448,45.7189714 105.325371,46.4406857 104.637943,46.0738286 C104.519657,45.9795429 104.519657,45.8132571 104.531657,45.7069714 C104.613943,45.4944 104.874514,45.3401143 105.0648,45.1995429 C106.271657,44.1555429 107.065371,43.0772571 107.883086,41.7504 C107.883086,41.6921143 107.895086,41.6201143 107.8248,41.5841143 C106.734514,41.5138286 105.668229,41.6081143 104.579657,41.5018286 C104.459657,41.3955429 104.329371,41.1829714 104.471657,41.0149714 L104.720229,40.8726857 L108.510514,40.8384 C108.618514,40.8521143 108.7128,40.7321143 108.7608,40.6481143 C108.867086,40.0566857 108.486514,39.2269714 109.185943,38.9424 C109.5768,38.8721143 110.109943,38.8001143 110.406514,39.1086857" id="Fill-40"></path>
                    <path d="M141.176571,39.5271429 C141.567429,39.8837143 141.248571,40.4391429 141.342857,40.9242857 C141.354857,42.6677143 141.318857,44.1128571 141.378857,45.7345714 C141.461143,45.9351429 141.685714,45.9711429 141.852,46.0431429 L144.387429,46.0431429 C145.145143,45.8425714 145.477714,45.1191429 145.642286,44.4197143 C145.772571,44.1248571 146.081143,44.0048571 146.377714,43.9328571 C146.790857,43.9208571 147.193714,44.0288571 147.430286,44.3957143 C147.550286,45.1791429 147.075429,45.9128571 146.46,46.386 C144.884571,47.0494286 142.786286,46.6585714 141.034286,46.7288571 C140.501143,46.6585714 139.897714,46.47 139.695429,45.9231429 L139.637143,45.618 C139.659429,43.7785714 139.695429,41.6597143 139.719429,39.7877143 C139.789714,39.5151429 140.086286,39.4208571 140.322857,39.3385714 C140.643429,39.3145714 140.94,39.3488571 141.176571,39.5271429" id="Fill-42"></path>
                    <path d="M144.220971,40.5817714 C144.670114,41.2212 145.180971,41.8486286 145.465543,42.6080571 C145.477543,42.8223429 145.477543,43.0349143 145.323257,43.1754857 C145.026686,43.4017714 144.670114,43.5440571 144.303257,43.4840571 C143.272971,43.3314857 143.605543,42.1109143 143.130686,41.4714857 C142.978114,40.8423429 142.278686,40.4154857 142.396971,39.7297714 C142.563257,39.4452 142.954114,39.4572 143.248971,39.5034857 C143.605543,39.7417714 143.890114,40.2029143 144.220971,40.5817714" id="Fill-44"></path>
                    <path d="M147.881486,41.2097143 C148.426629,41.8611429 148.971771,42.5005714 149.444914,43.1742857 C149.4912,43.4262857 149.4912,43.7211429 149.302629,43.9097143 C148.971771,44.2062857 148.532914,44.2782857 148.082057,44.1942857 C147.538629,43.8977143 147.514629,43.2462857 147.288343,42.7491429 C146.957486,42.0274286 146.484343,41.448 146.033486,40.7828571 C145.961486,40.6045714 146.033486,40.404 146.151771,40.2737143 C146.342057,40.1554286 146.602629,40.1314286 146.8272,40.1914286 C147.266057,40.3817143 147.538629,40.9131429 147.881486,41.2097143" id="Fill-46"></path>
                    <path d="M134.176286,45.8770286 L134.034,45.9833143 L131.107714,45.9610286 L131.049429,45.9010286 C131.061429,44.5741714 131.035714,43.1050286 131.083714,41.8381714 C131.119714,41.6958857 131.286,41.7438857 131.392286,41.6958857 L134.128286,41.7181714 L134.212286,41.8021714 L134.176286,45.8770286 Z M138.333429,40.8421714 C138.203143,40.6278857 137.954571,40.5816 137.73,40.5233143 C137.517429,40.5936 137.219143,40.5816 137.138571,40.8661714 C137.018571,41.9684571 136.734,42.9867429 136.284857,43.9330286 C136.202571,44.0633143 136.130571,44.2673143 135.998571,44.1953143 C135.715714,43.0690286 136.627714,41.1164571 134.887714,40.9244571 L131.428286,40.9244571 C130.929429,40.9501714 130.314,40.8421714 129.888857,41.1267429 C129.614571,41.3290286 129.379714,41.6016 129.319714,41.9204571 L129.259714,45.8187429 L129.379714,46.1256 C129.580286,46.3861714 129.875143,46.5524571 130.173429,46.6347429 C131.558571,46.7890286 133.204286,46.7170286 134.697429,46.6947429 L135.372857,46.4701714 C135.81,46.2798857 135.964286,45.8290286 136.024286,45.4141714 C136.343143,45.4964571 136.687714,45.6044571 137.018571,45.5564571 C137.966571,45.2616 137.788286,44.1473143 138.048857,43.4016 C138.143143,42.5496 138.453429,41.7061714 138.333429,40.8421714 L138.333429,40.8421714 Z" id="Fill-48"></path>
                    <path d="M119.846743,37.7124 C118.946743,37.8546857 118.117029,37.8066857 117.181029,37.7706857 L117.122743,37.7124 L117.122743,34.8204 C117.158743,34.5135429 117.4776,34.6781143 117.655886,34.6198286 C118.379314,34.6198286 119.147314,34.5958286 119.822743,34.6438286 L119.882743,34.8444 C119.870743,35.8386857 119.894743,36.9169714 119.846743,37.7124 L119.846743,37.7124 Z M119.846743,45.6718286 L119.788457,45.7318286 L117.181029,45.7318286 L117.086743,45.6718286 C117.074743,44.6535429 117.004457,43.6712571 117.062743,42.7232571 C117.086743,42.6392571 117.158743,42.6032571 117.229029,42.5809714 C118.082743,42.6032571 119.065029,42.5089714 119.788457,42.6632571 L119.846743,42.7232571 C119.810743,43.7518286 119.929029,44.7598286 119.846743,45.6718286 L119.846743,45.6718286 Z M117.086743,38.6586857 C117.146743,38.5764 117.241029,38.5764 117.323314,38.5404 C118.153029,38.5644 119.041029,38.4684 119.822743,38.6226857 L119.788457,41.8095429 C118.816457,41.8575429 118.105029,41.8575429 117.122743,41.8095429 L117.062743,41.7272571 L117.086743,38.6586857 Z M122.442171,45.7901143 C122.1576,45.8021143 121.873029,45.8021143 121.636457,45.6718286 L121.588457,42.7815429 L121.694743,42.6392571 C122.725029,42.4729714 123.767314,42.6032571 124.8216,42.5209714 C124.975886,42.4729714 124.963886,42.3084 124.999886,42.1764 C124.975886,42.0341143 124.8216,42.0118286 124.739314,41.9295429 L121.919314,41.8918286 C121.801029,41.8575429 121.600457,41.8815429 121.588457,41.6912571 L121.588457,38.6826857 C121.636457,38.6004 121.718743,38.5884 121.777029,38.5404 L124.597029,38.5181143 L124.8576,38.3981143 C124.8816,38.2918286 125.035886,38.2078286 124.939886,38.0912571 C124.927886,37.9489714 124.763314,37.9129714 124.679314,37.8289714 L121.730743,37.8066857 L121.588457,37.6866857 C121.600457,36.6804 121.528457,35.6381143 121.636457,34.6781143 L121.753029,34.5855429 L125.166171,34.5358286 C125.330743,34.4655429 125.354743,34.2889714 125.450743,34.1586857 L125.224457,33.9084 L121.1016,33.8501143 L121.019314,33.7901143 C121.494171,33.1626857 122.0736,32.5335429 122.666743,31.9781143 C122.891314,31.7775429 123.0456,31.4929714 122.9736,31.1501143 C122.738743,30.8055429 122.322171,30.7352571 121.919314,30.6992571 C121.127314,30.7352571 120.973029,31.6352571 120.594171,32.1444 C120.2856,32.6998286 119.798743,33.1849714 119.680457,33.8261143 L116.519314,33.8501143 L116.471314,33.7901143 C116.695886,32.9844 117.253029,32.3106857 117.607886,31.5512571 L117.631886,31.2084 C117.5376,30.9238286 117.301029,30.7112571 117.004457,30.6632571 C116.5776,30.6049714 116.080457,30.5929714 115.843886,31.0078286 C115.298743,32.9964 114.469029,34.8684 113.226171,36.5741143 C113.166171,36.7404 113.214171,36.9169714 113.308457,37.0352571 C113.474743,37.1312571 113.639314,37.2135429 113.851886,37.1775429 C114.457029,36.8706857 114.7536,36.1952571 115.214743,35.7804 L115.238743,35.8164 L115.238743,43.0061143 C115.334743,43.8598286 115.168457,44.8901143 115.381029,45.7318286 C115.6536,46.1689714 116.150743,46.4055429 116.659886,46.4175429 C119.515886,46.4055429 122.346171,46.4415429 125.224457,46.3832571 L125.390743,46.2752571 C125.497029,46.1569714 125.438743,45.9786857 125.330743,45.8741143 C124.442743,45.6718286 123.318171,45.7781143 122.442171,45.7901143 L122.442171,45.7901143 Z" id="Fill-50"></path>
                    <path d="M37.6866857,2.6532 C38.0929714,3.83091429 37.4432571,4.97091429 36.7112571,5.57948571 C34.3129714,6.75891429 31.7106857,7.53034286 29.3946857,8.83148571 C24.8004,9.72634286 20.4924,11.3103429 16.0198286,12.4074857 C14.3141143,12.6920571 12.4849714,12.1640571 11.5078286,10.7823429 C11.7529714,9.72634286 10.2495429,8.9532 11.3466857,8.01891429 C13.4192571,7.81662857 15.0049714,7.28691429 17.1992571,7.36748571 C19.4346857,5.54005714 21.9564,5.29491429 24.8004,4.92977143 C25.2495429,4.27834286 26.0192571,4.35891429 26.5489714,3.95434286 C27.7678286,2.9772 29.3946857,2.61205714 30.3701143,1.3932 C31.7518286,0.254914286 33.5809714,0.458914286 35.3295429,0.700628571 C36.1421143,1.26977143 37.3198286,1.55434286 37.6866857,2.6532" id="Fill-52"></path>
                    <path d="M69.9108,18.1806857 C70.1542286,17.2875429 70.3170857,16.3104 69.8302286,15.4584 C69.7479429,14.9304 70.0736571,14.5224 69.5439429,14.2789714 C68.5685143,13.5864 67.6753714,14.6852571 66.6999429,14.8498286 C65.3988,15.4978286 64.4628,17.1246857 62.9182286,17.4898286 C61.7405143,18.9949714 59.9919429,19.5641143 58.5296571,20.5395429 C56.6988,21.0264 54.4239429,20.9046857 52.7576571,20.2138286 C52.3085143,19.4424 51.3742286,19.8486857 50.8050857,19.3584 C49.4216571,18.4652571 47.5942286,18.4652571 46.6188,16.9224 C46.0085143,15.8235429 44.2205143,15.8235429 44.5462286,14.2789714 C45.1565143,13.6292571 46.0085143,13.5058286 46.8228,13.3035429 C49.6256571,12.7755429 52.6753714,13.1818286 55.3993714,12.2458286 C56.9422286,11.8412571 58.5690857,11.4744 60.0742286,10.9446857 C60.6416571,10.3361143 61.8622286,10.7029714 62.3079429,9.8064 C63.3262286,9.60411429 64.3822286,9.31954286 65.3576571,9.31954286 C66.2113714,8.62868571 67.4713714,9.03497143 68.2839429,8.22068571 C69.9519429,8.22068571 71.2119429,7.12525714 72.9588,7.24697143 C74.2616571,5.94411429 76.2930857,6.47382857 77.8393714,5.78468571 C80.1159429,5.09211429 82.5948,3.34354286 85.1559429,4.72525714 L86.2119429,4.72525714 C87.9605143,5.17268571 90.2370857,5.17268571 91.0908,6.9624 C91.2125143,8.14182857 90.3999429,9.15497143 89.9113714,10.1732571 C88.2433714,11.1486857 85.4816571,11.7589714 83.7742286,10.3755429 C81.7410857,9.0744 79.2605143,9.84754286 77.1468,10.4561143 C76.5776571,11.1075429 75.6005143,11.1075429 75.2765143,12.0435429 C75.3570857,13.0172571 75.1136571,14.1161143 75.4788,14.9698286 C76.2519429,16.5949714 75.2353714,18.2201143 75.9673714,19.8486857 C76.2930857,22.0429714 76.9428,25.1321143 76.8622286,27.6504 C76.8622286,31.1475429 77.1468,35.4966857 77.7159429,38.8669714 C77.9593714,40.1304 78.4479429,41.5104 78.6108,42.9744 C79.3822286,43.8675429 78.6930857,45.0469714 79.1799429,46.0635429 C78.3262286,48.2166857 79.1388,51.3075429 76.6582286,52.4064 C75.3982286,53.7881143 72.9588,53.5429714 71.3748,53.0149714 C70.2776571,52.6481143 69.9913714,51.4704 69.2593714,50.8601143 C69.2593714,49.4355429 68.2445143,48.0949714 68.7725143,46.4715429 C69.5850857,37.1218286 70.3976571,28.2624 69.9108,18.9521143" id="Fill-54"></path>
                    <path d="M25.5737143,13.7091429 C26.3862857,14.6022857 26.7514286,15.6617143 27.24,16.7194286 C28.0937143,17.652 29.0691429,16.596 29.964,16.5137143 C31.428,15.0102857 33.2965714,13.0577143 35.8988571,13.3028571 C36.9548571,13.7091429 38.2971429,13.6697143 38.8251429,14.7651429 C39.312,15.4577143 39.1902857,16.2702857 38.9468571,17.0022857 C38.0125714,18.912 35.6948571,19.6028571 34.0697143,20.8234286 C32.7668571,21.5142857 31.02,22.0028571 30.3685714,23.4634286 C30.3291429,25.7828571 32.1994286,27.6514286 33.6617143,28.9937143 C35.8988571,31.3114286 37.9714286,34.8445714 40.9782857,36.228 C42.6051429,37.164 43.9045714,39.0308571 45.9788571,39.5588571 C46.4262857,40.0062857 47.28,40.1691429 47.7257143,40.6971429 C48.6617143,40.8188571 49.068,42.1611429 50.1668571,41.7942857 C52.0765714,43.0971429 54.0274286,44.3965714 56.304,44.8028571 C56.8748571,45.2108571 57.6445714,45.5331429 57.9702857,46.0628571 C58.7022857,46.2257143 59.028,46.9988571 59.4342857,47.5268571 C59.6365714,48.1371429 59.1085714,48.6651429 58.9457143,49.1931429 C57.8074286,50.2902857 56.0194286,49.8445714 54.7594286,50.5748571 C50.736,50.6965714 46.2222857,51.7542857 42.2382857,50.9417143 L37.7674286,47.5268571 C34.9234286,44.0297143 32.7668571,40.1691429 29.964,36.6325714 C29.6382857,35.82 28.4588571,35.496 28.0937143,34.5617143 C26.712,33.6685714 26.2234286,32.0005714 24.396,31.8377143 C23.6622857,32.9365714 23.4188571,34.1948571 23.4188571,35.3331429 C22.9714286,36.3085714 23.1342857,37.7314286 22.5651429,38.7462857 C21.9565714,39.4371429 22.2,40.4537143 21.588,41.1034286 C21.5485714,41.916 20.9382857,42.1611429 20.8971429,42.9737143 C19.5171429,46.1451429 16.956,48.7457143 14.3554286,50.9417143 C12.0771429,51.3891429 10.0457143,53.0965714 7.60628571,51.7542857 C6.22457143,51.6325714 4.80171429,50.6965714 4.31485714,49.3165714 C4.63885714,48.5845714 3.70457143,48.3394286 3.70457143,47.7308571 C4.152,46.7537143 2.80971429,45.8177143 4.11085714,45.2108571 C4.19142857,44.6811429 4.68,44.112 5.16685714,43.9491429 C6.34628571,43.7451429 7.56514286,43.7057143 8.50114286,44.7222857 C8.94857143,44.844 9.23314286,44.4788571 9.55885714,44.316 C9.63942857,43.7057143 10.5737143,43.6251429 10.5325714,42.9737143 C11.6314286,41.9982857 12.4028571,40.9011429 12.8914286,39.4371429 C14.3554286,37.8908571 14.5165714,35.7 13.9474286,33.5862857 C12.444,33.4645714 10.86,34.236 9.27428571,33.708 C8.21657143,32.9365714 6.672,32.5302857 6.144,31.3508571 C5.412,30.5794286 4.80171429,29.6022857 4.68,28.5051429 C5.12742857,27.2862857 6.83314286,27.6514286 7.81028571,27.4508571 C8.70342857,27.084 9.76114286,27.0017143 10.6542857,26.5542857 C12.9308571,26.1051429 14.2731429,24.0754286 16.5908571,23.748 C17.9708571,22.896 19.8822857,21.6771429 19.6388571,19.7245714 C18.948,18.1405714 20.0451429,16.7588571 19.8017143,15.0497143 C20.0845714,14.3177143 20.736,13.6697143 21.468,13.3851429 C22.3217143,13.14 23.2971429,13.5068571 24.192,13.1005714 C24.5177143,13.6285714 25.1674286,13.3851429 25.5737143,13.7091429" id="Fill-56"></path>
                    <path d="M94.0537714,25.3023429 C95.9137714,27.3252 97.9383429,29.7937714 96.6834857,32.7869143 C96.5617714,33.7983429 95.1046286,33.4349143 95.0240571,34.5269143 C92.9617714,34.8509143 90.8172,34.8509143 88.9143429,34.1617714 C88.8749143,33.4349143 88.3469143,33.1932 87.7417714,32.7869143 C85.3949143,30.6423429 83.5743429,27.6903429 84.6252,24.7366286 C86.9720571,22.8354857 90.2086286,24.5737714 92.8794857,24.7366286 C93.2446286,24.9800571 93.6080571,25.3023429 94.0537714,25.3023429" id="Fill-58"></path>
                    <path d="M14.7546857,53.6917714 L14.7546857,59.0609143 L14.3175429,59.0609143 C13.9884,57.6586286 13.3764,56.5837714 12.4798286,55.8397714 C11.5832571,55.0923429 10.5684,54.7169143 9.43354286,54.7169143 C8.48382857,54.7169143 7.61297143,54.9980571 6.8244,55.5534857 C6.03068571,56.1072 5.45125714,56.8374857 5.08611429,57.7340571 C4.61468571,58.8877714 4.37982857,60.1666286 4.37982857,61.5757714 C4.37982857,62.9626286 4.55125714,64.2277714 4.89754286,65.3677714 C5.23868571,66.5077714 5.77697143,67.3666286 6.50897143,67.9494857 C7.24097143,68.5306286 8.18897143,68.8254857 9.35468571,68.8254857 C10.3095429,68.8254857 11.1855429,68.6094857 11.9809714,68.1860571 C12.7764,67.7574857 13.6146857,67.0220571 14.4958286,65.9780571 L14.4958286,67.3169143 C13.6438286,68.2220571 12.7575429,68.8769143 11.8369714,69.2866286 C10.9129714,69.6946286 9.8364,69.8969143 8.60382857,69.8969143 C6.98382857,69.8969143 5.54382857,69.5677714 4.28554286,68.9043429 C3.02725714,68.2409143 2.05697143,67.2877714 1.37297143,66.0466286 C0.688971429,64.8054857 0.349542857,63.4820571 0.349542857,62.0780571 C0.349542857,60.6020571 0.726685714,59.1980571 1.4844,57.8712 C2.24382857,56.5460571 3.26725714,55.5192 4.55468571,54.7889143 C5.84211429,54.0569143 7.21011429,53.6917714 8.6604,53.6917714 C9.7284,53.6917714 10.8546857,53.9266286 12.0409714,54.3963429 C12.7301143,54.6706286 13.1672571,54.8077714 13.3541143,54.8077714 C13.5924,54.8077714 13.7998286,54.7203429 13.9746857,54.5403429 C14.1495429,54.3620571 14.2644,54.0774857 14.3175429,53.6917714 L14.7546857,53.6917714 Z" id="Fill-60"></path>
                    <path d="M21.7668,59.3485714 C21.3862286,59.3485714 21.0588,59.4942857 20.7862286,59.7891429 C20.5136571,60.084 20.3353714,60.6617143 20.2496571,61.5274286 C20.1622286,62.3914286 20.1210857,63.5948571 20.1210857,65.1308571 C20.1210857,65.9485714 20.1725143,66.7097143 20.2770857,67.4177143 C20.3593714,67.9594286 20.5342286,68.3725714 20.8033714,68.6537143 C21.0725143,68.9331429 21.3776571,69.0737143 21.7222286,69.0737143 C22.0565143,69.0737143 22.3376571,68.9794286 22.5622286,68.7891429 C22.8519429,68.5302857 23.0473714,68.1702857 23.1450857,67.7022857 C23.2942286,66.9805714 23.3679429,65.5182857 23.3679429,63.3137143 C23.3679429,62.0194286 23.2976571,61.128 23.1570857,60.6445714 C23.0148,60.1611429 22.8039429,59.8097143 22.5296571,59.5902857 C22.3342286,59.4257143 22.0805143,59.3485714 21.7668,59.3485714 M21.7222286,58.5377143 C22.6325143,58.5377143 23.4810857,58.776 24.2645143,59.256 C25.0496571,59.7377143 25.6445143,60.4182857 26.0525143,61.3011429 C26.4570857,62.1857143 26.6610857,63.156 26.6610857,64.2085714 C26.6610857,65.724 26.2856571,66.9908571 25.5296571,68.0125714 C24.6193714,69.2468571 23.3610857,69.864 21.7548,69.864 C20.1793714,69.864 18.9656571,69.3 18.1153714,68.172 C17.2633714,67.0457143 16.8382286,65.736 16.8382286,64.2531429 C16.8382286,62.7188571 17.2719429,61.3851429 18.1428,60.2451429 C19.0136571,59.1051429 20.2050857,58.5377143 21.7222286,58.5377143" id="Fill-62"></path>
                    <path d="M32.5990286,58.8581143 L32.5990286,60.2621143 C33.1733143,59.6226857 33.7064571,59.1752571 34.1967429,58.9198286 C34.6853143,58.6661143 35.2201714,58.5375429 35.8030286,58.5375429 C36.4767429,58.5375429 37.0390286,58.6935429 37.4950286,59.0158286 C37.9510286,59.3346857 38.3024571,59.8232571 38.5476,60.4781143 C39.1458857,59.7924 39.7184571,59.2986857 40.2670286,58.9952571 C40.8156,58.6884 41.3881714,58.5375429 41.9864571,58.5375429 C42.7098857,58.5375429 43.2876,58.7038286 43.7178857,59.0432571 C44.1464571,59.3844 44.4447429,59.8164 44.6127429,60.3375429 C44.7807429,60.8604 44.8664571,61.6918286 44.8664571,62.8352571 L44.8664571,67.2118286 C44.8664571,68.0364 44.9384571,68.5438286 45.0824571,68.7444 C45.2298857,68.9432571 45.5333143,69.0701143 45.9978857,69.1318286 L45.9978857,69.5432571 L40.5858857,69.5432571 L40.5858857,69.1318286 C41.0127429,69.0941143 41.3264571,68.9261143 41.5270286,68.6295429 C41.6624571,68.4238286 41.7293143,67.9506857 41.7293143,67.2118286 L41.7293143,62.6158286 C41.7293143,61.6644 41.6916,61.0592571 41.6161714,60.7986857 C41.5424571,60.5398286 41.4258857,60.3478286 41.2630286,60.2244 C41.1036,60.0958286 40.9150286,60.0341143 40.6990286,60.0341143 C40.3767429,60.0341143 40.0527429,60.1541143 39.7236,60.3941143 C39.3961714,60.6341143 39.0636,60.9941143 38.7258857,61.4741143 L38.7258857,67.2118286 C38.7258857,67.9832571 38.7893143,68.4649714 38.9178857,68.6621143 C39.0893143,68.9466857 39.4167429,69.1044 39.9036,69.1318286 L39.9036,69.5432571 L34.4830286,69.5432571 L34.4830286,69.1318286 C34.7727429,69.1146857 35.0007429,69.0444 35.1704571,68.9106857 C35.3384571,68.7769714 35.4516,68.6158286 35.5064571,68.4306857 C35.5613143,68.2455429 35.5904571,67.8358286 35.5904571,67.2118286 L35.5904571,62.6158286 C35.5904571,61.6506857 35.5527429,61.0421143 35.4790286,60.7986857 C35.4036,60.5552571 35.2784571,60.3666857 35.1018857,60.2295429 C34.9270286,60.0924 34.7384571,60.0204 34.5378857,60.0204 C34.2396,60.0204 33.9653143,60.1026857 33.7201714,60.2621143 C33.3687429,60.4969714 32.9933143,60.9015429 32.5990286,61.4741143 L32.5990286,67.2118286 C32.5990286,67.9661143 32.6727429,68.4632571 32.8184571,68.7049714 C32.9624571,68.9432571 33.2676,69.0872571 33.7304571,69.1318286 L33.7304571,69.5432571 L28.3304571,69.5432571 L28.3304571,69.1318286 C28.7727429,69.0872571 29.0847429,68.9432571 29.2733143,68.6981143 C29.3984571,68.5318286 29.4618857,68.0364 29.4618857,67.2118286 L29.4618857,61.1775429 C29.4618857,60.3701143 29.3898857,59.8678286 29.2424571,59.6689714 C29.0984571,59.4684 28.7950286,59.3415429 28.3304571,59.2798286 L28.3304571,58.8581143 L32.5990286,58.8581143 Z" id="Fill-64"></path>
                    <path d="M51.7098857,58.8581143 L51.7098857,60.2621143 C52.2841714,59.6226857 52.8173143,59.1752571 53.3076,58.9198286 C53.7944571,58.6661143 54.3310286,58.5375429 54.9138857,58.5375429 C55.5858857,58.5375429 56.1498857,58.6935429 56.6041714,59.0158286 C57.0618857,59.3346857 57.4116,59.8232571 57.6584571,60.4781143 C58.2567429,59.7924 58.8293143,59.2986857 59.3778857,58.9952571 C59.9264571,58.6884 60.4990286,58.5375429 61.0973143,58.5375429 C61.8207429,58.5375429 62.3984571,58.7038286 62.8287429,59.0432571 C63.2573143,59.3844 63.5556,59.8164 63.7236,60.3375429 C63.8916,60.8604 63.9756,61.6918286 63.9756,62.8352571 L63.9756,67.2118286 C63.9756,68.0364 64.0476,68.5438286 64.1933143,68.7444 C64.3407429,68.9432571 64.6441714,69.0701143 65.1070286,69.1318286 L65.1070286,69.5432571 L59.6967429,69.5432571 L59.6967429,69.1318286 C60.1218857,69.0941143 60.4356,68.9261143 60.6378857,68.6295429 C60.7733143,68.4238286 60.8401714,67.9506857 60.8401714,67.2118286 L60.8401714,62.6158286 C60.8401714,61.6644 60.8024571,61.0592571 60.7270286,60.7986857 C60.6533143,60.5398286 60.5350286,60.3478286 60.3738857,60.2244 C60.2144571,60.0958286 60.0241714,60.0341143 59.8098857,60.0341143 C59.4876,60.0341143 59.1618857,60.1541143 58.8344571,60.3941143 C58.5053143,60.6341143 58.1727429,60.9941143 57.8367429,61.4741143 L57.8367429,67.2118286 C57.8367429,67.9832571 57.9001714,68.4649714 58.0270286,68.6621143 C58.1984571,68.9466857 58.5276,69.1044 59.0144571,69.1318286 L59.0144571,69.5432571 L53.5904571,69.5432571 L53.5904571,69.1318286 C53.8836,69.1146857 54.1116,69.0444 54.2796,68.9106857 C54.4476,68.7769714 54.5607429,68.6158286 54.6156,68.4306857 C54.6721714,68.2455429 54.7013143,67.8358286 54.7013143,67.2118286 L54.7013143,62.6158286 C54.7013143,61.6506857 54.6636,61.0421143 54.5881714,60.7986857 C54.5144571,60.5552571 54.3893143,60.3666857 54.2127429,60.2295429 C54.0378857,60.0924 53.8493143,60.0204 53.6487429,60.0204 C53.3487429,60.0204 53.0761714,60.1026857 52.8293143,60.2621143 C52.4796,60.4969714 52.1041714,60.9015429 51.7098857,61.4741143 L51.7098857,67.2118286 C51.7098857,67.9661143 51.7818857,68.4632571 51.9276,68.7049714 C52.0733143,68.9432571 52.3784571,69.0872571 52.8413143,69.1318286 L52.8413143,69.5432571 L47.4413143,69.5432571 L47.4413143,69.1318286 C47.8818857,69.0872571 48.1956,68.9432571 48.3841714,68.6981143 C48.5093143,68.5318286 48.5727429,68.0364 48.5727429,67.2118286 L48.5727429,61.1775429 C48.5727429,60.3701143 48.5007429,59.8678286 48.3533143,59.6689714 C48.2093143,59.4684 47.9041714,59.3415429 47.4413143,59.2798286 L47.4413143,58.8581143 L51.7098857,58.8581143 Z" id="Fill-66"></path>
                    <path d="M71.4584571,59.3485714 C71.0778857,59.3485714 70.7504571,59.4942857 70.4796,59.7891429 C70.2070286,60.084 70.0270286,60.6617143 69.9413143,61.5274286 C69.8556,62.3914286 69.8127429,63.5948571 69.8127429,65.1308571 C69.8127429,65.9485714 69.8641714,66.7097143 69.9687429,67.4177143 C70.0510286,67.9594286 70.2258857,68.3725714 70.4950286,68.6537143 C70.7641714,68.9331429 71.0693143,69.0737143 71.4156,69.0737143 C71.7481714,69.0737143 72.0293143,68.9794286 72.2538857,68.7891429 C72.5453143,68.5302857 72.7390286,68.1702857 72.8367429,67.7022857 C72.9858857,66.9805714 73.0613143,65.5182857 73.0613143,63.3137143 C73.0613143,62.0194286 72.9910286,61.128 72.8487429,60.6445714 C72.7064571,60.1611429 72.4973143,59.8097143 72.2213143,59.5902857 C72.0276,59.4257143 71.7721714,59.3485714 71.4584571,59.3485714 M71.4156,58.5377143 C72.3258857,58.5377143 73.1727429,58.776 73.9578857,59.256 C74.7413143,59.7377143 75.3361714,60.4182857 75.7441714,61.3011429 C76.1504571,62.1857143 76.3544571,63.156 76.3544571,64.2085714 C76.3544571,65.724 75.9773143,66.9908571 75.2230286,68.0125714 C74.3110286,69.2468571 73.0527429,69.864 71.4464571,69.864 C69.8710286,69.864 68.6573143,69.3 67.8070286,68.172 C66.9550286,67.0457143 66.5298857,65.736 66.5298857,64.2531429 C66.5298857,62.7188571 66.9636,61.3851429 67.8344571,60.2451429 C68.7053143,59.1051429 69.8967429,58.5377143 71.4156,58.5377143" id="Fill-68"></path>
                    <path d="M82.2229714,58.8581143 L82.2229714,60.2398286 C82.7595429,59.6449714 83.2755429,59.2146857 83.7692571,58.9438286 C84.2612571,58.6729714 84.7926857,58.5375429 85.3601143,58.5375429 C86.0389714,58.5375429 86.6029714,58.7278286 87.0504,59.1118286 C87.4995429,59.4975429 87.7978286,59.9741143 87.9469714,60.5484 C88.0652571,60.9804 88.1252571,61.8169714 88.1252571,63.0512571 L88.1252571,67.2118286 C88.1252571,68.0364 88.1989714,68.5472571 88.3446857,68.7512571 C88.4904,68.9535429 88.7938286,69.0804 89.2584,69.1318286 L89.2584,69.5432571 L83.9578286,69.5432571 L83.9578286,69.1318286 C84.3555429,69.0804 84.6384,68.9106857 84.8115429,68.6295429 C84.9315429,68.4409714 84.9881143,67.9661143 84.9881143,67.2118286 L84.9881143,62.4581143 C84.9881143,61.5821143 84.9572571,61.0266857 84.8904,60.7986857 C84.8218286,60.5689714 84.7086857,60.3941143 84.5458286,60.2689714 C84.3864,60.1421143 84.2081143,60.0804 84.0144,60.0804 C83.3715429,60.0804 82.7749714,60.5484 82.2229714,61.4826857 L82.2229714,67.2118286 C82.2229714,68.0124 82.2949714,68.5181143 82.4406857,68.7341143 C82.5864,68.9466857 82.8589714,69.0804 83.2532571,69.1318286 L83.2532571,69.5432571 L77.9544,69.5432571 L77.9544,69.1318286 C78.3949714,69.0872571 78.7086857,68.9432571 78.8955429,68.6981143 C79.0224,68.5318286 79.0858286,68.0364 79.0858286,67.2118286 L79.0858286,61.1775429 C79.0858286,60.3701143 79.0121143,59.8678286 78.8664,59.6689714 C78.7224,59.4684 78.4189714,59.3415429 77.9544,59.2798286 L77.9544,58.8581143 L82.2229714,58.8581143 Z" id="Fill-70"></path>
                    <path d="M108.540686,54.0433714 L108.540686,54.4685143 C108.256114,54.4890857 108.017829,54.5713714 107.824114,54.7068 C107.6304,54.8456571 107.458971,55.0530857 107.308114,55.3376571 C107.263543,55.4302286 107.028686,56.0165143 106.603543,57.1068 L101.842971,69.8970857 L101.404114,69.8970857 L97.6412571,59.9096571 L93.4961143,69.8970857 L93.0812571,69.8970857 L88.0841143,57.2439429 C87.5766857,55.9719429 87.2218286,55.2039429 87.0229714,54.9365143 C86.8206857,54.6673714 86.4795429,54.5130857 86.0012571,54.4685143 L86.0012571,54.0433714 L92.5892571,54.0433714 L92.5892571,54.4685143 C92.0578286,54.4822286 91.7046857,54.5645143 91.5315429,54.7136571 C91.3549714,54.8610857 91.2675429,55.0462286 91.2675429,55.2656571 C91.2675429,55.5570857 91.4509714,56.1690857 91.8161143,57.1068 L94.7955429,64.6290857 L97.1818286,58.7542286 L96.5544,57.1068 C96.2115429,56.2102286 95.9458286,55.6085143 95.7589714,55.3068 C95.5721143,55.0068 95.3578286,54.7925143 95.1144,54.6605143 C94.8709714,54.5302286 94.5161143,54.4685143 94.0446857,54.4685143 L94.0446857,54.0433714 L101.404114,54.0433714 L101.404114,54.4685143 C100.889829,54.4753714 100.519543,54.5165143 100.296686,54.5919429 C100.138971,54.6450857 100.015543,54.7359429 99.9264,54.8610857 C99.8372571,54.9879429 99.7909714,55.1285143 99.7909714,55.2930857 C99.7909714,55.4645143 99.9606857,56.0045143 100.296686,56.9010857 L103.061829,64.2399429 L105.538971,57.5970857 C105.799543,56.9113714 105.960686,56.4433714 106.018971,56.1930857 C106.078971,55.9410857 106.109829,55.7096571 106.109829,55.4953714 C106.109829,55.1833714 106.005257,54.9382286 105.796114,54.7599429 C105.586971,54.5799429 105.185829,54.4822286 104.597829,54.4685143 L104.597829,54.0433714 L108.540686,54.0433714 Z" id="Fill-72"></path>
                    <path d="M113.245886,63.0517714 C113.245886,61.8226286 113.180743,60.9809143 113.050457,60.5232 C112.918457,60.0672 112.714457,59.7209143 112.438457,59.4843429 C112.282457,59.3489143 112.073314,59.2803429 111.812743,59.2803429 C111.4236,59.2803429 111.106457,59.4723429 110.8596,59.8649143 C110.419029,60.5403429 110.197886,61.4712 110.197886,62.6540571 L110.197886,63.0517714 L113.245886,63.0517714 Z M116.000743,63.8146286 L110.254457,63.8146286 C110.321314,65.2323429 110.6916,66.3569143 111.3636,67.1797714 C111.8796,67.8089143 112.498457,68.1260571 113.221886,68.1260571 C113.672743,68.1260571 114.079029,67.9992 114.444171,67.7437714 C114.809314,67.4900571 115.201886,67.0289143 115.620171,66.3672 L116.000743,66.6174857 C115.433314,67.8003429 114.8076,68.6369143 114.118457,69.1254857 C113.431029,69.6192 112.637314,69.8643429 111.733886,69.8643429 C110.180743,69.8643429 109.003029,69.2523429 108.204171,68.0352 C107.563029,67.0529143 107.242457,65.8340571 107.242457,64.3769143 C107.242457,62.5940571 107.712171,61.1729143 108.658457,60.1186286 C109.603029,59.0643429 110.710457,58.5380571 111.980743,58.5380571 C113.040171,58.5380571 113.960743,58.9786286 114.742457,59.8683429 C115.522457,60.7546286 115.940743,62.0729143 116.000743,63.8146286 L116.000743,63.8146286 Z" id="Fill-74"></path>
                    <path d="M123.092057,67.1331429 L123.092057,63.5537143 C122.188629,64.0971429 121.516629,64.6731429 121.076057,65.292 C120.784629,65.7034286 120.638914,66.1182857 120.638914,66.5382857 C120.638914,66.888 120.762343,67.1948571 121.0092,67.4622857 C121.194343,67.668 121.456629,67.7742857 121.792629,67.7742857 C122.166343,67.7742857 122.598343,67.5582857 123.092057,67.1331429 M123.092057,67.9662857 C121.814914,69.1148571 120.668057,69.6942857 119.6532,69.6942857 C119.056629,69.6942857 118.559486,69.492 118.163486,69.0942857 C117.767486,68.6914286 117.568629,68.1925714 117.568629,67.5925714 C117.568629,66.7748571 117.9132,66.0394286 118.598914,65.3897143 C119.288057,64.7382857 120.784629,63.8725714 123.092057,62.7908571 L123.092057,61.7125714 C123.092057,60.9051429 123.0492,60.396 122.963486,60.1868571 C122.877771,59.9777143 122.714914,59.796 122.476629,59.6382857 C122.236629,59.4822857 121.9692,59.4068571 121.6692,59.4068571 C121.185771,59.4068571 120.784629,59.5148571 120.470914,59.7377143 C120.2772,59.8748571 120.179486,60.0325714 120.179486,60.2177143 C120.179486,60.3771429 120.284057,60.576 120.4932,60.8108571 C120.776057,61.1382857 120.918343,61.4537143 120.918343,61.7571429 C120.918343,62.1342857 120.782914,62.4514286 120.510343,62.7154286 C120.237771,62.976 119.8812,63.1097143 119.440629,63.1097143 C118.970914,63.1097143 118.574914,62.9622857 118.259486,62.6725714 C117.942343,62.3845714 117.7812,62.0451429 117.7812,61.6577143 C117.7812,61.1074286 117.995486,60.5862857 118.420629,60.0857143 C118.845771,59.5868571 119.440629,59.2045714 120.201771,58.9371429 C120.964629,58.6697143 121.754914,58.5377143 122.577771,58.5377143 C123.570343,58.5377143 124.355486,58.7502857 124.936629,59.1805714 C125.514343,59.6125714 125.889771,60.0805714 126.0612,60.5828571 C126.164057,60.9017143 126.2172,61.6371429 126.2172,62.7908571 L126.2172,66.9377143 C126.2172,67.4245714 126.234343,67.7314286 126.272057,67.86 C126.309771,67.9834286 126.366343,68.0777143 126.441771,68.1394286 C126.5172,68.1977143 126.602914,68.232 126.698914,68.232 C126.894343,68.232 127.091486,68.088 127.293771,67.8068571 L127.628057,68.0811429 C127.256057,68.6468571 126.868629,69.0548571 126.4692,69.3102857 C126.069771,69.564 125.6172,69.6942857 125.108057,69.6942857 C124.511486,69.6942857 124.0452,69.5502857 123.707486,69.2622857 C123.3732,68.9794286 123.167486,68.544 123.092057,67.9662857" id="Fill-76"></path>
                    <path d="M132.883029,54.0433714 L132.883029,67.3273714 C132.883029,68.0799429 132.970457,68.5650857 133.141886,68.7742286 C133.3116,68.9833714 133.649314,69.1033714 134.148171,69.1325143 L134.148171,69.5439429 L128.491029,69.5439429 L128.491029,69.1325143 C128.953886,69.1153714 129.298457,68.9799429 129.523029,68.7228 C129.672171,68.5445143 129.745886,68.0799429 129.745886,67.3273714 L129.745886,56.2616571 C129.745886,55.5125143 129.661886,55.0376571 129.490457,54.8285143 C129.317314,54.6193714 128.986457,54.4993714 128.491029,54.4685143 L128.491029,54.0433714 L132.883029,54.0433714 Z" id="Fill-78"></path>
                    <path d="M139.312457,54.9457714 L139.312457,58.8577714 L141.799886,58.8577714 L141.799886,59.9874857 L139.312457,59.9874857 L139.312457,66.5857714 C139.312457,67.1977714 139.3416,67.5972 139.396457,67.7772 C139.453029,67.9572 139.552457,68.1012 139.694743,68.2109143 C139.835314,68.3223429 139.967314,68.3789143 140.0856,68.3789143 C140.570743,68.3789143 141.030171,68.0017714 141.463886,67.2457714 L141.799886,67.4994857 C141.194743,68.9634857 140.210743,69.6954857 138.853029,69.6954857 C138.1896,69.6954857 137.627314,69.5052 137.167886,69.1246286 C136.706743,68.7509143 136.415314,68.3292 136.288457,67.8646286 C136.213029,67.6040571 136.177029,66.9063429 136.177029,65.7629143 L136.177029,59.9874857 L134.810743,59.9874857 L134.810743,59.5897714 C135.750171,58.9109143 136.550743,58.1977714 137.212457,57.4503429 C137.874171,56.7012 138.450171,55.8697714 138.943886,54.9457714 L139.312457,54.9457714 Z" id="Fill-80"></path>
                    <path d="M147.075257,54.0433714 L147.075257,60.2285143 C147.649543,59.6096571 148.175829,59.1742286 148.654114,58.9205143 C149.1324,58.6650857 149.629543,58.5382286 150.143829,58.5382286 C150.8004,58.5382286 151.362686,58.7268 151.830686,59.1056571 C152.296971,59.4879429 152.607257,59.9370857 152.759829,60.4513714 C152.9124,60.9639429 152.989543,61.8330857 152.989543,63.0519429 L152.989543,67.2245143 C152.989543,68.0388 153.064971,68.5479429 153.214114,68.7502286 C153.363257,68.9525143 153.664971,69.0793714 154.120971,69.1325143 L154.120971,69.5439429 L148.810114,69.5439429 L148.810114,69.1325143 C149.183829,69.0793714 149.464971,68.9268 149.651829,68.6748 C149.785543,68.4759429 149.8524,67.9925143 149.8524,67.2245143 L149.8524,62.4570857 C149.8524,61.5725143 149.819829,61.0188 149.751257,60.7942286 C149.6844,60.5696571 149.571257,60.3930857 149.410114,60.2696571 C149.250686,60.1428 149.068971,60.0793714 148.866686,60.0793714 C148.5684,60.0793714 148.276971,60.1839429 147.9924,60.3930857 C147.711257,60.6022286 147.402686,60.9708 147.075257,61.4970857 L147.075257,67.2245143 C147.075257,67.9856571 147.130114,68.4622286 147.243257,68.6525143 C147.385543,68.9113714 147.676971,69.0708 148.115829,69.1325143 L148.115829,69.5439429 L142.806686,69.5439429 L142.806686,69.1325143 C143.247257,69.0862286 143.560971,68.9422286 143.747829,68.6988 C143.874686,68.5308 143.938114,68.0388 143.938114,67.2245143 L143.938114,56.3645143 C143.938114,55.5570857 143.8644,55.0530857 143.718686,54.8542286 C143.574686,54.6570857 143.271257,54.5268 142.806686,54.4685143 L142.806686,54.0433714 L147.075257,54.0433714 Z" id="Fill-82"></path>
                </g>
            </g>
        </g>
    </g>
</svg>