<?xml version="1.0" encoding="UTF-8"?>
<svg width="40px" height="40px" viewBox="0 0 40 40" version="1.1" xmlns="http://www.w3.org/2000/svg" xmlns:xlink="http://www.w3.org/1999/xlink">
    <!-- Generator: Sketch 64 (93537) - https://sketch.com -->
    <title>6-1-2</title>
    <desc>Created with Sketch.</desc>
    <defs>
        <linearGradient x1="50%" y1="1.64683594%" x2="50%" y2="97.740625%" id="linearGradient-1">
            <stop stop-color="#4F5BD5" offset="0%"></stop>
            <stop stop-color="#962FBF" offset="25%"></stop>
            <stop stop-color="#D62976" offset="50%"></stop>
            <stop stop-color="#FA7E1E" offset="75%"></stop>
            <stop stop-color="#FEDA75" offset="100%"></stop>
        </linearGradient>
    </defs>
    <g id="Page-1" stroke="none" stroke-width="1" fill="none" fill-rule="evenodd">
        <g id="書籍出版_使命" transform="translate(-170.000000, -392.000000)" fill="url(#linearGradient-1)" fill-rule="nonzero">
            <g id="6-1-2" transform="translate(170.000000, 392.000000)">
                <path d="M28.0820312,0 L11.9179688,0 C5.33984375,0.0078125 0.0078125,5.33984375 0,11.9140625 L0,28.0820312 C0.0078125,34.6601562 5.33984375,39.9921875 11.9140625,40 L28.0820312,40 C34.6601562,39.9921875 39.9921875,34.6601562 40,28.0859375 L40,11.9179688 C39.9921875,5.33984375 34.6601562,0.0078125 28.0820312,0 L28.0820312,0 L28.0820312,0 Z M35.9765625,28.0820312 C35.9765625,32.4414062 32.4414062,35.9726562 28.0859375,35.9726562 L28.0859375,35.9726562 L11.9179688,35.9726562 C7.55859375,35.9726562 4.02734375,32.4375 4.02734375,28.0820312 L4.02734375,28.0820312 L4.02734375,11.9179687 C4.02734375,7.55859375 7.5625,4.02734375 11.9179688,4.02734375 L11.9179688,4.02734375 L28.0859375,4.02734375 C32.4453125,4.02734375 35.9765625,7.5625 35.9765625,11.9179687 L35.9765625,11.9179687 L35.9765625,28.0820312 Z M20,9.65625 C14.2851562,9.65625 9.65625,14.2890625 9.65625,20 C9.65625,25.7109375 14.2851562,30.34375 20,30.34375 C25.7148437,30.34375 30.34375,25.7148437 30.34375,20 L30.34375,20 C30.3398437,14.2890625 25.7109375,9.66015625 20,9.65625 L20,9.65625 L20,9.65625 Z M20,26.3203125 C16.5078125,26.3203125 13.6796875,23.4882812 13.6796875,20 C13.6796875,16.5117187 16.5078125,13.6796875 20,13.6796875 C23.4921875,13.6796875 26.3203125,16.5078125 26.3203125,20 L26.3203125,20 C26.3203125,23.4921875 23.4921875,26.3203125 20,26.3203125 L20,26.3203125 Z M32.84375,9.734375 C32.84375,11.1054687 31.734375,12.2148437 30.3632812,12.2148437 C28.9921875,12.2148437 27.8828125,11.1054687 27.8828125,9.734375 C27.8828125,8.36328125 28.9921875,7.25390625 30.3632812,7.25390625 C31.734375,7.25390625 32.84375,8.36328125 32.84375,9.734375 L32.84375,9.734375 Z" id="Shape"></path>
            </g>
        </g>
    </g>
</svg>