<?xml version="1.0" encoding="UTF-8"?>
<svg width="40px" height="40px" viewBox="0 0 40 40" version="1.1" xmlns="http://www.w3.org/2000/svg" xmlns:xlink="http://www.w3.org/1999/xlink">
    <!-- Generator: Sketch 64 (93537) - https://sketch.com -->
    <title>6-1-1</title>
    <desc>Created with Sketch.</desc>
    <g id="Page-1" stroke="none" stroke-width="1" fill="none" fill-rule="evenodd">
        <g id="書籍出版_使命" transform="translate(-100.000000, -392.000000)" fill="#1877F2" fill-rule="nonzero">
            <g id="6-1-1" transform="translate(100.000000, 392.000000)">
                <path d="M20,0 C8.953125,0 0,9.00766359 0,20.1218314 C0,30.1630969 7.3125,38.4908626 16.875,40 L16.875,25.9382983 L11.796875,25.9382983 L11.796875,20.1218314 L16.875,20.1218314 L16.875,15.6887404 C16.875,10.6464924 19.859375,7.86009039 24.4296875,7.86009039 C26.6171875,7.86009039 28.90625,8.25309491 28.90625,8.25309491 L28.90625,13.2049519 L26.3828125,13.2049519 C23.8984375,13.2049519 23.125,14.7573197 23.125,16.348988 L23.125,20.1218314 L28.671875,20.1218314 L27.7851562,25.9382983 L23.125,25.9382983 L23.125,40 C32.6875,38.4908626 40,30.1670269 40,20.1218314 C40,9.00766359 31.046875,0 20,0 Z" id="Path"></path>
            </g>
        </g>
    </g>
</svg>