<?xml version="1.0" encoding="UTF-8"?>
<svg width="18px" height="28px" viewBox="0 0 18 28" version="1.1" xmlns="http://www.w3.org/2000/svg" xmlns:xlink="http://www.w3.org/1999/xlink">
    <!-- Generator: Sketch 64 (93537) - https://sketch.com -->
    <title>8-1-4</title>
    <desc>Created with Sketch.</desc>
    <g id="Page-1" stroke="none" stroke-width="1" fill="none" fill-rule="evenodd">
        <g id="廣告刊登_服務項目" transform="translate(-16.000000, -521.000000)" fill="#000000" fill-rule="nonzero">
            <g id="Group-9" transform="translate(0.000000, 510.000000)">
                <g id="8-1-4" transform="translate(16.000000, 11.000000)">
                    <path d="M12.1,3.3 C12.1,1.48027341 10.6195117,0 8.8,0 C6.98027341,0 5.5,1.48027341 5.5,3.3 C5.5,5.11972659 6.98027341,6.6 8.8,6.6 C10.6195117,6.6 12.1,5.11972659 12.1,3.3 Z M8.8,5.5 C7.58699216,5.5 6.6,4.51300784 6.6,3.3 C6.6,2.08699216 7.58699216,1.1 8.8,1.1 C10.0130078,1.1 11,2.08699216 11,3.3 C11,4.51300784 10.0130078,5.5 8.8,5.5 Z" id="Shape"></path>
                    <path d="M3.68886716,6.43886716 C3.90371091,6.22402341 3.90371091,5.87597659 3.68886716,5.66113284 C3.47402341,5.44628909 3.12597659,5.44628909 2.91113284,5.66113284 L1.81113284,6.76113284 C1.70800784,6.86425784 1.65,7.00412108 1.65,7.15 L1.65,9.9 L0.55,9.9 C0.380703125,9.9 0.220644545,9.97798829 0.11644534,10.1116211 C0.01224608,10.2450391 -0.024707045,10.4190625 0.016542955,10.583418 L1.11654295,14.983418 C1.17755858,15.2283398 1.39755858,15.4 1.65,15.4 L2.75,15.4 L2.75,26.26 L1.1,26.26 C0.79621091,26.26 0.55,26.5062109 0.55,26.81 C0.55,27.1137891 0.79621091,27.36 1.1,27.36 L16.5,27.36 C16.8037891,27.36 17.05,27.1137891 17.05,26.81 C17.05,26.5062109 16.8037891,26.26 16.5,26.26 L14.85,26.26 L14.85,15.4 L15.95,15.4 C16.2024414,15.4 16.4224414,15.2283398 16.483457,14.983418 L17.583457,10.583418 C17.624707,10.4190625 17.5877539,10.2450391 17.4835547,10.1116211 C17.3793555,9.97798829 17.2192969,9.9 17.05,9.9 L15.95,9.9 L15.95,7.15 C15.95,7.00412108 15.8919922,6.86425784 15.7888672,6.76113284 L14.6888672,5.66113284 C14.4740234,5.44628909 14.1259766,5.44628909 13.9111328,5.66113284 C13.6962891,5.87597659 13.6962891,6.22402341 13.9111328,6.43886716 L14.85,7.3779492 L14.85,9.9 L13.468125,9.9 C12.776543,7.93697267 10.914707,6.6 8.8,6.6 C6.68529295,6.6 4.82345704,7.93697267 4.13166017,9.9 L2.75,9.9 L2.75,7.3779492 L3.68886716,6.43886716 Z M13.75,26.26 L3.85,26.26 L3.85,15.4 L13.75,15.4 L13.75,26.26 Z M15.5205273,14.3 L2.07947267,14.3 L1.25447267,11 L16.3455273,11 L15.5205273,14.3 Z M8.8,7.7 C10.309707,7.7 11.6529102,8.57613284 12.2796094,9.9 L5.32039063,9.9 C5.94708983,8.57613284 7.29029296,7.7 8.8,7.7 Z" id="Shape"></path>
                </g>
            </g>
        </g>
    </g>
</svg>