<?xml version="1.0" encoding="UTF-8"?>
<svg width="26px" height="28px" viewBox="0 0 26 28" version="1.1" xmlns="http://www.w3.org/2000/svg" xmlns:xlink="http://www.w3.org/1999/xlink">
    <!-- Generator: Sketch 64 (93537) - https://sketch.com -->
    <title>8-1-3</title>
    <desc>Created with Sketch.</desc>
    <g id="Page-1" stroke="none" stroke-width="1" fill="none" fill-rule="evenodd">
        <g id="廣告刊登_服務項目" transform="translate(-12.000000, -431.000000)" fill="#000000" fill-rule="nonzero">
            <g id="Group-8" transform="translate(0.000000, 420.000000)">
                <g id="8-1-3" transform="translate(12.000000, 11.000000)">
                    <path d="M24.6183239,11.1040203 L5.55506168,11.1040203 L23.865528,6.00375569 C24.0078367,5.96409019 24.1278825,5.87153746 24.1994734,5.74687461 C24.2710643,5.62200185 24.288089,5.47509274 24.2468369,5.3382574 L23.2886537,2.1576751 C22.9058169,0.887331038 21.6756756,0 20.297114,0 C20.0066034,0 19.717184,0.0396654469 19.4364953,0.117737147 L2.24485517,4.90634458 C1.44971588,5.12775761 0.790773988,5.63606317 0.388948199,6.33723936 C-0.0126593401,7.03841555 -0.106949806,7.84578607 0.123319692,8.61013317 L1.05945818,11.7174708 L1.05945818,24.5180815 C1.05945818,26.1668214 2.45438954,27.5081017 4.16886086,27.5081017 L10.8831278,27.5081017 C11.1917544,27.5081017 11.4418861,27.2675905 11.4418861,26.970834 C11.4418861,26.6740776 11.1917544,26.4335664 10.8831278,26.4335664 L4.16907912,26.4335664 C3.07055155,26.4335664 2.17697481,25.574358 2.17697481,24.5180815 L2.17697481,17.2066248 L5.0395198,17.2066248 L5.04082942,17.2066248 L5.04192073,17.2066248 L9.41769678,17.2066248 L9.41900635,17.2066248 L9.42031596,17.2066248 L13.796092,17.2066248 L13.7974016,17.2066248 L13.7987112,17.2066248 L18.1744873,17.2066248 L18.1757968,17.2066248 L18.1768882,17.2066248 L24.0595656,17.2066248 L24.0595656,24.5180815 C24.0595656,25.574358 23.1659888,26.4335664 22.0674612,26.4335664 L15.3531943,26.4335664 C15.0447859,26.4335664 14.794436,26.6740776 14.794436,26.970834 C14.794436,27.2675905 15.0447859,27.5081017 15.3531943,27.5081017 L22.0674612,27.5081017 C23.7821508,27.5081017 25.1770822,26.1668214 25.1770822,24.5180815 L25.1770822,11.6412879 C25.1770822,11.3445315 24.9269505,11.1040203 24.6183239,11.1040203 Z M14.765625,16.1320896 L17.1396931,12.1785555 L20.2274875,12.1785555 L17.8536378,16.1320896 L14.765625,16.1320896 Z M10.3872298,16.1320896 L12.7612978,12.1785555 L15.8490923,12.1785555 L13.4752425,16.1320896 L10.3872298,16.1320896 Z M6.00905281,16.1320896 L8.38290259,12.1785555 L11.4709153,12.1785555 L9.09684731,16.1320896 L6.00905281,16.1320896 Z M8.08649874,9.17678266 L4.11102066,5.50531405 L7.08968262,4.67569732 C7.11063606,4.70507914 7.13508173,4.732782 7.16301965,4.75859599 L11.1384978,8.4300646 L8.15983577,9.25968133 C8.13888233,9.23029951 8.1142184,9.20238679 8.08649874,9.17678266 Z M15.5738602,2.41581543 L19.5493383,6.08728399 L16.5706763,6.91690077 C16.5497228,6.88751889 16.5252772,6.85960618 16.4973392,6.83400204 L12.5218611,3.16253343 L15.5005231,2.3329167 C15.5214766,2.36229852 15.5459222,2.39000139 15.5738602,2.41581543 Z M11.3683308,3.58731064 L15.3438089,7.25856934 L12.3651469,8.08839598 C12.3441935,8.05901416 12.3197478,8.03110144 12.2918099,8.00549725 L8.31633179,4.33402869 L11.2949937,3.50441191 C11.3161655,3.53358388 11.3406112,3.56149659 11.3683308,3.58731064 Z M19.7475229,1.14987862 C19.9269367,1.0999295 20.1118071,1.07453522 20.297114,1.07453522 C21.1813054,1.07453522 21.9698967,1.64286362 22.2152266,2.45674007 L23.0180051,5.12104177 L20.7762057,5.74540551 C20.755034,5.71602369 20.7305883,5.68832083 20.7026504,5.66250678 L16.7273905,1.99124808 L19.7475229,1.14987862 Z M1.36786656,6.85561863 C1.62541922,6.40586692 2.04732539,6.08014843 2.55588279,5.93848606 L2.8841533,5.84698267 C2.90532499,5.87636449 2.92977066,5.90427721 2.95749033,5.92988139 L6.9329684,9.60134995 L1.99952535,10.9755798 L1.19674683,8.31127806 C1.04941796,7.82249047 1.1103139,7.30558025 1.36786656,6.85561863 Z M2.17697481,12.1785555 L7.09252011,12.1785555 L4.71867033,16.1320896 L2.17697481,16.1320896 L2.17697481,12.1785555 Z M19.1440203,16.1320896 L21.51787,12.1785555 L24.0595656,12.1785555 L24.0595656,16.1320896 L19.1440203,16.1320896 Z" id="Shape"></path>
                    <path d="M16.9818875,21.7654244 C16.9818875,21.5733932 16.8753742,21.396053 16.7025083,21.3001423 L11.7935109,18.5749783 C11.6206451,18.4790676 11.4076185,18.4790676 11.2347526,18.5749783 C11.0618868,18.6708889 10.9553735,18.8482292 10.9553735,19.0402604 L10.9553735,24.4905885 C10.9553735,24.6824098 11.0618868,24.8597501 11.2347526,24.9556608 C11.3211855,25.003721 11.4176587,25.0278561 11.5141318,25.0278561 C11.6106049,25.0278561 11.707078,25.003721 11.7935109,24.9556608 L16.7025083,22.2307066 C16.8753742,22.1347959 16.9818875,21.9574557 16.9818875,21.7654244 Z M12.0728901,23.5600242 L12.0728901,19.9708247 L15.3056125,21.7654244 L12.0728901,23.5600242 Z" id="Shape"></path>
                    <path d="M13.1181611,26.4335664 C12.8104074,26.4335664 12.5594027,26.6749171 12.5594027,26.970834 C12.5594027,27.2667509 12.8104074,27.5081017 13.1181611,27.5081017 C13.4261329,27.5081017 13.6769194,27.2667509 13.6769194,26.970834 C13.6769194,26.6749171 13.4261329,26.4335664 13.1181611,26.4335664 Z" id="Path"></path>
                </g>
            </g>
        </g>
    </g>
</svg>