<?xml version="1.0" encoding="UTF-8"?>
<svg width="28px" height="27px" viewBox="0 0 28 27" version="1.1" xmlns="http://www.w3.org/2000/svg" xmlns:xlink="http://www.w3.org/1999/xlink">
    <!-- Generator: Sketch 64 (93537) - https://sketch.com -->
    <title>8-1-2</title>
    <desc>Created with Sketch.</desc>
    <g id="Page-1" stroke="none" stroke-width="1" fill="none" fill-rule="evenodd">
        <g id="廣告刊登_服務項目" transform="translate(-13.000000, -340.000000)" fill="#000000" fill-rule="nonzero">
            <g id="Group-7" transform="translate(0.000000, 330.000000)">
                <g id="8-1-2" transform="translate(13.000000, 10.000000)">
                    <path d="M20.795756,21.9840849 L19.6074271,21.9840849 L19.6074271,16.1612732 C19.6074271,15.8331252 19.3414106,15.5671088 19.0132626,15.5671088 C18.6851146,15.5671088 18.4190981,15.8331252 18.4190981,16.1612732 L18.4190981,21.9840849 L2.97082228,21.9840849 L2.97082228,10.1007958 L7.91427056,10.1007958 C8.24241853,10.1007958 8.50843501,9.83477927 8.50843501,9.5066313 C8.50843501,9.17848333 8.24241853,8.91246684 7.91427056,8.91246684 L2.37665782,8.91246684 C2.04850986,8.91246684 1.78249337,9.17848333 1.78249337,9.5066313 L1.78249337,21.9840849 L0.594164456,21.9840849 C0.266016488,21.9840849 0,22.2501014 0,22.5782493 L0,23.7665782 C0,25.4073181 1.33008244,26.7374005 2.97082228,26.7374005 L18.4190981,26.7374005 C20.059838,26.7374005 21.3899204,25.4073181 21.3899204,23.7665782 L21.3899204,22.5782493 C21.3899204,22.2501014 21.1239039,21.9840849 20.795756,21.9840849 Z M20.2015915,23.7665782 C20.2015915,24.7510222 19.403542,25.5490716 18.4190981,25.5490716 L17.2307692,25.5490716 L17.2307692,24.9549072 C17.2307692,24.6267592 16.9647527,24.3607427 16.6366048,24.3607427 C16.3084568,24.3607427 16.0424403,24.6267592 16.0424403,24.9549072 L16.0424403,25.5490716 L5.34748011,25.5490716 L5.34748011,24.9549072 C5.34748011,24.6267592 5.08146362,24.3607427 4.75331565,24.3607427 C4.42516768,24.3607427 4.15915119,24.6267592 4.15915119,24.9549072 L4.15915119,25.5490716 L2.97082228,25.5490716 C1.98637838,25.5490716 1.18832891,24.7510222 1.18832891,23.7665782 L1.18832891,23.1724138 L20.2015915,23.1724138 L20.2015915,23.7665782 Z" id="Shape"></path>
                    <path d="M20.795756,3.56498674 C20.9827736,3.56498674 21.158877,3.47693504 21.2710875,3.32732095 L23.0535809,0.95066313 C23.2504697,0.688144756 23.1972664,0.315721672 22.934748,0.118832891 C22.6722296,-0.0780558896 22.2998066,-0.024852592 22.1029178,0.237665782 L20.3204244,2.61432361 C20.1235356,2.87684198 20.1767389,3.24926507 20.4392573,3.44615385 C20.5421049,3.52328954 20.6671965,3.56498674 20.795756,3.56498674 Z" id="Path"></path>
                    <path d="M22.1029178,5.70397878 C22.2151283,5.85359286 22.3912317,5.94164456 22.5782493,5.94164456 C22.7068088,5.94164456 22.8319004,5.89994737 22.934748,5.82281167 L25.3114058,4.0403183 C25.5739242,3.84342952 25.6271275,3.47100644 25.4302387,3.20848806 C25.2333499,2.94596969 24.8609269,2.89276639 24.5984085,3.08965517 L22.2217507,4.87214854 C21.9592323,5.06903732 21.906029,5.44146041 22.1029178,5.70397878 L22.1029178,5.70397878 Z" id="Path"></path>
                    <path d="M27.9257294,7.01114058 C27.8971947,6.85197286 27.8050189,6.71131088 27.670472,6.62161294 C27.5359251,6.53191499 27.370631,6.50093042 27.2127321,6.53580902 L24.2419098,7.12997347 C23.9137618,7.16278827 23.674347,7.45540641 23.7071618,7.78355438 C23.7399766,8.11170234 24.0325947,8.35111718 24.3607427,8.31830239 L24.4795756,8.31830239 L27.4503979,7.72413793 C27.6095656,7.6956032 27.7502276,7.60342742 27.8399255,7.4688805 C27.9296235,7.33433358 27.960608,7.16903953 27.9257294,7.01114058 L27.9257294,7.01114058 Z" id="Path"></path>
                    <path d="M20.2728912,6.95172414 C20.166754,6.76704531 19.9701541,6.65301859 19.757149,6.65259674 C19.5441438,6.65217488 19.3470938,6.76542199 19.2402259,6.94967896 C19.1333579,7.13393594 19.1329078,7.36120977 19.2390451,7.54588859 L21.8593103,12.0793634 L12.352679,15.6443501 C12.352679,15.6443501 12.352679,15.6443501 12.3110875,15.6443501 L12.2635544,15.6443501 L10.7187268,16.5355968 L9.69082228,17.1297613 C9.41751461,17.2877628 9.0925692,17.3305187 8.78769231,17.2485942 C8.48442988,17.1666687 8.22594365,16.9679975 8.06875332,16.6960212 L6.8804244,14.6402122 C6.5901956,14.0818347 6.78560089,13.3940081 7.32604775,13.071618 L9.38185676,11.8832891 L10.8672679,14.4560212 C10.9738259,14.640589 11.1710732,14.7539495 11.384191,14.7531034 C11.5968872,14.7539498 11.7938117,14.6410371 11.900526,14.4570468 C12.0072404,14.2730565 12.0074647,14.0460576 11.9011141,13.8618568 L10.3681698,11.2118833 L17.8249337,5.06228117 L18.0685411,5.48413793 C18.2326151,5.76962666 18.5970577,5.86805276 18.8825464,5.70397878 C19.1680352,5.5399048 19.2664613,5.17546221 19.1023873,4.88997347 L18.5082228,3.86206897 C18.4200924,3.71139679 18.2701657,3.60709998 18.0982493,3.57687003 C17.9253812,3.54428686 17.7469611,3.58997981 17.6110345,3.70164456 L9.2927321,10.5583024 L6.76159151,12.0199469 C5.82742238,12.5640652 5.37817354,13.6700963 5.66832891,14.7115119 L5.07416446,15.0501857 C4.44807023,15.4097243 4.1006938,16.1114305 4.19440858,16.8273073 C4.28812335,17.5431841 4.80441833,18.1318279 5.50196286,18.3180902 C5.65316942,18.3581447 5.80899053,18.3781218 5.96541114,18.3775066 C6.27798398,18.3762135 6.58494453,18.2943573 6.85665782,18.1398408 L7.45082228,17.8011671 C7.73624297,18.0960171 8.09519397,18.3093366 8.49061008,18.4190981 C8.69364827,18.4758941 8.90365657,18.5038952 9.11448276,18.5022812 C9.5321209,18.5032461 9.94241343,18.3924671 10.3028117,18.1814324 L10.8197347,17.8843501 L12.0080637,19.9461008 C12.4997584,20.7961951 13.5864162,21.0884502 14.4381963,20.5996817 C14.8481111,20.3634958 15.1473196,19.9740424 15.2699107,19.517112 C15.3925018,19.0601816 15.3284184,18.5732596 15.0917772,18.1636074 L14.0103979,16.2801061 L22.9228647,12.9349602 C23.0864615,12.8734684 23.214688,12.7430686 23.2734218,12.5784615 C23.3319378,12.4158501 23.3167545,12.2358191 23.2318302,12.085305 L20.2728912,6.95172414 Z M6.23872679,17.1059947 C6.10207295,17.1849954 5.93960025,17.2063734 5.7871618,17.1654111 C5.63493606,17.1258666 5.50459923,17.0275798 5.42472149,16.8920955 C5.34572074,16.7554417 5.32434275,16.5929689 5.36530504,16.4405305 C5.40627646,16.2872829 5.5068266,16.1567817 5.64456233,16.0780902 L6.16148541,15.781008 L6.75564987,16.8089125 L6.23872679,17.1059947 Z M14.057931,18.7696552 C14.1369318,18.906309 14.1583098,19.0687817 14.1173475,19.2212202 C14.0749724,19.3722581 13.974587,19.5004097 13.8380902,19.5777188 C13.5556404,19.7399745 13.1952109,19.6445667 13.0300265,19.3638196 L11.8416976,17.302069 L12.8280106,16.7376127 L12.8755438,16.7376127 L14.057931,18.7696552 Z" id="Shape"></path>
                </g>
            </g>
        </g>
    </g>
</svg>