<?xml version="1.0" encoding="UTF-8"?>
<svg width="26px" height="26px" viewBox="0 0 26 26" version="1.1" xmlns="http://www.w3.org/2000/svg" xmlns:xlink="http://www.w3.org/1999/xlink">
    <!-- Generator: Sketch 64 (93537) - https://sketch.com -->
    <title>8-1-5</title>
    <desc>Created with Sketch.</desc>
    <g id="Page-1" stroke="none" stroke-width="1" fill="none" fill-rule="evenodd">
        <g id="廣告刊登_服務項目" transform="translate(-13.000000, -611.000000)" fill="#000000" fill-rule="nonzero">
            <g id="Group-10" transform="translate(0.000000, 600.000000)">
                <g id="8-1-5" transform="translate(13.000000, 11.000000)">
                    <path d="M13,0 L7.36666667,0 C7.12736001,0 6.93333333,0.194026679 6.93333333,0.433333333 L6.93333333,3.46666667 L0.433333333,3.46666667 C0.194026679,3.46666667 0,3.66069335 0,3.9 L0,25.5666667 C0,25.8059733 0.194026679,26 0.433333333,26 L13,26 C13.2393067,26 13.4333333,25.8059733 13.4333333,25.5666667 L13.4333333,0.433333333 C13.4333333,0.194026679 13.2393067,0 13,0 Z M12.5666667,22.5333333 L7.8,22.5333333 L7.8,21.6666667 L12.5666667,21.6666667 L12.5666667,22.5333333 Z M0.866666667,6.5 L6.93333333,6.5 L6.93333333,19.5 L0.866666667,19.5 L0.866666667,6.5 Z M12.5666667,4.76666667 L7.8,4.76666667 L7.8,3.46666667 L12.5666667,3.46666667 L12.5666667,4.76666667 Z M0.866666667,20.3666667 L6.93333333,20.3666667 L6.93333333,21.6666667 L0.866666667,21.6666667 L0.866666667,20.3666667 Z M7.8,20.8 L7.8,5.63333333 L12.5666667,5.63333333 L12.5666667,20.8 L7.8,20.8 Z M12.5666667,0.866666667 L12.5666667,2.6 L7.8,2.6 L7.8,0.866666667 L12.5666667,0.866666667 Z M6.93333333,4.33333333 L6.93333333,5.63333333 L0.866666667,5.63333333 L0.866666667,4.33333333 L6.93333333,4.33333333 Z M0.866666667,22.5333333 L6.93333333,22.5333333 L6.93333333,25.1333333 L0.866666667,25.1333333 L0.866666667,22.5333333 Z M7.8,25.1333333 L7.8,23.4 L12.5666667,23.4 L12.5666667,25.1333333 L7.8,25.1333333 Z" id="Shape"></path>
                    <path d="M25.9860352,23.7241536 L20.7860352,3.79082031 C20.7570475,3.67910156 20.6846843,3.58367512 20.5848145,3.52548831 C20.4851562,3.46751302 20.3664551,3.45164387 20.2549479,3.48147789 L13.7549479,5.21481123 C13.5247396,5.27617187 13.3872071,5.51188148 13.4472981,5.74251302 L18.6472981,25.6758464 C18.6762858,25.7875651 18.7488606,25.8829915 18.8487304,25.9409668 C18.9483887,25.9987304 19.0670898,26.014388 19.1783854,25.9843425 L25.6783854,24.2510091 C25.9081706,24.1896484 26.0454916,23.954362 25.9860352,23.7241536 L25.9860352,23.7241536 Z M15.0852051,8.58774415 L20.7479492,7.0780599 L20.951709,7.85797523 L15.289388,9.36998698 L15.0852051,8.58774415 Z M21.1704916,8.69882813 L23.6837402,18.3394369 L18.023112,19.8497558 L15.5098633,10.2085124 L21.1704916,8.69882813 Z M23.9044271,19.1783854 L24.3481282,20.8789225 L18.6853841,22.3886068 L18.2433756,20.6887044 L23.9044271,19.1783854 Z M20.0573242,4.43087564 L20.5291667,6.2399577 L14.8664225,7.74921875 L14.3950032,5.9409831 L20.0573242,4.43087564 Z M19.3760091,25.035791 L18.9041667,23.226709 L24.5669108,21.7166016 L25.0383301,23.5248373 L19.3760091,25.035791 Z" id="Shape"></path>
                    <path d="M5.63333333,7.8 L2.16666667,7.8 C1.92736001,7.8 1.73333333,7.99402668 1.73333333,8.23333333 L1.73333333,11.7 C1.73333333,11.9393067 1.92736001,12.1333333 2.16666667,12.1333333 L5.63333333,12.1333333 C5.87263999,12.1333333 6.06666667,11.9393067 6.06666667,11.7 L6.06666667,8.23333333 C6.06666667,7.99402668 5.87263999,7.8 5.63333333,7.8 Z M5.2,11.2666667 L2.6,11.2666667 L2.6,8.66666667 L5.2,8.66666667 L5.2,11.2666667 Z" id="Shape"></path>
                </g>
            </g>
        </g>
    </g>
</svg>