<?xml version="1.0" encoding="UTF-8"?>
<svg width="27px" height="28px" viewBox="0 0 27 28" version="1.1" xmlns="http://www.w3.org/2000/svg" xmlns:xlink="http://www.w3.org/1999/xlink">
    <!-- Generator: Sketch 64 (93537) - https://sketch.com -->
    <title>8-1-1</title>
    <desc>Created with Sketch.</desc>
    <g id="Page-1" stroke="none" stroke-width="1" fill="none" fill-rule="evenodd">
        <g id="廣告刊登_服務項目" transform="translate(-12.000000, -252.000000)" fill="#000000" fill-rule="nonzero">
            <g id="Group-3" transform="translate(0.000000, 240.000000)">
                <g id="8-1-1" transform="translate(12.000000, 12.000000)">
                    <path d="M23.2407109,0 L22.0370391,0 C21.5079375,0 21.5079375,0.8203125 22.0370391,0.8203125 L23.2407109,0.8203125 C24.4837578,0.8203125 25.4950937,1.82798438 25.4950937,3.06654688 L25.4950937,12.5587656 C25.4950937,13.7973828 24.4838125,14.8050547 23.2407109,14.8050547 L21.8755469,14.8050547 C21.7854766,14.8050547 21.6979219,14.8346953 21.6263359,14.8894375 L19.1213203,16.8055781 L19.1213203,15.2152109 C19.1213203,14.9886953 18.9377344,14.8050547 18.7111641,14.8050547 L13.7192891,14.8050547 C13.3105,14.8050547 12.917625,14.6971563 12.571125,14.4920234 L12.571125,9.88777344 C12.571125,9.02535156 12.131875,8.26339063 11.4648516,7.81260156 L11.4648516,3.06654688 C11.4648516,1.82798438 12.4761875,0.8203125 13.7192891,0.8203125 L19.4667266,0.8203125 C19.9957734,0.8203125 19.9957734,0 19.4667266,0 L13.7192891,0 C12.0238672,0 10.6445391,1.37566406 10.6445391,3.06654688 L10.6445391,7.45210156 C10.4567422,7.40725781 10.2610703,7.3828125 10.0597109,7.3828125 L2.55133594,7.3828125 C1.16659375,7.3828125 0.0399765625,8.50653125 0.0399765625,9.88777344 L0.0399765625,10.7734375 C0.0399765625,11.3024844 0.860289062,11.3024844 0.860289062,10.7734375 L0.860289062,9.88777344 C0.860289062,8.95885156 1.61885937,8.203125 2.55133594,8.203125 L10.0597656,8.203125 C10.9922422,8.203125 11.7508672,8.95885156 11.7508672,9.88777344 L11.7508672,14.6553203 C11.7459453,14.6915234 11.7461641,14.728 11.7508672,14.7639297 L11.7508672,17.3731797 C11.7508672,17.42475 11.74775,17.4761016 11.7431016,17.5271797 L10.89725,17.5271797 C9.96521094,17.5271797 9.18821094,18.1998906 9.02710156,19.0840234 C8.98980469,19.0980781 8.95398437,19.1177109 8.92078906,19.1433047 L7.08629687,20.5597656 L7.08629687,19.4679844 C7.08629687,19.2414687 6.90271094,19.0578281 6.67614062,19.0578281 L2.55133594,19.0578281 C1.61885937,19.0578281 0.860289062,18.3021016 0.860289062,17.3731797 L0.860289062,13.234375 C0.860289062,12.7053281 0.0399765625,12.7053281 0.0399765625,13.234375 L0.0399765625,17.3732344 C0.0399765625,18.7544766 1.16659375,19.8781953 2.55133594,19.8781953 L6.26603906,19.8781953 L6.26603906,21.3946797 C6.26603906,21.7236797 6.66553125,21.9210469 6.92688281,21.7193594 L8.99598437,20.1217734 L8.99598437,24.7360313 C8.99598437,25.7819297 9.84894531,26.6327578 10.8973047,26.6327578 L13.4142969,26.6327578 L13.4142969,27.5898438 C13.4142969,27.9187344 13.8137891,28.1163203 14.0750859,27.9145234 L15.7351797,26.6327578 L16.2256172,26.6327578 C17.2739766,26.6327578 18.1269375,25.781875 18.1269375,24.7360313 L18.1269375,24.0078125 C18.1269375,23.4787656 17.306625,23.4787656 17.306625,24.0078125 L17.306625,24.7360313 C17.306625,25.3296094 16.8217109,25.8124453 16.2256172,25.8124453 L15.5952344,25.8124453 C15.5045078,25.8124453 15.4163516,25.8425234 15.3446016,25.8979219 L14.2345547,26.7549297 L14.2345547,26.2225469 C14.2345547,25.9960313 14.0509687,25.8123906 13.8243984,25.8123906 L10.89725,25.8123906 C10.3012109,25.8123906 9.81624219,25.3295 9.81624219,24.7359766 L9.81624219,19.4239609 C9.81624219,18.8303828 10.3011562,18.3475469 10.89725,18.3475469 L16.2256172,18.3475469 C16.8216562,18.3475469 17.306625,18.8304375 17.306625,19.4239609 L17.306625,21.4375 C17.306625,21.9665469 18.1269375,21.9665469 18.1269375,21.4375 L18.1269375,19.4240156 C18.1269375,18.3781172 17.2739766,17.5272891 16.2256172,17.5272891 L12.5664766,17.5272891 C12.5695937,17.4760469 12.5711797,15.4044297 12.5711797,15.4044297 C12.9328281,15.5498438 13.3205625,15.6254219 13.7193437,15.6254219 L18.3010625,15.6254219 L18.3010625,17.6357344 C18.3010625,17.9639141 18.6988594,18.1615 18.9604297,17.9615078 L22.0145078,15.6254219 L23.2407656,15.6254219 C24.9361328,15.6254219 26.3154609,14.2497578 26.3154609,12.5588203 L26.3154609,3.06654688 C26.3154609,1.37566406 24.9360781,0 23.2407109,0 Z" id="Path"></path>
                    <path d="M19.5048437,3.03034375 C18.9840547,2.89739844 18.4533672,3.30886719 18.4533672,3.84699219 C18.4533672,4.4349375 18.2391016,5.00155469 17.8503281,5.44217187 L16.7202656,6.72092969 C16.6470938,6.60865625 16.5206563,6.53433594 16.3766641,6.53433594 L14.1705703,6.53433594 C13.944,6.53433594 13.7604141,6.71797656 13.7604141,6.94449219 L13.7604141,11.9082031 C13.7604141,12.1347188 13.944,12.3183594 14.1705703,12.3183594 L16.3766641,12.3183594 C16.5424219,12.3183594 16.6848281,12.2198672 16.7495234,12.0784453 C17.1961563,12.3513359 17.7137187,12.4988828 18.2403047,12.4988828 L22.1390859,12.4988828 C22.7348516,12.4988828 23.2263281,11.9819219 23.1983828,11.3876875 C23.1859688,11.1245313 23.1995313,7.59100781 23.1995313,7.51253125 C23.1995313,6.9278125 22.7238047,6.45203125 22.1402891,6.45203125 L20.1128594,6.44596094 L20.1968047,6.24717188 C20.5804375,5.33864844 20.5172734,4.28514844 20.0280391,3.42890625 C19.9138516,3.22885938 19.7279688,3.08738281 19.5048438,3.03034375 C19.2816094,2.97335938 19.7279688,3.08738281 19.5048438,3.03034375 C18.9841094,2.89739844 19.7279688,3.08738281 19.5048438,3.03034375 L19.5048437,3.03034375 Z M15.9665078,11.4980469 L14.5807266,11.4980469 L14.5807266,7.35464844 L15.9665078,7.35464844 L15.9665078,11.4980469 Z M22.1390859,7.27228906 C22.2715391,7.27228906 22.3792734,7.38002344 22.3792734,7.51247656 C22.3792734,7.59051562 22.3784531,7.80232031 22.3773594,8.08948437 C22.3712891,9.67498437 22.3672422,11.1765937 22.3789453,11.4261875 C22.3832109,11.5162578 22.3394062,11.5763047 22.3129375,11.6040859 C22.2671094,11.6521016 22.2053672,11.6785156 22.1390859,11.6785156 L18.2403047,11.6785156 C17.7755703,11.6785156 17.3207344,11.5174609 16.9594688,11.2250469 L16.7868203,11.0852656 L16.7868203,7.88435156 L18.4652344,5.98510937 C18.9865703,5.39426562 19.2736797,4.63492969 19.2736797,3.8469375 C19.2736797,3.82375 19.3053438,3.81773437 19.3158438,3.83578125 C19.6790781,4.47141406 19.7258906,5.2535 19.4411328,5.92796094 L19.1174375,6.694625 C19.0640078,6.82111719 19.0774609,6.965875 19.1530938,7.08039062 C19.2288359,7.19490625 19.3568047,7.26392187 19.4940156,7.26435937 L22.1390859,7.27228906 Z" id="Shape"></path>
                    <path d="M3.55200781,14.2459844 C3.3254375,14.2459844 3.14185156,14.429625 3.14185156,14.6561406 C3.14185156,14.8826563 3.3254375,15.0662969 3.55200781,15.0662969 L4.76103906,15.0662969 L4.53517969,16.4323359 C4.49821094,16.6557891 4.64947656,16.8669375 4.87292969,16.9039062 C4.895625,16.9076797 4.91810156,16.9095391 4.94030469,16.9095391 C5.13739844,16.9095391 5.31125,16.7670234 5.3445,16.5661562 L5.59245313,15.0663516 L6.58191406,15.0663516 L6.35605469,16.4323906 C6.31908594,16.6558437 6.47035156,16.8669922 6.69380469,16.9039609 C6.7165,16.9077344 6.73897656,16.9095391 6.76117969,16.9095391 C6.95827344,16.9095391 7.132125,16.7670781 7.165375,16.5662109 L7.41332812,15.0664062 L9.05903906,15.0664062 C9.28560937,15.0664062 9.46919531,14.8827656 9.46919531,14.65625 C9.46919531,14.4297344 9.28560937,14.2460937 9.05903906,14.2460937 L7.54895312,14.2460937 L7.71438281,13.2455312 L9.05903906,13.2455312 C9.28560937,13.2455312 9.46919531,13.0618906 9.46919531,12.835375 C9.46919531,12.6088594 9.28560937,12.4252187 9.05903906,12.4252187 L7.85000781,12.4252187 L8.07586719,11.0591797 C8.11283594,10.8357266 7.96157031,10.6245781 7.73811719,10.5876094 C7.51439062,10.5505312 7.30351562,10.7019062 7.26654687,10.9253594 L7.01859375,12.4251641 L6.02913281,12.4251641 L6.25499219,11.059125 C6.29196094,10.8356719 6.14069531,10.6245234 5.91724219,10.5875547 C5.69324219,10.5504766 5.48269531,10.7018516 5.44567187,10.9253047 L5.19771875,12.4251094 L3.55200781,12.4251094 C3.3254375,12.4251094 3.14185156,12.60875 3.14185156,12.8352656 C3.14185156,13.0617812 3.3254375,13.2454219 3.55200781,13.2454219 L5.06209375,13.2454219 L4.89666406,14.2459844 L3.55200781,14.2459844 Z M5.8935625,13.2454219 L6.88302344,13.2454219 L6.71759375,14.2459844 L5.72813281,14.2459844 L5.8935625,13.2454219 Z" id="Shape"></path>
                    <path d="M13.5564844,20.4638438 C13.2252969,20.1911719 12.7846797,20.0836016 12.3426953,20.1910625 C11.7762969,20.3286016 11.2047578,20.8580859 11.2047578,21.7308438 C11.2047578,22.2740547 11.403,22.7455703 11.8108047,23.1723516 C12.1439063,23.5209844 12.6246094,23.8525 13.3693438,24.2473437 C13.4294453,24.2792266 13.4954531,24.2951406 13.5614609,24.2951406 C13.6274688,24.2951406 13.6934766,24.2792266 13.7535781,24.2473437 C15.0528437,23.5585547 15.9181094,22.8670313 15.9181094,21.7308437 C15.9181094,20.8533281 15.3262812,20.3292578 14.7397031,20.1991563 C14.2990312,20.101375 13.8718125,20.2051719 13.5564844,20.4638437 L13.5564844,20.4638438 Z M15.0977422,21.7308438 C15.0977422,22.3436719 14.69125,22.7968672 13.5614062,23.4188281 C12.4315625,22.7968125 12.0250156,22.3436172 12.0250156,21.7308438 C12.0250156,21.2748594 12.2890469,21.0482344 12.5361797,20.9881875 C12.5817344,20.9771406 12.6305156,20.9709063 12.6806641,20.9709063 C12.8665469,20.9709063 13.0709141,21.0567656 13.1969141,21.3010547 C13.2687187,21.4400703 13.4138594,21.5262578 13.5695547,21.5230313 C13.7259063,21.5199141 13.8669453,21.4281484 13.9330625,21.2863984 C14.0657891,21.0019141 14.3449141,20.951875 14.5619141,21.0000547 C14.8210234,21.0574219 15.0977422,21.2796172 15.0977422,21.7308438 L15.0977422,21.7308438 Z" id="Shape"></path>
                </g>
            </g>
        </g>
    </g>
</svg>