<?xml version="1.0" encoding="UTF-8"?>
<svg width="120px" height="120px" viewBox="0 0 120 120" version="1.1" xmlns="http://www.w3.org/2000/svg" xmlns:xlink="http://www.w3.org/1999/xlink">
    <title>8-3-1</title>
    <g id="Page-1" stroke="none" stroke-width="1" fill="none" fill-rule="evenodd">
        <g id="廣告刊登_合作洽詢" transform="translate(-166.000000, -245.000000)">
            <g id="8-3-1" transform="translate(166.000000, 245.000000)">
                <g id="Oval-2" fill="#EEEEEE">
                    <circle id="Oval" cx="60" cy="60" r="60"></circle>
                </g>
                <g id="man-(1)" transform="translate(30.000000, 18.000000)" fill-rule="nonzero">
                    <polygon id="Path" fill="#EF4C35" points="33.3402246 67.9008086 35.0851699 63.2537813 29.7319941 59.3146855 24.3611484 63.2673984 26.3022461 67.9008086"></polygon>
                    <polygon id="Path" fill="#DD3E2B" points="26.3022461 67.9008086 26.4045371 68.1452695 24.0083984 83 35.6530391 83 33.2541445 68.1310039 33.3402246 67.9008086"></polygon>
                    <polygon id="Path" fill="#D2D2D7" points="25.50175 83 27.9270684 67.9648418 25.5834531 62.3683398 18.0638477 55.2188301 19.5359629 65.939123 24.3144609 83"></polygon>
                    <polygon id="Path" fill="#E4E4EA" points="35.3691855 83 40.2028008 65.7421602 41.6757266 55.0194355 33.8515176 62.3469414 31.7368008 67.9792695 34.1598496 83"></polygon>
                    <path d="M35.4803926,65.3579609 C37.0278887,66.4967793 37.9637461,65.4829473 38.3132539,64.9554434 L43.2434863,54.8218242 L36.8805313,50.6218945 L35.3785879,53.3263652 L29.782248,59.1357168 L24.3363457,53.8308496 L23.2808516,50.1624766 L16.2211504,54.8215 L21.0351504,64.716332 C21.1682422,64.9795977 22.144627,66.727623 24.0064531,65.3592578 L29.7319941,61.1455488 L35.1889199,65.1611602 C35.2754863,65.2138457 35.3711309,65.2773926 35.4803926,65.3579609 Z" id="Path" fill="#F5F5F7"></path>
                    <path d="M30.5438379,0 L29.0506484,0 C18.849916,0 10.5516992,8.29935156 10.5516992,18.4995977 L10.5516992,20.9669023 L10.5516992,23.2761504 L10.5516992,27.1779609 C10.5516992,27.1779609 14.7633008,26.760043 15.2814023,24.717627 L15.2786465,24.7155195 C15.4564805,24.522123 15.6051348,24.3018164 15.7100195,24.0554102 C18.0990254,23.9834336 29.2587969,23.896543 35.6316406,16.199752 C36.3922578,18.4247031 38.9649336,22.6376016 43.9154297,23.9643047 C44.0175586,24.2327578 44.1691309,24.4749492 44.354584,24.6847188 L44.3135703,24.7177891 C44.8313477,26.7602051 49.0432734,27.1779609 49.0432734,27.1779609 L49.0432734,23.2602637 L49.0432734,20.9669023 L49.0432734,18.4995977 C49.0432734,8.29935156 40.7442461,0 30.5438379,0 Z M44.4912422,23.3891406 L44.6694004,23.2601016 L44.6946895,23.2601016 L44.4045137,23.4750586 L44.4912422,23.3891406 Z M44.400623,23.4447441 L44.4205625,23.3818457 L44.4823262,23.2601016 L44.5074531,23.2601016 L44.4340176,23.4129707 L44.400623,23.4447441 Z M43.909918,23.8240801 L43.9031094,23.8143535 L44.3592852,23.4842988 L44.2516445,23.588373 L43.9181855,23.8349414 L43.909918,23.8240801 Z M44.286498,23.7169258 L44.1436797,24.0124512 C44.1425449,24.012127 44.1422207,24.012127 44.1410859,24.0114785 L44.1211465,24.0024004 C44.1179043,24.0009414 44.1141758,23.9986719 44.1114199,23.9972129 L44.344209,23.5343906 L44.3503691,23.5285547 L44.286498,23.7169258 Z" id="Shape" fill="#694B4B"></path>
                    <path d="M13.8123672,23.2759883 L13.8123672,20.9667402 L13.8123672,18.4994355 C13.8123672,8.59503906 21.636252,0.485517578 31.4276582,0.0225332031 C31.1342402,0.0084296875 30.8398496,-0.000162109375 30.5438379,-0.000162109375 L29.0506484,-0.000162109375 C18.849916,-0.000162109375 10.5516992,8.29918945 10.5516992,18.4994355 L10.5516992,20.9667402 L10.5516992,23.2759883 L10.5516992,27.1776367 C10.5516992,27.1776367 12.4127148,26.9920215 13.8125293,26.2686895 L13.8125293,23.2759883 L13.8123672,23.2759883 Z" id="Path" fill="#563B3B"></path>
                    <path d="M46.8214023,24.4958613 C46.1134707,24.2752305 45.3444238,24.4041074 44.7475371,24.8427754 C44.1511367,25.2817676 43.798873,25.9788379 43.798873,26.7195156 L43.798873,33.3567598 C43.798873,34.0971133 44.1509746,34.7936973 44.7475371,35.232041 C45.1528105,35.5304844 45.6373555,35.685623 46.1282227,35.685623 C46.3595527,35.685623 46.594125,35.651418 46.8207539,35.5799277 C47.2673652,35.4411621 47.705709,35.2403086 48.1242754,34.9835273 C48.3703574,34.8327656 48.5864492,34.6364512 48.7613652,34.4070664 C49.0181465,34.2744609 49.2481797,34.0954922 49.4399551,33.8790762 C50.381,32.8148281 50.8994258,31.4508398 50.8994258,30.0372461 C50.8994258,27.4830508 49.2608242,25.2559922 46.8214023,24.4958613 Z" id="Path" fill="#FBCB99"></path>
                    <path d="M14.9145488,24.8424512 C14.3178242,24.4037832 13.5481289,24.2750684 12.8410078,24.4950508 C10.4019102,25.2559922 8.76217383,27.4830508 8.76217383,30.037084 C8.76217383,32.592252 10.401748,34.8191484 12.8410078,35.5797656 C13.0677988,35.6510938 13.3017227,35.6854609 13.5343496,35.6854609 C14.0245684,35.6854609 14.5091133,35.5303223 14.9145488,35.2322031 C15.5117598,34.7935352 15.8636992,34.0969512 15.8636992,33.3564355 L15.8636992,26.7183809 C15.8636992,25.9785137 15.5117598,25.2814434 14.9145488,24.8424512 Z" id="Path" fill="#EDBA89"></path>
                    <path d="M36.1902695,44.9268301 C35.7323105,44.4886484 35.117916,44.2587773 34.4800156,44.2822832 L34.4009062,44.2860117 C34.2587363,44.290875 34.1170527,44.3093555 33.9778008,44.3396699 C33.0782559,44.539875 32.1615273,44.6415176 31.2551738,44.6415176 L28.4075605,44.6415176 C27.4736484,44.6415176 26.5306582,44.5340391 25.6035547,44.3216758 C24.9116719,44.1623223 24.1863945,44.3276738 23.6319805,44.7697461 C23.0770801,45.2116563 22.753834,45.8829512 22.753834,46.5915313 L22.753834,53.3667305 L22.7525371,53.3895879 C22.7157383,54.0616934 22.9707363,54.7169395 23.4526875,55.1870566 L28.132623,59.7455723 C28.5677246,60.1693262 29.1511562,60.4055195 29.7572832,60.4055195 C29.7699277,60.4055195 29.7828965,60.4055195 29.7950547,60.4055195 C30.4149609,60.3953066 31.0056875,60.1388496 31.4352773,59.6919141 L36.2567344,54.6872734 C36.6751387,54.2533066 36.9085762,53.6740898 36.9085762,53.0718535 L36.9085762,46.6095254 C36.9084141,45.9740566 36.6492012,45.3663086 36.1902695,44.9268301 Z" id="Path" fill="#FBCB99"></path>
                    <path d="M30.2295078,59.0459082 L25.5490859,54.4878789 C25.0671348,54.0180859 24.8118125,53.3631641 24.8486113,52.6905723 L24.8507187,52.6675527 L24.8507187,45.8923535 C24.8507187,45.2964395 25.0814004,44.7290566 25.483918,44.3007637 C24.828834,44.1863145 24.1546211,44.3537734 23.6323047,44.769584 C23.0774043,45.2114941 22.7541582,45.8827891 22.7541582,46.5913691 L22.7541582,53.3665684 L22.7528613,53.3894258 C22.7160625,54.0615313 22.9710605,54.7167773 23.4530117,55.1868945 L28.1329473,59.7454102 C28.5680488,60.1691641 29.1514805,60.4053574 29.7576074,60.4053574 C29.770252,60.4053574 29.7832207,60.4053574 29.7953789,60.4053574 C30.4152852,60.3951445 31.0060117,60.1386875 31.4354395,59.691752 L31.4561895,59.6700293 C30.9966094,59.5907578 30.567668,59.3759629 30.2295078,59.0459082 Z" id="Path" fill="#EDBA89"></path>
                    <path d="M43.4477441,22.5948047 C43.165998,22.4897578 42.9001387,22.3675273 42.6406016,22.2373535 C38.7267949,20.4111914 37.1022969,18.0359648 36.4483477,16.6189668 C36.4096035,16.5654707 36.3705352,16.5064629 36.3308184,16.4323789 C35.8631328,15.5723887 35.134127,16.116752 35.134127,16.116752 L35.1308848,16.1149687 C31.4759668,18.9183262 27.4836992,20.5577383 24.1646719,21.5115898 C22.8726602,21.8933574 21.6349551,22.1694297 20.5155898,22.3701211 C18.2909629,22.7786367 16.8606719,22.8321328 16.8606719,22.8321328 C15.6420957,22.919834 14.6982949,23.9343145 14.6982949,25.1558086 L14.6982949,34.6594707 C14.6982949,42.218793 20.8487246,48.3684121 28.4073984,48.3684121 L31.2550117,48.3684121 C38.8135234,48.3684121 44.9634668,42.2189551 44.9634668,34.6594707 L44.9634668,24.7771211 C44.9634668,23.8041406 44.3586367,22.9345859 43.4477441,22.5948047 Z" id="Path" fill="#FBCB99"></path>
                    <path d="M17.4935469,34.6594707 L17.4935469,25.1558086 C17.4935469,23.9343145 18.4370234,22.9199961 19.6554375,22.8321328 C19.6554375,22.8321328 21.0852422,22.7786367 23.3103555,22.3701211 C24.430207,22.1694297 25.6679121,21.8933574 26.960248,21.5115898 C29.8970215,20.6668379 33.3621094,19.2840449 36.6547129,17.0341289 C36.5772246,16.8885547 36.5083281,16.7497891 36.4481855,16.6188047 C36.4094414,16.5653086 36.370373,16.5063008 36.3306563,16.4322168 C35.8629707,15.5722266 35.1339648,16.1165898 35.1339648,16.1165898 L35.1307227,16.1148066 C31.4758047,18.9181641 27.4835371,20.5575762 24.1645098,21.5114277 C22.872498,21.8931953 21.634793,22.1692676 20.5154277,22.369959 C18.2908008,22.7784746 16.8605098,22.8319707 16.8605098,22.8319707 C15.6419336,22.9196719 14.6981328,23.9341523 14.6981328,25.1556465 L14.6981328,34.6593086 C14.6981328,42.2186309 20.8485625,48.36825 28.4072363,48.36825 L31.2013535,48.36825 C23.6433281,48.36825 17.4935469,42.218793 17.4935469,34.6594707 Z" id="Path" fill="#EDBA89"></path>
                    <g id="Group" transform="translate(0.000000, 53.820312)" fill="#324A5E">
                        <path d="M3.14232813,29.1796875 L25.845584,29.1796875 L17.7099629,0.135037109 L9.31934375,3.63157422 L9.30799609,3.63578906 C5.90013281,4.83199414 0.133091797,9.17133789 0.133091797,17.8451621 L0.133091797,26.1738555 C0.178158203,27.0722656 0.558304688,29.1796875 3.14232813,29.1796875 Z" id="Path"></path>
                        <path d="M59.1991016,26.2748496 L59.1991016,17.8456484 C59.1991016,9.06515625 53.2010547,4.71446484 50.0117148,3.63141211 L41.9367227,0.266669922 L33.8375762,29.1798496 L56.1960254,29.1798496 C58.6878086,29.1798496 59.1303672,27.219623 59.1991016,26.2748496 Z" id="Path"></path>
                    </g>
                    <g id="Group" transform="translate(0.000000, 53.820312)" fill="#283D4C">
                        <path d="M17.7099629,0.135199219 L9.31934375,3.63173633 L9.30799609,3.63595117 C5.90013281,4.83215625 0.133091797,9.1715 0.133091797,17.8453242 L0.133091797,26.1740176 C0.178158203,27.0721035 0.558466797,29.1795254 3.14232813,29.1795254 L3.5189082,29.1795254 L3.5189082,17.8453242 C3.5189082,9.17133789 9.28578711,4.83199414 12.6938125,3.63595117 L12.704998,3.63173633 L18.0638477,1.39851758 L17.7099629,0.135199219 Z" id="Path"></path>
                        <path d="M49.7439102,29.1796875 L49.7439102,17.6002148 C49.7439102,16.8729922 49.1544805,16.2837246 48.4274199,16.2837246 C47.7001973,16.2837246 47.1109297,16.8729922 47.1109297,17.6002148 L47.1109297,29.1796875 L49.7439102,29.1796875 Z" id="Path"></path>
                        <path d="M12.5509941,29.1796875 L12.5509941,17.6002148 C12.5509941,16.8729922 11.9617266,16.2837246 11.2345039,16.2837246 C10.5072813,16.2837246 9.91801367,16.8729922 9.91801367,17.6002148 L9.91801367,29.1796875 L12.5509941,29.1796875 Z" id="Path"></path>
                    </g>
                    <path d="M31.1673105,35.7752695 C31.651207,35.7752695 32.0449707,36.1690332 32.0449707,36.6529297 C32.0449707,37.1368262 31.651207,37.5305898 31.1673105,37.5305898 L28.9246895,37.5305898 C28.440793,37.5305898 28.0470293,37.1368262 28.0470293,36.6529297 L28.0470293,32.3748633 C28.0470293,31.8909668 28.440793,31.4972031 28.9246895,31.4972031 C29.4085859,31.4972031 29.8023496,31.8909668 29.8023496,32.3748633 L29.8023496,35.7752695 L31.1673105,35.7752695 L31.1673105,35.7752695 Z" id="Path" fill="#EDBA89"></path>
                </g>
            </g>
        </g>
    </g>
</svg>