<?xml version="1.0" encoding="UTF-8"?>
<svg width="120px" height="120px" viewBox="0 0 120 120" version="1.1" xmlns="http://www.w3.org/2000/svg" xmlns:xlink="http://www.w3.org/1999/xlink">
    <title>8-3-2</title>
    <g id="Page-1" stroke="none" stroke-width="1" fill="none" fill-rule="evenodd">
        <g id="廣告刊登_合作洽詢" transform="translate(-496.000000, -245.000000)">
            <g id="8-3-2" transform="translate(496.000000, 245.000000)">
                <circle id="Oval-Copy" fill="#EEEEEE" cx="60" cy="60" r="60"></circle>
                <g id="woman" transform="translate(31.000000, 19.000000)" fill-rule="nonzero">
                    <path d="M48.9142812,46.7563359 C48.9986836,46.6137969 49.0834063,46.4994453 49.1676484,46.4076758 C52.3784609,41.4000703 54.1304102,35.2728125 54.1304102,28.9469609 C54.1304102,12.9856289 43.1260742,0 29.6002383,0 C16.0747227,0 5.07054687,12.9856289 5.07054687,28.9469609 C5.07054687,35.3442422 6.86253516,41.5366836 10.1433359,46.5740781 C10.1780898,46.6226055 10.2131641,46.675457 10.2480781,46.7329531 C10.3542617,46.89375 10.4620469,47.0532656 10.5711133,47.2115 C11.7979102,48.8031328 13.3708047,48.4355742 13.8248477,48.2848672 C13.8672891,48.2688516 13.9105313,48.2531562 13.9534531,48.2373008 L13.9539336,48.2371406 C15.5742344,47.6370352 17.3734297,47.1323828 19.3172461,46.7351953 L22.7148008,46.0407578 L20.1523008,43.7040781 C18.0675469,41.8038242 16.7108633,39.2265898 16.3327344,36.4473984 L16.1411875,35.0429883 L14.7282891,34.9279961 C12.4015391,34.7388516 10.5789609,32.7609219 10.5789609,30.425043 C10.5789609,28.0971719 12.3232227,26.1636055 14.6363594,25.9276953 L16.1935586,25.7686602 L16.2146992,24.5300117 C17.7843906,24.0674805 24.7047422,21.830418 29.5667656,17.0697734 C30.7123633,18.406918 35.0075937,22.8272305 42.9878594,24.5545156 L43.0081992,25.7688203 L44.5661992,25.9278555 C46.878375,26.1640859 48.6223164,28.0974922 48.6223164,30.425043 C48.6223164,32.7607617 46.7997383,34.7385312 44.4731484,34.9279961 L43.06025,35.0429883 L42.8687031,36.4478789 C42.4904141,39.2261094 41.1342109,41.8031836 39.0496172,43.7037578 L36.4871172,46.0402773 L39.8849922,46.7343945 C41.9151328,47.1493594 43.788,47.6821992 45.4656367,48.3189805 C46.0798359,48.4925898 47.7408164,48.7318633 48.9142812,46.7563359 Z" id="Path" fill="#694B4B"></path>
                    <path d="M36.2005977,52.2879727 L36.2005977,45.8796406 L33.9915625,46.4562031 C33.0025977,46.7145352 31.9804805,46.845543 30.9537188,46.845543 L28.2481992,46.845543 C27.2153516,46.845543 26.1865078,46.7126133 25.1904961,46.4505977 L22.9782578,45.8684297 L22.9782578,52.2836484 L16.3991992,53.8579844 L17.829875,58.9650469 L18.4230937,59.3257187 C19.311,59.8664062 21.7327227,61.2025898 25.0353047,61.9266562 C26.5886602,62.2671484 28.1545078,62.439957 29.6892852,62.439957 L29.6899258,62.439957 C33.4947578,62.439957 37.2183906,61.3896523 40.7568828,59.3185117 L41.3723633,58.9588008 L42.7767734,53.9454297 L36.2005977,52.2879727 Z" id="Path" fill="#FBCB99"></path>
                    <path d="M27.1516094,61.9264961 C23.8488672,61.2022695 21.4273047,59.8662461 20.5393984,59.3255586 L20.5393984,59.3255586 L19.1317852,54.1541133 L24.5237656,52.8546055 L24.5237656,46.6825039 L22.9782578,45.8682695 L22.9782578,52.2834883 L16.3991992,53.8578242 L17.829875,58.9648867 L18.4230937,59.3255586 C19.311,59.8662461 21.7327227,61.2024297 25.0353047,61.9264961 C26.5886602,62.2669883 28.1545078,62.4397969 29.6892852,62.4397969 L29.6899258,62.4397969 C30.0365039,62.4397969 30.3819609,62.4281055 30.7269375,62.4106484 C29.5408203,62.3489883 28.3428516,62.1875508 27.1516094,61.9264961 Z" id="Path" fill="#EDBA89"></path>
                    <path d="M38.3465312,60.0710859 C35.543957,61.3409648 32.6114961,61.984793 29.6303477,61.984793 C28.0874023,61.984793 26.5358086,61.8121445 25.0191289,61.471332 C23.593418,61.1510195 22.1915703,60.6873672 20.8526641,60.0928672 L18.2759102,58.9487109 L24.7960312,82.0003203 L34.4054062,82.0003203 L40.9402617,58.8960195 L38.3465312,60.0710859 Z" id="Path" fill="#F5F5F7"></path>
                    <polygon id="Path" fill="#D2D2D7" points="18.2755898 58.9483906 24.7958711 82 26.9118555 82 20.6958711 60.0230391"></polygon>
                    <g id="Group" transform="translate(0.000000, 53.492188)" fill="#324A5E">
                        <path d="M52.0378086,4.01127344 C51.2528828,3.56267578 50.3649766,3.13890234 49.4371914,2.74523828 L49.0174219,2.57050781 C46.1619961,1.40136719 43.0246953,0.522910156 41.3754062,0.0956132813 L33.4169219,28.5078125 L55.8791563,28.5078125 C58.3823984,28.5078125 58.8271523,26.5385312 58.8960195,25.5892852 L58.8960195,17.1208633 C58.8960195,10.1973086 55.1843984,6.01626953 52.0378086,4.01127344 Z" id="Path"></path>
                        <path d="M17.5622539,0.0957734375 C15.9129648,0.523070313 12.7755039,1.40136719 9.92023828,2.57066797 L9.50046875,2.74539844 C8.57268359,3.1390625 7.68477734,3.56283594 6.89985156,4.01143359 C3.75326172,6.01642969 0.0414804687,10.1974687 0.0414804687,17.1210234 L0.0414804687,25.5894453 C0.110828125,26.5385313 0.555261719,28.5078125 3.05850391,28.5078125 L25.5207383,28.5078125 L17.5622539,0.0957734375 Z" id="Path"></path>
                    </g>
                    <g id="Group" transform="translate(0.000000, 53.492188)" fill="#283D4C">
                        <path d="M2.95151953,25.5892852 L2.95151953,21.1113164 L2.95151953,17.1207031 C2.95151953,10.1971484 6.66346094,6.01610937 9.80989063,4.01111328 C10.5948164,3.56251562 11.4827227,3.13874219 12.4105078,2.74507812 L12.8302773,2.57034766 C14.5005469,1.88648047 16.2653086,1.30319141 17.7741406,0.850269531 L17.5627344,0.095453125 C15.9134453,0.52275 12.7759844,1.40104687 9.92071875,2.57034766 L9.50094922,2.74507812 C8.57316406,3.13874219 7.68525781,3.56235547 6.90033203,4.01111328 C3.75374219,6.01610938 0.0418007812,10.1971484 0.0418007812,17.1207031 L0.0418007812,25.589125 C0.109867187,26.5244375 0.544050781,28.4487148 2.95151953,28.5049297 C2.95151953,28.5049297 2.95151953,25.5892852 2.95151953,25.5892852 Z" id="Path"></path>
                        <path d="M49.3971523,28.5078125 L49.3971523,16.874543 C49.3971523,16.1439102 48.8052148,15.5519727 48.074582,15.5519727 C47.3439492,15.5519727 46.7520117,16.1439102 46.7520117,16.874543 L46.7520117,28.5078125 L49.3971523,28.5078125 Z" id="Path"></path>
                        <path d="M12.031418,28.5078125 L12.031418,16.874543 C12.031418,16.1439102 11.4394805,15.5519727 10.7088477,15.5519727 C9.97821484,15.5519727 9.38627734,16.1439102 9.38627734,16.874543 L9.38627734,28.5078125 L12.031418,28.5078125 Z" id="Path"></path>
                    </g>
                    <path d="M45.4746055,24.8668203 C44.7633516,24.6451641 43.990918,24.7745703 43.3911328,25.2153203 C42.7921484,25.6563906 42.438043,26.3565937 42.438043,27.1008398 L42.438043,33.7689453 C42.438043,34.5127109 42.7918281,35.2124336 43.3911328,35.6530234 C43.79825,35.9528359 44.2849648,36.108668 44.7782461,36.108668 C45.0106328,36.108668 45.2462227,36.0742344 45.4739648,36.0024844 C45.9225625,35.8629883 46.3631523,35.6611914 46.7835625,35.4033398 C47.0308438,35.251832 47.2478555,35.0546797 47.423707,34.8242148 C47.6817188,34.691125 47.9126641,34.5112695 48.1054922,34.2937773 C49.0508945,33.2245742 49.5717227,31.8542773 49.5717227,30.4341719 C49.5717227,27.8681484 47.9253164,25.6306055 45.4746055,24.8668203 Z" id="Path" fill="#FBCB99"></path>
                    <path d="M15.7854805,25.2151602 C15.1858555,24.7744102 14.4126211,24.6451641 13.7023281,24.8661797 C11.2517773,25.6306055 9.60457031,27.8681484 9.60457031,30.4338516 C9.60457031,33.0008359 11.2517773,35.2382187 13.7023281,36.0023242 C13.9302305,36.0739141 14.1651797,36.1085078 14.3988477,36.1085078 C14.8913281,36.1085078 15.378043,35.9526758 15.7854805,35.6531836 C16.3854258,35.2124336 16.7390508,34.5125508 16.7390508,33.7687852 L16.7390508,27.1000391 C16.7392109,26.3564336 16.3855859,25.6562305 15.7854805,25.2151602 Z" id="Path" fill="#EDBA89"></path>
                    <path d="M43.8511016,24.9571484 C43.8511016,24.9571484 43.8608711,24.9087812 43.8643945,24.8319062 L43.8643945,24.7153125 C43.8499805,24.4355195 43.7268203,23.977793 43.1457734,23.6939961 L42.5128359,23.542168 C36.3897422,22.071293 32.7244063,19.1063203 30.9884727,17.3335508 C30.9884727,17.3335508 30.9883125,17.3333906 30.9881523,17.3332305 C29.5116719,15.9813516 27.9807383,17.3332305 27.9807383,17.3332305 L27.9805781,17.3330703 C23.8101094,20.9607695 18.6383438,22.8499727 16.5689648,23.5037305 L16.2917344,23.5911758 C16.2912539,23.5913359 16.2910938,23.5914961 16.2910938,23.5914961 C15.5856055,23.8232422 15.3854102,24.2737617 15.3367227,24.5942344 L15.3367227,34.8160469 C15.3367227,41.9353125 21.1287734,47.7273633 28.2481992,47.7273633 L30.9537188,47.7273633 C38.0728242,47.7273633 43.8643945,41.9353125 43.8643945,34.8160469 L43.8643945,24.9462578 L43.8511016,24.9571484 Z" id="Path" fill="#FBCB99"></path>
                    <g id="Group" transform="translate(15.214844, 16.656250)" fill="#EDBA89">
                        <path d="M15.2813086,0.322554687 C13.9755547,-0.3895 12.7658945,0.676980469 12.7658945,0.676980469 L12.7657344,0.676820312 C8.59526563,4.30451953 3.4235,6.19372266 1.35412109,6.84748047 L1.07689063,6.93492578 C1.07641016,6.93508594 1.07625,6.93524609 1.07625,6.93524609 C0.370761719,7.16699219 0.170566406,7.61751172 0.121878906,7.93798437 L0.121878906,18.1597969 C0.121878906,25.2790625 5.91392969,31.0711133 13.0333555,31.0711133 L15.1495,31.0711133 C8.03007422,31.0711133 2.23802344,25.2790625 2.23802344,18.1597969 L2.23802344,8.68335156 C2.23802344,7.51853516 3.09245703,7.00907812 3.58205469,6.81176562 C3.6874375,6.77813281 3.79810547,6.74209766 3.91694141,6.70253906 L3.91790234,6.70237891 L3.91758203,6.70237891 C6.28325,5.91537109 11.2692344,3.95585937 15.2244531,0.373964844 L15.2813086,0.322554687 Z" id="Path"></path>
                        <path d="M15.5194609,17.8997031 C16.0056953,17.8997031 16.4011211,18.2952891 16.4011211,18.7813633 C16.4011211,19.2674375 16.0055352,19.6630234 15.5194609,19.6630234 L13.266543,19.6630234 C12.7803086,19.6630234 12.3848828,19.2674375 12.3848828,18.7813633 L12.3848828,14.4835703 C12.3848828,13.9973359 12.7804688,13.6019102 13.266543,13.6019102 C13.7526172,13.6019102 14.1482031,13.9974961 14.1482031,14.4835703 L14.1482031,17.8997031 L15.5194609,17.8997031 Z" id="Path"></path>
                    </g>
                    <path d="M10.2480781,46.7331133 C10.3542617,46.8939102 10.4620469,47.0534258 10.5711133,47.2116602 C11.8465977,48.866875 13.4965273,48.4033828 13.8735352,48.2683711 C13.9007617,48.2581211 13.9268672,48.2475508 13.9539336,48.2373008 L13.7417266,47.9501406 C9.85585547,42.6883672 7.71584766,35.9397031 7.71584766,28.9469609 C7.71584766,13.5091797 18.0097305,0.856035156 30.9229688,0.04228125 C30.4851016,0.0148945313 30.0443516,0 29.6005586,0 C16.0748828,0 5.07070703,12.9856289 5.07070703,28.9469609 C5.07070703,35.3442422 6.86269531,41.5366836 10.1434961,46.5740781 C10.1780898,46.6226055 10.2131641,46.6756172 10.2480781,46.7331133 Z" id="Path" fill="#563B3B"></path>
                </g>
            </g>
        </g>
    </g>
</svg>